<svg width="112" height="91" viewBox="0 0 112 91" fill="none" xmlns="http://www.w3.org/2000/svg">
<path d="M112 79.9695H0V80.0306H112V79.9695Z" fill="#E0E0E0"/>
<path d="M95.0007 83.3967H92.624V83.4577H95.0007V83.3967Z" fill="#E0E0E0"/>
<path d="M90.9798 83.4258H81.3142V83.4869H90.9798V83.4258Z" fill="#E0E0E0"/>
<path d="M69.3659 82.8444H53.0542V82.9055H69.3659V82.8444Z" fill="#E0E0E0"/>
<path d="M43.671 83.9047H38.4944V83.9657H43.671V83.9047Z" fill="#E0E0E0"/>
<path d="M26.4206 82.8739H19.293V82.935H26.4206V82.8739Z" fill="#E0E0E0"/>
<path d="M34.3256 82.8739H27.6638V82.935H34.3256V82.8739Z" fill="#E0E0E0"/>
<path d="M21.4279 81.8066H14.625V81.8676H21.4279V81.8066Z" fill="#E0E0E0"/>
<path d="M53.088 69.0757H9.83588C9.49705 69.0751 9.17229 68.9278 8.93291 68.6663C8.69353 68.4049 8.55908 68.0505 8.55908 67.681V1.38249C8.56203 1.01514 8.69778 0.663884 8.93685 0.40503C9.17591 0.146177 9.49898 0.000629299 9.83588 0H53.088C53.4273 0 53.7526 0.146942 53.9925 0.408499C54.2323 0.670057 54.3671 1.02481 54.3671 1.3947V67.681C54.3671 68.0509 54.2323 68.4057 53.9925 68.6672C53.7526 68.9288 53.4273 69.0757 53.088 69.0757ZM9.83588 0.0488515C9.5119 0.0494985 9.20139 0.190292 8.97251 0.440328C8.74363 0.690363 8.61508 1.02921 8.61508 1.38249V67.681C8.61508 68.0343 8.74363 68.3731 8.97251 68.6232C9.20139 68.8732 9.5119 69.014 9.83588 69.0146H53.088C53.4122 69.014 53.723 68.8733 53.9522 68.6233C54.1814 68.3734 54.3105 68.0345 54.3111 67.681V1.38249C54.3105 1.02899 54.1814 0.690145 53.9522 0.440178C53.723 0.190212 53.4122 0.0494971 53.088 0.0488515H9.83588Z" fill="#E0E0E0"/>
<path d="M101.541 69.0757H58.2871C57.9481 69.0751 57.6231 68.9279 57.3833 68.6665C57.1436 68.4051 57.0086 68.0507 57.0081 67.681V1.38249C57.0116 1.01491 57.1478 0.663663 57.3873 0.404878C57.6267 0.146092 57.95 0.000622436 58.2871 0H101.541C101.878 0.00127123 102.201 0.147103 102.439 0.405888C102.678 0.664672 102.813 1.01556 102.816 1.38249V67.681C102.816 68.0501 102.682 68.4041 102.443 68.6655C102.204 68.9269 101.88 69.0744 101.541 69.0757ZM58.2871 0.0488515C57.9629 0.0494971 57.6522 0.190212 57.4229 0.440178C57.1937 0.690145 57.0646 1.02899 57.0641 1.38249V67.681C57.0646 68.0345 57.1937 68.3734 57.4229 68.6233C57.6522 68.8733 57.9629 69.014 58.2871 69.0146H101.541C101.866 69.014 102.176 68.8733 102.406 68.6233C102.635 68.3734 102.764 68.0345 102.765 67.681V1.38249C102.764 1.02899 102.635 0.690145 102.406 0.440178C102.176 0.190212 101.866 0.0494971 101.541 0.0488515H58.2871Z" fill="#E0E0E0"/>
<path d="M39.946 56.0837C40.0692 56.0837 40.1924 56.0837 40.3178 56.096C41.0983 56.156 41.857 56.4037 42.5394 56.8211C43.2218 57.2386 43.8111 57.8155 44.265 58.5104C44.7188 59.2054 45.0261 60.0013 45.1647 60.841C45.3033 61.6808 45.2698 62.5435 45.0666 63.3675C44.488 65.8278 44.2085 68.3605 44.2356 70.9003V78.2964C44.2356 78.5555 44.1412 78.8041 43.9732 78.9873C43.8051 79.1705 43.5772 79.2734 43.3396 79.2734H21.8154V56.0837H39.946Z" fill="#E6E6E6"/>
<path d="M16.5132 61.8654C16.5139 61.0425 16.6756 60.2293 16.9877 59.48C17.2997 58.7308 17.7548 58.0628 18.3226 57.5207C18.8904 56.9786 19.5577 56.5749 20.28 56.3367C21.0024 56.0984 21.763 56.031 22.5112 56.139C23.2593 56.247 23.9776 56.5279 24.6182 56.9629C25.2588 57.3979 25.8068 57.9771 26.2257 58.6616C26.6446 59.3461 26.9246 60.1202 27.0471 60.9322C27.1696 61.7442 27.1317 62.5753 26.9359 63.3701C26.3573 65.8304 26.0779 68.3631 26.1049 70.9029V78.299C26.1049 78.5581 26.0105 78.8066 25.8425 78.9899C25.6744 79.1731 25.4465 79.276 25.2089 79.276H18.4172C18.1796 79.276 17.9517 79.1731 17.7836 78.9899C17.6156 78.8066 17.5212 78.5581 17.5212 78.299V70.4682C17.5408 68.0864 17.265 65.7127 16.7014 63.4116C16.5748 62.9078 16.5115 62.3877 16.5132 61.8654Z" fill="#F0F0F0"/>
<path d="M29.1223 79.2686H56.345V65.1921H29.1223V79.2686Z" fill="#E6E6E6"/>
<path d="M72.3162 68.3748H38.5526V52.7081C38.5526 51.5473 38.9756 50.434 39.7283 49.6131C40.4811 48.7922 41.5021 48.3311 42.5667 48.3311H68.3088C69.3722 48.333 70.3915 48.795 71.1428 49.6157C71.8942 50.4363 72.3162 51.5485 72.3162 52.7081V68.3748Z" fill="#E0E0E0"/>
<path d="M67.2627 68.3748H33.5014V52.4981C33.5014 51.3936 33.9038 50.3343 34.62 49.5533C35.3363 48.7723 36.3077 48.3335 37.3206 48.3335H63.4435C64.4564 48.3335 65.4278 48.7723 66.1441 49.5533C66.8603 50.3343 67.2627 51.3936 67.2627 52.4981V68.3748Z" fill="#F0F0F0"/>
<path d="M55.0793 69.6376H29.3708C29.0619 69.6376 28.7656 69.5038 28.5472 69.2656C28.3288 69.0274 28.206 68.7044 28.206 68.3675V65.1751C28.206 64.8382 28.3288 64.5152 28.5472 64.277C28.7656 64.0388 29.0619 63.9049 29.3708 63.9049H55.0793C55.1714 63.9049 55.2597 63.9448 55.3248 64.0158C55.3899 64.0868 55.4265 64.1831 55.4265 64.2835L55.4265 69.259C55.4265 69.3595 55.3899 69.4557 55.3248 69.5267C55.2597 69.5977 55.1714 69.6376 55.0793 69.6376Z" fill="#E0E0E0"/>
<path d="M74.2204 56.0837C74.3436 56.0837 74.469 56.0837 74.5944 56.096C75.375 56.156 76.1336 56.4037 76.816 56.8211C77.4984 57.2386 78.0877 57.8155 78.5416 58.5104C78.9955 59.2054 79.3027 60.0013 79.4413 60.841C79.5799 61.6808 79.5464 62.5435 79.3432 63.3675C78.7627 65.8275 78.4826 68.3603 78.51 70.9003V78.2964C78.51 78.5555 78.4156 78.8041 78.2475 78.9873C78.0795 79.1705 77.8516 79.2734 77.614 79.2734H56.092V56.0837H74.2204Z" fill="#E6E6E6"/>
<path d="M50.7874 61.8654C50.7955 60.3699 51.3344 58.9359 52.2912 57.8644C53.248 56.7928 54.5482 56.1671 55.919 56.1184C57.2898 56.0698 58.6246 56.602 59.6433 57.6034C60.662 58.6047 61.2854 59.9975 61.3826 61.4893C61.4199 62.1221 61.3624 62.7573 61.2124 63.37C60.6337 65.8304 60.3543 68.3631 60.3813 70.9029V78.299C60.3813 78.5581 60.2869 78.8066 60.1189 78.9898C59.9509 79.1731 59.723 79.276 59.4853 79.276H52.6914C52.4538 79.276 52.2259 79.1731 52.0579 78.9898C51.8898 78.8066 51.7954 78.5581 51.7954 78.299V70.4681C51.8154 68.0862 51.5388 65.7124 50.9733 63.4116C50.8476 62.9077 50.785 62.3876 50.7874 61.8654Z" fill="#F0F0F0"/>
<path d="M22.1939 79.9721H73.8416C73.9265 79.9724 74.0107 79.9544 74.0892 79.9192C74.1677 79.884 74.2391 79.8323 74.2993 79.7669C74.3594 79.7015 74.4071 79.6239 74.4397 79.5384C74.4722 79.4529 74.489 79.3612 74.489 79.2686H21.5488C21.5488 79.4552 21.6168 79.6341 21.7378 79.766C21.8588 79.898 22.0229 79.9721 22.1939 79.9721Z" fill="#E0E0E0"/>
<path d="M92.4202 78.9731H97.0659V52.4933H92.4202V78.9731Z" fill="#E6E6E6"/>
<path d="M75.9247 79.9695H96.1743V78.9754H75.9247V79.9695Z" fill="#E6E6E6"/>
<path d="M92.4201 52.4932H75.0332V78.9731H92.4201V52.4932Z" fill="#F0F0F0"/>
<path d="M91.7617 53.3652H75.6919V70.214H91.7617V53.3652Z" fill="#E6E6E6"/>
<path d="M91.7617 70.9297H75.6919V77.0019H91.7617V70.9297Z" fill="#E6E6E6"/>
<path d="M79.081 53.3652H75.6919V70.214H79.081V53.3652Z" fill="#E0E0E0"/>
<path d="M79.081 70.9297H75.6919V77.0019H79.081V70.9297Z" fill="#E0E0E0"/>
<path d="M38.3826 40.1143L78.6667 40.1143V8.24862L38.3826 8.24862L38.3826 40.1143Z" fill="#E0E0E0"/>
<path d="M35.4971 40.1143L77.9294 40.1143V8.24862L35.4971 8.24862L35.4971 40.1143Z" fill="#F0F0F0"/>
<path d="M77.0315 39.1324V9.23053L36.4001 9.23053V39.1324H77.0315Z" fill="#FAFAFA"/>
<path d="M58.4762 24.4076C59.1087 20.1162 56.4311 16.0783 52.4956 15.3886C48.5601 14.6989 44.857 17.6187 44.2245 21.9101C43.5921 26.2014 46.2697 30.2394 50.2052 30.9291C54.1407 31.6187 57.8438 28.699 58.4762 24.4076Z" fill="#E0E0E0"/>
<path d="M39.4711 32.2419C40.1275 31.3382 41.4446 30.642 42.419 30.686C42.5627 30.6804 42.7061 30.7059 42.8407 30.7613C42.9753 30.8167 43.0984 30.9007 43.203 31.0084C44.9815 29.8849 47.0289 29.196 48.7201 29.2718C49.5802 29.3084 50.2478 29.5405 50.7092 29.9191C52.6199 28.2239 55.0548 27.0197 56.8222 27.0197C57.8257 27.0197 58.4484 27.4105 58.6702 28.0578C60.6302 26.9196 62.6439 26.221 64.2702 26.221C66.8596 26.221 67.6996 27.9967 66.6401 30.4931C67.0657 30.9645 69.1041 31.6215 69.0235 32.408H39.3591C39.395 32.347 39.4241 32.2908 39.4711 32.2419Z" fill="#F0F0F0"/>
<path d="M49.6832 20.7764C49.8036 20.7711 49.9234 20.7982 50.032 20.8552C50.1406 20.9123 50.2347 20.9977 50.3059 21.1037C51.8156 19.9631 53.518 19.262 54.8889 19.3402C55.4746 19.3377 56.0403 19.5718 56.4771 19.9973C58.1168 18.2875 60.1641 17.0662 61.6022 17.0662C62.422 17.0662 62.9104 17.4619 63.056 18.1189C64.7113 16.9636 66.3868 16.2528 67.7129 16.2528C69.3526 16.2528 70.0784 17.3446 69.8521 19.0202C70.6428 18.5317 71.4201 18.2459 72.0518 18.2459C72.9276 18.2459 73.3398 18.7955 73.2681 19.6602C73.3443 19.6602 73.4204 19.6602 73.4921 19.6724C74.8361 19.8165 75.3424 20.9328 74.6995 22.2102H47.2998C47.9001 21.3626 48.9328 20.7349 49.6832 20.7764Z" fill="#F0F0F0"/>
<path d="M27.5252 21.0611C28.1281 16.7647 25.4228 12.7487 21.4827 12.0913C17.5425 11.4338 13.8597 14.3838 13.2567 18.6803C12.6538 22.9767 15.3591 26.9926 19.2993 27.6501C23.2394 28.3075 26.9223 25.3575 27.5252 21.0611Z" fill="#E0E0E0"/>
<path d="M27.1025 21.1229C27.7349 16.8315 25.0573 12.7935 21.1218 12.1039C17.1863 11.4142 13.4832 14.3339 12.8508 18.6253C12.2183 22.9167 14.8959 26.9547 18.8314 27.6443C22.7669 28.334 26.47 25.4142 27.1025 21.1229Z" fill="#F0F0F0"/>
<path d="M26.2865 19.8677C26.2888 21.4963 25.762 23.0731 24.7996 24.3184C23.8372 25.5637 22.5013 26.3971 21.0291 26.6707C19.5568 26.9443 18.0433 26.6404 16.7569 25.813C15.4705 24.9856 14.4945 23.6881 14.002 22.1506C13.5094 20.6132 13.5322 18.9352 14.0662 17.4143C14.6002 15.8934 15.611 14.628 16.9193 13.8424C18.2275 13.0568 19.7486 12.8019 21.2128 13.1228C22.677 13.4438 23.9897 14.3199 24.9179 15.5957L24.9358 15.6177C25.8126 16.8278 26.2886 18.3255 26.2865 19.8677Z" fill="#E0E0E0"/>
<path d="M26.2864 19.868C26.2846 21.2555 25.8983 22.6099 25.1781 23.7538C24.458 24.8976 23.4377 25.7775 22.2509 26.2779C21.0642 26.7784 19.7665 26.8761 18.5279 26.5582C17.2894 26.2404 16.1678 25.5218 15.3104 24.4967C14.2989 23.0976 13.8246 21.3252 13.9871 19.5525C14.1497 17.7798 14.9365 16.1449 16.1819 14.9918C17.4274 13.8388 19.0345 13.2574 20.665 13.3701C22.2956 13.4828 23.8225 14.2807 24.9245 15.596L24.9424 15.618C25.8168 16.829 26.2904 18.3267 26.2864 19.868Z" fill="#FAFAFA"/>
<path d="M20.113 20.5348C20.0287 20.5339 19.9464 20.507 19.8754 20.4573C19.8045 20.4076 19.7479 20.3371 19.7121 20.2539L18.1037 16.5119C18.0774 16.4537 18.062 16.3903 18.0584 16.3255C18.0548 16.2607 18.0631 16.1957 18.0828 16.1345C18.1025 16.0732 18.1332 16.0168 18.1731 15.9686C18.213 15.9205 18.2613 15.8814 18.3152 15.8538C18.3691 15.8262 18.4275 15.8106 18.487 15.8079C18.5464 15.8052 18.6058 15.8155 18.6616 15.8381C18.7174 15.8607 18.7686 15.8952 18.812 15.9396C18.8554 15.984 18.8903 16.0374 18.9146 16.0967L20.3393 19.4186L22.3978 18.5099C22.508 18.4613 22.6314 18.4625 22.7408 18.5131C22.8503 18.5637 22.9368 18.6597 22.9813 18.7798C23.0259 18.9 23.0249 19.0345 22.9784 19.1539C22.932 19.2732 22.844 19.3675 22.7338 19.4161L20.281 20.4982C20.2277 20.522 20.1707 20.5345 20.113 20.5348Z" fill="#E0E0E0"/>
<path d="M83.4311 63.861C85.1022 64.1052 86.1371 60.1483 82.4455 56.7922C82.6561 60.6783 80.5146 63.4213 83.4311 63.861Z" fill="#F0F0F0"/>
<path d="M84.484 66.3644C86.9099 64.5105 85.2501 58.0352 77.7461 58.5042C80.9919 63.2623 80.2571 69.5959 84.484 66.3644Z" fill="#F0F0F0"/>
<path d="M83.6283 66.3205C82.0178 64.4275 84.3115 59.6645 90.1086 61.4036C86.836 64.5398 86.4395 69.613 83.6283 66.3205Z" fill="#F0F0F0"/>
<path d="M81.1327 70.2139H86.1167L86.493 66.6014H80.7563L81.1327 70.2139Z" fill="#E0E0E0"/>
<path d="M80.3867 67.2463H86.8647V66.45H80.3867V67.2463Z" fill="#E0E0E0"/>
<path d="M56 91.0001C79.9864 91.0001 99.4313 89.7621 99.4313 88.2351C99.4313 86.708 79.9864 85.4701 56 85.4701C32.0135 85.4701 12.5686 86.708 12.5686 88.2351C12.5686 89.7621 32.0135 91.0001 56 91.0001Z" fill="#F5F5F5"/>
<path d="M86.8274 81.3023L85.2275 81.9777L86.6057 85.8598L88.2056 85.1845L86.8274 81.3023Z" fill="#E4897B"/>
<path d="M93.9793 86.3569H92.2926L91.6721 82.0995H93.3588L93.9793 86.3569Z" fill="#E4897B"/>
<path d="M92.1827 86.1442H94.08C94.1127 86.1438 94.1444 86.1561 94.1695 86.1789C94.1945 86.2018 94.2113 86.2337 94.2166 86.2688L94.463 87.9053C94.4682 87.9462 94.4652 87.9878 94.4542 88.0273C94.4433 88.0668 94.4246 88.1033 94.3995 88.1341C94.3743 88.165 94.3434 88.1896 94.3087 88.2061C94.2741 88.2227 94.2365 88.2309 94.1987 88.2302C93.5379 88.218 93.2176 88.1765 92.3843 88.1765C91.8713 88.1765 90.3235 88.2351 89.6157 88.2351C88.9078 88.2351 88.8563 87.4706 89.1497 87.4022C90.4646 87.092 91.4682 86.6694 91.905 86.2566C91.9832 86.1859 92.0811 86.1463 92.1827 86.1442Z" fill="#263238"/>
<path d="M86.5694 85.4898L88.3614 84.9207C88.3928 84.9093 88.4268 84.9107 88.4573 84.9247C88.4878 84.9386 88.5126 84.9641 88.5272 84.9964L89.1992 86.462C89.2152 86.4991 89.2235 86.5396 89.2235 86.5806C89.2234 86.6217 89.2151 86.6622 89.1991 86.6993C89.183 86.7364 89.1596 86.7692 89.1306 86.7953C89.1016 86.8214 89.0676 86.8402 89.0312 86.8503C88.3816 87.0433 87.9425 87.1654 87.1294 87.4243C86.5649 87.6026 85.9937 87.8933 85.436 88.0863C85.0529 88.2206 84.148 88.2255 83.6798 88.2255C82.9876 88.2255 82.8331 87.4292 83.1288 87.3926C83.8792 87.2998 83.9822 87.3437 84.3966 87.1166C85.0735 86.7924 85.6871 86.3297 86.2043 85.7536C86.303 85.6327 86.4288 85.5418 86.5694 85.4898Z" fill="#263238"/>
<path d="M84.0671 26.8121C83.9282 27.1956 83.7961 27.5302 83.646 27.882C83.4959 28.2337 83.3458 28.5708 83.1868 28.9103C82.8651 29.5991 82.5084 30.2677 82.1183 30.9132C81.7114 31.6006 81.24 32.24 80.7116 32.8208C80.4114 33.1521 80.076 33.4432 79.7125 33.6879C79.2566 33.9972 78.7349 34.1723 78.1983 34.196C78.0483 34.2003 77.8983 34.1889 77.7503 34.1618C77.6209 34.1388 77.493 34.107 77.3673 34.0665C77.1537 33.9956 76.9455 33.9066 76.7445 33.8003C76.4003 33.6119 76.0687 33.3973 75.7522 33.1579C75.1714 32.7176 74.6177 32.2362 74.0946 31.7168C73.0789 30.7141 72.1311 29.6325 71.2588 28.4804L72.1279 27.5278C73.1561 28.412 74.2111 29.2962 75.2639 30.1023C75.7768 30.4991 76.3076 30.8675 76.8543 31.2063C77.101 31.3596 77.3578 31.4926 77.6226 31.6044C77.7678 31.6838 77.9285 31.7232 78.0908 31.7192C78.219 31.6778 78.339 31.6107 78.4447 31.5214C78.6385 31.365 78.8172 31.1874 78.9778 30.9914C79.3633 30.51 79.7082 29.9917 80.0082 29.4428C80.3308 28.8712 80.6332 28.2679 80.9199 27.6524C81.0633 27.3446 81.2021 27.032 81.3365 26.7193C81.4709 26.4067 81.6076 26.0769 81.7218 25.7887L84.0671 26.8121Z" fill="#E4897B"/>
<path d="M72.3675 28.1165L72.1278 26.668L70.4187 27.8112C70.4187 27.8112 70.9585 28.7247 71.5275 28.7393L72.3675 28.1165Z" fill="#E4897B"/>
<path d="M71.3306 25.796L69.9956 26.7853L70.4167 27.8111L72.1258 26.668L71.3306 25.796Z" fill="#E4897B"/>
<path d="M84.8512 24.9409C85.2634 26.6116 83.0189 29.9677 83.0189 29.9677L80.071 28.1651C80.071 28.1651 80.6198 26.7851 81.2941 25.3806C82.3805 23.1115 84.3786 23.0357 84.8512 24.9409Z" fill="#808080"/>
<path opacity="0.6" d="M84.8512 24.9409C85.2634 26.6116 83.0189 29.9677 83.0189 29.9677L80.071 28.1651C80.071 28.1651 80.6198 26.7851 81.2941 25.3806C82.3805 23.1115 84.3786 23.0357 84.8512 24.9409Z" fill="#FAFAFA"/>
<path d="M81.2468 28.881L82.4049 29.5893L82.6065 25.7154C81.9345 26.2796 81.4574 27.9797 81.2468 28.881Z" fill="#808080"/>
<path opacity="0.3" d="M81.2468 28.881L82.4049 29.5893L82.6065 25.7154C81.9345 26.2796 81.4574 27.9797 81.2468 28.881Z" fill="#FAFAFA"/>
<path d="M87.0661 81.6325L85.4612 82.3082L86.1719 84.3157L87.7768 83.64L87.0661 81.6325Z" fill="#CE6F64"/>
<path d="M93.3611 82.0995H91.6721L91.9924 84.2954H93.6792L93.3611 82.0995Z" fill="#CE6F64"/>
<path d="M92.3685 23.588C90.6505 30.7032 91.1253 38.0699 90.982 39.5794H81.9615C80.6175 29.2376 82.9157 23.6832 82.9157 23.6832C82.9157 23.6832 83.6325 23.4732 84.5554 23.3095L84.813 23.268C85.0482 23.2314 85.2901 23.1972 85.5365 23.1727C86.8138 23.0921 88.0942 23.0921 89.3714 23.1727C89.5708 23.1727 89.7724 23.1996 89.9695 23.2167L90.2047 23.2411C91.3673 23.3657 92.3685 23.588 92.3685 23.588Z" fill="#808080"/>
<path opacity="0.6" d="M92.3685 23.588C90.6505 30.7032 91.1253 38.0699 90.982 39.5794H81.9615C80.6175 29.2376 82.9157 23.6832 82.9157 23.6832C82.9157 23.6832 83.6325 23.4732 84.5554 23.3095L84.813 23.268C85.0482 23.2314 85.2901 23.1972 85.5365 23.1727C86.8138 23.0921 88.0942 23.0921 89.3714 23.1727C89.5708 23.1727 89.7724 23.1996 89.9695 23.2167L90.2047 23.2411C91.3673 23.3657 92.3685 23.588 92.3685 23.588Z" fill="#FAFAFA"/>
<path d="M81.6748 36.7801C81.7062 37.2214 81.7457 37.6741 81.7935 38.1382L88.5135 35.764C89.5611 35.4234 90.4712 34.7041 91.094 33.7245C91.1186 33.0723 91.1522 32.386 91.2038 31.6703C91.2262 31.321 91.2553 30.9644 91.2844 30.6029C91.3135 30.2414 91.3538 29.8433 91.3942 29.4573L81.6748 36.7801Z" fill="#808080"/>
<path opacity="0.3" d="M81.6748 36.7801C81.7062 37.2214 81.7457 37.6741 81.7935 38.1382L88.5135 35.764C89.5611 35.4234 90.4712 34.7041 91.094 33.7245C91.1186 33.0723 91.1522 32.386 91.2038 31.6703C91.2262 31.321 91.2553 30.9644 91.2844 30.6029C91.3135 30.2414 91.3538 29.8433 91.3942 29.4573L81.6748 36.7801Z" fill="#FAFAFA"/>
<path d="M89.9696 23.2167L89.88 23.4267C89.8509 23.4976 89.1363 25.1487 86.5088 25.1487C86.1594 25.1487 85.0953 25.1487 84.7616 24.3378C84.6977 24.1663 84.6692 23.9815 84.6781 23.7966C84.687 23.6118 84.7331 23.4313 84.8131 23.268L84.5555 23.3095C84.486 23.4879 84.4502 23.6798 84.4502 23.8737C84.4502 24.0676 84.486 24.2595 84.5555 24.438C84.9475 25.393 86.1235 25.393 86.5065 25.393C89.2752 25.393 90.0502 23.6026 90.0905 23.5269L90.2093 23.2411L89.9696 23.2167Z" fill="#FAFAFA"/>
<path d="M89.2438 18.4634C88.9302 19.8092 88.5562 22.2738 89.3715 23.1726C89.3715 23.1726 88.8026 24.538 86.5088 24.538C84.4144 24.538 85.5366 23.1726 85.5366 23.1726C86.9321 22.8136 86.9568 21.7071 86.7731 20.6568L89.2438 18.4634Z" fill="#E4897B"/>
<path d="M88.2359 19.3574L86.7732 20.6544C86.8196 20.8956 86.8458 21.1409 86.8516 21.3872C87.2794 21.8513 88.1374 20.6764 88.227 20.0755C88.2693 19.8387 88.2723 19.5955 88.2359 19.3574Z" fill="#CE6F64"/>
<path d="M84.1367 17.8113C84.1723 18.0295 84.2491 18.2371 84.362 18.4213C84.475 18.6054 84.6218 18.762 84.793 18.8812C85.259 19.2036 85.689 18.7957 85.7092 18.229C85.7361 17.721 85.5255 16.9393 84.9812 16.8465C84.8626 16.8272 84.7415 16.8393 84.6281 16.8817C84.5147 16.9241 84.4123 16.9956 84.3295 17.0901C84.2467 17.1847 84.186 17.2996 84.1525 17.4251C84.1189 17.5506 84.1135 17.6831 84.1367 17.8113Z" fill="#CE6F64"/>
<path d="M85.3753 14.2597C84.5129 14.6139 83.9888 18.2142 85.0057 18.8273C86.0227 19.4404 87.0083 13.5905 85.3753 14.2597Z" fill="#263238"/>
<path d="M83.9194 15.5081C84.5555 16.2408 87.799 15.3615 87.9222 14.1011C88.0454 12.8408 82.7165 14.1304 83.9194 15.5081Z" fill="#263238"/>
<path d="M89.1965 16.2797C89.1361 18.1141 89.1853 19.1864 88.3655 20.1878C88.1139 20.522 87.7825 20.7739 87.4079 20.9157C87.0333 21.0575 86.6301 21.0838 86.2427 20.9915C85.8553 20.8993 85.4988 20.6922 85.2125 20.3931C84.9262 20.0939 84.7212 19.7144 84.6202 19.2963C84.226 17.6891 84.3962 14.9607 86.0045 14.0863C86.342 13.8842 86.7229 13.7843 87.1077 13.797C87.4925 13.8096 87.8672 13.9343 88.1929 14.1581C88.5186 14.3819 88.7834 14.6967 88.9599 15.0697C89.1364 15.4428 89.2181 15.8606 89.1965 16.2797Z" fill="#E4897B"/>
<path d="M88.182 12.4716C89.3715 12.1516 89.6313 12.518 89.6851 13.4046C89.7388 14.2913 90.823 14.0446 90.4579 15.3831C90.2876 16.0157 89.8508 15.962 90.1174 16.707C90.422 17.5643 88.6144 18.6024 88.1888 18.6C87.4876 18.6 87.6422 17.0074 88.2134 15.559C88.6412 14.4745 87.575 14.7749 86.352 15.1804C83.5968 16.0914 81.7712 13.4706 83.4803 12.2151C84.3852 11.5483 86.8739 12.9308 88.182 12.4716Z" fill="#263238"/>
<path d="M89.9942 18.2241C89.7804 18.6313 89.4343 18.9363 89.0243 19.079C88.4845 19.2597 88.2313 18.7419 88.3949 18.1825C88.5427 17.6769 89.0041 16.9759 89.5373 17.0419C90.0704 17.1078 90.2541 17.7185 89.9942 18.2241Z" fill="#E4897B"/>
<path d="M81.9618 39.5696C81.9618 39.5696 80.4475 54.3447 80.3288 59.9528C80.2056 65.7881 85.4606 83.9877 85.4606 83.9877L88.1486 82.7542C88.1486 82.7542 85.0126 66.1276 85.4606 60.3998C85.9266 54.164 87.891 39.5696 87.891 39.5696H81.9618Z" fill="#263238"/>
<path d="M85.7224 43.6366C84.5173 46.3673 85.3304 51.7654 85.9845 54.9652C86.2331 52.7082 86.5266 50.2559 86.8066 47.9868C86.7797 44.4963 86.531 41.8046 85.7224 43.6366Z" fill="#182137"/>
<path d="M88.0319 81.8066C88.0431 81.8066 88.35 82.7421 88.35 82.7421L85.2498 84.1612L84.7593 83.172L88.0319 81.8066Z" fill="#808080"/>
<path opacity="0.6" d="M88.0319 81.8066C88.0431 81.8066 88.35 82.7421 88.35 82.7421L85.2498 84.1612L84.7593 83.172L88.0319 81.8066Z" fill="#FAFAFA"/>
<path d="M85.1604 39.5696C85.1604 39.5696 86.3185 53.6217 87.0868 58.8879C87.9268 64.6548 91.2286 83.8607 91.2286 83.8607H94.3198C94.3198 83.8607 92.4673 65.1189 92.1178 59.4106C91.7393 53.2138 90.9822 39.5696 90.9822 39.5696H85.1604Z" fill="#263238"/>
<path d="M94.3668 82.8519C94.378 82.8519 94.4698 83.934 94.4698 83.934H91.0739L90.832 82.7127L94.3668 82.8519Z" fill="#808080"/>
<path opacity="0.6" d="M94.3668 82.8519C94.378 82.8519 94.4698 83.934 94.4698 83.934H91.0739L90.832 82.7127L94.3668 82.8519Z" fill="#FAFAFA"/>
<path d="M93.184 81.8796C93.1768 81.8796 93.17 81.8765 93.165 81.871C93.1599 81.8655 93.1571 81.8581 93.1571 81.8503C93.1392 81.6817 91.4704 64.7523 91.1568 59.6229C90.8163 54.0563 90.1308 41.7165 90.1241 41.5919C90.1238 41.5878 90.1243 41.5836 90.1254 41.5796C90.1266 41.5756 90.1285 41.5719 90.131 41.5687C90.1335 41.5656 90.1366 41.563 90.14 41.5611C90.1434 41.5592 90.1472 41.558 90.151 41.5577C90.1583 41.5577 90.1654 41.5607 90.1708 41.5662C90.1762 41.5716 90.1796 41.5791 90.1801 41.587C90.1801 41.7116 90.8723 54.0441 91.2128 59.6181C91.5264 64.7474 93.1952 81.6646 93.2131 81.8454C93.2137 81.8494 93.2136 81.8536 93.2126 81.8575C93.2117 81.8615 93.21 81.8652 93.2077 81.8685C93.2054 81.8717 93.2025 81.8743 93.1992 81.8763C93.1958 81.8782 93.1922 81.8793 93.1884 81.8796H93.184Z" fill="#808080"/>
<path opacity="0.5" d="M93.184 81.8796C93.1768 81.8796 93.17 81.8765 93.165 81.871C93.1599 81.8655 93.1571 81.8581 93.1571 81.8503C93.1392 81.6817 91.4704 64.7523 91.1568 59.6229C90.8163 54.0563 90.1308 41.7165 90.1241 41.5919C90.1238 41.5878 90.1243 41.5836 90.1254 41.5796C90.1266 41.5756 90.1285 41.5719 90.131 41.5687C90.1335 41.5656 90.1366 41.563 90.14 41.5611C90.1434 41.5592 90.1472 41.558 90.151 41.5577C90.1583 41.5577 90.1654 41.5607 90.1708 41.5662C90.1762 41.5716 90.1796 41.5791 90.1801 41.587C90.1801 41.7116 90.8723 54.0441 91.2128 59.6181C91.5264 64.7474 93.1952 81.6646 93.2131 81.8454C93.2137 81.8494 93.2136 81.8536 93.2126 81.8575C93.2117 81.8615 93.21 81.8652 93.2077 81.8685C93.2054 81.8717 93.2025 81.8743 93.1992 81.8763C93.1958 81.8782 93.1922 81.8793 93.1884 81.8796H93.184Z" fill="black"/>
<path d="M86.688 17.0198C86.688 17.1688 86.6231 17.2958 86.5335 17.3032C86.4439 17.3105 86.37 17.1981 86.3677 17.0589C86.3655 16.9197 86.4327 16.7829 86.5223 16.7756C86.6119 16.7682 86.688 16.8708 86.688 17.0198Z" fill="#263238"/>
<path d="M85.1514 17.1592C85.1514 17.3082 85.0865 17.4352 84.9969 17.4425C84.9073 17.4498 84.8333 17.3375 84.8311 17.1983C84.8289 17.059 84.8961 16.9222 84.9857 16.9149C85.0753 16.9076 85.147 17.0102 85.1514 17.1592Z" fill="#263238"/>
<path d="M85.6397 17.1883C85.4876 17.6594 85.2797 18.1069 85.0215 18.5195C85.2656 18.7418 85.6711 18.5928 85.6711 18.5928L85.6397 17.1883Z" fill="#DE5753"/>
<path d="M85.8323 19.2035C85.822 19.2035 85.8121 19.1993 85.8046 19.1915C85.7971 19.1838 85.7926 19.1732 85.792 19.162C85.792 19.1501 85.7962 19.1387 85.8037 19.13C85.8112 19.1214 85.8214 19.1162 85.8323 19.1156C86.0043 19.102 86.1713 19.0464 86.321 18.953C86.4706 18.8595 86.5991 18.7306 86.697 18.5758C86.702 18.5661 86.7104 18.5589 86.7203 18.556C86.7301 18.553 86.7407 18.5544 86.7496 18.5599C86.7585 18.5654 86.765 18.5746 86.7678 18.5853C86.7705 18.5961 86.7692 18.6076 86.7642 18.6173C86.6602 18.7861 86.5222 18.9268 86.3606 19.0284C86.1991 19.13 86.0184 19.1899 85.8323 19.2035Z" fill="#263238"/>
<path d="M87.1674 16.0722C87.155 16.0726 87.1428 16.07 87.1315 16.0645C87.1202 16.059 87.1103 16.0508 87.1024 16.0404C87.0411 15.9546 86.9621 15.8857 86.8718 15.8395C86.7815 15.7932 86.6824 15.7708 86.5827 15.7742C86.5725 15.7755 86.5622 15.7746 86.5524 15.7715C86.5425 15.7684 86.5333 15.7632 86.5254 15.7561C86.5174 15.749 86.5109 15.7403 86.5061 15.7304C86.5013 15.7205 86.4984 15.7096 86.4976 15.6984C86.4969 15.675 86.5044 15.6522 86.5185 15.6345C86.5326 15.6168 86.5524 15.6056 86.5738 15.6032C86.6997 15.5969 86.8252 15.6236 86.9397 15.681C87.0543 15.7383 87.1546 15.8247 87.2323 15.9329C87.2388 15.9418 87.2435 15.952 87.2463 15.9629C87.249 15.9738 87.2496 15.9853 87.2482 15.9965C87.2467 16.0077 87.2432 16.0184 87.2377 16.0281C87.2323 16.0378 87.2251 16.0461 87.2166 16.0526C87.2026 16.0648 87.1853 16.0716 87.1674 16.0722Z" fill="#263238"/>
<path d="M84.486 16.3236C84.4746 16.3204 84.4639 16.3146 84.4547 16.3065C84.4472 16.2985 84.4413 16.289 84.4373 16.2786C84.4332 16.2681 84.4312 16.2568 84.4312 16.2454C84.4312 16.2341 84.4332 16.2228 84.4373 16.2123C84.4413 16.2018 84.4472 16.1923 84.4547 16.1844C84.5323 16.0701 84.6337 15.9775 84.7505 15.9142C84.8673 15.8509 84.9963 15.8188 85.1267 15.8204C85.137 15.821 85.1472 15.8239 85.1564 15.829C85.1656 15.8341 85.1738 15.8412 85.1803 15.85C85.1869 15.8587 85.1917 15.8689 85.1944 15.8798C85.1971 15.8907 85.1977 15.9021 85.1961 15.9133C85.1928 15.9363 85.1819 15.9573 85.1654 15.9721C85.1489 15.987 85.1279 15.9947 85.1065 15.9939C85.0043 15.9964 84.9039 16.0243 84.8131 16.0755C84.7223 16.1268 84.6434 16.1999 84.5824 16.2894C84.5716 16.3053 84.5565 16.3172 84.5392 16.3233C84.5219 16.3294 84.5034 16.3295 84.486 16.3236Z" fill="#263238"/>
<path d="M93.2356 25.9913L90.9038 25.3147C90.9038 25.3147 88.619 31.448 87.8126 31.8486C86.715 32.3932 83.9329 34.2911 82.7524 35.1875C82.6852 35.4904 82.7367 36.3014 82.8868 36.5212C84.9028 36.123 88.7623 34.5036 89.5687 33.678C91.4055 31.8021 93.2356 25.9913 93.2356 25.9913Z" fill="#E4897B"/>
<path d="M93.8425 25.2904C94.4585 27.4545 92.0505 30.4198 92.0505 30.4198L88.7241 28.9396C89.1167 27.6862 89.5705 26.4566 90.0838 25.2562C91.1075 22.8552 93.2198 23.1043 93.8425 25.2904Z" fill="#808080"/>
<path opacity="0.6" d="M93.8425 25.2904C94.4585 27.4545 92.0505 30.4198 92.0505 30.4198L88.7241 28.9396C89.1167 27.6862 89.5705 26.4566 90.0838 25.2562C91.1075 22.8552 93.2198 23.1043 93.8425 25.2904Z" fill="#FAFAFA"/>
<path d="M91.6159 86.4667C91.5024 86.4781 91.3889 86.4452 91.2955 86.3739C91.2667 86.3455 91.2451 86.3094 91.233 86.2691C91.2208 86.2289 91.2184 86.1859 91.2261 86.1443C91.2274 86.1183 91.2349 86.0931 91.2478 86.0713C91.2608 86.0494 91.2788 86.0316 91.3 86.0197C91.4904 85.9171 92.0168 86.2811 92.0751 86.3226C92.0816 86.3272 92.0869 86.3339 92.09 86.3417C92.0932 86.3495 92.0942 86.3581 92.093 86.3666C92.091 86.3752 92.0867 86.383 92.0808 86.389C92.0748 86.3951 92.0674 86.3992 92.0594 86.4008C91.9143 86.4409 91.7655 86.4631 91.6159 86.4667ZM91.3919 86.0881C91.3749 86.084 91.3573 86.084 91.3403 86.0881C91.3318 86.0932 91.3247 86.1006 91.3196 86.1096C91.3145 86.1186 91.3116 86.1289 91.3112 86.1394C91.3059 86.1679 91.3072 86.1973 91.3151 86.225C91.3229 86.2528 91.337 86.2779 91.356 86.2982C91.5444 86.3913 91.7583 86.4027 91.9541 86.3299C91.7796 86.2063 91.5837 86.1231 91.3784 86.0857L91.3919 86.0881Z" fill="#808080"/>
<path d="M92.0438 86.4008H92.0259C91.8556 86.2958 91.5398 85.8927 91.5779 85.6876C91.5861 85.6555 91.6037 85.6272 91.6279 85.6069C91.6521 85.5867 91.6817 85.5755 91.7123 85.5752C91.742 85.5701 91.7724 85.5726 91.8011 85.5823C91.8299 85.5921 91.8562 85.6088 91.878 85.6314C92.0662 85.8048 92.0774 86.3348 92.0774 86.3641C92.0774 86.3764 92.0729 86.3883 92.0649 86.397C92.0569 86.4057 92.0461 86.4105 92.0348 86.4105L92.0438 86.4008ZM91.7436 85.6558H91.7257C91.6742 85.6558 91.6675 85.69 91.6652 85.6998C91.6361 85.8219 91.8355 86.1248 92.0012 86.2689C92.0009 86.0625 91.9422 85.8612 91.8332 85.6924C91.8085 85.6686 91.7766 85.6556 91.7436 85.6558Z" fill="#808080"/>
<path d="M85.6599 86.1614C85.5236 86.2135 85.3751 86.2135 85.2388 86.1614C85.2061 86.1446 85.178 86.119 85.1572 86.0869C85.1364 86.0548 85.1236 86.0173 85.12 85.9782C85.1175 85.9543 85.1203 85.9301 85.1281 85.9075C85.1359 85.885 85.1485 85.8649 85.1648 85.8487C85.3463 85.6753 86.0765 85.8634 86.1594 85.8854C86.167 85.8877 86.1738 85.8924 86.179 85.8989C86.1842 85.9054 86.1875 85.9134 86.1885 85.922C86.1888 85.9312 86.1867 85.9402 86.1823 85.9481C86.1779 85.9559 86.1715 85.9621 86.1639 85.966C86.0015 86.0472 85.8329 86.1126 85.6599 86.1614ZM85.297 85.8707C85.2709 85.8756 85.2463 85.8873 85.2253 85.9049C85.2188 85.9117 85.2139 85.9202 85.2112 85.9296C85.2084 85.939 85.2079 85.949 85.2096 85.9586C85.2102 85.9839 85.2169 86.0085 85.2291 86.03C85.2413 86.0515 85.2586 86.069 85.2791 86.0808C85.3978 86.1516 85.6756 86.0954 86.0295 85.9342C85.7905 85.8669 85.5427 85.8454 85.297 85.8707Z" fill="#808080"/>
<path d="M86.164 85.9614H86.1483C85.9243 85.9174 85.4763 85.6365 85.4629 85.4265C85.4629 85.3776 85.4831 85.3092 85.5883 85.2677C85.6619 85.2403 85.7423 85.2456 85.8123 85.2823C86.0565 85.4142 86.1842 85.8832 86.1886 85.9028C86.1918 85.9096 86.1934 85.9171 86.1934 85.9247C86.1934 85.9324 86.1918 85.9399 86.1886 85.9467C86.1859 85.9511 86.1822 85.9547 86.1779 85.9572C86.1736 85.9598 86.1689 85.9612 86.164 85.9614ZM85.6354 85.3459H85.6107C85.5413 85.3727 85.5435 85.4045 85.5435 85.4142C85.5435 85.5388 85.8683 85.7709 86.0946 85.849C86.0414 85.6534 85.9313 85.4819 85.781 85.3605C85.736 85.3354 85.6838 85.3302 85.6354 85.3459Z" fill="#808080"/>
<path d="M64.96 38.2115C65.1521 37.6148 65.5061 37.0959 65.975 36.7238C66.4439 36.3516 67.0055 36.1438 67.5853 36.128H90.272C90.5849 36.1199 90.8957 36.1866 91.1825 36.3234C91.4693 36.4601 91.7252 36.6636 91.9322 36.9196C92.1392 37.1756 92.2924 37.4779 92.3809 37.8053C92.4695 38.1327 92.4913 38.4773 92.4448 38.8148L87.4026 85.5484C87.3112 86.2798 86.984 86.9519 86.4796 87.4443C85.9751 87.9366 85.3264 88.217 84.6496 88.2352H27.7536C27.4406 88.2437 27.1296 88.1773 26.8426 88.0407C26.5556 87.904 26.2996 87.7005 26.0925 87.4444C25.8854 87.1883 25.7322 86.8858 25.6438 86.5583C25.5554 86.2307 25.5339 85.886 25.5808 85.5484L29.8771 45.7663C29.9685 45.0349 30.2957 44.3628 30.8001 43.8704C31.3046 43.3781 31.9533 43.0977 32.6301 43.0795H58.8381C61.5082 43.0795 64.0506 41.062 64.96 38.2115Z" fill="#808080"/>
<path opacity="0.1" d="M64.96 38.2115C65.1521 37.6148 65.5061 37.0959 65.975 36.7238C66.4439 36.3516 67.0055 36.1438 67.5853 36.128H90.272C90.5849 36.1199 90.8957 36.1866 91.1825 36.3234C91.4693 36.4601 91.7252 36.6636 91.9322 36.9196C92.1392 37.1756 92.2924 37.4779 92.3809 37.8053C92.4695 38.1327 92.4913 38.4773 92.4448 38.8148L87.4026 85.5484C87.3112 86.2798 86.984 86.9519 86.4796 87.4443C85.9751 87.9366 85.3264 88.217 84.6496 88.2352H27.7536C27.4406 88.2437 27.1296 88.1773 26.8426 88.0407C26.5556 87.904 26.2996 87.7005 26.0925 87.4444C25.8854 87.1883 25.7322 86.8858 25.6438 86.5583C25.5554 86.2307 25.5339 85.886 25.5808 85.5484L29.8771 45.7663C29.9685 45.0349 30.2957 44.3628 30.8001 43.8704C31.3046 43.3781 31.9533 43.0977 32.6301 43.0795H58.8381C61.5082 43.0795 64.0506 41.062 64.96 38.2115Z" fill="#FAFAFA"/>
<path d="M44.6792 17.5212L14.0393 40.8201L34.2631 72.4437L64.903 49.1447L44.6792 17.5212Z" fill="#808080"/>
<path opacity="0.8" d="M44.6792 17.5212L14.0393 40.8201L34.2631 72.4437L64.903 49.1447L44.6792 17.5212Z" fill="#FAFAFA"/>
<path d="M44.5986 18.013L13.9587 41.312L34.1826 72.9355L64.8224 49.6365L44.5986 18.013Z" fill="#FAFAFA"/>
<path d="M43.9743 22.1779L17.7551 42.1152L31.6853 63.8975L57.9044 43.9601L43.9743 22.1779Z" fill="#808080"/>
<path opacity="0.8" d="M43.9743 22.1779L17.7551 42.1152L31.6853 63.8975L57.9044 43.9601L43.9743 22.1779Z" fill="#FAFAFA"/>
<path d="M33.9359 40.9275C34.4429 41.7206 34.7227 42.6598 34.7399 43.6264C34.7571 44.593 34.5109 45.5434 34.0325 46.3573C33.5541 47.1712 32.865 47.812 32.0524 48.1987C31.2398 48.5853 30.3403 48.7003 29.4677 48.5292C28.5952 48.3581 27.7888 47.9085 27.1506 47.2373C26.5125 46.5662 26.0714 45.7037 25.883 44.759C25.6947 43.8143 25.7676 42.8299 26.0926 41.9305C26.4176 41.031 26.98 40.2569 27.7087 39.7062C28.6835 38.9695 29.8865 38.6843 31.0538 38.9132C32.2211 39.1422 33.2576 39.8665 33.9359 40.9275Z" fill="#808080"/>
<path opacity="0.1" d="M33.9359 40.9275C34.4429 41.7206 34.7227 42.6598 34.7399 43.6264C34.7571 44.593 34.5109 45.5434 34.0325 46.3573C33.5541 47.1712 32.865 47.812 32.0524 48.1987C31.2398 48.5853 30.3403 48.7003 29.4677 48.5292C28.5952 48.3581 27.7888 47.9085 27.1506 47.2373C26.5125 46.5662 26.0714 45.7037 25.883 44.759C25.6947 43.8143 25.7676 42.8299 26.0926 41.9305C26.4176 41.031 26.98 40.2569 27.7087 39.7062C28.6835 38.9695 29.8865 38.6843 31.0538 38.9132C32.2211 39.1422 33.2576 39.8665 33.9359 40.9275Z" fill="#FAFAFA"/>
<path d="M50.6599 38.7758C49.9849 38.0426 49.1703 37.4802 48.2737 37.1286C47.3772 36.7769 46.4207 36.6447 45.472 36.7411C45.4429 36.6972 45.4205 36.6483 45.3914 36.6019C44.5237 35.2283 43.2393 34.2327 41.7645 33.7903C40.2897 33.348 38.719 33.4873 37.3292 34.1838C35.9393 34.8803 34.8194 36.0892 34.1668 37.5977C33.5141 39.1061 33.3705 40.8173 33.7613 42.4299C33.5655 42.5305 33.3775 42.6481 33.1991 42.7816C32.5604 43.2658 32.0695 43.9478 31.79 44.7395C31.5105 45.5311 31.4551 46.3959 31.6311 47.2222C30.7761 47.5877 30.0476 48.236 29.5479 49.0761C29.0344 49.9113 28.756 50.8919 28.7468 51.8974C28.7377 52.9029 28.9982 53.8894 29.4964 54.7355C29.8395 55.2976 30.2822 55.7792 30.7983 56.1522C31.3145 56.5252 31.8938 56.782 32.5022 56.9076C33.1106 57.0332 33.7359 57.025 34.3414 56.8836C34.9469 56.7421 35.5204 56.4702 36.0282 56.0838L43.5658 50.3511L50.4717 45.0996C51.2396 44.5277 51.77 43.649 51.9482 42.6538C52.1263 41.6586 51.9379 40.627 51.4237 39.7821L51.4036 39.7479C51.1831 39.4 50.9342 39.0747 50.6599 38.7758Z" fill="#808080"/>
<path opacity="0.3" d="M50.6599 38.7758C49.9849 38.0426 49.1703 37.4802 48.2737 37.1286C47.3772 36.7769 46.4207 36.6447 45.472 36.7411C45.4429 36.6972 45.4205 36.6483 45.3914 36.6019C44.5237 35.2283 43.2393 34.2327 41.7645 33.7903C40.2897 33.348 38.719 33.4873 37.3292 34.1838C35.9393 34.8803 34.8194 36.0892 34.1668 37.5977C33.5141 39.1061 33.3705 40.8173 33.7613 42.4299C33.5655 42.5305 33.3775 42.6481 33.1991 42.7816C32.5604 43.2658 32.0695 43.9478 31.79 44.7395C31.5105 45.5311 31.4551 46.3959 31.6311 47.2222C30.7761 47.5877 30.0476 48.236 29.5479 49.0761C29.0344 49.9113 28.756 50.8919 28.7468 51.8974C28.7377 52.9029 28.9982 53.8894 29.4964 54.7355C29.8395 55.2976 30.2822 55.7792 30.7983 56.1522C31.3145 56.5252 31.8938 56.782 32.5022 56.9076C33.1106 57.0332 33.7359 57.025 34.3414 56.8836C34.9469 56.7421 35.5204 56.4702 36.0282 56.0838L43.5658 50.3511L50.4717 45.0996C51.2396 44.5277 51.77 43.649 51.9482 42.6538C52.1263 41.6586 51.9379 40.627 51.4237 39.7821L51.4036 39.7479C51.1831 39.4 50.9342 39.0747 50.6599 38.7758Z" fill="black"/>
<g style="mix-blend-mode:multiply">
<path d="M45.6471 23.0932L14.252 45.1642L33.4099 77.5673L64.8051 55.4963L45.6471 23.0932Z" fill="#808080"/>
</g>
<path opacity="0.8" d="M45.6471 23.0932L14.252 45.1642L33.4099 77.5673L64.8051 55.4963L45.6471 23.0932Z" fill="#FAFAFA"/>
<path d="M45.5527 23.5849L14.1575 45.6558L33.3154 78.0589L64.7106 55.988L45.5527 23.5849Z" fill="#FAFAFA"/>
<path d="M44.7913 27.7228L17.9258 46.6094L31.1217 68.9286L57.9872 50.042L44.7913 27.7228Z" fill="#808080"/>
<path opacity="0.8" d="M44.7913 27.7228L17.9258 46.6094L31.1217 68.9286L57.9872 50.042L44.7913 27.7228Z" fill="#FAFAFA"/>
<path d="M34.7433 49.7259C35.2593 47.0927 33.7199 44.5021 31.3051 43.9395C28.8903 43.3769 26.5145 45.0554 25.9986 47.6886C25.4827 50.3218 27.022 52.9124 29.4368 53.475C31.8516 54.0376 34.2274 52.359 34.7433 49.7259Z" fill="#808080"/>
<path opacity="0.1" d="M34.7433 49.7259C35.2593 47.0927 33.7199 44.5021 31.3051 43.9395C28.8903 43.3769 26.5145 45.0554 25.9986 47.6886C25.4827 50.3218 27.022 52.9124 29.4368 53.475C31.8516 54.0376 34.2274 52.359 34.7433 49.7259Z" fill="#FAFAFA"/>
<path d="M50.9153 44.5816C50.2648 43.8214 49.4689 43.2266 48.5839 42.8395C47.6989 42.4524 46.7466 42.2824 45.7947 42.3418C45.7678 42.2929 45.7476 42.2441 45.7185 42.1977C44.8965 40.7904 43.6453 39.7448 42.1855 39.245C40.7256 38.7452 39.1508 38.8233 37.7387 39.4657C36.3265 40.108 35.1676 41.2733 34.4662 42.7562C33.7648 44.239 33.566 45.9442 33.9047 47.5713C33.7047 47.6623 33.5121 47.7719 33.3291 47.8986C32.6761 48.3578 32.1641 49.0196 31.8591 49.7988C31.5541 50.5781 31.47 51.439 31.6177 52.2708C30.7506 52.6002 30.0006 53.2189 29.474 54.0392C28.9329 54.8532 28.6219 55.8219 28.5793 56.8262C28.5367 57.8305 28.7644 58.8264 29.2343 59.6913C29.5577 60.2675 29.9835 60.7673 30.4865 61.1616C30.9895 61.5558 31.5597 61.8365 32.1636 61.9872C32.7675 62.1378 33.3929 62.1553 34.0031 62.0388C34.6133 61.9222 35.1959 61.6738 35.7169 61.3083L43.4561 55.8663L50.5345 50.8908C51.319 50.3477 51.8761 49.4901 52.0856 48.503C52.2952 47.5159 52.1403 46.4785 51.6545 45.6148L51.6321 45.5806C51.4221 45.2241 51.1821 44.8897 50.9153 44.5816Z" fill="#808080"/>
<path opacity="0.3" d="M50.9153 44.5816C50.2648 43.8214 49.4689 43.2266 48.5839 42.8395C47.6989 42.4524 46.7466 42.2824 45.7947 42.3418C45.7678 42.2929 45.7476 42.2441 45.7185 42.1977C44.8965 40.7904 43.6453 39.7448 42.1855 39.245C40.7256 38.7452 39.1508 38.8233 37.7387 39.4657C36.3265 40.108 35.1676 41.2733 34.4662 42.7562C33.7648 44.239 33.566 45.9442 33.9047 47.5713C33.7047 47.6623 33.5121 47.7719 33.3291 47.8986C32.6761 48.3578 32.1641 49.0196 31.8591 49.7988C31.5541 50.5781 31.47 51.439 31.6177 52.2708C30.7506 52.6002 30.0006 53.2189 29.474 54.0392C28.9329 54.8532 28.6219 55.8219 28.5793 56.8262C28.5367 57.8305 28.7644 58.8264 29.2343 59.6913C29.5577 60.2675 29.9835 60.7673 30.4865 61.1616C30.9895 61.5558 31.5597 61.8365 32.1636 61.9872C32.7675 62.1378 33.3929 62.1553 34.0031 62.0388C34.6133 61.9222 35.1959 61.6738 35.7169 61.3083L43.4561 55.8663L50.5345 50.8908C51.319 50.3477 51.8761 49.4901 52.0856 48.503C52.2952 47.5159 52.1403 46.4785 51.6545 45.6148L51.6321 45.5806C51.4221 45.2241 51.1821 44.8897 50.9153 44.5816Z" fill="black"/>
<g style="mix-blend-mode:multiply">
<path d="M73.7192 27.1346L36.5876 31.576L40.4429 69.8996L77.5744 65.4581L73.7192 27.1346Z" fill="#808080"/>
</g>
<path opacity="0.8" d="M73.7192 27.1346L36.5876 31.576L40.4429 69.8996L77.5744 65.4581L73.7192 27.1346Z" fill="#FAFAFA"/>
<path d="M73.4303 27.5252L36.2988 31.9666L40.1541 70.2902L77.2856 65.8487L73.4303 27.5252Z" fill="#FAFAFA"/>
<path d="M71.0537 30.8551L39.2795 34.6558L41.935 61.053L73.7092 57.2523L71.0537 30.8551Z" fill="#808080"/>
<path opacity="0.8" d="M71.0537 30.8551L39.2795 34.6558L41.935 61.053L73.7092 57.2523L71.0537 30.8551Z" fill="#FAFAFA"/>
<path d="M73.6153 56.2866L73.7116 57.2515L57.2073 59.2275L61.1474 54.1323L65.1817 48.9101L73.6153 56.2866Z" fill="#808080"/>
<path opacity="0.3" d="M73.6153 56.2866L73.7116 57.2515L57.2073 59.2275L61.1474 54.1323L65.1817 48.9101L73.6153 56.2866Z" fill="black"/>
<path d="M66.5662 58.1062L41.9396 61.0519L41.7246 58.9293L51.3902 46.9778L61.1477 54.1321L66.5662 58.1062Z" fill="#808080"/>
<path opacity="0.3" d="M66.5662 58.1062L41.9396 61.0519L41.7246 58.9293L51.3902 46.9778L61.1477 54.1321L66.5662 58.1062Z" fill="black"/>
<path d="M63.5392 40.6619C63.6263 38.3855 62.0046 36.463 59.9169 36.368C57.8292 36.273 56.0662 38.0414 55.9791 40.3179C55.8919 42.5943 57.5137 44.5168 59.6014 44.6118C61.689 44.7068 63.4521 42.9384 63.5392 40.6619Z" fill="#808080"/>
<path opacity="0.1" d="M63.5392 40.6619C63.6263 38.3855 62.0046 36.463 59.9169 36.368C57.8292 36.273 56.0662 38.0414 55.9791 40.3179C55.8919 42.5943 57.5137 44.5168 59.6014 44.6118C61.689 44.7068 63.4521 42.9384 63.5392 40.6619Z" fill="#FAFAFA"/>
<g style="mix-blend-mode:multiply" opacity="0.7">
<path d="M55.2945 47.967C55.4468 46.9167 56.3675 46.1693 57.5166 46.1693H80.21C81.5697 46.1693 82.7748 47.2074 82.898 48.4873L85.94 85.9172C86.0676 87.1971 85.0664 88.2351 83.7 88.2351H26.804C25.442 88.2351 24.2369 87.1971 24.116 85.9172L21.6721 54.4838C21.5444 53.2039 22.5435 52.1682 23.9121 52.1682H50.1201C52.7857 52.1682 54.9384 50.4267 55.2945 47.967Z" fill="#808080"/>
</g>
<path d="M82.9404 35.0436L81.1484 35.7129L80.0105 36.5873L82.0534 37.452C82.0534 37.452 83.9619 37.2322 84.4211 36.1037L82.9404 35.0436Z" fill="#E4897B"/>
</svg>
