<svg width="180" height="180" viewBox="0 0 180 180" fill="none" xmlns="http://www.w3.org/2000/svg">
<path d="M180 140.803H0V140.893H180V140.803Z" fill="#EBEBEB"/>
<path d="M161.964 146.596H150.041V146.686H161.964V146.596Z" fill="#EBEBEB"/>
<path d="M119.239 147.575H116.11V147.665H119.239V147.575Z" fill="#EBEBEB"/>
<path d="M149.68 143.255H142.771V143.345H149.68V143.255Z" fill="#EBEBEB"/>
<path d="M34.4341 143.859H18.8857V143.949H34.4341V143.859Z" fill="#EBEBEB"/>
<path d="M39.9204 143.859H37.6416V143.949H39.9204V143.859Z" fill="#EBEBEB"/>
<path d="M81.0549 145.379H47.3301V145.469H81.0549V145.379Z" fill="#EBEBEB"/>
<path d="M85.3203 124.747H15.8079C15.2633 124.746 14.7414 124.529 14.3567 124.144C13.9719 123.758 13.7559 123.236 13.7559 122.692V24.9768C13.7606 24.4354 13.9788 23.9177 14.363 23.5362C14.7472 23.1547 15.2664 22.9401 15.8079 22.9392H85.3203C85.8654 22.9392 86.3883 23.1558 86.7738 23.5413C87.1593 23.9268 87.3759 24.4496 87.3759 24.9948V122.692C87.3759 123.237 87.1593 123.76 86.7738 124.145C86.3883 124.531 85.8654 124.747 85.3203 124.747ZM15.8079 23.0112C15.2872 23.0122 14.7881 23.2197 14.4203 23.5882C14.0525 23.9567 13.8459 24.4561 13.8459 24.9768V122.692C13.8459 123.212 14.0525 123.712 14.4203 124.08C14.7881 124.449 15.2872 124.656 15.8079 124.657H85.3203C85.8413 124.656 86.3407 124.449 86.7091 124.08C87.0775 123.712 87.2849 123.213 87.2859 122.692V24.9768C87.2849 24.4558 87.0775 23.9564 86.7091 23.588C86.3407 23.2196 85.8413 23.0122 85.3203 23.0112H15.8079Z" fill="#EBEBEB"/>
<path d="M163.191 124.747H93.6747C93.1299 124.746 92.6076 124.529 92.2223 124.144C91.837 123.759 91.6201 123.237 91.6191 122.692V24.9768C91.6248 24.435 91.8438 23.9174 92.2286 23.5359C92.6134 23.1545 93.1329 22.9401 93.6747 22.9392H163.191C163.732 22.9411 164.25 23.156 164.633 23.5374C165.017 23.9188 165.234 24.436 165.239 24.9768V122.692C165.239 123.236 165.024 123.757 164.64 124.143C164.256 124.528 163.735 124.745 163.191 124.747ZM93.6747 23.0112C93.1537 23.0122 92.6543 23.2196 92.2859 23.588C91.9175 23.9564 91.7101 24.4558 91.7091 24.9768V122.692C91.7101 123.213 91.9175 123.712 92.2859 124.08C92.6543 124.449 93.1537 124.656 93.6747 124.657H163.191C163.712 124.656 164.211 124.449 164.58 124.08C164.948 123.712 165.155 123.213 165.156 122.692V24.9768C165.155 24.4558 164.948 23.9564 164.58 23.588C164.211 23.2196 163.712 23.0122 163.191 23.0112H93.6747Z" fill="#EBEBEB"/>
<path d="M138.928 67.0659C141.899 59.3576 138.059 50.7002 130.351 47.7289C122.642 44.7576 113.985 48.5977 111.014 56.3059C108.042 64.0142 111.883 72.6716 119.591 75.6429C127.299 78.6142 135.956 74.7741 138.928 67.0659Z" fill="#FAFAFA"/>
<path d="M151.661 58.7339C151.661 58.0881 151.405 57.4688 150.949 57.0118C150.492 56.5548 149.873 56.2976 149.228 56.2967C148.99 56.2963 148.753 56.3314 148.526 56.4011C148.647 55.5883 148.572 54.7583 148.307 53.9804C148.042 53.2026 147.594 52.4995 147.002 51.93C146.409 51.3604 145.689 50.941 144.901 50.7068C144.114 50.4725 143.281 50.4302 142.474 50.5835C141.965 49.7481 141.199 49.1007 140.29 48.7389C139.381 48.3772 138.379 48.3206 137.436 48.5778C136.492 48.8349 135.657 49.3919 135.058 50.1647C134.458 50.9375 134.126 51.8842 134.111 52.8623H134.036C132.955 52.8941 131.928 53.3459 131.175 54.1219C130.421 54.8979 130 55.9369 130 57.0185C130 58.1001 130.421 59.1391 131.175 59.9151C131.928 60.691 132.955 61.1429 134.036 61.1747H149.296C149.931 61.1559 150.533 60.8904 150.974 60.4346C151.416 59.9788 151.662 59.3686 151.661 58.7339Z" fill="#F5F5F5"/>
<path d="M119.16 74.304C119.16 73.6576 118.903 73.0377 118.446 72.5806C117.989 72.1235 117.369 71.8668 116.723 71.8668C116.486 71.8678 116.251 71.903 116.024 71.9712C116.149 71.1553 116.075 70.3215 115.809 69.5401C115.544 68.7587 115.095 68.0525 114.5 67.4809C113.904 66.9093 113.181 66.489 112.389 66.2556C111.597 66.0221 110.761 65.9821 109.951 66.1392C109.442 65.3038 108.676 64.6564 107.767 64.2946C106.858 63.9328 105.857 63.8763 104.913 64.1334C103.969 64.3906 103.134 64.9475 102.535 65.7203C101.935 66.4931 101.603 67.4399 101.588 68.418H101.52C100.439 68.4498 99.4127 68.9016 98.6593 69.6776C97.9058 70.4535 97.4844 71.4926 97.4844 72.5742C97.4844 73.6557 97.9058 74.6948 98.6593 75.4707C99.4127 76.2467 100.439 76.6985 101.52 76.7304H116.78C117.415 76.7154 118.019 76.4535 118.463 76.0003C118.907 75.5472 119.157 74.9386 119.16 74.304Z" fill="#F5F5F5"/>
<path d="M67.1979 87.6816C67.197 87.0358 66.9398 86.4168 66.4828 85.9605C66.0259 85.5043 65.4065 85.248 64.7607 85.248C64.5244 85.2487 64.2892 85.2826 64.0623 85.3488C64.1664 84.6173 64.1123 83.872 63.9035 83.1632C63.6948 82.4544 63.3363 81.7987 62.8524 81.2404C62.3685 80.6821 61.7703 80.2341 61.0984 79.9268C60.4265 79.6195 59.6964 79.4601 58.9575 79.4592C58.6386 79.4599 58.3205 79.49 58.0071 79.5492C57.4992 78.7129 56.733 78.0646 55.8242 77.7022C54.9153 77.3398 53.9133 77.2829 52.9693 77.5403C52.0253 77.7976 51.1907 78.3551 50.5915 79.1287C49.9923 79.9022 49.6611 80.8496 49.6479 81.828H49.5723C49.0162 81.8116 48.4625 81.907 47.944 82.1085C47.4254 82.31 46.9526 82.6135 46.5534 83.0011C46.1543 83.3886 45.837 83.8524 45.6203 84.3648C45.4036 84.8772 45.292 85.4278 45.292 85.9842C45.292 86.5405 45.4036 87.0912 45.6203 87.6036C45.837 88.116 46.1543 88.5797 46.5534 88.9673C46.9526 89.3548 47.4254 89.6583 47.944 89.8598C48.4625 90.0614 49.0162 90.1567 49.5723 90.1404H64.8291C65.4676 90.1234 66.0739 89.8561 66.5171 89.3961C66.9602 88.9361 67.2048 88.3203 67.1979 87.6816Z" fill="#F5F5F5"/>
<path d="M150.253 88.3764C150.253 87.9859 150.098 87.6113 149.822 87.3352C149.546 87.0591 149.172 86.904 148.781 86.904C148.638 86.9041 148.497 86.9247 148.36 86.9652C148.424 86.5222 148.393 86.0706 148.267 85.6408C148.142 85.2111 147.926 84.8134 147.633 84.4747C147.34 84.136 146.978 83.8642 146.571 83.6777C146.165 83.4912 145.722 83.3944 145.275 83.394C145.081 83.3954 144.889 83.4134 144.699 83.448C144.39 82.9463 143.928 82.5582 143.38 82.3417C142.833 82.1253 142.23 82.0923 141.662 82.2477C141.094 82.4031 140.592 82.7384 140.23 83.2034C139.869 83.6685 139.669 84.238 139.659 84.8268H139.612C138.943 84.8268 138.302 85.0923 137.83 85.5648C137.357 86.0374 137.092 86.6784 137.092 87.3468C137.092 88.0151 137.357 88.6561 137.83 89.1287C138.302 89.6013 138.943 89.8668 139.612 89.8668H148.824C149.211 89.8564 149.577 89.6941 149.845 89.4151C150.112 89.1361 150.259 88.7629 150.253 88.3764Z" fill="#F5F5F5"/>
<path d="M90.5476 44.2799C90.5476 44.0866 90.5096 43.8951 90.4356 43.7165C90.3616 43.5378 90.2531 43.3755 90.1164 43.2388C89.9797 43.1021 89.8174 42.9936 89.6387 42.9196C89.4601 42.8456 89.2686 42.8076 89.0752 42.8076C88.9312 42.8071 88.7879 42.829 88.6504 42.8724C88.7187 42.4288 88.6899 41.9758 88.5659 41.5445C88.442 41.1132 88.2258 40.7139 87.9325 40.3743C87.6391 40.0348 87.2755 39.7629 86.8668 39.5776C86.4581 39.3923 86.014 39.298 85.5652 39.3011C85.3732 39.3009 85.1815 39.319 84.9928 39.3551C84.6832 38.8562 84.2207 38.4707 83.6742 38.2559C83.1277 38.0411 82.5265 38.0086 81.96 38.1631C81.3935 38.3177 80.8921 38.6511 80.5304 39.1137C80.1688 39.5763 79.9662 40.1433 79.9528 40.7303H79.9096C79.2413 40.7303 78.6003 40.9958 78.1277 41.4684C77.6551 41.941 77.3896 42.582 77.3896 43.2503C77.3896 43.9187 77.6551 44.5597 78.1277 45.0323C78.6003 45.5049 79.2413 45.7703 79.9096 45.7703H89.1292C89.5135 45.7563 89.8769 45.5925 90.142 45.314C90.407 45.0355 90.5526 44.6644 90.5476 44.2799Z" fill="#EBEBEB"/>
<path d="M38.56 45.0899C38.56 44.6994 38.4049 44.3249 38.1288 44.0488C37.8527 43.7727 37.4781 43.6175 37.0876 43.6175C36.9438 43.6174 36.8008 43.6381 36.6628 43.6787C36.7274 43.2358 36.6959 42.7841 36.5705 42.3544C36.4451 41.9247 36.2288 41.527 35.9361 41.1883C35.6435 40.8496 35.2814 40.5777 34.8745 40.3913C34.4675 40.2048 34.0253 40.108 33.5776 40.1075C33.3856 40.109 33.1941 40.127 33.0052 40.1615C32.6954 39.6624 32.2326 39.2767 31.6858 39.062C31.1389 38.8473 30.5374 38.8151 29.9707 38.9701C29.404 39.1251 28.9027 39.4591 28.5413 39.9223C28.1799 40.3855 27.9778 40.953 27.9652 41.5403H27.9184C27.2501 41.5403 26.6091 41.8058 26.1365 42.2784C25.6639 42.751 25.3984 43.392 25.3984 44.0603C25.3984 44.7287 25.6639 45.3697 26.1365 45.8423C26.6091 46.3148 27.2501 46.5803 27.9184 46.5803H37.1416C37.5262 46.5672 37.8902 46.4037 38.1554 46.125C38.4206 45.8463 38.5659 45.4746 38.56 45.0899Z" fill="#EBEBEB"/>
<path d="M157.263 140.843C153.303 135.878 119.262 93.3696 114.52 93.3588C109.48 93.3588 99.8971 105.12 99.8971 105.12C99.8971 105.12 83.2183 84.4488 76.0723 85.0104C69.3079 85.5396 25.4887 135.464 20.7871 140.843H157.263Z" fill="#F0F0F0"/>
<path d="M90.0006 157.061C128.55 157.061 159.801 155.236 159.801 152.986C159.801 150.735 128.55 148.911 90.0006 148.911C51.4509 148.911 20.2002 150.735 20.2002 152.986C20.2002 155.236 51.4509 157.061 90.0006 157.061Z" fill="#F5F5F5"/>
<path d="M138.644 136.937C138.644 136.937 136.441 106.294 148.598 75.6432L147.133 74.3328C147.133 74.3328 133.831 97.218 132.625 137.358L138.644 136.937Z" fill="#FC8135"/>
<g opacity="0.5">
<path d="M138.643 136.937C138.643 136.937 136.44 106.294 148.597 75.6432L147.132 74.3328C147.132 74.3328 133.83 97.218 132.624 137.358L138.643 136.937Z" fill="white"/>
</g>
<path d="M151.885 67.6006C155.679 65.4874 160.773 69.6562 161.083 75.6178C160.575 75.2707 160.039 74.9661 159.481 74.707C159.304 73.2022 159.121 71.8666 159.121 71.8666V74.5486C158.808 74.4082 158.469 74.2714 158.098 74.1418L157.951 72.7018L157.738 74.0338C157.233 73.8734 156.719 73.7447 156.198 73.6486L155.838 69.4078L155.189 73.501C154.654 73.4454 154.115 73.4297 153.577 73.4542L153.368 70.5742L153.152 73.4794C152.688 73.5211 152.227 73.5933 151.773 73.6954L151.561 69.379C151.561 69.379 151.402 71.773 151.229 73.7962C149.913 74.168 148.676 74.7781 147.579 75.5962V75.0706C147.579 75.0706 148.418 69.5302 151.885 67.6006Z" fill="#FC8135"/>
<path d="M147.01 65.3399C144.367 61.8911 138.035 63.6911 135.382 69.0407C135.987 68.9247 136.601 68.8584 137.218 68.8427C137.977 67.5287 138.658 66.3731 138.658 66.3731L137.578 68.8355C137.916 68.8355 138.298 68.8355 138.658 68.8715L139.378 67.5935L139.043 68.9003C139.571 68.9541 140.095 69.0394 140.613 69.1559L142.675 65.4191L141.642 69.4331C142.157 69.5954 142.658 69.7951 143.143 70.0307L144.479 67.4711L143.521 70.2251C143.931 70.4472 144.326 70.6961 144.702 70.9703L146.581 67.1111C146.581 67.1111 145.775 69.3683 145.141 71.2979C146.2 72.1637 147.091 73.2168 147.769 74.4047L147.978 73.9223C147.978 73.9223 149.422 68.4899 147.01 65.3399Z" fill="#FC8135"/>
<path d="M143.68 72.828C146.768 70.218 148.759 72.828 148.759 72.828C147.617 73.0857 146.568 73.6567 145.732 74.4768L145.372 73.9404V74.8116C145.156 75.0312 144.943 75.258 144.742 75.492L144.187 73.9404L144.324 75.996C144.029 76.356 143.752 76.7484 143.496 77.13L143.312 75.618L143.19 77.598C142.92 78.0264 142.672 78.4476 142.47 78.8472L142.351 76.086L142.056 79.6212C141.516 80.6796 141.221 81.4212 141.221 81.4212C141.221 81.4212 140.591 75.4344 143.68 72.828Z" fill="#FC8135"/>
<path d="M150.991 80.0424L150.368 80.3448C150.314 79.8804 150.249 79.3908 150.17 78.9048L150.631 78.1848L150.098 78.462C150.069 78.2964 150.037 78.1344 150.004 77.9688L150.631 76.554L149.81 77.076C149.486 75.7332 149.032 74.556 148.402 73.944C148.402 73.944 154.882 76.536 150.613 83.4012C150.613 83.4012 150.577 82.2636 150.415 80.7624L150.991 80.0424Z" fill="#FC8135"/>
<path d="M144.904 73.7387L144 71.6687L144.285 73.7747L143.961 73.8107L142.711 72.0107L142.909 74.0015C142.425 74.1124 141.948 74.2519 141.48 74.4191C140.976 74.5999 140.48 74.8065 139.997 75.0383L139.453 73.2383L139.626 75.2147C139.151 75.4523 138.69 75.7079 138.244 75.9743L138.024 74.4191L137.931 76.1759C137.383 76.5143 136.851 76.8599 136.383 77.2019L136.627 74.4191L135.997 77.4827C135.508 77.8427 135.065 78.2027 134.683 78.5015L134.773 76.5683L134.107 78.9875C133.56 79.4555 133.247 79.7579 133.247 79.7579C133.999 72.9791 136.8 70.4915 141.21 70.0991C145.62 69.7067 148.41 74.4191 148.41 74.4191C148.41 74.4191 147.118 73.6739 144.904 73.7387Z" fill="#FC8135"/>
<path d="M156.96 82.9223L156.416 84.9095C156.262 84.3947 156.056 83.7323 155.772 82.9943L156.341 80.0675L155.52 82.3391C155.088 81.2434 154.572 80.183 153.976 79.1675L154.742 77.1659L153.63 78.6059C153.45 78.3251 153.27 78.0551 153.061 77.7923L153.508 76.5323L152.888 77.5691C152.752 77.3963 152.611 77.2307 152.467 77.0723L153.018 75.3839L152.233 76.8239C151.836 76.4076 151.394 76.0369 150.916 75.7187L151.758 73.6667C151.758 73.6667 151.207 74.4875 150.538 75.4955C149.881 75.1264 149.148 74.9168 148.396 74.8835C149.388 73.6234 150.769 72.7262 152.323 72.3311C154.793 71.7839 159.667 76.5251 156.715 86.0111C156.715 86.0111 156.661 85.7843 156.557 85.4027L156.96 82.9223Z" fill="#FC8135"/>
<path d="M154.339 63.9179L154.659 65.1707C154.507 65.1702 154.356 65.181 154.206 65.2031L153.824 63.5759L154.036 65.2355C153.715 65.3055 153.404 65.4206 153.115 65.5775L152.586 63.3779L152.82 65.7503C152.704 65.8223 152.586 65.9015 152.46 65.9915L151.833 63.9179L152.28 66.1391C151.669 66.669 151.135 67.2822 150.696 67.9607V64.9871L150.051 69.0191C149.392 70.2397 148.84 71.5153 148.402 72.8315C148.402 72.8315 148.762 62.0531 151.437 61.0235C154.112 59.9939 155.282 65.2787 155.282 65.2787C155.166 65.2358 155.045 65.208 154.922 65.1959L154.339 63.9179Z" fill="#FC8135"/>
<path d="M149.76 75.6179L149.4 77.6591L148.762 75.6359L147.6 77.0795L147.29 75.6179L146.005 76.5503C146.005 76.5503 146.34 73.9583 147.2 72.8279C148.06 71.6975 150.314 72.6947 149.76 75.6179Z" fill="#FC8135"/>
<g opacity="0.3">
<path d="M151.885 67.6006C155.679 65.4874 160.773 69.6562 161.083 75.6178C160.575 75.2707 160.039 74.9661 159.481 74.707C159.304 73.2022 159.121 71.8666 159.121 71.8666V74.5486C158.808 74.4082 158.469 74.2714 158.098 74.1418L157.951 72.7018L157.738 74.0338C157.233 73.8734 156.719 73.7447 156.198 73.6486L155.838 69.4078L155.189 73.501C154.654 73.4454 154.115 73.4297 153.577 73.4542L153.368 70.5742L153.152 73.4794C152.688 73.5211 152.227 73.5933 151.773 73.6954L151.561 69.379C151.561 69.379 151.402 71.773 151.229 73.7962C149.913 74.168 148.676 74.7781 147.579 75.5962V75.0706C147.579 75.0706 148.418 69.5302 151.885 67.6006Z" fill="white"/>
<path d="M147.01 65.3399C144.367 61.8911 138.035 63.6911 135.382 69.0407C135.987 68.9247 136.601 68.8584 137.218 68.8427C137.977 67.5287 138.658 66.3731 138.658 66.3731L137.578 68.8355C137.916 68.8355 138.298 68.8355 138.658 68.8715L139.378 67.5935L139.043 68.9003C139.571 68.9541 140.095 69.0394 140.613 69.1559L142.675 65.4191L141.642 69.4331C142.157 69.5954 142.658 69.7951 143.143 70.0307L144.479 67.4711L143.521 70.2251C143.931 70.4472 144.326 70.6961 144.702 70.9703L146.581 67.1111C146.581 67.1111 145.775 69.3683 145.141 71.2979C146.2 72.1637 147.091 73.2168 147.769 74.4047L147.978 73.9223C147.978 73.9223 149.422 68.4899 147.01 65.3399Z" fill="white"/>
<path d="M143.68 72.828C146.768 70.218 148.759 72.828 148.759 72.828C147.617 73.0857 146.568 73.6567 145.732 74.4768L145.372 73.9404V74.8116C145.156 75.0312 144.943 75.258 144.742 75.492L144.187 73.9404L144.324 75.996C144.029 76.356 143.752 76.7484 143.496 77.13L143.312 75.618L143.19 77.598C142.92 78.0264 142.672 78.4476 142.47 78.8472L142.351 76.086L142.056 79.6212C141.516 80.6796 141.221 81.4212 141.221 81.4212C141.221 81.4212 140.591 75.4344 143.68 72.828Z" fill="white"/>
<path d="M150.991 80.0422L150.368 80.3447C150.314 79.8803 150.249 79.3907 150.17 78.9047L150.631 78.1847L150.098 78.4618C150.069 78.2962 150.037 78.1343 150.004 77.9687L150.631 76.5538L149.81 77.0759C149.486 75.7331 149.032 74.5558 148.402 73.9438C148.402 73.9438 154.882 76.5358 150.613 83.401C150.613 83.401 150.577 82.2634 150.415 80.7622L150.991 80.0422Z" fill="white"/>
<path d="M144.904 73.7387L144 71.6687L144.285 73.7747L143.961 73.8107L142.711 72.0107L142.909 74.0015C142.425 74.1124 141.948 74.2519 141.48 74.4191C140.976 74.5999 140.48 74.8065 139.997 75.0383L139.453 73.2383L139.626 75.2147C139.151 75.4523 138.69 75.7079 138.244 75.9743L138.024 74.4191L137.931 76.1759C137.383 76.5143 136.851 76.8599 136.383 77.2019L136.627 74.4191L135.997 77.4827C135.508 77.8427 135.065 78.2027 134.683 78.5015L134.773 76.5683L134.107 78.9875C133.56 79.4555 133.247 79.7579 133.247 79.7579C133.999 72.9791 136.8 70.4915 141.21 70.0991C145.62 69.7067 148.41 74.4191 148.41 74.4191C148.41 74.4191 147.118 73.6739 144.904 73.7387Z" fill="white"/>
<path d="M156.96 82.9223L156.416 84.9095C156.262 84.3947 156.056 83.7323 155.772 82.9943L156.341 80.0675L155.52 82.3391C155.088 81.2434 154.572 80.183 153.976 79.1675L154.742 77.1659L153.63 78.6059C153.45 78.3251 153.27 78.0551 153.061 77.7923L153.508 76.5323L152.888 77.5691C152.752 77.3963 152.611 77.2307 152.467 77.0723L153.018 75.3839L152.233 76.8239C151.836 76.4076 151.394 76.0369 150.916 75.7187L151.758 73.6667C151.758 73.6667 151.207 74.4875 150.538 75.4955C149.881 75.1264 149.148 74.9168 148.396 74.8835C149.388 73.6234 150.769 72.7262 152.323 72.3311C154.793 71.7839 159.667 76.5251 156.715 86.0111C156.715 86.0111 156.661 85.7843 156.557 85.4027L156.96 82.9223Z" fill="white"/>
<path d="M154.339 63.9179L154.659 65.1707C154.507 65.1702 154.356 65.181 154.206 65.2031L153.824 63.5759L154.036 65.2355C153.715 65.3055 153.404 65.4206 153.115 65.5775L152.586 63.3779L152.82 65.7503C152.704 65.8223 152.586 65.9015 152.46 65.9915L151.833 63.9179L152.28 66.1391C151.669 66.669 151.135 67.2822 150.696 67.9607V64.9871L150.051 69.0191C149.392 70.2397 148.84 71.5153 148.402 72.8315C148.402 72.8315 148.762 62.0531 151.437 61.0235C154.112 59.9939 155.282 65.2787 155.282 65.2787C155.166 65.2358 155.045 65.208 154.922 65.1959L154.339 63.9179Z" fill="white"/>
<path d="M149.76 75.6179L149.4 77.6591L148.762 75.6359L147.6 77.0795L147.29 75.6179L146.005 76.5503C146.005 76.5503 146.34 73.9583 147.2 72.8279C148.06 71.6975 150.314 72.6947 149.76 75.6179Z" fill="white"/>
</g>
<path d="M42.7323 141.228C42.7323 141.228 40.8459 111.884 31.1475 73.6667L33.1203 72.1799C33.1203 72.1799 41.6235 85.9895 50.1555 139.5L42.7323 141.228Z" fill="#FC8135"/>
<g opacity="0.5">
<path d="M42.7323 141.228C42.7323 141.228 40.8459 111.884 31.1475 73.6667L33.1203 72.1799C33.1203 72.1799 41.6235 85.9895 50.1555 139.5L42.7323 141.228Z" fill="white"/>
</g>
<path d="M28.6487 64.7674C24.0875 62.2258 17.9675 67.2334 17.5967 74.3938C18.21 73.9829 18.8553 73.6218 19.5263 73.3138C19.7351 71.5138 19.9475 69.901 19.9475 69.901V73.141C20.3075 72.9754 20.7287 72.8134 21.1715 72.655L21.3479 70.909L21.6071 72.511C22.2134 72.3161 22.8314 72.1598 23.4575 72.043L23.9039 66.9526L24.6851 71.8666C25.3284 71.7995 25.9758 71.7814 26.6219 71.8126L26.8739 68.353L27.1295 71.845C27.688 71.891 28.2426 71.9764 28.7891 72.1006L29.0195 66.9526C29.0195 66.9526 29.2067 69.8326 29.4155 72.259C30.9972 72.704 32.4836 73.4361 33.8003 74.419V73.789C33.8003 73.789 32.8103 67.0822 28.6487 64.7674Z" fill="#FC8135"/>
<path d="M34.503 62.0496C37.6782 57.906 45.303 60.0696 48.471 66.492C47.7429 66.3547 47.0049 66.2764 46.2642 66.258C45.3534 64.6776 44.5218 63.2916 44.5218 63.2916L45.8034 66.2472C45.3966 66.2472 44.9538 66.2472 44.4858 66.2904L43.629 64.7568L44.0286 66.3264C43.3954 66.3905 42.7667 66.4927 42.1458 66.6324L39.7086 62.1396L40.947 66.96C40.3309 67.1575 39.7294 67.3981 39.147 67.68L37.5414 64.6056L38.6934 67.9104C38.2004 68.1773 37.7264 68.478 37.275 68.8104L35.0178 64.1736C35.0178 64.1736 35.9862 66.8844 36.7638 69.2136C35.4905 70.2553 34.4191 71.5219 33.603 72.9504L33.351 72.3708C33.351 72.3708 31.6014 65.8332 34.503 62.0496Z" fill="#FC8135"/>
<path d="M38.5204 71.0424C34.8088 67.9068 32.4004 71.0424 32.4004 71.0424C33.7727 71.3542 35.0314 72.0409 36.0364 73.026L36.4612 72.3816V73.4292C36.724 73.6884 36.976 73.962 37.2208 74.2428L37.8832 72.3816L37.7212 74.8512C38.0812 75.2976 38.4052 75.7548 38.7148 76.212L38.9344 74.412L39.0784 76.7916C39.406 77.3064 39.7048 77.814 39.9712 78.2892L40.1116 74.9772L40.4716 79.2252C41.1196 80.496 41.476 81.3852 41.476 81.3852C41.476 81.3852 42.214 74.1744 38.5204 71.0424Z" fill="#FC8135"/>
<path d="M29.7177 79.7111L30.4665 80.0711C30.5313 79.5131 30.6069 78.9263 30.7041 78.3287L30.1533 77.4755L30.7905 77.8067C30.8265 77.6087 30.8625 77.4107 30.9021 77.2163L30.1533 75.4991L31.1361 76.1255C31.5285 74.5163 32.0721 73.0871 32.8281 72.3671C32.8281 72.3671 25.0593 75.4811 30.1713 83.7287C30.1713 83.7287 30.2181 82.3607 30.4089 80.5571L29.7177 79.7111Z" fill="#FC8135"/>
<path d="M37.0327 72.1367L38.1127 69.6491L37.7527 72.1691L38.1415 72.2123L39.6391 70.0523L39.4051 72.4427C39.9809 72.5726 40.5484 72.7373 41.1043 72.9359C41.7165 73.1522 42.3173 73.3997 42.9043 73.6775L43.5559 71.5175L43.3507 73.8899C43.9195 74.1743 44.4739 74.4839 45.0103 74.8043L45.2767 72.9287L45.3919 75.0347C46.0471 75.4415 46.6735 75.8591 47.2459 76.2695L46.9579 72.9287L47.7103 76.6079C48.3043 77.0435 48.8335 77.4611 49.2907 77.8319L49.1827 75.5063L49.9819 78.4115C50.6407 78.9767 51.0187 79.3403 51.0187 79.3403C50.1115 71.2331 46.7311 68.2307 41.4535 67.7375C36.1759 67.2443 32.8135 72.9287 32.8135 72.9287C32.8135 72.9287 34.3723 72.0611 37.0327 72.1367Z" fill="#FC8135"/>
<path d="M22.5432 83.1706L23.1984 85.5574C23.382 84.9382 23.6376 84.1462 23.9688 83.257L23.2884 79.7398L24.2712 82.4794C24.7883 81.1631 25.4082 79.8896 26.1252 78.6706L25.2 76.2658L26.5392 78.019C26.7588 77.6842 26.9856 77.3602 27.2232 77.0434L26.6904 75.499L27.432 76.7446C27.5976 76.5394 27.7668 76.3414 27.9396 76.147L27.2772 74.1202L28.2204 75.859C28.6962 75.3598 29.2263 74.9155 29.8008 74.5342L28.8 72.0682L30.2652 74.2642C31.0555 73.8271 31.9369 73.5806 32.8392 73.5442C31.6478 72.0218 29.9857 70.9369 28.1124 70.459C25.1424 69.7966 19.2888 75.499 22.8348 86.8714C22.8348 86.8714 22.896 86.6014 23.0256 86.1514L22.5432 83.1706Z" fill="#FC8135"/>
<path d="M25.7004 60.3431L25.3116 61.8479C25.4947 61.8452 25.6777 61.8572 25.8588 61.8839L26.316 59.9291L26.0604 61.9199C26.4463 62.0056 26.8183 62.1449 27.1656 62.3339L27.8028 59.6915L27.522 62.5391C27.6676 62.6298 27.8082 62.7283 27.9432 62.8343L28.6956 60.3431L28.188 63.0251C28.9225 63.6605 29.5625 64.3976 30.0888 65.2139V61.6427L30.8484 66.4631C31.6383 67.93 32.3007 69.462 32.8284 71.0423C32.8284 71.0423 32.4 58.0823 29.1816 56.8583C25.9632 55.6343 24.5664 61.9703 24.5664 61.9703C24.7016 61.9218 24.8416 61.888 24.984 61.8695L25.7004 60.3431Z" fill="#FC8135"/>
<path d="M31.1832 74.3939L31.6368 76.8239L32.4 74.3939L33.8004 76.1543L34.1604 74.3939L35.7084 75.5135C35.7084 75.5135 35.3052 72.4031 34.2684 71.0423C33.2316 69.6815 30.5316 70.8839 31.1832 74.3939Z" fill="#FC8135"/>
<g opacity="0.3">
<path d="M28.6487 64.7674C24.0875 62.2258 17.9675 67.2334 17.5967 74.3938C18.21 73.9829 18.8553 73.6218 19.5263 73.3138C19.7351 71.5138 19.9475 69.901 19.9475 69.901V73.141C20.3075 72.9754 20.7287 72.8134 21.1715 72.655L21.3479 70.909L21.6071 72.511C22.2134 72.3161 22.8314 72.1598 23.4575 72.043L23.9039 66.9526L24.6851 71.8666C25.3284 71.7995 25.9758 71.7814 26.6219 71.8126L26.8739 68.353L27.1295 71.845C27.688 71.891 28.2426 71.9764 28.7891 72.1006L29.0195 66.9526C29.0195 66.9526 29.2067 69.8326 29.4155 72.259C30.9972 72.704 32.4836 73.4361 33.8003 74.419V73.789C33.8003 73.789 32.8103 67.0822 28.6487 64.7674Z" fill="white"/>
<path d="M34.503 62.0495C37.6782 57.9059 45.303 60.0695 48.471 66.4919C47.7429 66.3546 47.0049 66.2763 46.2642 66.2579C45.3534 64.6775 44.5218 63.2915 44.5218 63.2915L45.8034 66.2471C45.3966 66.2471 44.9538 66.2471 44.4858 66.2903L43.629 64.7567L44.0286 66.3263C43.3954 66.3904 42.7667 66.4925 42.1458 66.6323L39.7086 62.1395L40.947 66.9599C40.3309 67.1574 39.7294 67.398 39.147 67.6799L37.5414 64.6055L38.6934 67.9103C38.2004 68.1771 37.7264 68.4779 37.275 68.8103L35.0178 64.1735C35.0178 64.1735 35.9862 66.8843 36.7638 69.2135C35.4905 70.2552 34.4191 71.5218 33.603 72.9503L33.351 72.3707C33.351 72.3707 31.6014 65.8331 34.503 62.0495Z" fill="white"/>
<path d="M38.5204 71.0423C34.8088 67.9067 32.4004 71.0423 32.4004 71.0423C33.7727 71.3541 35.0314 72.0408 36.0364 73.0259L36.4612 72.3815V73.4291C36.724 73.6883 36.976 73.9619 37.2208 74.2427L37.8832 72.3815L37.7212 74.8511C38.0812 75.2975 38.4052 75.7547 38.7148 76.2119L38.9344 74.4119L39.0784 76.7915C39.406 77.3063 39.7048 77.8139 39.9712 78.2891L40.1116 74.9771L40.4716 79.2251C41.1196 80.4959 41.476 81.3851 41.476 81.3851C41.476 81.3851 42.214 74.1743 38.5204 71.0423Z" fill="white"/>
<path d="M29.7177 79.7111L30.4665 80.0711C30.5313 79.5131 30.6069 78.9263 30.7041 78.3287L30.1533 77.4755L30.7905 77.8067C30.8265 77.6087 30.8625 77.4107 30.9021 77.2163L30.1533 75.4991L31.1361 76.1255C31.5285 74.5163 32.0721 73.0871 32.8281 72.3671C32.8281 72.3671 25.0593 75.4811 30.1713 83.7287C30.1713 83.7287 30.2181 82.3607 30.4089 80.5571L29.7177 79.7111Z" fill="white"/>
<path d="M37.0327 72.1367L38.1127 69.6491L37.7527 72.1691L38.1415 72.2123L39.6391 70.0523L39.4051 72.4427C39.9809 72.5726 40.5484 72.7373 41.1043 72.9359C41.7165 73.1522 42.3173 73.3997 42.9043 73.6775L43.5559 71.5175L43.3507 73.8899C43.9195 74.1743 44.4739 74.4839 45.0103 74.8043L45.2767 72.9287L45.3919 75.0347C46.0471 75.4415 46.6735 75.8591 47.2459 76.2695L46.9579 72.9287L47.7103 76.6079C48.3043 77.0435 48.8335 77.4611 49.2907 77.8319L49.1827 75.5063L49.9819 78.4115C50.6407 78.9767 51.0187 79.3403 51.0187 79.3403C50.1115 71.2331 46.7311 68.2307 41.4535 67.7375C36.1759 67.2443 32.8135 72.9287 32.8135 72.9287C32.8135 72.9287 34.3723 72.0611 37.0327 72.1367Z" fill="white"/>
<path d="M22.5432 83.1706L23.1984 85.5574C23.382 84.9382 23.6376 84.1462 23.9688 83.257L23.2884 79.7398L24.2712 82.4794C24.7883 81.1631 25.4082 79.8896 26.1252 78.6706L25.2 76.2658L26.5392 78.019C26.7588 77.6842 26.9856 77.3602 27.2232 77.0434L26.6904 75.499L27.432 76.7446C27.5976 76.5394 27.7668 76.3414 27.9396 76.147L27.2772 74.1202L28.2204 75.859C28.6962 75.3598 29.2263 74.9155 29.8008 74.5342L28.8 72.0682L30.2652 74.2642C31.0555 73.8271 31.9369 73.5806 32.8392 73.5442C31.6478 72.0218 29.9857 70.9369 28.1124 70.459C25.1424 69.7966 19.2888 75.499 22.8348 86.8714C22.8348 86.8714 22.896 86.6014 23.0256 86.1514L22.5432 83.1706Z" fill="white"/>
<path d="M25.7004 60.3431L25.3116 61.8479C25.4947 61.8452 25.6777 61.8572 25.8588 61.8839L26.316 59.9291L26.0604 61.9199C26.4463 62.0056 26.8183 62.1449 27.1656 62.3339L27.8028 59.6915L27.522 62.5391C27.6676 62.6298 27.8082 62.7283 27.9432 62.8343L28.6956 60.3431L28.188 63.0251C28.9225 63.6605 29.5625 64.3976 30.0888 65.2139V61.6427L30.8484 66.4631C31.6383 67.93 32.3007 69.462 32.8284 71.0423C32.8284 71.0423 32.4 58.0823 29.1816 56.8583C25.9632 55.6343 24.5664 61.9703 24.5664 61.9703C24.7016 61.9218 24.8416 61.888 24.984 61.8695L25.7004 60.3431Z" fill="white"/>
<path d="M31.1832 74.3939L31.6368 76.8239L32.4 74.3939L33.8004 76.1543L34.1604 74.3939L35.7084 75.5135C35.7084 75.5135 35.3052 72.4031 34.2684 71.0423C33.2316 69.6815 30.5316 70.8839 31.1832 74.3939Z" fill="white"/>
</g>
<path d="M161.279 146.16C161.279 146.16 134.841 127.458 91.5258 127.458C48.2106 127.458 20.3682 145.609 20.3682 145.609L161.279 146.16Z" fill="#FC8135"/>
<path opacity="0.7" d="M161.279 146.16C161.279 146.16 134.841 127.458 91.5258 127.458C48.2106 127.458 20.3682 145.609 20.3682 145.609L161.279 146.16Z" fill="white"/>
<path d="M49.4707 136.872C49.4707 136.872 43.6423 95.238 57.4159 52.272L55.2955 50.6196C55.2955 50.6196 39.2395 83.0844 41.2915 138.002L49.4707 136.872Z" fill="#FC8135"/>
<g opacity="0.6">
<path d="M49.4707 136.872C49.4707 136.872 43.6423 95.238 57.4159 52.272L55.2955 50.6196C55.2955 50.6196 39.2395 83.0844 41.2915 138.002L49.4707 136.872Z" fill="white"/>
</g>
<path d="M61.1637 40.9895C66.1533 37.7495 73.4901 42.9767 74.4621 51.0695C73.7331 50.6483 72.971 50.2871 72.1833 49.9895C71.8233 47.9483 71.4633 46.1411 71.4633 46.1411L71.7081 49.8023C71.2725 49.6439 70.7937 49.4891 70.2681 49.3451L69.9333 47.3759L69.7641 49.2119C69.0598 49.0396 68.3457 48.9098 67.6257 48.8231L66.7257 43.0631L66.2145 48.7079C65.4777 48.6849 64.7402 48.715 64.0077 48.7979L63.4497 44.8991L63.4281 48.8879C62.7966 48.9881 62.1725 49.13 61.5597 49.3127L60.9081 43.4591C60.9081 43.4591 60.9081 46.7387 60.8613 49.5215C59.0975 50.1516 57.4647 51.101 56.0445 52.3223L55.9941 51.6023C55.9941 51.6023 56.6061 43.9415 61.1637 40.9895Z" fill="#FC8135"/>
<path d="M54.3022 38.3507C50.3746 33.8831 41.8966 36.9107 38.7646 44.4707C39.5814 44.2553 40.4147 44.1084 41.2558 44.0315C42.1702 42.1703 43.009 40.5287 43.009 40.5287L41.7778 43.9847C42.2422 43.9523 42.7426 43.9307 43.279 43.9343L44.1358 42.1343L43.801 43.9343C44.5246 43.9578 45.246 44.0264 45.961 44.1395L48.3874 38.8439L47.347 44.4167C48.0636 44.5916 48.7663 44.819 49.4494 45.0971L51.037 41.4971L49.9822 45.3455C50.5628 45.6103 51.1245 45.9147 51.6634 46.2563L53.8738 40.8131C53.8738 40.8131 52.9811 43.9703 52.2754 46.6595C53.8035 47.7445 55.12 49.1 56.1598 50.6591L56.401 49.9823C56.401 49.9823 57.8878 42.4259 54.3022 38.3507Z" fill="#FC8135"/>
<path d="M50.4433 48.8772C54.4033 45.0288 57.3805 48.4091 57.3805 48.4091C55.8901 48.7691 54.5617 49.7339 53.3989 50.9291L52.8661 50.2307L52.9489 51.4223C52.6681 51.7391 52.4017 52.0668 52.1461 52.4088L51.2497 50.3387L51.6097 53.136C51.2497 53.6688 50.8897 54.2159 50.5837 54.7595L50.1949 52.7111L50.2129 55.4219C49.8781 56.0339 49.5793 56.6316 49.3165 57.1968L48.9025 53.4419L48.8233 58.2948C48.1825 59.7888 47.8477 60.8399 47.8477 60.8399C47.8477 60.8399 46.4653 52.722 50.4433 48.8772Z" fill="#FC8135"/>
<path d="M61.092 58.0571L60.2712 58.5251C60.1524 57.8951 60.0192 57.2327 59.8644 56.5631L60.426 55.5479L59.724 55.9763C59.67 55.7531 59.6124 55.5299 59.5548 55.3103L60.2748 53.3195L59.1948 54.1079C58.6296 52.3079 57.8988 50.7239 56.9844 49.9607C56.9844 49.9607 66.0528 52.9055 60.8724 62.6723C60.8724 62.6723 60.7176 61.1207 60.3612 59.0723L61.092 58.0571Z" fill="#FC8135"/>
<path d="M52.2 50.0075L50.76 47.2643L51.3432 50.1155L50.904 50.1947L49.032 47.8403L49.482 50.5439C48.8384 50.7338 48.2072 50.9635 47.592 51.2315C46.9192 51.5238 46.2619 51.8506 45.6228 52.2107L44.7156 49.8131L45.1296 52.4951C44.5068 52.8551 43.8984 53.2547 43.3296 53.6615L42.8832 51.5483L42.912 53.9531C42.192 54.4643 41.5224 54.9899 40.8996 55.5011L40.9752 51.6779L40.3956 55.9187C39.7584 56.4587 39.186 56.9735 38.6964 57.4307L38.6388 54.7775L37.9548 58.1435C37.2348 58.8347 36.8496 59.2739 36.8496 59.2739C37.26 49.9931 40.8708 46.3139 46.8324 45.3563C52.794 44.3987 57.0528 50.5943 57.0528 50.5943C57.0528 50.5943 55.2132 49.7195 52.2 50.0075Z" fill="#FC8135"/>
<path d="M69.5092 61.4375L68.9512 64.2023C68.6956 63.5111 68.3428 62.6291 67.8964 61.6463L68.4004 57.5963L67.4932 60.7859C66.8024 59.331 66.0008 57.9312 65.0956 56.5991L65.956 53.7947L64.57 55.8719C64.2964 55.5119 64.0156 55.1519 63.7204 54.8171L64.21 53.0531L63.4612 54.5255C63.256 54.3059 63.0508 54.0935 62.8384 53.8847L63.436 51.5303L62.4964 53.5643C61.9168 53.0325 61.2792 52.5676 60.5956 52.1783L61.5568 49.2983L60.0592 51.9011C59.1299 51.46 58.1105 51.2418 57.082 51.2639C57.082 51.2639 58.882 48.3839 62.2048 47.4191C65.5276 46.4543 72.6232 52.4591 69.4624 65.6711C69.4624 65.6711 69.3688 65.3687 69.1888 64.8575L69.5092 61.4375Z" fill="#FC8135"/>
<path d="M64.1731 35.7336L64.7311 37.4148C64.5226 37.4239 64.3154 37.4516 64.1119 37.4976L63.4387 35.3124L63.8851 37.5552C63.4518 37.6811 63.0385 37.8677 62.6575 38.1096L61.7359 35.154L62.2795 38.3724C62.1319 38.4804 61.9807 38.6028 61.8259 38.7324L60.7783 35.9604L61.5595 38.9736C60.7725 39.7524 60.1009 40.6398 59.5651 41.6088L59.2915 37.548L58.7911 43.0992C58.0006 44.8213 57.361 46.6088 56.8795 48.4416C56.8795 48.4416 56.3719 33.6816 59.9323 32.04C63.4927 30.3984 65.5735 37.4976 65.5735 37.4976C65.4154 37.451 65.2521 37.4244 65.0875 37.4184L64.1731 35.7336Z" fill="#FC8135"/>
<path d="M59.0407 52.1279L58.7095 54.9215L57.6547 52.2215L56.2147 54.3239L55.6603 52.3547L53.9863 53.7443C53.9863 53.7443 54.2095 50.1803 55.2787 48.5531C56.3479 46.9259 59.4907 48.0887 59.0407 52.1279Z" fill="#FC8135"/>
<g opacity="0.4">
<path d="M61.1637 40.9895C66.1533 37.7495 73.4901 42.9767 74.4621 51.0695C73.7331 50.6483 72.971 50.2871 72.1833 49.9895C71.8233 47.9483 71.4633 46.1411 71.4633 46.1411L71.7081 49.8023C71.2725 49.6439 70.7937 49.4891 70.2681 49.3451L69.9333 47.3759L69.7641 49.2119C69.0598 49.0396 68.3457 48.9098 67.6257 48.8231L66.7257 43.0631L66.2145 48.7079C65.4777 48.6849 64.7402 48.715 64.0077 48.7979L63.4497 44.8991L63.4281 48.8879C62.7966 48.9881 62.1725 49.13 61.5597 49.3127L60.9081 43.4591C60.9081 43.4591 60.9081 46.7387 60.8613 49.5215C59.0975 50.1516 57.4647 51.101 56.0445 52.3223L55.9941 51.6023C55.9941 51.6023 56.6061 43.9415 61.1637 40.9895Z" fill="white"/>
<path d="M54.3022 38.3507C50.3746 33.8831 41.8966 36.9107 38.7646 44.4707C39.5814 44.2553 40.4147 44.1084 41.2558 44.0315C42.1702 42.1703 43.009 40.5287 43.009 40.5287L41.7778 43.9847C42.2422 43.9523 42.7426 43.9307 43.279 43.9343L44.1358 42.1343L43.801 43.9343C44.5246 43.9578 45.246 44.0264 45.961 44.1395L48.3874 38.8439L47.347 44.4167C48.0636 44.5916 48.7663 44.819 49.4494 45.0971L51.037 41.4971L49.9822 45.3455C50.5628 45.6103 51.1245 45.9147 51.6634 46.2563L53.8738 40.8131C53.8738 40.8131 52.9811 43.9703 52.2754 46.6595C53.8035 47.7445 55.12 49.1 56.1598 50.6591L56.401 49.9823C56.401 49.9823 57.8878 42.4259 54.3022 38.3507Z" fill="white"/>
<path d="M50.4433 48.8772C54.4033 45.0288 57.3805 48.4091 57.3805 48.4091C55.8901 48.7691 54.5617 49.7339 53.3989 50.9291L52.8661 50.2307L52.9489 51.4223C52.6681 51.7391 52.4017 52.0668 52.1461 52.4088L51.2497 50.3387L51.6097 53.136C51.2497 53.6688 50.8897 54.2159 50.5837 54.7595L50.1949 52.7111L50.2129 55.4219C49.8781 56.0339 49.5793 56.6316 49.3165 57.1968L48.9025 53.4419L48.8233 58.2948C48.1825 59.7888 47.8477 60.8399 47.8477 60.8399C47.8477 60.8399 46.4653 52.722 50.4433 48.8772Z" fill="white"/>
<path d="M61.092 58.0571L60.2712 58.5251C60.1524 57.8951 60.0192 57.2327 59.8644 56.5631L60.426 55.5479L59.724 55.9763C59.67 55.7531 59.6124 55.5299 59.5548 55.3103L60.2748 53.3195L59.1948 54.1079C58.6296 52.3079 57.8988 50.7239 56.9844 49.9607C56.9844 49.9607 66.0528 52.9055 60.8724 62.6723C60.8724 62.6723 60.7176 61.1207 60.3612 59.0723L61.092 58.0571Z" fill="white"/>
<path d="M52.2 50.0075L50.76 47.2643L51.3432 50.1155L50.904 50.1947L49.032 47.8403L49.482 50.5439C48.8384 50.7338 48.2072 50.9635 47.592 51.2315C46.9192 51.5238 46.2619 51.8506 45.6228 52.2107L44.7156 49.8131L45.1296 52.4951C44.5068 52.8551 43.8984 53.2547 43.3296 53.6615L42.8832 51.5483L42.912 53.9531C42.192 54.4643 41.5224 54.9899 40.8996 55.5011L40.9752 51.6779L40.3956 55.9187C39.7584 56.4587 39.186 56.9735 38.6964 57.4307L38.6388 54.7775L37.9548 58.1435C37.2348 58.8347 36.8496 59.2739 36.8496 59.2739C37.26 49.9931 40.8708 46.3139 46.8324 45.3563C52.794 44.3987 57.0528 50.5943 57.0528 50.5943C57.0528 50.5943 55.2132 49.7195 52.2 50.0075Z" fill="white"/>
<path d="M69.5092 61.4375L68.9512 64.2023C68.6956 63.5111 68.3428 62.6291 67.8964 61.6463L68.4004 57.5963L67.4932 60.7859C66.8024 59.331 66.0008 57.9312 65.0956 56.5991L65.956 53.7947L64.57 55.8719C64.2964 55.5119 64.0156 55.1519 63.7204 54.8171L64.21 53.0531L63.4612 54.5255C63.256 54.3059 63.0508 54.0935 62.8384 53.8847L63.436 51.5303L62.4964 53.5643C61.9168 53.0325 61.2792 52.5676 60.5956 52.1783L61.5568 49.2983L60.0592 51.9011C59.1299 51.46 58.1105 51.2418 57.082 51.2639C57.082 51.2639 58.882 48.3839 62.2048 47.4191C65.5276 46.4543 72.6232 52.4591 69.4624 65.6711C69.4624 65.6711 69.3688 65.3687 69.1888 64.8575L69.5092 61.4375Z" fill="white"/>
<path d="M64.1731 35.7336L64.7311 37.4148C64.5226 37.4239 64.3154 37.4516 64.1119 37.4976L63.4387 35.3124L63.8851 37.5552C63.4518 37.6811 63.0385 37.8677 62.6575 38.1096L61.7359 35.154L62.2795 38.3724C62.1319 38.4804 61.9807 38.6028 61.8259 38.7324L60.7783 35.9604L61.5595 38.9736C60.7725 39.7524 60.1009 40.6398 59.5651 41.6088L59.2915 37.548L58.7911 43.0992C58.0006 44.8213 57.361 46.6088 56.8795 48.4416C56.8795 48.4416 56.3719 33.6816 59.9323 32.04C63.4927 30.3984 65.5735 37.4976 65.5735 37.4976C65.4154 37.451 65.2521 37.4244 65.0875 37.4184L64.1731 35.7336Z" fill="white"/>
<path d="M59.0407 52.1279L58.7095 54.9215L57.6547 52.2215L56.2147 54.3239L55.6603 52.3547L53.9863 53.7443C53.9863 53.7443 54.2095 50.1803 55.2787 48.5531C56.3479 46.9259 59.4907 48.0887 59.0407 52.1279Z" fill="white"/>
</g>
<path d="M95.8545 136.98C95.8545 136.98 106.129 104.004 133.201 81.7057C133.201 81.7057 124.136 110.286 95.8545 136.98Z" fill="#FC8135"/>
<path opacity="0.6" d="M133.179 81.7094C132.981 82.325 123.819 110.571 95.8545 136.973C95.8545 136.98 106.125 104.008 133.179 81.7094Z" fill="white"/>
<path opacity="0.2" d="M133.179 81.7166C132.981 82.3322 123.819 110.578 95.8545 136.98C113.192 120.409 132.841 82.4078 133.179 81.7166Z" fill="black"/>
<path d="M126.822 89.3196C126.822 89.3196 124.37 86.1048 123.65 83.088C123.65 83.088 121.267 88.5708 122.653 93.3552C123.588 93.006 124.441 92.4673 125.159 91.7728C125.876 91.0784 126.442 90.2432 126.822 89.3196Z" fill="#FC8135"/>
<path opacity="0.4" d="M126.822 89.3196C126.822 89.3196 124.37 86.1048 123.65 83.088C123.65 83.088 121.267 88.5708 122.653 93.3552C123.588 93.006 124.441 92.4673 125.159 91.7728C125.876 91.0784 126.442 90.2432 126.822 89.3196Z" fill="white"/>
<path d="M107.9 109.123L103.94 108.295L106.414 96.455L110.374 97.283L107.9 109.123ZM105.218 107.46L107.065 107.845L109.096 98.1254L107.252 97.7402L105.218 107.46Z" fill="#263238"/>
<path d="M101.01 127.933L100.549 127.836C100.425 127.802 100.296 127.794 100.168 127.812C100.041 127.831 99.9187 127.875 99.809 127.942C99.6994 128.009 99.6046 128.098 99.5305 128.203C99.4564 128.308 99.4047 128.427 99.3783 128.553C99.352 128.679 99.3517 128.809 99.3775 128.935C99.4033 129.061 99.4545 129.181 99.5281 129.286C99.6017 129.391 99.6961 129.481 99.8055 129.548C99.9149 129.616 100.037 129.661 100.164 129.679L100.625 129.777C100.749 129.81 100.879 129.818 101.006 129.8C101.133 129.782 101.256 129.738 101.365 129.671C101.475 129.604 101.57 129.515 101.644 129.41C101.718 129.304 101.77 129.185 101.796 129.059C101.822 128.934 101.823 128.804 101.797 128.678C101.771 128.552 101.72 128.432 101.646 128.327C101.573 128.221 101.478 128.132 101.369 128.064C101.26 127.997 101.137 127.952 101.01 127.933Z" fill="#263238"/>
<path opacity="0.1" d="M101.761 129.035C101.723 129.221 101.629 129.391 101.494 129.524C101.358 129.657 101.186 129.747 100.999 129.783C100.813 129.818 100.619 129.797 100.445 129.723C100.27 129.649 100.121 129.524 100.017 129.365C99.9124 129.206 99.8577 129.02 99.8594 128.83C99.8611 128.64 99.9192 128.454 100.026 128.297C100.133 128.14 100.284 128.018 100.461 127.947C100.637 127.876 100.83 127.859 101.016 127.897C101.266 127.95 101.484 128.099 101.623 128.312C101.763 128.526 101.813 128.785 101.761 129.035Z" fill="white"/>
<path d="M103.548 128.463L103.087 128.365C102.966 128.34 102.841 128.339 102.719 128.362C102.597 128.385 102.481 128.432 102.378 128.5C102.274 128.567 102.185 128.655 102.115 128.757C102.045 128.86 101.996 128.975 101.971 129.096C101.946 129.217 101.945 129.342 101.968 129.464C101.991 129.586 102.037 129.702 102.105 129.805C102.173 129.909 102.261 129.998 102.363 130.068C102.465 130.138 102.581 130.187 102.702 130.212L103.163 130.306C103.287 130.34 103.416 130.348 103.544 130.329C103.671 130.311 103.793 130.267 103.903 130.2C104.013 130.133 104.108 130.044 104.182 129.939C104.256 129.834 104.307 129.715 104.334 129.589C104.36 129.463 104.36 129.333 104.335 129.207C104.309 129.081 104.258 128.961 104.184 128.856C104.11 128.75 104.016 128.661 103.907 128.593C103.797 128.526 103.675 128.481 103.548 128.463Z" fill="#263238"/>
<path opacity="0.2" d="M104.297 129.564C104.234 129.802 104.082 130.007 103.872 130.136C103.663 130.266 103.412 130.31 103.171 130.259C102.93 130.209 102.718 130.068 102.577 129.866C102.437 129.663 102.38 129.415 102.418 129.172C102.437 129.043 102.483 128.919 102.553 128.809C102.622 128.698 102.713 128.603 102.82 128.528C102.927 128.454 103.049 128.402 103.176 128.376C103.304 128.35 103.436 128.351 103.564 128.377C103.692 128.404 103.813 128.457 103.919 128.531C104.026 128.606 104.117 128.702 104.185 128.813C104.254 128.924 104.299 129.048 104.318 129.177C104.337 129.306 104.33 129.438 104.297 129.564Z" fill="white"/>
<path d="M116.062 110.819L112.652 127.138C112.31 128.761 110.687 129.953 109.052 129.615L100.92 127.915L105.6 105.538L113.732 107.241C114.514 107.408 115.198 107.879 115.633 108.55C116.068 109.221 116.22 110.037 116.054 110.819H116.062Z" fill="#FC8135"/>
<path d="M108.374 105.691L105.428 105.076C104.905 104.966 104.392 105.302 104.282 105.825L99.8482 127.031C99.7387 127.555 100.074 128.068 100.598 128.178L103.544 128.793C104.067 128.903 104.58 128.567 104.69 128.044L109.124 106.838C109.233 106.314 108.898 105.801 108.374 105.691Z" fill="#263238"/>
<path opacity="0.2" d="M106.582 105.317L105.429 105.076C104.906 104.967 104.393 105.302 104.283 105.826L99.8492 127.032C99.7397 127.555 100.075 128.069 100.599 128.178L101.751 128.419C102.275 128.528 102.788 128.193 102.897 127.669L107.331 106.463C107.441 105.94 107.105 105.426 106.582 105.317Z" fill="white"/>
<path opacity="0.2" d="M116.061 110.819L112.652 127.138C112.31 128.761 110.686 129.953 109.052 129.614L105.787 128.93C105.699 128.613 105.679 128.28 105.729 127.955L109.534 109.735C109.64 109.3 109.913 108.924 110.293 108.688C110.673 108.452 111.131 108.374 111.568 108.472L115.993 109.397C116.128 109.859 116.152 110.346 116.061 110.819Z" fill="black"/>
<path opacity="0.2" d="M106.135 105.85L105.374 105.691C105.01 105.615 104.653 105.848 104.577 106.212L100.276 126.799C100.2 127.163 100.434 127.52 100.798 127.596L101.559 127.755C101.923 127.831 102.279 127.597 102.355 127.234L106.656 106.647C106.732 106.283 106.499 105.926 106.135 105.85Z" fill="black"/>
<path d="M109.538 98.1108L106.798 97.5384C106.641 97.5037 106.503 97.4093 106.414 97.275C106.324 97.1407 106.291 96.977 106.32 96.8184C106.354 96.6609 106.449 96.523 106.583 96.4337C106.717 96.3444 106.881 96.3106 107.04 96.3396L109.776 96.912C109.933 96.9467 110.072 97.0409 110.162 97.1751C110.251 97.3092 110.286 97.4729 110.258 97.632C110.223 97.7895 110.129 97.9274 109.995 98.0167C109.86 98.106 109.697 98.1397 109.538 98.1108Z" fill="#263238"/>
<path opacity="0.2" d="M109.538 98.1108L106.798 97.5384C106.641 97.5037 106.503 97.4093 106.414 97.275C106.324 97.1407 106.291 96.977 106.32 96.8184C106.354 96.6609 106.449 96.523 106.583 96.4337C106.717 96.3444 106.881 96.3106 107.04 96.3396L109.776 96.912C109.933 96.9467 110.072 97.0409 110.162 97.1751C110.251 97.3092 110.286 97.4729 110.258 97.632C110.223 97.7895 110.129 97.9274 109.995 98.0167C109.86 98.106 109.697 98.1397 109.538 98.1108Z" fill="white"/>
<path opacity="0.2" d="M109.552 98.1146C109.475 98.0979 109.401 98.0661 109.335 98.0208C109.27 97.9756 109.214 97.9179 109.171 97.851C109.128 97.7841 109.098 97.7094 109.084 97.631C109.07 97.5527 109.071 97.4724 109.088 97.3946V97.3658C109.103 97.2872 109.134 97.2124 109.179 97.146C109.224 97.0796 109.282 97.0229 109.349 96.9792C109.416 96.9356 109.491 96.9059 109.57 96.8919C109.649 96.8779 109.73 96.8799 109.808 96.8978C109.886 96.914 109.96 96.9456 110.026 96.9907C110.092 97.0358 110.148 97.0935 110.191 97.1605C110.234 97.2276 110.264 97.3025 110.278 97.381C110.292 97.4595 110.29 97.54 110.272 97.6178V97.6502C110.238 97.8069 110.143 97.9436 110.008 98.0306C109.873 98.1176 109.709 98.1478 109.552 98.1146Z" fill="black"/>
<path d="M80.421 95.8214C80.421 95.8214 79.5966 96.9014 78.621 98.003C77.595 99.173 76.4034 100.365 75.8526 100.321C74.7726 100.235 71.3238 98.9642 71.3238 98.9642L69.765 99.551C69.765 99.551 68.307 98.4026 68.2998 97.9958C68.2926 97.589 70.4598 97.1318 70.8702 97.1318C71.2806 97.1318 71.8674 97.7762 71.8674 97.7762C71.8674 97.7762 75.345 98.4962 75.6762 98.4026C77.4762 97.967 79.2402 93.0026 80.2338 93.0026L80.3094 94.1474L80.421 95.8214Z" fill="#E4897B"/>
<path opacity="0.2" d="M80.4216 95.8213C80.4216 95.8213 79.5972 96.9013 78.6216 98.0029C78.42 96.4117 80.0616 94.4389 80.31 94.1437L80.4216 95.8213Z" fill="black"/>
<path d="M82.441 87.5126C82.441 87.5126 81.721 85.637 84.0682 84.8486C86.4154 84.0602 87.211 84.1286 87.8626 85.2086C88.5142 86.2886 88.1614 87.1382 89.5474 87.059C90.9334 86.9798 92.1286 86.3066 93.0646 87.1418C94.0006 87.977 93.7846 89.129 94.8898 88.0382C95.995 86.9474 96.0994 87.059 96.8122 87.5378C96.8122 87.5378 96.1354 87.8978 96.1714 88.2866C96.2074 88.6754 97.1686 88.589 96.8122 89.2082C96.4558 89.8274 95.4514 91.0406 94.0114 90.3638C92.5714 89.687 92.0746 90.2558 92.0746 90.2558C92.3882 90.217 92.7066 90.2496 93.0059 90.3512C93.3051 90.4528 93.5775 90.6208 93.8026 90.8426C94.3894 91.5086 94.7818 91.3538 95.743 91.1234C95.5445 91.5632 95.1847 91.9101 94.7379 92.0923C94.291 92.2745 93.7913 92.2782 93.3418 92.1026C91.639 91.5014 91.423 91.6454 89.6122 92.0702C87.8014 92.495 84.9322 92.2862 83.4706 90.9326C82.009 89.579 82.441 87.5126 82.441 87.5126Z" fill="#263238"/>
<path d="M91.0911 138.024L91.9155 136.944L90.5187 135.594L89.2479 134.37L88.0527 135.486L89.6583 136.829L91.0911 138.024Z" fill="#E4897B"/>
<path d="M91.9667 136.613C91.8443 136.527 90.8219 138.053 90.8219 138.053C90.8219 138.053 91.0487 139.651 90.5879 140.681C90.1271 141.711 91.0235 141.624 91.7687 140.649C92.5139 139.673 93.0827 138.924 93.6155 138.233C94.1483 137.542 93.2411 137.527 91.9667 136.613Z" fill="#263238"/>
<path d="M90.4406 139.219C90.4105 139.217 90.3812 139.209 90.355 139.194C90.3288 139.179 90.3064 139.158 90.2894 139.133C90.2727 139.111 90.2608 139.086 90.2546 139.059C90.2483 139.033 90.248 139.005 90.2534 138.978C90.2883 138.84 90.362 138.715 90.4658 138.618C90.311 138.686 90.1562 138.733 90.0734 138.679C90.0468 138.656 90.0279 138.626 90.0195 138.591C90.0111 138.557 90.0136 138.521 90.0266 138.489C90.0341 138.448 90.0502 138.41 90.0738 138.376C90.0974 138.343 90.128 138.315 90.1634 138.294C90.3865 138.219 90.628 138.219 90.851 138.294V138.312C90.8222 138.445 90.671 139.108 90.437 139.162L90.4406 139.219ZM90.7574 138.481C90.5954 138.618 90.3686 138.841 90.347 138.992C90.3449 139.006 90.3457 139.021 90.3494 139.034C90.3531 139.048 90.3597 139.061 90.3686 139.072C90.4154 139.133 90.4406 139.126 90.4514 139.122C90.5594 139.097 90.6854 138.766 90.7574 138.499V138.481ZM90.437 138.341C90.3598 138.337 90.2829 138.353 90.2138 138.388C90.1896 138.401 90.1687 138.42 90.1525 138.442C90.1363 138.464 90.1253 138.49 90.1202 138.517C90.1202 138.542 90.1202 138.589 90.1202 138.604C90.1202 138.618 90.4622 138.528 90.707 138.377C90.6186 138.355 90.5281 138.343 90.437 138.341Z" fill="#FC8135"/>
<path opacity="0.2" d="M89.6583 136.829L90.5187 135.594L89.2479 134.37L88.0527 135.486L89.6583 136.829Z" fill="black"/>
<path d="M82.8301 139.734H84.1909L84.4141 137.841L84.6157 136.105L83.0029 135.843L82.9093 137.902L82.8301 139.734Z" fill="#E4897B"/>
<path d="M84.4788 139.644C84.4788 139.497 82.6356 139.612 82.6356 139.612C82.6356 139.612 81.5052 140.764 80.4036 141.023C79.302 141.282 79.9176 141.941 81.1488 141.941H84.1908C85.062 141.941 84.5184 141.199 84.4788 139.644Z" fill="#263238"/>
<path d="M81.6672 140.083C81.6098 140.088 81.5527 140.073 81.5052 140.04C81.4785 140.016 81.46 139.983 81.4523 139.948C81.4446 139.913 81.4479 139.876 81.462 139.842C81.4692 139.816 81.4815 139.792 81.4982 139.771C81.5149 139.75 81.5356 139.733 81.5592 139.72C81.69 139.665 81.8335 139.649 81.9732 139.673C81.822 139.594 81.6924 139.497 81.6852 139.399C81.678 139.302 81.7248 139.284 81.8076 139.245C81.8449 139.228 81.8854 139.219 81.9264 139.219C81.9673 139.219 82.0078 139.228 82.0452 139.245C82.2936 139.349 82.4484 139.777 82.4556 139.799C82.4578 139.805 82.4578 139.811 82.4556 139.817C82.2113 139.953 81.9441 140.044 81.6672 140.083ZM81.8256 139.763C81.7514 139.758 81.6772 139.772 81.6096 139.803C81.584 139.817 81.5647 139.84 81.5556 139.867C81.5556 139.939 81.5556 139.957 81.5556 139.965C81.642 140.037 81.9804 139.936 82.2504 139.821C82.1111 139.787 81.9687 139.768 81.8256 139.763ZM81.9336 139.313C81.9035 139.313 81.8739 139.321 81.8472 139.335C81.822 139.335 81.7824 139.371 81.7824 139.396C81.7824 139.479 82.0524 139.619 82.3224 139.723C82.263 139.561 82.1533 139.422 82.0092 139.327C81.9852 139.317 81.9595 139.312 81.9336 139.313Z" fill="#FC8135"/>
<path opacity="0.2" d="M82.9082 137.945L84.413 137.877L84.6146 136.123L83.0018 135.85L82.9082 137.945Z" fill="black"/>
<path d="M79.4386 107.039C79.4386 107.039 75.4246 116.539 74.791 120.697C74.1574 124.855 88.4242 136.026 88.4242 136.026L89.8642 134.474C89.8642 134.474 79.255 123.566 79.255 121.691C79.255 119.815 83.3914 111.251 83.3914 111.251C83.3914 111.251 83.809 107.788 79.4386 107.039Z" fill="#263238"/>
<path opacity="0.4" d="M82.3434 130.835C83.8014 132.174 85.2234 133.387 86.3034 134.302C87.5742 135.382 88.4202 136.026 88.4202 136.026L89.8602 134.474C89.8602 134.474 88.4202 132.977 86.5698 130.997C85.1298 129.438 83.4522 127.58 82.0662 125.917C80.4642 123.988 79.251 122.317 79.251 121.691C79.251 120.701 80.403 117.853 81.4902 115.376C82.4658 113.159 83.3874 111.244 83.3874 111.244C83.417 110.849 83.3793 110.452 83.2758 110.07C82.995 108.99 82.113 107.503 79.4166 107.039C79.4166 107.039 75.4026 116.532 74.769 120.694C74.445 122.972 78.5526 127.339 82.3434 130.835Z" fill="white"/>
<path opacity="0.2" d="M82.0811 125.917L82.3367 130.835C83.7947 132.174 85.2167 133.387 86.2967 134.302C86.548 133.219 86.6437 132.106 86.5811 130.997C85.1483 129.438 83.4743 127.581 82.0811 125.917Z" fill="black"/>
<path opacity="0.2" d="M81.5127 115.376C82.4883 113.159 83.4099 111.244 83.4099 111.244C83.4395 110.849 83.4018 110.452 83.2983 110.07C83.1583 109.98 83.0035 109.915 82.8411 109.879C82.8411 109.879 81.6531 111.744 81.5127 115.376Z" fill="black"/>
<path d="M82.8007 109.879L82.5379 123.243V136.923H84.8527C90.2887 111.003 86.5627 104.523 86.5627 104.523V104.494C85.6879 102.553 79.9603 103.983 79.9603 103.983C79.5499 105.592 79.2871 108.857 79.2871 108.857L82.8007 109.879Z" fill="#263238"/>
<path opacity="0.4" d="M82.8007 109.879L82.5379 123.243V136.923H84.8527C90.2887 111.003 86.5627 104.523 86.5627 104.523V104.494C85.6879 102.553 79.9603 103.983 79.9603 103.983C79.5499 105.592 79.2871 108.857 79.2871 108.857L82.8007 109.879Z" fill="white"/>
<path d="M86.5368 103.511V104.479L79.9092 103.972V102.823L86.5368 103.511Z" fill="#263238"/>
<path d="M84.2627 104.776L84.5898 104.793L84.6753 103.117L84.3481 103.1L84.2627 104.776Z" fill="#263238"/>
<path d="M81.3873 104.156L82.8359 104.286L82.9346 103.185L81.486 103.056L81.3873 104.156Z" fill="white"/>
<path d="M80.2138 104.33L80.541 104.347L80.6265 102.672L80.2993 102.655L80.2138 104.33Z" fill="#263238"/>
<path opacity="0.4" d="M84.2627 104.776L84.5898 104.793L84.6753 103.117L84.3481 103.1L84.2627 104.776Z" fill="white"/>
<path opacity="0.4" d="M80.2138 104.33L80.541 104.347L80.6265 102.672L80.2993 102.655L80.2138 104.33Z" fill="white"/>
<path d="M79.9217 102.939L86.5529 103.515C86.7113 101.049 86.8697 99.4573 88.3277 95.0653C88.4537 94.6801 88.5905 94.2733 88.7417 93.8413C87.8417 93.5559 86.9226 93.3345 85.9913 93.1789C85.0078 93.0027 84.0128 92.898 83.0141 92.8657C81.7217 92.8657 80.2421 92.9989 80.2421 92.9989C80.2421 92.9989 80.0297 93.0493 79.8821 94.4173C79.7705 95.7025 79.6553 98.2693 79.9217 102.939Z" fill="#FC8135"/>
<path d="M83.5571 94.3309C85.1915 94.1185 85.6811 93.4237 85.6811 93.4237C84.6443 92.4445 85.5047 90.7489 85.5047 90.7489L83.5391 91.1089C83.5834 91.3828 83.6087 91.6595 83.6147 91.9369C83.6147 93.1321 83.0891 93.1429 83.0891 93.1429C82.7471 93.7945 83.5571 94.3309 83.5571 94.3309Z" fill="#E4897B"/>
<path opacity="0.2" d="M83.5391 91.1161C83.5834 91.39 83.6086 91.6667 83.6147 91.9441C84.5651 91.7245 85.5047 90.7489 85.5047 90.7489L83.5391 91.1161Z" fill="black"/>
<path d="M85.2915 85.6729C83.6247 85.2769 82.8759 86.0329 82.3467 87.7321C81.6879 89.8417 81.8031 91.4761 83.9955 91.5121C86.9691 91.5625 88.0599 86.3281 85.2915 85.6729Z" fill="#E4897B"/>
<path d="M83.4488 87.894C83.2551 88.1066 83.0377 88.2962 82.8008 88.4592C82.8326 88.5395 82.8862 88.6093 82.9555 88.6609C83.0248 88.7124 83.1071 88.7435 83.1932 88.7508L83.4488 87.894Z" fill="#DE5753"/>
<path d="M84.5009 87.9985C84.4649 88.1353 84.5009 88.2649 84.6017 88.2865C84.7025 88.3081 84.7925 88.2217 84.8285 88.0849C84.8645 87.9481 84.8285 87.8185 84.7313 87.7933C84.6341 87.7681 84.5369 87.8617 84.5009 87.9985Z" fill="#263238"/>
<path d="M84.7664 87.8113L84.5 87.6169C84.5 87.6169 84.6008 87.9049 84.7664 87.8113Z" fill="#263238"/>
<path d="M82.8017 87.5269C82.7657 87.6637 82.8017 87.7933 82.9025 87.8149C83.0033 87.8365 83.0933 87.7501 83.1293 87.6133C83.1653 87.4765 83.1293 87.3469 83.0321 87.3217C82.9349 87.2965 82.8521 87.3793 82.8017 87.5269Z" fill="#263238"/>
<path d="M83.0818 87.3397L82.8154 87.1453C82.8154 87.1453 82.8982 87.4333 83.0818 87.3397Z" fill="#263238"/>
<path d="M85.4535 87.4045C85.4288 87.4054 85.4044 87.3991 85.3833 87.3863C85.3622 87.3735 85.3453 87.3548 85.3347 87.3325C85.2748 87.2343 85.1935 87.1509 85.0969 87.0886C85.0003 87.0263 84.8908 86.9866 84.7767 86.9725C84.7595 86.9712 84.7426 86.9663 84.7273 86.9583C84.712 86.9502 84.6986 86.9391 84.6878 86.9255C84.677 86.912 84.6691 86.8964 84.6645 86.8797C84.66 86.863 84.659 86.8456 84.6615 86.8285C84.666 86.7951 84.683 86.7646 84.709 86.7432C84.7351 86.7219 84.7683 86.7112 84.8019 86.7133C84.9595 86.7309 85.1108 86.785 85.2439 86.8713C85.377 86.9575 85.4882 87.0735 85.5687 87.2101C85.5837 87.2416 85.5856 87.2778 85.5742 87.3108C85.5627 87.3438 85.5388 87.371 85.5075 87.3865C85.4909 87.396 85.4725 87.4021 85.4535 87.4045Z" fill="#263238"/>
<path d="M83.596 86.6234C83.5704 86.6235 83.5453 86.6159 83.524 86.6018C83.4333 86.5591 83.3344 86.537 83.2342 86.537C83.134 86.537 83.035 86.5591 82.9444 86.6018C82.9283 86.6081 82.9112 86.6112 82.8939 86.6108C82.8766 86.6104 82.8596 86.6066 82.8439 86.5996C82.8281 86.5925 82.8139 86.5824 82.8021 86.5698C82.7903 86.5572 82.7812 86.5424 82.7752 86.5262C82.7635 86.4932 82.7653 86.457 82.7801 86.4254C82.795 86.3937 82.8216 86.3692 82.8544 86.357C82.9838 86.3008 83.1244 86.2748 83.2653 86.2811C83.4063 86.2873 83.544 86.3256 83.668 86.393C83.6959 86.4126 83.7152 86.4423 83.7219 86.4758C83.7286 86.5093 83.7222 86.5441 83.704 86.573C83.6915 86.5896 83.6752 86.603 83.6563 86.6118C83.6375 86.6206 83.6167 86.6245 83.596 86.6234Z" fill="#263238"/>
<path d="M83.2832 89.2658C83.3159 89.4719 83.3339 89.68 83.3372 89.8886H83.4488C83.9456 89.957 84.1976 89.8238 84.3272 89.6546C84.3871 89.5713 84.4265 89.4751 84.4424 89.3738C84.4496 89.3152 84.4496 89.256 84.4424 89.1974C84.1179 89.2934 83.7765 89.3179 83.4416 89.2694C83.348 89.2766 83.2832 89.2658 83.2832 89.2658Z" fill="#263238"/>
<path d="M83.4521 89.2837L83.4737 89.4673C83.7963 89.5504 84.1374 89.5225 84.4421 89.3881C84.4494 89.3295 84.4494 89.2702 84.4421 89.2117C84.1211 89.3061 83.7835 89.3306 83.4521 89.2837Z" fill="white"/>
<path d="M83.4482 89.8992C83.945 89.9676 84.197 89.8345 84.3266 89.6653C84.1376 89.6435 83.9462 89.6557 83.7614 89.7012C83.6385 89.7319 83.5287 89.8013 83.4482 89.8992Z" fill="#DE5753"/>
<path d="M86.4477 88.9129C86.4477 88.9129 85.9941 87.3577 86.3613 86.3281C86.3613 86.3281 83.3805 84.1969 82.4229 87.5125C82.4229 87.5125 82.8045 84.4597 85.6845 85.0717C88.5645 85.6837 87.5601 89.8705 85.7853 90.7705C85.7853 90.7705 86.7249 89.8993 86.4477 88.9129Z" fill="#263238"/>
<path d="M86.0904 89.2009C86.1522 89.0116 86.2866 88.8544 86.4641 88.764C86.6416 88.6736 86.8477 88.6572 87.0372 88.7185C87.5376 88.8949 87.534 90.0145 86.1912 89.9641C85.9968 89.9569 85.9356 89.7517 86.0904 89.2009Z" fill="#E4897B"/>
<path d="M85.1262 136.591L82.2822 136.174L82.5198 137.311L84.867 137.628L85.1262 136.591Z" fill="#FC8135"/>
<path d="M89.8826 133.953L87.9746 136.026L88.9286 136.573L90.401 135.011L89.8826 133.953Z" fill="#FC8135"/>
<path d="M85.9687 85.5576C85.9183 85.7268 85.9687 85.896 86.0875 85.9176C86.2063 85.9392 86.3359 85.8384 86.3863 85.6656C86.4367 85.4928 86.3863 85.3272 86.2675 85.3056C86.1487 85.284 86.0191 85.3848 85.9687 85.5576Z" fill="#263238"/>
<path d="M86.3107 85.3274L85.9795 85.0718C85.9795 85.0718 86.0767 85.4426 86.3107 85.3274Z" fill="#263238"/>
<path d="M83.8417 84.9061C83.7913 85.0789 83.8417 85.2445 83.9605 85.2661C84.0793 85.2877 84.2089 85.1869 84.2593 85.0141C84.3097 84.8413 84.2593 84.6757 84.1405 84.6541C84.0217 84.6325 83.8813 84.7333 83.8417 84.9061Z" fill="#263238"/>
<path d="M84.1828 84.6757L83.8516 84.4237C83.8516 84.4237 83.9488 84.7909 84.1828 84.6757Z" fill="#263238"/>
<path d="M83.2185 84.0888C83.6873 84.0631 84.1519 84.1894 84.5433 84.4488C84.6788 84.4299 84.8168 84.439 84.9487 84.4756C85.0806 84.5121 85.2036 84.5753 85.3101 84.6612C85.8607 84.7495 86.3896 84.9413 86.8689 85.2264L87.1173 87.3684L87.0885 87.552L86.7753 85.5972C86.5665 85.9932 86.0841 86.5764 85.5261 86.3676C84.7881 86.0868 84.9609 85.2876 85.0761 84.9276C84.9465 84.7116 84.6441 84.636 84.5577 84.7728C84.4461 85.0896 84.1149 85.8132 83.3193 85.6404C82.5237 85.4676 83.2185 84.0888 83.2185 84.0888Z" fill="#FC8135"/>
<path opacity="0.2" d="M83.2185 84.0888C83.6873 84.0631 84.1519 84.1894 84.5433 84.4488C84.6788 84.4299 84.8168 84.439 84.9487 84.4756C85.0806 84.5121 85.2036 84.5753 85.3101 84.6612C85.8607 84.7495 86.3896 84.9413 86.8689 85.2264L87.1173 87.3684L87.0885 87.552L86.7753 85.5972C86.5665 85.9932 86.0841 86.5764 85.5261 86.3676C84.7881 86.0868 84.9609 85.2876 85.0761 84.9276C84.9465 84.7116 84.6441 84.636 84.5577 84.7728C84.4461 85.0896 84.1149 85.8132 83.3193 85.6404C82.5237 85.4676 83.2185 84.0888 83.2185 84.0888Z" fill="black"/>
<g opacity="0.3">
<path d="M83.4888 84.2401L83.6292 85.5397C83.6292 85.5397 83.1288 85.6225 83.0604 85.2229C83.051 84.8729 83.1186 84.5251 83.2584 84.2041C83.3368 84.2019 83.4149 84.2141 83.4888 84.2401Z" fill="white"/>
<path d="M83.6006 84.2473L83.7374 85.5541C83.7374 85.5541 83.9606 85.5217 83.975 85.4425L83.867 84.3265C83.867 84.3265 83.6798 84.2653 83.6006 84.2473Z" fill="white"/>
<path d="M85.5809 84.8881L85.7213 86.1841C85.7213 86.1841 85.2209 86.2669 85.1525 85.8673C85.1416 85.5172 85.2093 85.1691 85.3505 84.8485C85.429 84.8483 85.507 84.8617 85.5809 84.8881Z" fill="white"/>
<path d="M85.6807 84.8917L85.8139 86.2021C85.8139 86.2021 86.0371 86.1697 86.0551 86.0905L85.9471 84.9709L85.6807 84.8917Z" fill="white"/>
</g>
<path opacity="0.3" d="M88.7373 93.8593C88.5861 94.2913 88.4493 94.6981 88.3233 95.0833C87.9345 96.2605 87.6357 97.2433 87.4053 98.0785C86.9088 99.857 86.6212 101.687 86.5485 103.532L79.9209 102.938C79.7589 100.084 79.7409 98.0173 79.7805 96.5449C79.8021 95.6089 79.8489 94.9177 79.8957 94.4173C80.0289 93.0493 80.2557 92.9989 80.2557 92.9989C80.2557 92.9989 80.6481 92.9593 81.2025 92.9269L81.7245 92.8981C82.1385 92.8765 82.5921 92.8621 83.0277 92.8657C84.0264 92.898 85.0214 93.0026 86.0049 93.1789C86.3649 93.2401 86.7501 93.3121 87.1173 93.4021C87.3657 93.4525 87.6105 93.5137 87.8553 93.5821C88.1397 93.6613 88.4385 93.7477 88.7373 93.8593Z" fill="black"/>
<path d="M87.0996 93.4021C86.2176 94.4821 84.108 96.7537 82.4196 96.2065C80.8356 95.6917 81.3144 93.8701 81.6996 92.8981C82.1136 92.8765 82.5672 92.8621 83.0028 92.8657C84.0015 92.898 84.9965 93.0026 85.98 93.1789C86.3616 93.2401 86.7324 93.3121 87.0996 93.4021Z" fill="#E4897B"/>
<path d="M88.7376 93.8593C88.5864 94.2913 88.4496 94.6981 88.3236 95.0833C87.9348 96.2605 87.636 97.2433 87.4056 98.0785C86.5884 96.6385 87.4056 94.5217 87.8376 93.6001C88.14 93.6613 88.4388 93.7477 88.7376 93.8593Z" fill="#E4897B"/>
<path d="M81.1849 92.9269C80.9041 93.6937 80.2705 95.4469 79.7773 96.5269C79.7989 95.5909 79.8457 94.8997 79.8925 94.3993C80.0257 93.0313 80.2525 92.9809 80.2525 92.9809C80.2525 92.9809 80.6413 92.9593 81.1849 92.9269Z" fill="#E4897B"/>
<path d="M88.7377 93.8593C89.8501 94.1941 93.1261 94.6081 93.7777 94.3489C94.4293 94.0897 99.2965 89.9857 99.2965 89.9857L99.8653 90.7669C99.8653 90.7669 95.1673 95.9581 94.5625 96.0913C93.9577 96.2245 87.8701 96.0913 87.8701 96.0913L88.7377 93.8593Z" fill="#E4897B"/>
<path opacity="0.2" d="M87.9885 96.0985L88.8201 95.5657C88.8201 95.5657 87.6393 94.9429 87.0777 96.1309C86.9158 96.4642 86.8571 96.8382 86.909 97.2051C86.961 97.5719 87.1212 97.9149 87.3693 98.1901L87.9885 96.0985Z" fill="black"/>
<path d="M99.285 90.7489C99.285 90.7489 98.8566 89.8597 98.9538 89.5681C99.051 89.2765 101.326 88.3297 101.895 88.3261C102.464 88.3225 102.615 89.7013 102.255 90.2233C101.895 90.7453 99.681 91.1989 99.285 90.7489Z" fill="#E4897B"/>
<path d="M85.2932 110.336C85.2932 110.336 80.6636 112.896 80.3468 112.946C80.03 112.997 75.116 109.66 75.116 109.66L74 110.894C74 110.894 78.464 114.548 79.5152 115.016C80.5664 115.484 85.4912 113.576 85.4912 113.576L85.2932 110.336Z" fill="#EBB376"/>
<path opacity="0.2" d="M85.2932 110.336C85.2932 110.336 80.6636 112.896 80.3468 112.946C80.03 112.997 75.116 109.66 75.116 109.66L74 110.894C74 110.894 78.464 114.548 79.5152 115.016C80.5664 115.484 85.4912 113.576 85.4912 113.576L85.2932 110.336Z" fill="black"/>
<path d="M89.2197 108.81C89.4537 108.753 89.669 108.636 89.8449 108.472C90.0208 108.307 90.1514 108.1 90.2241 107.871C90.3055 107.57 90.3251 107.257 90.2817 106.949C90.2817 106.78 90.2349 106.611 90.2025 106.438L92.8521 104.364C92.5317 105.696 92.1645 108.141 93.0645 109.077C92.4823 109.458 91.7915 109.638 91.0973 109.59C90.4032 109.542 89.7438 109.268 89.2197 108.81Z" fill="#EBB376"/>
<path opacity="0.2" d="M92.2622 105.657C92.2465 106.209 92.0317 106.738 91.6573 107.145C91.2829 107.551 90.7741 107.809 90.2246 107.871C90.306 107.57 90.3256 107.257 90.2822 106.949L92.2622 105.657Z" fill="black"/>
<path d="M88.3092 100.059C88.3092 100.059 87.4416 102.463 88.5684 103.659C89.6952 104.854 90.6059 100.26 90.6059 100.26L88.3092 100.059Z" fill="#263238"/>
<path d="M91.9959 106.405C91.6397 106.759 91.1773 106.986 90.6797 107.051C90.1821 107.116 89.6769 107.015 89.2419 106.765C88.674 106.455 88.2454 105.94 88.0431 105.325C88.0136 105.239 87.9896 105.152 87.9711 105.063C87.6111 103.421 87.9423 100.743 89.7387 100.051C90.355 99.8174 91.039 99.8376 91.6405 100.108C92.2419 100.378 92.7116 100.875 92.9463 101.491C93.0889 101.856 93.142 102.25 93.1011 102.64C92.9463 104.433 92.9427 105.502 91.9959 106.405Z" fill="#EBB376"/>
<path d="M90.3324 103.057C90.3324 103.201 90.246 103.32 90.1488 103.32C90.0516 103.32 89.976 103.194 89.9796 103.046C89.9832 102.899 90.066 102.78 90.1632 102.784C90.2604 102.787 90.3324 102.906 90.3324 103.057Z" fill="#263238"/>
<path d="M88.6589 103.011C88.6589 103.158 88.5725 103.277 88.4789 103.273C88.3853 103.27 88.3061 103.147 88.3097 103.003C88.3133 102.859 88.3961 102.737 88.4933 102.741C88.5905 102.744 88.6625 102.859 88.6589 103.011Z" fill="#263238"/>
<path d="M89.1882 103.101C89.0002 103.548 88.7519 103.967 88.4502 104.346C88.5518 104.423 88.669 104.476 88.7934 104.502C88.9178 104.528 89.0464 104.526 89.1702 104.497L89.1882 103.101Z" fill="#D58745"/>
<path d="M90.8642 102.528C90.8485 102.53 90.8325 102.528 90.818 102.521C90.8034 102.515 90.7908 102.505 90.7814 102.492C90.7188 102.403 90.6367 102.329 90.5413 102.276C90.4459 102.223 90.3396 102.192 90.2306 102.186C90.2193 102.187 90.2079 102.185 90.1973 102.181C90.1866 102.177 90.1768 102.171 90.1685 102.163C90.1601 102.156 90.1533 102.147 90.1486 102.136C90.1438 102.126 90.1411 102.115 90.1406 102.103C90.1406 102.081 90.149 102.059 90.1644 102.042C90.1797 102.026 90.2008 102.015 90.2234 102.013C90.361 102.016 90.4959 102.052 90.6168 102.118C90.7377 102.184 90.8411 102.277 90.9182 102.391C90.9262 102.399 90.9325 102.408 90.9368 102.419C90.9411 102.429 90.9433 102.44 90.9433 102.451C90.9433 102.462 90.9411 102.473 90.9368 102.483C90.9325 102.493 90.9262 102.503 90.9182 102.51L90.8642 102.528Z" fill="#263238"/>
<path d="M87.9571 102.416C87.9407 102.422 87.923 102.422 87.9066 102.416C87.8862 102.406 87.8705 102.389 87.8631 102.367C87.8557 102.345 87.8571 102.322 87.8671 102.301C87.9285 102.177 88.0187 102.07 88.1302 101.988C88.2417 101.906 88.3712 101.851 88.5078 101.83C88.5192 101.829 88.5306 101.83 88.5415 101.833C88.5524 101.837 88.5624 101.842 88.5711 101.85C88.5798 101.857 88.587 101.866 88.5922 101.876C88.5974 101.886 88.6005 101.897 88.6014 101.909C88.6025 101.932 88.5949 101.954 88.5802 101.971C88.5656 101.989 88.5448 102 88.5222 102.002C88.4152 102.022 88.3145 102.067 88.2281 102.134C88.1418 102.2 88.0724 102.286 88.0254 102.384C88.0171 102.394 88.0066 102.402 87.9948 102.408C87.983 102.413 87.9701 102.416 87.9571 102.416Z" fill="#263238"/>
<path d="M91.8267 100.339L91.6719 101.131C91.8024 101.205 91.9001 101.326 91.9455 101.468C91.9909 101.611 91.9806 101.766 91.9167 101.902C91.6071 102.553 91.9167 103.623 92.3955 104.062C92.3955 104.062 92.4351 103.774 92.6727 103.86C92.9103 103.947 92.7339 105.459 92.2011 106.146C92.2011 106.146 92.9751 105.545 93.5007 103.986C93.9867 102.546 94.1271 101.319 93.8607 100.728L91.8267 100.339Z" fill="#263238"/>
<path d="M88.4493 100.699C88.4493 100.699 87.7041 99.8209 88.3089 99.0613C88.9137 98.3017 90.4293 97.7113 90.5625 98.1145C90.6957 98.5177 90.2025 98.6833 90.5625 98.7553C90.9225 98.8273 91.7181 98.3953 92.4417 98.4709C93.1653 98.5465 92.6253 98.7553 93.0105 99.0397C93.3957 99.3241 93.9681 99.3241 94.3713 99.5869C94.7745 99.8497 94.1121 100.307 94.1121 100.307C94.1121 100.307 95.0373 100.307 95.0373 100.915C95.0373 101.524 93.9933 101.412 93.9933 101.412C93.9933 101.412 94.6233 101.869 94.4865 102.258C94.3497 102.647 92.0565 101.92 91.6713 101.099C91.6713 101.113 89.0541 101.473 88.4493 100.699Z" fill="#263238"/>
<path d="M90.5059 103.187C90.5059 103.363 90.5743 103.518 90.6931 103.529C90.8119 103.54 90.9199 103.403 90.9343 103.223C90.9487 103.043 90.8659 102.892 90.7471 102.881C90.6283 102.87 90.5203 103.007 90.5059 103.187Z" fill="#263238"/>
<path d="M90.7965 102.895L90.4365 102.708C90.4365 102.708 90.5877 103.054 90.7965 102.895Z" fill="#263238"/>
<path d="M88.291 102.96C88.291 103.136 88.3594 103.291 88.4782 103.32C88.597 103.349 88.705 103.194 88.723 103.014C88.741 102.834 88.651 102.683 88.5322 102.672C88.4134 102.661 88.3054 102.78 88.291 102.96Z" fill="#263238"/>
<path d="M88.5827 102.669L88.2227 102.481C88.2227 102.481 88.3739 102.827 88.5827 102.669Z" fill="#263238"/>
<path d="M87.5209 102.276C87.9748 102.159 88.4543 102.191 88.8889 102.366C89.018 102.321 89.155 102.304 89.2913 102.314C89.4276 102.325 89.5602 102.363 89.6809 102.427C90.238 102.407 90.7938 102.492 91.3189 102.679L93.0361 103.259V103.446L91.2937 103.065C91.1641 103.493 90.8041 104.145 90.2137 104.058C89.4325 103.929 89.4541 103.122 89.4937 102.748C89.3209 102.564 89.0113 102.546 88.9537 102.694C88.9033 103.029 88.7197 103.803 87.9061 103.774C87.0925 103.745 87.5209 102.276 87.5209 102.276Z" fill="#FC8135"/>
<path opacity="0.2" d="M87.5209 102.276C87.9748 102.159 88.4543 102.191 88.8889 102.366C89.018 102.321 89.155 102.304 89.2913 102.314C89.4276 102.325 89.5602 102.363 89.6809 102.427C90.238 102.407 90.7938 102.492 91.3189 102.679L93.0361 103.259V103.446L91.2937 103.065C91.1641 103.493 90.8041 104.145 90.2137 104.058C89.4325 103.929 89.4541 103.122 89.4937 102.748C89.3209 102.564 89.0113 102.546 88.9537 102.694C88.9033 103.029 88.7197 103.803 87.9061 103.774C87.0925 103.745 87.5209 102.276 87.5209 102.276Z" fill="black"/>
<g opacity="0.3">
<path d="M87.8156 102.373L88.2044 103.619C88.2044 103.619 87.7292 103.799 87.5852 103.417C87.5081 103.077 87.5081 102.724 87.5852 102.384C87.6607 102.367 87.7387 102.363 87.8156 102.373Z" fill="white"/>
<path d="M87.9268 102.359L88.312 103.615C88.312 103.615 88.5244 103.543 88.5244 103.46L88.204 102.38L87.9268 102.359Z" fill="white"/>
<path d="M90.0011 102.604L90.3863 103.849C90.3863 103.849 89.9111 104.029 89.7707 103.648C89.6936 103.308 89.6936 102.955 89.7707 102.615C89.8463 102.597 89.9243 102.594 90.0011 102.604Z" fill="white"/>
<path d="M90.1016 102.589L90.4868 103.846C90.4868 103.846 90.6992 103.774 90.6992 103.691L90.3788 102.611L90.1016 102.589Z" fill="white"/>
</g>
<path d="M93.8535 104.13C93.6412 104.535 93.2777 104.841 92.8419 104.98C92.2623 105.156 91.9563 104.641 92.1219 104.083C92.2587 103.594 92.7195 102.888 93.3099 102.96C93.4367 102.978 93.5568 103.028 93.6596 103.104C93.7623 103.181 93.8444 103.282 93.8984 103.398C93.9523 103.514 93.9765 103.642 93.9687 103.77C93.9608 103.898 93.9212 104.021 93.8535 104.13Z" fill="#EBB376"/>
<path d="M89.1768 105.019C89.3167 105.274 89.4371 105.539 89.5368 105.811L89.688 105.779C90.3684 105.638 90.6348 105.347 90.7284 105.059C90.7688 104.922 90.7762 104.778 90.75 104.638C90.7383 104.557 90.7153 104.478 90.6816 104.404C90.3005 104.679 89.8647 104.87 89.4036 104.962C89.2812 105.019 89.1768 105.019 89.1768 105.019Z" fill="#263238"/>
<path d="M89.4072 104.983L89.5224 105.214C90.1632 105.077 90.6024 104.893 90.7536 104.659C90.742 104.579 90.7189 104.5 90.6852 104.425C90.3042 104.701 89.8683 104.891 89.4072 104.983Z" fill="white"/>
<path d="M89.6914 105.793C90.3718 105.653 90.6382 105.361 90.7318 105.073C90.4756 105.134 90.2319 105.238 90.0118 105.383C89.8649 105.483 89.7528 105.626 89.6914 105.793Z" fill="#DE5753"/>
<path d="M86.9087 109.357C85.4687 109.163 82.6787 111.301 82.6787 111.301L83.8307 114.559L86.4947 114.314L86.9087 109.357Z" fill="#FC8135"/>
<path opacity="0.6" d="M86.4911 114.314L86.2571 114.336L83.8307 114.559L83.3591 113.22L82.6787 111.301C82.6787 111.301 85.4795 109.163 86.9087 109.357L86.7071 111.758L86.5559 113.558L86.4911 114.314Z" fill="white"/>
<path opacity="0.2" d="M86.5562 113.551C86.4764 113.82 86.3765 114.082 86.2574 114.336L83.831 114.559L83.3594 113.22C84.4394 111.899 86.621 111.395 86.621 111.395C86.6589 111.513 86.6878 111.633 86.7074 111.755C86.7995 112.357 86.7477 112.973 86.5562 113.551Z" fill="black"/>
<path d="M95.6605 118.901H84.1621C85.0333 111.499 86.8189 109.339 86.8189 109.339C87.6473 109.084 88.4885 108.871 89.3389 108.702C89.4037 108.763 89.6053 108.839 90.1345 108.864C91.0694 108.837 91.9992 108.717 92.9101 108.504C98.0221 109.451 95.6605 118.901 95.6605 118.901Z" fill="#FC8135"/>
<path opacity="0.6" d="M95.7901 118.314C95.7145 118.674 95.6605 118.901 95.6605 118.901H84.1621C85.0333 111.499 86.8189 109.339 86.8189 109.339C87.6473 109.084 88.4885 108.871 89.3389 108.702C89.4037 108.763 89.6053 108.839 90.1345 108.864C91.0694 108.837 91.9992 108.717 92.9101 108.504C94.3501 108.771 95.1889 109.71 95.6641 110.923C96.6253 113.364 96.0673 116.928 95.7901 118.314Z" fill="white"/>
<path opacity="0.2" d="M95.7893 118.314C93.2909 119.034 89.4605 118.174 88.8197 115.618C87.8225 111.636 93.0101 110.387 93.0101 110.387C93.931 110.266 94.866 110.452 95.6705 110.916C96.6245 113.364 96.0665 116.928 95.7893 118.314Z" fill="black"/>
<path d="M74.7731 110.588L75.1331 109.66C75.1331 109.66 72.2531 108.036 71.8175 108.497C71.3819 108.958 71.0111 110.574 71.8175 110.952C72.6239 111.33 73.6175 111.564 74.0171 111.395C74.3328 111.194 74.5928 110.917 74.7731 110.588Z" fill="#EBB376"/>
<path opacity="0.2" d="M74.7731 110.588L75.1331 109.66C75.1331 109.66 72.2531 108.036 71.8175 108.497C71.3819 108.958 71.0111 110.574 71.8175 110.952C72.6239 111.33 73.6175 111.564 74.0171 111.395C74.3328 111.194 74.5928 110.917 74.7731 110.588Z" fill="black"/>
<path d="M75.641 117.677C75.5921 117.698 75.5396 117.708 75.4866 117.708C75.4336 117.708 75.3811 117.698 75.3322 117.677C75.2832 117.657 75.2389 117.627 75.2017 117.589C75.1644 117.551 75.1351 117.507 75.1154 117.457L72.1346 110.257C72.0941 110.159 72.0945 110.048 72.1357 109.949C72.1768 109.851 72.2554 109.772 72.3542 109.732C72.4033 109.711 72.456 109.701 72.5093 109.7C72.5626 109.7 72.6153 109.711 72.6645 109.731C72.7138 109.752 72.7584 109.782 72.796 109.819C72.8335 109.857 72.8632 109.902 72.8834 109.951L75.8606 117.151C75.8811 117.2 75.8917 117.253 75.8917 117.306C75.8918 117.359 75.8813 117.411 75.8608 117.46C75.8404 117.509 75.8104 117.553 75.7727 117.591C75.7349 117.628 75.6902 117.657 75.641 117.677Z" fill="black"/>
<path d="M140.35 128.589H34.7911C34.6755 128.589 34.5647 128.634 34.4831 128.716C34.4014 128.798 34.3555 128.909 34.3555 129.024V144.259C34.3555 144.375 34.4014 144.486 34.4831 144.567C34.5647 144.649 34.6755 144.695 34.7911 144.695H64.4155C64.531 144.695 64.6418 144.741 64.7235 144.822C64.8052 144.904 64.8511 145.015 64.8511 145.131V146.383C64.8511 146.499 64.897 146.61 64.9787 146.691C65.0603 146.773 65.1711 146.819 65.2867 146.819H78.1927C78.3082 146.819 78.419 146.773 78.5007 146.691C78.5824 146.61 78.6283 146.499 78.6283 146.383V145.131C78.6283 145.015 78.6742 144.904 78.7559 144.822C78.8375 144.741 78.9483 144.695 79.0639 144.695H91.8187C91.9342 144.695 92.045 144.741 92.1267 144.822C92.2084 144.904 92.2543 145.015 92.2543 145.131C92.2543 145.246 92.3002 145.357 92.3819 145.439C92.4635 145.52 92.5743 145.566 92.6899 145.566H98.5003C98.6158 145.566 98.7266 145.52 98.8083 145.439C98.89 145.357 98.9359 145.246 98.9359 145.131C98.9359 145.015 98.9818 144.904 99.0635 144.822C99.1451 144.741 99.2559 144.695 99.3715 144.695H104.689C104.804 144.695 104.915 144.741 104.997 144.822C105.078 144.904 105.124 145.015 105.124 145.131V145.638C105.124 145.754 105.17 145.864 105.252 145.946C105.334 146.028 105.444 146.074 105.56 146.074H116.803C116.918 146.074 117.029 146.028 117.111 145.946C117.192 145.864 117.238 145.754 117.238 145.638V145.131C117.238 145.015 117.284 144.904 117.366 144.822C117.448 144.741 117.558 144.695 117.674 144.695H140.354C140.469 144.695 140.58 144.649 140.662 144.567C140.744 144.486 140.789 144.375 140.789 144.259V129.024C140.789 128.967 140.778 128.91 140.756 128.857C140.734 128.803 140.701 128.755 140.661 128.715C140.62 128.674 140.571 128.642 140.518 128.621C140.465 128.599 140.408 128.588 140.35 128.589Z" fill="black"/>
<path d="M50.624 154.188C56.9068 154.188 62 149.095 62 142.812C62 136.529 56.9068 131.436 50.624 131.436C44.3413 131.436 39.248 136.529 39.248 142.812C39.248 149.095 44.3413 154.188 50.624 154.188Z" fill="#263238"/>
<path opacity="0.2" d="M50.6247 151.506C48.9048 151.506 47.2237 150.996 45.7938 150.04C44.3639 149.085 43.2496 147.726 42.5918 146.137C41.934 144.548 41.7622 142.8 42.0982 141.113C42.4343 139.427 43.263 137.878 44.4796 136.662C45.6962 135.446 47.246 134.619 48.933 134.284C50.6199 133.95 52.3682 134.123 53.9567 134.782C55.5452 135.441 56.9025 136.556 57.857 137.987C58.8114 139.418 59.3201 141.099 59.3187 142.819C59.3149 145.123 58.3974 147.332 56.7676 148.96C55.1378 150.589 52.9286 151.504 50.6247 151.506Z" fill="black"/>
<path opacity="0.6" d="M50.6238 150.426C54.8289 150.426 58.2378 147.017 58.2378 142.812C58.2378 138.607 54.8289 135.198 50.6238 135.198C46.4187 135.198 43.0098 138.607 43.0098 142.812C43.0098 147.017 46.4187 150.426 50.6238 150.426Z" fill="white"/>
<path opacity="0.6" d="M50.6238 149.346C49.3312 149.346 48.0677 148.963 46.993 148.245C45.9183 147.526 45.0809 146.505 44.5865 145.311C44.0922 144.117 43.9632 142.803 44.2159 141.535C44.4686 140.267 45.0916 139.103 46.0062 138.189C46.9207 137.276 48.0856 136.654 49.3535 136.403C50.6215 136.152 51.9355 136.282 53.1293 136.778C54.3231 137.273 55.3431 138.112 56.0602 139.187C56.7773 140.263 57.1593 141.527 57.1578 142.819C57.154 144.55 56.4642 146.209 55.2394 147.433C54.0147 148.656 52.3549 149.344 50.6238 149.346Z" fill="white"/>
<path opacity="0.2" d="M50.6245 144.666C50.2578 144.666 49.8994 144.557 49.5945 144.354C49.2896 144.15 49.052 143.86 48.9116 143.521C48.7713 143.183 48.7346 142.81 48.8061 142.45C48.8777 142.091 49.0542 141.76 49.3135 141.501C49.5728 141.242 49.9032 141.065 50.2628 140.994C50.6225 140.922 50.9952 140.959 51.334 141.099C51.6728 141.239 51.9623 141.477 52.1661 141.782C52.3698 142.087 52.4785 142.445 52.4785 142.812C52.4776 143.303 52.2819 143.774 51.9344 144.122C51.5869 144.469 51.1159 144.665 50.6245 144.666Z" fill="black"/>
<g opacity="0.2">
<path d="M49.3203 137.192L50.3571 140.299C50.5246 140.28 50.6937 140.28 50.8611 140.299L51.8943 137.189C51.4726 137.093 51.0415 137.045 50.6091 137.045C50.1753 137.044 49.7428 137.094 49.3203 137.192Z" fill="black"/>
<path d="M50.6199 145.339C50.536 145.345 50.4518 145.345 50.3679 145.339L49.3203 148.435C49.742 148.531 50.1731 148.579 50.6055 148.579C51.0394 148.58 51.4718 148.53 51.8943 148.432L50.8719 145.339C50.788 145.345 50.7038 145.345 50.6199 145.339Z" fill="black"/>
<path d="M56.2435 141.527L53.1367 142.564C53.1559 142.731 53.1559 142.9 53.1367 143.068L56.2471 144.101C56.3428 143.679 56.3911 143.248 56.3911 142.816C56.3917 142.382 56.3421 141.949 56.2435 141.527Z" fill="black"/>
<path d="M48.0965 142.819C48.091 142.735 48.091 142.651 48.0965 142.567L45.0005 141.527C44.9048 141.948 44.8565 142.38 44.8564 142.812C44.8559 143.246 44.9054 143.678 45.0041 144.101L48.1108 143.064C48.1009 142.983 48.0961 142.901 48.0965 142.819Z" fill="black"/>
<path d="M52.5781 141.214L55.5085 139.745C55.2774 139.38 55.007 139.042 54.7021 138.737C54.3949 138.43 54.0544 138.158 53.6869 137.927L52.2217 140.857C52.3536 140.965 52.4742 141.085 52.5817 141.217L52.5781 141.214Z" fill="black"/>
<path d="M48.6645 144.41L45.7197 145.879C45.9521 146.244 46.2237 146.582 46.5297 146.887C46.8362 147.195 47.1768 147.467 47.5449 147.697L49.0065 144.767C48.8746 144.659 48.754 144.539 48.6465 144.407L48.6645 144.41Z" fill="black"/>
<path d="M52.4086 144.619C52.3493 144.679 52.2855 144.734 52.2178 144.785L53.6866 147.715C54.0529 147.485 54.3922 147.214 54.6982 146.909C55.0051 146.602 55.2757 146.262 55.5046 145.893L52.5598 144.41C52.5149 144.484 52.4643 144.554 52.4086 144.619Z" fill="black"/>
<path d="M46.5457 138.733C46.2388 139.039 45.9682 139.38 45.7393 139.748L48.6697 141.214C48.7212 141.146 48.7777 141.082 48.8389 141.023C48.8977 140.964 48.9602 140.908 49.0261 140.857L47.5573 137.927C47.191 138.157 46.8516 138.427 46.5457 138.733Z" fill="black"/>
</g>
<path d="M124.897 154.188C131.179 154.188 136.273 149.095 136.273 142.812C136.273 136.529 131.179 131.436 124.897 131.436C118.614 131.436 113.521 136.529 113.521 142.812C113.521 149.095 118.614 154.188 124.897 154.188Z" fill="#263238"/>
<path opacity="0.2" d="M124.895 151.506C123.175 151.506 121.494 150.996 120.064 150.04C118.634 149.085 117.52 147.726 116.862 146.137C116.204 144.548 116.033 142.8 116.369 141.113C116.705 139.427 117.534 137.878 118.75 136.662C119.967 135.446 121.517 134.619 123.203 134.284C124.89 133.95 126.639 134.123 128.227 134.782C129.816 135.441 131.173 136.556 132.127 137.987C133.082 139.418 133.591 141.099 133.589 142.819C133.585 145.123 132.668 147.332 131.038 148.96C129.408 150.589 127.199 151.504 124.895 151.506Z" fill="black"/>
<path opacity="0.6" d="M124.896 150.426C129.101 150.426 132.51 147.017 132.51 142.812C132.51 138.607 129.101 135.198 124.896 135.198C120.691 135.198 117.282 138.607 117.282 142.812C117.282 147.017 120.691 150.426 124.896 150.426Z" fill="white"/>
<path opacity="0.6" d="M124.896 149.346C123.604 149.346 122.34 148.963 121.265 148.245C120.191 147.526 119.353 146.505 118.859 145.311C118.365 144.117 118.236 142.803 118.488 141.535C118.741 140.267 119.364 139.103 120.279 138.189C121.193 137.276 122.358 136.654 123.626 136.403C124.894 136.152 126.208 136.282 127.402 136.778C128.596 137.273 129.616 138.112 130.333 139.187C131.05 140.263 131.432 141.527 131.43 142.819C131.426 144.55 130.737 146.209 129.512 147.433C128.287 148.656 126.627 149.344 124.896 149.346Z" fill="white"/>
<path opacity="0.2" d="M124.896 144.666C124.529 144.666 124.171 144.557 123.866 144.354C123.561 144.15 123.323 143.86 123.183 143.521C123.043 143.183 123.006 142.81 123.078 142.45C123.149 142.091 123.326 141.76 123.585 141.501C123.844 141.242 124.175 141.065 124.534 140.994C124.894 140.922 125.267 140.959 125.605 141.099C125.944 141.239 126.234 141.477 126.438 141.782C126.641 142.087 126.75 142.445 126.75 142.812C126.749 143.303 126.553 143.774 126.206 144.122C125.858 144.469 125.387 144.665 124.896 144.666Z" fill="black"/>
<g opacity="0.2">
<path d="M123.607 137.192L124.644 140.299C124.812 140.28 124.981 140.28 125.148 140.299L126.181 137.189C125.76 137.093 125.329 137.045 124.896 137.045C124.462 137.044 124.03 137.094 123.607 137.192Z" fill="black"/>
<path d="M124.893 145.339C124.809 145.345 124.725 145.345 124.641 145.339L123.607 148.45C124.029 148.545 124.46 148.593 124.893 148.594C125.326 148.594 125.759 148.545 126.181 148.446L125.145 145.339C125.061 145.345 124.977 145.345 124.893 145.339Z" fill="black"/>
<path d="M130.515 141.527L127.408 142.564C127.427 142.731 127.427 142.9 127.408 143.068L130.519 144.101C130.62 143.681 130.674 143.251 130.681 142.819C130.676 142.383 130.62 141.95 130.515 141.527Z" fill="black"/>
<path d="M122.369 142.819C122.363 142.735 122.363 142.651 122.369 142.567L119.258 141.534C119.163 141.956 119.114 142.387 119.114 142.819C119.114 143.253 119.163 143.685 119.262 144.108L122.369 143.071C122.363 142.987 122.363 142.903 122.369 142.819Z" fill="black"/>
<path d="M126.851 141.214L129.781 139.745C129.55 139.38 129.279 139.042 128.975 138.737C128.667 138.43 128.327 138.158 127.959 137.927L126.494 140.857C126.626 140.965 126.747 141.085 126.854 141.217L126.851 141.214Z" fill="black"/>
<path d="M122.937 144.41L120.007 145.879C120.238 146.244 120.508 146.582 120.813 146.887C121.121 147.195 121.463 147.467 121.832 147.697L123.294 144.767C123.162 144.659 123.041 144.539 122.934 144.407L122.937 144.41Z" fill="black"/>
<path d="M126.682 144.619C126.623 144.679 126.559 144.734 126.491 144.785L127.96 147.715C128.326 147.485 128.666 147.215 128.972 146.909C129.279 146.602 129.549 146.262 129.778 145.894L126.848 144.428C126.797 144.496 126.742 144.56 126.682 144.619Z" fill="black"/>
<path d="M120.817 138.733C120.51 139.039 120.24 139.38 120.011 139.748L122.941 141.214C122.996 141.144 123.056 141.079 123.121 141.019C123.18 140.96 123.243 140.905 123.308 140.854L121.84 137.923C121.469 138.154 121.126 138.425 120.817 138.733Z" fill="black"/>
</g>
<path d="M93.288 117.702C93.288 117.702 94.7604 111.715 96.7116 110.588C96.7116 110.588 96.0672 110.12 96.8988 108.068C97.7304 106.016 98.5188 104.342 99.8976 104.76C101.276 105.178 105.11 107.658 99.8976 110.588C99.8976 110.588 100.978 113.407 100.978 119.689C100.978 125.971 94.3824 132.8 92.9856 131.735C91.5888 130.669 93.288 117.702 93.288 117.702Z" fill="#263238"/>
<path d="M126.796 111.013C126.162 111.802 126.155 112.896 126.303 113.793C126.392 114.336 126.541 114.867 126.749 115.377L105.509 118.091V114.415C105.509 114.415 105.347 112.205 116.205 112.014C116.205 112.014 122.253 106.171 123.61 106.315C125.673 106.531 124.899 108.18 124.899 108.18C125.421 108.04 125.971 108.04 126.493 108.18C127.383 108.49 128.056 109.444 126.796 111.013Z" fill="#263238"/>
<path opacity="0.2" d="M126.796 111.013C126.163 111.802 126.156 112.896 126.303 113.793C122.163 114.531 106.914 115.593 107.688 114.577C108.544 113.472 117.267 113.616 117.768 113.296C118.268 112.975 124.899 108.18 124.899 108.18C125.422 108.04 125.972 108.04 126.494 108.18C127.383 108.49 128.056 109.444 126.796 111.013Z" fill="black"/>
<path d="M145.47 142.193L137.474 142.258C137.255 139.055 135.821 136.057 133.466 133.876C131.111 131.694 128.013 130.494 124.803 130.52C121.593 130.546 118.514 131.795 116.194 134.014C113.874 136.233 112.489 139.254 112.321 142.459L63.2313 142.863V142.819C63.2219 140.104 62.3358 137.465 60.7049 135.294C59.0741 133.124 56.7857 131.538 54.1806 130.773C51.5755 130.008 48.7931 130.105 46.2477 131.05C43.7022 131.995 41.53 133.736 40.0545 136.015C38.7418 138.041 38.0452 140.405 38.0493 142.819C38.0493 142.909 38.0493 142.999 38.0493 143.089L35.5977 141.934L29.4201 139.021C29.4201 139.021 27.5661 127.282 32.8869 121.05C38.2077 114.819 58.2525 110.193 58.2525 110.193C58.2525 110.193 64.0953 102.273 67.8969 98.4133L68.2353 98.0749C68.4286 97.8887 68.687 97.7854 68.9553 97.7869H71.2809C71.3472 97.783 71.4134 97.7966 71.4727 97.8264C71.5321 97.8561 71.5825 97.901 71.619 97.9565C71.6555 98.012 71.6768 98.0761 71.6806 98.1424C71.6844 98.2087 71.6708 98.2748 71.6409 98.3341C70.5105 100.656 66.2049 109.786 66.2049 114.426H117.282L126.797 111.024C126.797 111.024 142.197 114.178 143.969 116.226C144.249 116.678 144.429 117.185 144.494 117.713C145.679 123.412 145.47 142.193 145.47 142.193Z" fill="#FC8135"/>
<path d="M37.1205 117.763C39.8457 117.072 39.2337 122.742 35.5293 125.781C31.8249 128.819 30.3669 128.682 29.9565 126.947C29.5461 125.212 31.6809 119.146 37.1205 117.763Z" fill="#FC8135"/>
<path opacity="0.6" d="M37.1205 117.763C39.8457 117.072 39.2337 122.742 35.5293 125.781C31.8249 128.819 30.3669 128.682 29.9565 126.947C29.5461 125.212 31.6809 119.146 37.1205 117.763Z" fill="white"/>
<path opacity="0.6" d="M36.9011 122.468C36.4151 124.168 35.3387 125.348 34.4999 125.111C33.6611 124.873 33.3695 123.311 33.8555 121.597C34.3415 119.884 35.4179 118.717 36.2603 118.955C37.1027 119.192 37.3907 120.769 36.9011 122.468Z" fill="white"/>
<path opacity="0.6" d="M32.7281 124.913C32.5049 125.698 32.0081 126.241 31.6229 126.13C31.2377 126.018 31.1009 125.295 31.3277 124.513C31.5545 123.732 32.0477 123.185 32.4329 123.297C32.8181 123.408 32.9549 124.132 32.7281 124.913Z" fill="white"/>
<path opacity="0.2" d="M37.8011 121.219C37.8011 121.219 34.8743 124.78 30.6875 124.708C30.6875 124.708 32.5307 119.747 37.1387 118.228C37.1459 118.231 38.5211 119.275 37.8011 121.219Z" fill="white"/>
<path d="M69.7439 98.6509C69.3623 99.2665 68.9663 99.9469 68.5631 100.66C66.5615 104.184 64.4591 108.475 63.8255 109.786C63.7659 109.904 63.6749 110.003 63.5625 110.073C63.4501 110.143 63.3206 110.181 63.1883 110.182H58.2383C58.2383 110.182 64.0811 102.262 67.8827 98.4025H69.6035C69.6327 98.4019 69.6616 98.4092 69.687 98.4237C69.7125 98.4382 69.7335 98.4593 69.7479 98.4848C69.7623 98.5102 69.7695 98.5391 69.7688 98.5684C69.7681 98.5976 69.7595 98.6262 69.7439 98.6509Z" fill="#263238"/>
<path opacity="0.2" d="M69.7435 98.6509C69.3619 99.2665 68.9659 99.9469 68.5627 100.66C65.2325 103.577 62.1466 106.761 59.3359 110.182H58.2559C58.2559 110.182 64.0987 102.262 67.9003 98.4025H69.6211C69.6488 98.4049 69.6754 98.4145 69.6984 98.4302C69.7213 98.4459 69.7398 98.4673 69.7521 98.4922C69.7644 98.5172 69.7701 98.5449 69.7686 98.5727C69.7671 98.6005 69.7584 98.6274 69.7435 98.6509Z" fill="white"/>
<path opacity="0.2" d="M145.47 142.193L137.474 142.258C137.254 139.055 135.821 136.057 133.466 133.876C131.111 131.694 128.012 130.494 124.803 130.52C121.593 130.546 118.514 131.795 116.194 134.014C113.874 136.233 112.489 139.254 112.321 142.459L63.2312 142.862V142.819C63.2218 140.104 62.3357 137.465 60.7048 135.294C59.0739 133.124 56.7856 131.538 54.1805 130.773C51.5754 130.008 48.7929 130.105 46.2475 131.05C43.7021 131.995 41.5299 133.736 40.0544 136.015C38.7416 138.041 38.0451 140.405 38.0492 142.819C38.0492 142.909 38.0492 142.999 38.0492 143.089L35.5976 141.934L35 131.746C35 131.746 37.754 125.104 48.0176 121.486C58.2812 117.868 137.467 120.438 137.467 120.438C137.467 120.438 141.906 118.03 144.508 117.713C144.624 118.264 144.724 118.933 144.814 119.7C145.113 122.267 145.286 125.881 145.383 129.463C145.542 135.875 145.47 142.193 145.47 142.193Z" fill="black"/>
<path d="M140.303 136.746L137.474 142.258C137.254 139.055 135.821 136.057 133.466 133.876C131.111 131.694 128.012 130.494 124.802 130.52C121.592 130.546 118.513 131.795 116.194 134.014C113.874 136.233 112.489 139.254 112.321 142.459L63.231 142.863V142.819C63.2216 140.104 62.3355 137.465 60.7046 135.294C59.0738 133.124 56.7854 131.538 54.1803 130.773C51.5752 130.008 48.7928 130.106 46.2473 131.05C43.7019 131.995 41.5297 133.736 40.0542 136.015L37.6494 133.981C37.6494 133.981 40.7166 126.198 50.6418 126.198C60.567 126.198 64.9806 133.708 66.1218 139.101H109.397C109.397 139.101 113.188 126.198 124.895 126.198C136.603 126.198 140.303 136.746 140.303 136.746Z" fill="#FC8135"/>
<path d="M38.3553 146.779C38.3568 146.927 38.3289 147.073 38.2735 147.21C38.2181 147.346 38.1361 147.471 38.0323 147.576C37.9285 147.68 37.805 147.763 37.6689 147.82C37.5328 147.877 37.3868 147.906 37.2393 147.906H34.1541C33.6923 147.906 33.2432 147.754 32.8761 147.474L27.3789 143.269C27.0155 142.99 26.7108 142.641 26.4825 142.243C26.1904 141.727 26.0367 141.144 26.0361 140.551V135.547C26.0381 135.252 26.1004 134.961 26.2193 134.691C26.3381 134.421 26.5111 134.178 26.7273 133.978L29.1825 131.735H34.9857L40.0257 136.005C38.4597 138.409 38.3337 144.299 38.3553 146.779Z" fill="#FC8135"/>
<path opacity="0.2" d="M32.4909 138.921C32.5338 139.803 32.2887 140.677 31.7925 141.408C31.7064 141.532 31.5934 141.635 31.4618 141.709C31.3303 141.784 31.1836 141.827 31.0329 141.837C30.2265 141.837 29.5713 140.533 29.5713 138.921C29.5713 137.308 30.2265 136.005 31.0329 136.005C31.1675 136.012 31.299 136.048 31.4187 136.11C31.5385 136.172 31.6438 136.259 31.7277 136.365C32.1813 136.851 32.4909 137.815 32.4909 138.921Z" fill="black"/>
<path opacity="0.2" d="M32.4908 138.921C32.5337 139.803 32.2886 140.676 31.7924 141.408C31.3388 140.915 31.0328 139.939 31.0328 138.859C30.9917 137.977 31.2352 137.105 31.7276 136.372C32.1812 136.851 32.4908 137.815 32.4908 138.921Z" fill="white"/>
<path opacity="0.1" d="M34.9849 131.735L31.7449 134.615H26.2549C26.3702 134.376 26.5303 134.161 26.7265 133.981L29.1817 131.739L34.9849 131.735Z" fill="white"/>
<path opacity="0.2" d="M38.3552 146.779C38.3566 146.927 38.3288 147.073 38.2734 147.21C38.2179 147.346 38.136 147.471 38.0322 147.576C37.9284 147.68 37.8049 147.763 37.6688 147.82C37.5327 147.877 37.3867 147.906 37.2392 147.906H34.154C33.6922 147.906 33.2431 147.754 32.876 147.474L27.3788 143.269C27.0154 142.99 26.7107 142.641 26.4824 142.243H33.038L36.4076 144.983C36.4076 144.983 35.864 139.223 38.8052 135.713L34.9856 131.735L40.0256 136.005C38.4596 138.409 38.3336 144.299 38.3552 146.779Z" fill="black"/>
<path d="M137.475 142.258L143.674 130.378H145.474L147.612 131.706C147.914 131.894 148.163 132.157 148.336 132.468C148.508 132.779 148.599 133.129 148.599 133.485V142.542C148.598 142.884 148.515 143.22 148.355 143.522C148.195 143.824 147.963 144.082 147.681 144.274L145.297 145.894C145.097 146.029 144.862 146.101 144.621 146.103H138.684C138.363 146.103 138.056 145.975 137.829 145.748C137.602 145.521 137.475 145.214 137.475 144.893V142.258Z" fill="#FC8135"/>
<g opacity="0.2">
<path d="M66.1035 139.27C66.0557 139.27 66.01 139.251 65.9762 139.217C65.9424 139.183 65.9235 139.137 65.9235 139.09C65.9235 136.724 63.5547 133.312 63.5295 133.276C63.5082 133.246 63.4968 133.211 63.4971 133.175C63.4971 118.861 64.8327 115.204 64.8903 115.056L65.5455 111.978C65.5559 111.932 65.5838 111.891 65.6234 111.865C65.663 111.839 65.7112 111.829 65.7579 111.838C65.7814 111.842 65.8038 111.852 65.8236 111.865C65.8435 111.879 65.8605 111.896 65.8736 111.916C65.8867 111.936 65.8956 111.959 65.8998 111.982C65.9041 112.006 65.9035 112.03 65.8983 112.054L65.2323 115.157C65.2107 115.218 63.8607 118.955 63.8571 133.117C64.1631 133.56 66.2835 136.735 66.2835 139.09C66.2835 139.137 66.2645 139.183 66.2308 139.217C66.197 139.251 66.1512 139.27 66.1035 139.27Z" fill="black"/>
</g>
<path d="M66.6586 110.589C66.3325 110.59 66.0164 110.701 65.762 110.905C65.5076 111.109 65.3299 111.394 65.2582 111.712C64.9702 112.986 64.6174 114.912 65.0566 115.121C65.4958 115.33 67.7746 115.369 69.3154 115.377C69.6973 115.377 70.0636 115.225 70.3336 114.955C70.6037 114.685 70.7554 114.318 70.7554 113.937V113.721C70.7554 112.89 70.4255 112.093 69.8383 111.505C69.251 110.917 68.4544 110.586 67.6234 110.585L66.6586 110.589Z" fill="#263238"/>
<path opacity="0.2" d="M66.6586 110.589C66.3325 110.59 66.0164 110.701 65.762 110.905C65.5076 111.109 65.3299 111.394 65.2582 111.712C64.9702 112.986 64.6174 114.912 65.0566 115.121C65.4958 115.33 67.7746 115.369 69.3154 115.377C69.6973 115.377 70.0636 115.225 70.3336 114.955C70.6037 114.685 70.7554 114.318 70.7554 113.937V113.721C70.7554 112.89 70.4255 112.093 69.8383 111.505C69.251 110.917 68.4544 110.586 67.6234 110.585L66.6586 110.589Z" fill="black"/>
<path d="M73.8407 112.983C73.2251 113.249 69.4739 113.271 69.4739 113.271L69.3875 113.544C69.3302 113.733 69.2134 113.899 69.0545 114.016C68.8956 114.133 68.7031 114.196 68.5055 114.196H68.0411C67.9309 114.199 67.8214 114.176 67.7212 114.13C67.621 114.084 67.5327 114.016 67.4631 113.93C67.3935 113.845 67.3445 113.744 67.3199 113.637C67.2953 113.529 67.2957 113.417 67.3211 113.31C67.3859 113.008 67.4615 112.651 67.5515 112.27C67.9115 110.686 68.4335 108.67 68.8007 108.407C69.3407 108.047 72.6455 108.133 73.8047 108.648C73.9455 108.701 74.0697 108.791 74.1647 108.907C74.6471 109.642 74.4563 112.716 73.8407 112.983Z" fill="#263238"/>
<path opacity="0.1" d="M73.801 108.648C73.7546 109.662 73.6148 110.669 73.3834 111.658C73.3381 111.87 73.2232 112.062 73.057 112.202C72.8908 112.342 72.6827 112.423 72.4654 112.432L68.4191 112.612C68.258 112.619 68.0971 112.592 67.947 112.533C67.7969 112.475 67.6609 112.385 67.5479 112.27C67.9079 110.686 68.4299 108.67 68.7971 108.407C69.3479 108.032 72.6526 108.133 73.801 108.648Z" fill="white"/>
<g opacity="0.2">
<path d="M100.081 139.41C100.072 139.451 100.05 139.487 100.018 139.513C99.9861 139.54 99.9459 139.554 99.9044 139.554H99.8684C99.845 139.55 99.8227 139.541 99.8028 139.528C99.783 139.515 99.766 139.498 99.7529 139.478C99.7398 139.458 99.7308 139.436 99.7265 139.412C99.7222 139.389 99.7227 139.365 99.728 139.342C102.939 123.527 101.636 114.534 101.625 114.444C101.623 114.436 101.623 114.427 101.625 114.419H101.985C102.064 114.991 103.216 123.973 100.081 139.41Z" fill="black"/>
</g>
<path opacity="0.2" d="M98.2817 121.453H94.3397C93.9101 121.453 93.498 121.624 93.1942 121.928C92.8904 122.232 92.7197 122.644 92.7197 123.073C92.7197 123.503 92.8904 123.915 93.1942 124.219C93.498 124.523 93.9101 124.693 94.3397 124.693H98.2817C98.7114 124.693 99.1234 124.523 99.4272 124.219C99.7311 123.915 99.9017 123.503 99.9017 123.073C99.9017 122.644 99.7311 122.232 99.4272 121.928C99.1234 121.624 98.7114 121.453 98.2817 121.453ZM98.8937 123.808H93.7313C93.5361 123.808 93.3488 123.73 93.2108 123.592C93.0727 123.454 92.9951 123.267 92.9951 123.072C92.9951 122.876 93.0727 122.689 93.2108 122.551C93.3488 122.413 93.5361 122.335 93.7313 122.335H98.8901C99.0854 122.335 99.2726 122.413 99.4107 122.551C99.5488 122.689 99.6263 122.876 99.6263 123.072C99.6263 123.267 99.5488 123.454 99.4107 123.592C99.2726 123.73 99.0854 123.808 98.8901 123.808H98.8937Z" fill="black"/>
<path opacity="0.4" d="M147.8 135.281H148.61V141.214H147.8C147.513 141.214 147.239 141.1 147.036 140.897C146.834 140.695 146.72 140.42 146.72 140.134V136.372C146.718 136.229 146.745 136.087 146.799 135.955C146.853 135.823 146.932 135.702 147.032 135.601C147.133 135.5 147.252 135.419 147.384 135.364C147.516 135.309 147.657 135.281 147.8 135.281Z" fill="black"/>
<path opacity="0.4" d="M145.369 129.452C143.929 128.902 142.849 126.997 142.78 124.693C142.78 124.603 142.78 124.513 142.78 124.423C142.78 122.317 143.612 120.506 144.807 119.689C144.973 121.1 145.099 122.828 145.192 124.693C145.268 126.22 145.322 127.84 145.369 129.452Z" fill="black"/>
<path opacity="0.6" d="M145.369 129.452C143.929 128.902 142.849 126.997 142.78 124.693H145.185C145.268 126.22 145.322 127.84 145.369 129.452Z" fill="white"/>
<path opacity="0.2" d="M60.0461 122.335H57.6341C57.4431 122.335 57.26 122.259 57.1249 122.124C56.9899 121.989 56.9141 121.806 56.9141 121.615C56.9141 121.424 56.9899 121.241 57.1249 121.106C57.26 120.971 57.4431 120.895 57.6341 120.895H60.0461C60.237 120.895 60.4202 120.971 60.5552 121.106C60.6902 121.241 60.7661 121.424 60.7661 121.615C60.7661 121.806 60.6902 121.989 60.5552 122.124C60.4202 122.259 60.237 122.335 60.0461 122.335Z" fill="white"/>
<path d="M94.486 113.587C94.486 113.587 90.2164 118.202 89.248 118.829C88.2796 119.455 82.678 114.509 82.678 114.509C82.678 114.509 79.6648 113.81 79.6324 113.789C79.6 113.767 81.0724 112.349 81.8248 112.349C82.5772 112.349 83.7184 113.584 83.7544 113.587C83.7904 113.591 87.8692 116.892 88.5388 116.467C89.2084 116.042 91.3216 112.622 91.3216 112.622L94.486 113.587Z" fill="#EBB376"/>
<path d="M94.887 109.239C96.9246 110.679 95.4774 113.699 93.051 116.205L89.667 114.027C89.667 114.027 92.403 107.464 94.887 109.239Z" fill="#FC8135"/>
<path opacity="0.6" d="M94.887 109.239C96.9246 110.679 95.4774 113.699 93.051 116.205L89.667 114.027C89.667 114.027 92.403 107.464 94.887 109.239Z" fill="white"/>
</svg>
