<svg width="162" height="120" viewBox="0 0 162 120" fill="none" xmlns="http://www.w3.org/2000/svg">
<path d="M161.524 105.454H0.476074V105.535H161.524V105.454Z" fill="#EBEBEB"/>
<path d="M28.0409 108.521H17.373V108.601H28.0409V108.521Z" fill="#EBEBEB"/>
<path d="M69.2983 107.648H55.5996V107.728H69.2983V107.648Z" fill="#EBEBEB"/>
<path d="M36.7635 109.651H30.5825V109.732H36.7635V109.651Z" fill="#EBEBEB"/>
<path d="M145.387 110.972H140.481V111.052H145.387V110.972Z" fill="#EBEBEB"/>
<path d="M137.612 110.972H126.567V111.052H137.612V110.972Z" fill="#EBEBEB"/>
<path d="M107.357 108.653H99.6816V108.733H107.357V108.653Z" fill="#EBEBEB"/>
<path d="M76.8126 91.0887H14.6224C14.1346 91.0887 13.6668 90.8949 13.3219 90.55C12.977 90.2051 12.7832 89.7373 12.7832 89.2495V1.82306C12.7875 1.33808 12.9831 0.874409 13.3275 0.532973C13.672 0.191538 14.1374 -1.85933e-05 14.6224 1.35362e-09H76.8126C77.3004 1.35363e-09 77.7682 0.193769 78.1131 0.53868C78.458 0.88359 78.6518 1.35139 78.6518 1.83917V89.2495C78.6518 89.7373 78.458 90.2051 78.1131 90.55C77.7682 90.8949 77.3004 91.0887 76.8126 91.0887ZM14.6224 0.0644194C14.1562 0.0652708 13.7094 0.250829 13.3798 0.580454C13.0501 0.910079 12.8646 1.3569 12.8637 1.82306V89.2495C12.8646 89.7157 13.0501 90.1625 13.3798 90.4921C13.7094 90.8217 14.1562 91.0073 14.6224 91.0082H76.8126C77.2788 91.0073 77.7256 90.8217 78.0552 90.4921C78.3849 90.1625 78.5704 89.7157 78.5713 89.2495V1.82306C78.5704 1.3569 78.3849 0.910079 78.0552 0.580454C77.7256 0.250829 77.2788 0.0652708 76.8126 0.0644194H14.6224Z" fill="#EBEBEB"/>
<path d="M146.485 91.0887H84.2884C83.8009 91.0878 83.3336 90.8938 82.9888 90.5491C82.6441 90.2043 82.4501 89.737 82.4492 89.2495V1.82306C82.4543 1.33834 82.6502 0.875159 82.9945 0.533904C83.3388 0.192648 83.8036 0.000820793 84.2884 0H146.485C146.969 0.00167635 147.433 0.193982 147.776 0.535235C148.119 0.876489 148.314 1.33919 148.318 1.82306V89.2495C148.318 89.7362 148.125 90.203 147.781 90.5477C147.438 90.8924 146.972 91.087 146.485 91.0887ZM84.2884 0.0644194C83.8222 0.0652708 83.3754 0.250829 83.0458 0.580454C82.7162 0.910079 82.5306 1.3569 82.5297 1.82306V89.2495C82.5306 89.7157 82.7162 90.1625 83.0458 90.4921C83.3754 90.8217 83.8222 91.0073 84.2884 91.0082H146.485C146.951 91.0073 147.398 90.8217 147.728 90.4921C148.057 90.1625 148.243 89.7157 148.244 89.2495V1.82306C148.243 1.3569 148.057 0.910079 147.728 0.580454C147.398 0.250829 146.951 0.0652708 146.485 0.0644194H84.2884Z" fill="#EBEBEB"/>
<path d="M99.5202 45.5347L134.265 45.5347V10.6968L99.5202 10.6968V45.5347Z" fill="#F0F0F0"/>
<path d="M99.5205 10.7H98.9214V45.5379H99.5205V10.7Z" fill="#E0E0E0"/>
<path d="M102.59 43.3348H131.198V12.8967L102.59 12.8967V43.3348Z" fill="#FAFAFA"/>
<path d="M113.854 36.7189H122.914C124.879 36.7189 126.193 35.1278 125.848 33.1759L124.087 23.0846C123.891 22.1082 123.37 21.2267 122.61 20.5835C121.85 19.9402 120.895 19.573 119.899 19.5415H110.861C108.896 19.5415 107.582 21.1327 107.927 23.0846L109.689 33.1759C109.883 34.1489 110.4 35.0279 111.156 35.6709C111.911 36.3138 112.862 36.683 113.854 36.7189Z" fill="#F0F0F0"/>
<path d="M34.2865 56.1155H26.5562V103.802H34.2865V56.1155Z" fill="#F0F0F0"/>
<path d="M68.2063 103.805H27.3452V105.451H68.2063V103.805Z" fill="#F0F0F0"/>
<path d="M34.2862 103.805H68.8857V56.1187L34.2862 56.1187L34.2862 103.805Z" fill="#F5F5F5"/>
<path d="M35.678 89.4621H67.4946V80.9459H35.678V89.4621Z" fill="#F0F0F0"/>
<path d="M35.678 100.607H67.4946V92.0904H35.678V100.607Z" fill="#F0F0F0"/>
<path d="M63.7291 80.4241H39.4431C39.2332 80.4241 39.063 80.5943 39.063 80.8042V81.2132C39.063 81.4231 39.2332 81.5933 39.4431 81.5933H63.7291C63.939 81.5933 64.1092 81.4231 64.1092 81.2132V80.8042C64.1092 80.5943 63.939 80.4241 63.7291 80.4241Z" fill="#F5F5F5"/>
<path d="M63.7291 91.5718H39.4431C39.2332 91.5718 39.063 91.742 39.063 91.9519V92.361C39.063 92.5709 39.2332 92.741 39.4431 92.741H63.7291C63.939 92.741 64.1092 92.5709 64.1092 92.361V91.9519C64.1092 91.742 63.939 91.5718 63.7291 91.5718Z" fill="#F5F5F5"/>
<path d="M35.678 67.26H67.4946V58.7438H35.678V67.26Z" fill="#F0F0F0"/>
<path d="M35.678 78.3208H67.4946V69.8046H35.678V78.3208Z" fill="#F0F0F0"/>
<path d="M63.7291 58.2253H39.4431C39.2332 58.2253 39.063 58.3954 39.063 58.6053V59.0144C39.063 59.2243 39.2332 59.3945 39.4431 59.3945H63.7291C63.939 59.3945 64.1092 59.2243 64.1092 59.0144V58.6053C64.1092 58.3954 63.939 58.2253 63.7291 58.2253Z" fill="#F5F5F5"/>
<path d="M63.7291 69.2796H39.4431C39.2332 69.2796 39.063 69.4497 39.063 69.6596V70.0687C39.063 70.2786 39.2332 70.4488 39.4431 70.4488H63.7291C63.939 70.4488 64.1092 70.2786 64.1092 70.0687V69.6596C64.1092 69.4497 63.939 69.2796 63.7291 69.2796Z" fill="#F5F5F5"/>
<path d="M67.6332 8.07172H24.2437V46.1628H67.6332V8.07172Z" fill="#E6E6E6"/>
<path d="M72.284 6.59007H21.4347C21.3782 6.59007 21.3222 6.60126 21.2701 6.62299C21.2179 6.64472 21.1705 6.67656 21.1307 6.71668C21.0909 6.7568 21.0594 6.80441 21.038 6.85675C21.0167 6.9091 21.0059 6.96516 21.0064 7.02168C21.0064 7.1353 21.0515 7.24426 21.1318 7.3246C21.2122 7.40494 21.3211 7.45007 21.4347 7.45007H72.284C72.3979 7.45007 72.5072 7.40504 72.5881 7.32479C72.6689 7.24455 72.7148 7.13559 72.7156 7.02168C72.7156 6.90721 72.6701 6.79743 72.5892 6.71649C72.5083 6.63555 72.3985 6.59007 72.284 6.59007Z" fill="#E6E6E6"/>
<path d="M69.4754 8.07172H25.1035V46.1628H69.4754V8.07172Z" fill="#F0F0F0"/>
<path d="M67.6332 46.1628H24.2437V47.3835H68.9022L67.6332 46.1628Z" fill="#E6E6E6"/>
<path d="M72.5415 46.1628H28.1729L29.4387 47.3835H73.8106L72.5415 46.1628Z" fill="#F0F0F0"/>
<path d="M66.8984 43.586V10.6485L27.6833 10.6485V43.586H66.8984Z" fill="#FAFAFA"/>
<path d="M36.5864 43.586L51.712 10.6485H58.8561L43.7273 43.586H36.5864Z" fill="white"/>
<path d="M45.2603 43.586L60.3891 10.6485H63.172L48.0464 43.586H45.2603Z" fill="white"/>
<path d="M66.8984 43.586V10.6485H66.5699V43.586H66.8984Z" fill="#E6E6E6"/>
<g opacity="0.4">
<path d="M27.7126 5.82027H23.2773V37.2536H27.7126V5.82027Z" fill="#F0F0F0"/>
<path d="M29.4424 5.82027H25.9863V37.2536H29.4424V5.82027Z" fill="#E6E6E6"/>
<path d="M32.1477 5.82027H27.7124V37.2536H32.1477V5.82027Z" fill="#F0F0F0"/>
<path d="M33.8775 5.82027H30.4214V37.2536H33.8775V5.82027Z" fill="#E6E6E6"/>
<path d="M36.5832 5.82027H32.1479V37.2536H36.5832V5.82027Z" fill="#F0F0F0"/>
</g>
<g opacity="0.4">
<path d="M65.2493 5.82027H62.6919V37.2536H65.2493V5.82027Z" fill="#F0F0F0"/>
<path d="M66.2415 5.82027H64.251V37.2536H66.2415V5.82027Z" fill="#E6E6E6"/>
<path d="M67.8035 5.82027H65.2461V37.2536H67.8035V5.82027Z" fill="#F0F0F0"/>
<path d="M68.7987 5.82027H66.8081V37.2536H68.7987V5.82027Z" fill="#E6E6E6"/>
<path d="M70.3612 5.82027H67.8037V37.2536H70.3612V5.82027Z" fill="#F0F0F0"/>
</g>
<path d="M115.416 68.9961C115.378 69.4621 115.479 69.9288 115.706 70.3373C115.934 70.7458 116.277 71.0777 116.693 71.2912C117.109 71.5046 117.579 71.59 118.043 71.5365C118.507 71.483 118.946 71.293 119.302 70.9905C119.658 70.6881 119.917 70.2868 120.046 69.8373C120.174 69.3878 120.166 68.9103 120.023 68.4652C119.881 68.0201 119.609 67.6274 119.243 67.3366C118.877 67.0459 118.433 66.8701 117.967 66.8317C117.342 66.7809 116.722 66.9803 116.244 67.3861C115.765 67.792 115.468 68.371 115.416 68.9961Z" fill="#E0E0E0"/>
<path d="M121.989 72.7613C123.283 72.571 124.177 71.3681 123.987 70.0745C123.797 68.781 122.594 67.8866 121.3 68.077C120.007 68.2673 119.112 69.4702 119.303 70.7638C119.493 72.0573 120.696 72.9517 121.989 72.7613Z" fill="#E0E0E0"/>
<path d="M123.427 70.7161C123.389 71.1821 123.49 71.6488 123.717 72.0573C123.944 72.4658 124.288 72.7977 124.704 73.0111C125.12 73.2246 125.589 73.31 126.054 73.2565C126.518 73.2029 126.956 73.013 127.313 72.7105C127.669 72.4081 127.928 72.0068 128.056 71.5573C128.185 71.1078 128.177 70.6303 128.034 70.1852C127.891 69.7401 127.62 69.3474 127.254 69.0566C126.888 68.7659 126.444 68.5901 125.978 68.5516C125.668 68.5256 125.356 68.561 125.06 68.6558C124.764 68.7506 124.49 68.903 124.253 69.1041C124.016 69.3052 123.821 69.5511 123.679 69.8277C123.537 70.1044 123.452 70.4063 123.427 70.7161Z" fill="#E0E0E0"/>
<path d="M111.02 70.2362C110.982 70.7021 111.083 71.1688 111.31 71.5773C111.537 71.9858 111.881 72.3178 112.296 72.5312C112.712 72.7447 113.182 72.83 113.647 72.7765C114.111 72.723 114.549 72.533 114.905 72.2306C115.262 71.9281 115.521 71.5268 115.649 71.0773C115.778 70.6279 115.77 70.1504 115.627 69.7053C115.484 69.2602 115.212 68.8675 114.846 68.5767C114.48 68.2859 114.036 68.1102 113.57 68.0717C112.945 68.0209 112.325 68.2204 111.847 68.6262C111.369 69.032 111.071 69.6111 111.02 70.2362Z" fill="#E0E0E0"/>
<path d="M129.546 72.7598C130.84 72.5694 131.734 71.3665 131.544 70.073C131.353 68.7794 130.15 67.885 128.857 68.0754C127.563 68.2657 126.669 69.4686 126.859 70.7622C127.05 72.0557 128.253 72.9501 129.546 72.7598Z" fill="#E0E0E0"/>
<path d="M111.726 70.2272C112.72 69.3774 112.837 67.8829 111.987 66.8892C111.137 65.8955 109.643 65.7789 108.649 66.6288C107.655 67.4787 107.539 68.9731 108.388 69.9668C109.238 70.9605 110.733 71.0771 111.726 70.2272Z" fill="#E0E0E0"/>
<path d="M104.487 69.6983C104.449 70.1642 104.55 70.631 104.778 71.0395C105.005 71.4479 105.348 71.7799 105.764 71.9933C106.18 72.2068 106.65 72.2922 107.114 72.2386C107.579 72.1851 108.017 71.9951 108.373 71.6927C108.73 71.3903 108.988 70.9889 109.117 70.5395C109.245 70.09 109.238 69.6125 109.095 69.1674C108.952 68.7223 108.68 68.3296 108.314 68.0388C107.948 67.748 107.504 67.5723 107.038 67.5338C106.413 67.4831 105.793 67.6825 105.315 68.0883C104.837 68.4941 104.539 69.0732 104.487 69.6983Z" fill="#E0E0E0"/>
<path d="M101.785 70.3361C101.785 70.3361 102.191 80.0215 117.755 80.0215C133.318 80.0215 133.724 70.3361 133.724 70.3361H101.785Z" fill="#F0F0F0"/>
<path d="M142.604 80.0215H139.644V105.451H142.604V80.0215Z" fill="#E6E6E6"/>
<path d="M143.393 80.0215H141.65V105.451H143.393V80.0215Z" fill="#F0F0F0"/>
<path d="M130.01 80.0215H127.05V105.451H130.01V80.0215Z" fill="#E6E6E6"/>
<path d="M130.564 80.0215H128.821V105.451H130.564V80.0215Z" fill="#F0F0F0"/>
<path d="M101.914 83.1071H143.935V80.0247H101.914V83.1071Z" fill="#F0F0F0"/>
<path d="M89.0719 80.0215H86.1118V105.451H89.0719V80.0215Z" fill="#E6E6E6"/>
<path d="M89.6258 80.0215H87.8833V105.451H89.6258V80.0215Z" fill="#F0F0F0"/>
<path d="M85.583 83.1071H100.647V80.0247H85.583V83.1071Z" fill="#E6E6E6"/>
<path d="M101.663 80.0215H98.7026V105.451H101.663V80.0215Z" fill="#E6E6E6"/>
<path d="M102.454 80.0215H100.712V105.451H102.454V80.0215Z" fill="#F0F0F0"/>
<path d="M81 120C115.491 120 143.451 118.368 143.451 116.354C143.451 114.34 115.491 112.708 81 112.708C46.5092 112.708 18.5488 114.34 18.5488 116.354C18.5488 118.368 46.5092 120 81 120Z" fill="#F5F5F5"/>
<path d="M114.974 113.155C114.975 113.799 114.747 114.422 114.331 114.913C113.915 115.405 113.339 115.733 112.704 115.839C104.889 117.157 96.9087 117.157 89.094 115.839C88.4618 115.73 87.8886 115.401 87.4759 114.909C87.0632 114.418 86.8377 113.797 86.8394 113.155V87.0657H114.987L114.974 113.155Z" fill="#FC8135"/>
<path opacity="0.3" d="M86.8232 87.5359V91.1982C88.5175 91.8263 94.0801 92.2869 100.899 92.2869C107.718 92.2869 113.29 91.8263 114.974 91.1982V87.5359H86.8232Z" fill="black"/>
<path d="M115.503 90.3285C115.503 91.1563 109.112 91.8263 100.899 91.8263C92.6856 91.8263 86.2952 91.1563 86.2952 90.3285L86.0278 87.0753H115.786L115.503 90.3285Z" fill="#FC8135"/>
<path d="M100.899 88.5699C109.112 88.5699 115.77 87.9008 115.77 87.0754C115.77 86.25 109.112 85.5808 100.899 85.5808C92.6859 85.5808 86.0278 86.25 86.0278 87.0754C86.0278 87.9008 92.6859 88.5699 100.899 88.5699Z" fill="#FC8135"/>
<path opacity="0.3" d="M100.899 88.5699C109.112 88.5699 115.77 87.9008 115.77 87.0754C115.77 86.25 109.112 85.5808 100.899 85.5808C92.6859 85.5808 86.0278 86.25 86.0278 87.0754C86.0278 87.9008 92.6859 88.5699 100.899 88.5699Z" fill="black"/>
<path opacity="0.2" d="M90.5982 111.32C90.3089 111.319 90.0317 111.203 89.8271 110.999C89.6225 110.794 89.5072 110.517 89.5063 110.228V95.2695C89.5072 94.9802 89.6225 94.7029 89.8271 94.4983C90.0317 94.2937 90.3089 94.1784 90.5982 94.1776C90.8873 94.1793 91.1641 94.2948 91.3685 94.4993C91.5729 94.7037 91.6885 94.9804 91.6902 95.2695V110.228C91.6885 110.517 91.5729 110.793 91.3685 110.998C91.1641 111.202 90.8873 111.318 90.5982 111.32Z" fill="black"/>
<path opacity="0.2" d="M111.203 111.32C110.914 111.319 110.637 111.203 110.432 110.999C110.227 110.794 110.112 110.517 110.111 110.228V95.2695C110.112 94.9802 110.227 94.7029 110.432 94.4983C110.637 94.2937 110.914 94.1784 111.203 94.1776C111.492 94.1793 111.769 94.2948 111.973 94.4993C112.178 94.7037 112.293 94.9804 112.295 95.2695V110.228C112.293 110.517 112.178 110.793 111.973 110.998C111.769 111.202 111.492 111.318 111.203 111.32Z" fill="black"/>
<path opacity="0.2" d="M104.332 111.32C104.043 111.318 103.766 111.202 103.562 110.998C103.358 110.793 103.242 110.517 103.24 110.228V95.2695C103.242 94.9804 103.358 94.7037 103.562 94.4993C103.766 94.2948 104.043 94.1793 104.332 94.1776C104.621 94.1784 104.899 94.2937 105.103 94.4983C105.308 94.7029 105.423 94.9802 105.424 95.2695V110.228C105.423 110.517 105.308 110.794 105.103 110.999C104.899 111.203 104.621 111.319 104.332 111.32Z" fill="black"/>
<path opacity="0.2" d="M97.4654 111.32C97.1764 111.318 96.8996 111.202 96.6952 110.998C96.4908 110.793 96.3752 110.517 96.3735 110.228V95.2695C96.3752 94.9804 96.4908 94.7037 96.6952 94.4993C96.8996 94.2948 97.1764 94.1793 97.4654 94.1776C97.7548 94.1784 98.032 94.2937 98.2366 94.4983C98.4412 94.7029 98.5565 94.9802 98.5573 95.2695V110.228C98.5565 110.517 98.4412 110.794 98.2366 110.999C98.032 111.203 97.7548 111.319 97.4654 111.32Z" fill="black"/>
<path d="M62.6018 27.1076C62.6018 27.4032 62.5142 27.6921 62.35 27.9379C62.1857 28.1837 61.9523 28.3752 61.6792 28.4884C61.4062 28.6015 61.1057 28.6311 60.8157 28.5734C60.5258 28.5157 60.2595 28.3734 60.0505 28.1644C59.8415 27.9554 59.6992 27.6891 59.6415 27.3992C59.5838 27.1092 59.6134 26.8088 59.7266 26.5357C59.8397 26.2626 60.0312 26.0292 60.277 25.8649C60.5228 25.7007 60.8117 25.6131 61.1073 25.6131C61.5037 25.6131 61.8838 25.7705 62.1641 26.0508C62.4444 26.3311 62.6018 26.7112 62.6018 27.1076Z" fill="#263238"/>
<path d="M59.9063 27.3234C59.8918 27.3238 59.8774 27.3201 59.8649 27.3127C59.8523 27.3053 59.8421 27.2945 59.8355 27.2815C59.7367 27.1001 59.6746 26.9009 59.6528 26.6955C59.631 26.49 59.6499 26.2823 59.7084 26.0842C59.7668 25.886 59.8638 25.7013 59.9936 25.5406C60.1235 25.3799 60.2837 25.2464 60.4652 25.1476C60.6466 25.0489 60.8458 24.9868 61.0512 24.965C61.2566 24.9432 61.4644 24.9621 61.6625 25.0205C61.8607 25.079 62.0454 25.1759 62.206 25.3058C62.3667 25.4356 62.5003 25.5959 62.599 25.7773C62.6085 25.7963 62.6105 25.8181 62.6045 25.8384C62.5985 25.8588 62.5851 25.8761 62.5668 25.8868C62.5575 25.892 62.5473 25.8952 62.5368 25.8963C62.5262 25.8975 62.5156 25.8965 62.5054 25.8935C62.4952 25.8905 62.4857 25.8855 62.4775 25.8789C62.4692 25.8722 62.4624 25.864 62.4573 25.8546C62.2784 25.5258 61.9761 25.2814 61.617 25.1754C61.2579 25.0694 60.8713 25.1104 60.5425 25.2894C60.2136 25.4683 59.9693 25.7706 59.8632 26.1297C59.7572 26.4888 59.7982 26.8753 59.9772 27.2042C59.9823 27.2135 59.9855 27.2237 59.9866 27.2343C59.9878 27.2448 59.9868 27.2555 59.9838 27.2657C59.9808 27.2759 59.9759 27.2853 59.9692 27.2936C59.9625 27.3018 59.9543 27.3087 59.945 27.3137C59.933 27.3199 59.9198 27.3232 59.9063 27.3234Z" fill="#263238"/>
<path d="M58.4534 33.936C58.1623 33.9348 57.8772 33.853 57.6297 33.6995C57.3823 33.5461 57.1822 33.3271 57.0518 33.0668C56.9213 32.8065 56.8655 32.5152 56.8906 32.2251C56.9157 31.9351 57.0208 31.6577 57.194 31.4237C57.3175 31.2583 57.4724 31.1188 57.6498 31.0132C57.8272 30.9077 58.0237 30.8381 58.228 30.8085C58.2384 30.8066 58.249 30.807 58.2593 30.8094C58.2696 30.8119 58.2792 30.8164 58.2877 30.8228C58.2961 30.8291 58.3032 30.8371 58.3084 30.8463C58.3137 30.8555 58.317 30.8656 58.3181 30.8761C58.3209 30.897 58.3154 30.9182 58.3027 30.935C58.2901 30.9519 58.2713 30.9631 58.2505 30.9663C57.8802 31.0205 57.5466 31.2197 57.3231 31.5199C57.0996 31.8201 57.0045 32.1968 57.0587 32.5671C57.113 32.9374 57.3121 33.271 57.6123 33.4945C57.9125 33.718 58.2892 33.8131 58.6596 33.7589C58.6809 33.7555 58.7028 33.7607 58.7203 33.7733C58.7378 33.786 58.7496 33.8052 58.753 33.8265C58.7564 33.8479 58.7512 33.8697 58.7385 33.8872C58.7258 33.9047 58.7067 33.9165 58.6853 33.9199C58.6084 33.9301 58.531 33.9355 58.4534 33.936Z" fill="#263238"/>
<path d="M66.5735 36.3711C66.2713 36.3706 65.9758 36.2822 65.7231 36.1166C65.7052 36.1047 65.6925 36.0864 65.6877 36.0654C65.6829 36.0444 65.6863 36.0224 65.6974 36.0039C65.7097 35.9864 65.7283 35.9744 65.7492 35.9702C65.7702 35.966 65.792 35.97 65.8101 35.9813C66.124 36.1851 66.506 36.2557 66.8721 36.1778C67.2381 36.0999 67.5582 35.8798 67.762 35.5658C67.9657 35.2519 68.0364 34.8699 67.9585 34.5038C67.8806 34.1378 67.6604 33.8177 67.3465 33.6139C67.3285 33.602 67.3158 33.5837 67.311 33.5627C67.3062 33.5417 67.3097 33.5197 67.3207 33.5012C67.3331 33.4837 67.3516 33.4717 67.3726 33.4675C67.3936 33.4633 67.4153 33.4673 67.4334 33.4786C67.7826 33.706 68.0275 34.0624 68.1144 34.4699C68.2013 34.8774 68.1232 35.3027 67.8973 35.6528C67.7857 35.8269 67.6405 35.9771 67.4701 36.0943C67.2998 36.2116 67.1077 36.2936 66.9052 36.3356C66.7961 36.3586 66.685 36.3704 66.5735 36.3711Z" fill="#263238"/>
<path d="M60.2702 31.7683C61.4371 31.7683 62.3831 30.8223 62.3831 29.6554C62.3831 28.4884 61.4371 27.5424 60.2702 27.5424C59.1032 27.5424 58.1572 28.4884 58.1572 29.6554C58.1572 30.8223 59.1032 31.7683 60.2702 31.7683Z" fill="#263238"/>
<path d="M62.253 34.4812C63.3474 33.3868 63.3474 31.6125 62.253 30.5182C61.1587 29.4239 59.3844 29.4239 58.2901 30.5182C57.1957 31.6125 57.1957 33.3868 58.2901 34.4812C59.3844 35.5755 61.1587 35.5755 62.253 34.4812Z" fill="#263238"/>
<path d="M60.5663 39.1604C62.2776 39.1604 63.6649 37.7731 63.6649 36.0619C63.6649 34.3506 62.2776 32.9633 60.5663 32.9633C58.855 32.9633 57.4678 34.3506 57.4678 36.0619C57.4678 37.7731 58.855 39.1604 60.5663 39.1604Z" fill="#263238"/>
<path d="M66.6821 36.9838C67.0752 35.3183 66.0437 33.6494 64.3782 33.2563C62.7127 32.8632 61.0438 33.8947 60.6507 35.5603C60.2576 37.2258 61.2891 38.8946 62.9547 39.2877C64.6202 39.6808 66.289 38.6493 66.6821 36.9838Z" fill="#263238"/>
<path d="M73.9431 42.6648C73.9431 42.916 73.9431 43.2349 73.9656 43.5248C73.9882 43.8147 73.9882 44.1239 74.0075 44.4235C74.0494 45.0226 74.0913 45.6281 74.1557 46.2304C74.2716 47.4393 74.4338 48.6429 74.642 49.8411C74.6968 50.1374 74.7451 50.4402 74.8063 50.7365L74.948 51.4677C74.9835 51.5836 74.948 51.5611 74.9029 51.5579C74.8578 51.5547 74.9029 51.6159 75.093 51.6159C75.5794 51.5671 76.053 51.4307 76.4909 51.2132C76.7485 51.0973 77.0127 50.9717 77.2768 50.8364C77.5409 50.7011 77.8082 50.5465 78.0498 50.4112L78.9903 51.4967C78.766 51.7537 78.5272 51.9978 78.2753 52.2278C78.0272 52.464 77.7648 52.6845 77.4894 52.8881C77.2008 53.1053 76.896 53.3002 76.5778 53.4711C76.2158 53.6688 75.8276 53.8141 75.4247 53.9027C75.1763 53.9569 74.9218 53.9785 74.6678 53.9672C74.3578 53.9492 74.054 53.8727 73.7724 53.7417C73.4729 53.6011 73.2062 53.3992 72.9897 53.149C72.8037 52.9316 72.6517 52.6872 72.5388 52.4243C72.4513 52.2232 72.3802 52.0153 72.3262 51.8027L72.2006 51.3324C72.1104 51.0103 72.0363 50.7043 71.959 50.3887C71.6577 49.1224 71.4254 47.8407 71.2633 46.5493C71.1827 45.9051 71.1183 45.2609 71.0797 44.6006C71.0603 44.2785 71.0442 43.9564 71.0346 43.615C71.0249 43.2736 71.0346 42.9708 71.0346 42.5875L73.9431 42.6648Z" fill="#FFB573"/>
<path d="M72.3808 39.1926C75.1283 41.2959 75.0188 45.2609 75.0188 45.2609L70.1036 46.4365C70.1036 46.4365 68.5962 42.449 69.2082 40.9899C69.8459 39.4696 70.8348 38.0073 72.3808 39.1926Z" fill="#FC8135"/>
<path opacity="0.7" d="M72.3808 39.1926C75.1283 41.2959 75.0188 45.2609 75.0188 45.2609L70.1036 46.4365C70.1036 46.4365 68.5962 42.449 69.2082 40.9899C69.8459 39.4696 70.8348 38.0073 72.3808 39.1926Z" fill="white"/>
<path d="M77.8663 50.7816L78.678 49.4159L80.7137 51.5933C80.7137 51.5933 79.2546 52.5274 77.7407 51.8606L77.8663 50.7816Z" fill="#FFB573"/>
<path d="M79.6795 48.7621L82.2916 50.3017L80.7134 51.5933L78.6777 49.4159L79.6795 48.7621Z" fill="#FFB573"/>
<path d="M57.001 113.977L59.8097 114.247L61.5554 107.667L58.7435 107.396L57.001 113.977Z" fill="#FFB573"/>
<path d="M42.603 108.446L45.125 109.767L48.1237 103.821L45.6017 102.501L42.603 108.446Z" fill="#FFB573"/>
<path d="M45.7983 108.611L43.5437 106.321C43.5062 106.28 43.4552 106.256 43.4004 106.251C43.3457 106.246 43.2912 106.262 43.2473 106.295L41.1763 107.818C41.126 107.859 41.0848 107.909 41.0554 107.967C41.0259 108.024 41.0088 108.087 41.0051 108.151C41.0015 108.216 41.0114 108.28 41.0342 108.34C41.057 108.401 41.0923 108.455 41.1376 108.501C41.9364 109.287 42.3616 109.625 43.3536 110.633C43.9656 111.252 45.2218 112.711 46.0657 113.568C46.9096 114.425 47.7985 113.635 47.5248 113.204C46.2944 111.271 46.0882 110.057 46.0109 109.075C45.9969 108.9 45.9216 108.735 45.7983 108.611Z" fill="#263238"/>
<path d="M60.2477 113.394H56.8431C56.7822 113.394 56.7231 113.415 56.6749 113.452C56.6267 113.489 56.5919 113.541 56.5758 113.6L55.8478 116.277C55.8296 116.34 55.8266 116.407 55.8391 116.472C55.8516 116.537 55.8791 116.598 55.9196 116.651C55.96 116.703 56.0122 116.745 56.0719 116.774C56.1316 116.802 56.1972 116.816 56.2633 116.814C57.4583 116.814 58.0252 116.814 59.5165 116.814H64.0806C65.3207 116.814 65.5816 115.562 65.0662 115.446C62.7664 114.937 61.4394 114.234 60.7308 113.565C60.5965 113.45 60.4243 113.389 60.2477 113.394Z" fill="#263238"/>
<path opacity="0.2" d="M61.5519 107.67L60.6533 111.062H57.7705L58.74 107.4L61.5519 107.67Z" fill="black"/>
<path opacity="0.2" d="M45.5988 102.501L48.124 103.824L46.578 106.887L44.0527 105.564L45.5988 102.501Z" fill="black"/>
<path d="M71.5497 38.7868C71.5497 38.7868 72.793 39.3311 68.625 55.8224L57.0489 54.8207C57.6512 50.1278 57.9057 47.2225 56.4917 37.3567C58.1419 37.1634 59.804 37.0892 61.4649 37.1344C63.2256 37.1611 64.9822 37.3128 66.7215 37.5886C68.3501 37.9062 69.9615 38.3061 71.5497 38.7868Z" fill="#FC8135"/>
<path opacity="0.7" d="M71.5497 38.7868C71.5497 38.7868 72.793 39.3311 68.625 55.8224L57.0489 54.8207C57.6512 50.1278 57.9057 47.2225 56.4917 37.3567C58.1419 37.1634 59.804 37.0892 61.4649 37.1344C63.2256 37.1611 64.9822 37.3128 66.7215 37.5886C68.3501 37.9062 69.9615 38.3061 71.5497 38.7868Z" fill="white"/>
<path d="M61.4651 37.041C61.4651 37.041 60.8209 37.041 60.0318 37.041C59.5647 37.7593 61.5359 39.8561 64.0419 41.9175C64.6474 40.0397 65.6008 40.0462 65.6008 40.0462L61.4651 37.041Z" fill="white"/>
<path d="M66.7185 37.5467C66.7185 37.5467 67.0116 37.5886 67.7137 37.7496C68.1775 38.4679 68.4384 40.2652 67.0695 41.8306C66.5316 39.898 65.604 40.0719 65.604 40.0719L66.7185 37.5467Z" fill="white"/>
<path d="M62.4955 31.2594C62.6824 32.9794 62.7436 36.0908 61.4648 37.1344C61.4648 37.1344 62.8305 38.5323 65.6006 40.0719C67.6104 38.6805 66.7214 37.5886 66.7214 37.5886C64.8726 36.9766 65.0433 35.5819 65.4846 34.2935L62.4955 31.2594Z" fill="#FFB573"/>
<path opacity="0.2" d="M63.7165 32.4995L65.4848 34.2935C65.3763 34.5917 65.2944 34.8989 65.24 35.2115C64.5314 35.0472 63.5007 34.3064 63.4878 33.5463C63.5001 33.1864 63.5776 32.8317 63.7165 32.4995Z" fill="black"/>
<path d="M69.1375 25.6485C70.3228 26.6985 70.6706 29.256 69.5433 30.9921C69.2048 29.2322 69.0686 27.4393 69.1375 25.6485Z" fill="#263238"/>
<path d="M62.135 27.6487C61.9288 30.4799 61.7839 31.6749 63.0079 33.3079C64.8502 35.7655 68.374 35.3951 69.4208 32.6831C70.3645 30.2384 70.5417 26.0189 67.9424 24.5308C67.3712 24.1974 66.724 24.0161 66.0627 24.0044C65.4015 23.9926 64.7482 24.1507 64.1655 24.4635C63.5828 24.7763 63.0902 25.2335 62.7347 25.7911C62.3791 26.3488 62.1726 26.9884 62.135 27.6487Z" fill="#FFB573"/>
<path d="M61.7581 29.9291C63.8518 29.8486 65.0113 27.1108 64.4863 25.9545C66.8601 27.1913 70.4547 28.1641 70.0553 26.5729C69.5174 24.4245 66.9181 22.8495 63.7197 23.9961C61.8677 24.8014 60.2829 26.5729 61.7581 29.9291Z" fill="#263238"/>
<path d="M61.1202 29.9259C61.2096 30.4673 61.508 30.9519 61.9512 31.2755C62.5438 31.6975 63.085 31.2272 63.1268 30.5411C63.1655 29.9195 62.9046 28.9532 62.2089 28.805C62.0565 28.7748 61.899 28.7831 61.7507 28.8293C61.6024 28.8755 61.468 28.9581 61.3598 29.0695C61.2516 29.1809 61.173 29.3177 61.1311 29.4673C61.0893 29.6168 61.0855 29.7745 61.1202 29.9259Z" fill="#FFB573"/>
<path d="M68.6251 55.8224C68.6251 55.8224 71.2437 72.9096 69.7846 83.8866C68.6798 92.1806 61.5519 110.076 61.5519 110.076L56.9233 109.951C56.9233 109.951 61.7032 92.6057 62.6921 85.7934C64.3831 74.1271 60.1475 55.1009 60.1475 55.1009L68.6251 55.8224Z" fill="#263238"/>
<path opacity="0.2" d="M64.1096 59.3236L61.6392 63.2177C62.3831 67.835 62.8552 72.4919 63.0532 77.1645C66.5254 70.948 64.8955 62.6122 64.1096 59.3236Z" fill="black"/>
<path d="M62.2736 110.334L56.4565 110.176L56.8108 108.305L62.8212 108.34L62.2736 110.334Z" fill="#FC8135"/>
<path d="M66.0935 55.6388C66.0935 55.6388 64.1609 74.5587 59.745 84.8529C56.1729 93.163 47.6567 106.456 47.6567 106.456L44.2554 104.465C44.2554 104.465 49.731 89.6843 52.4334 84.1443C59.0267 70.5615 52.894 59.665 57.049 54.8336L66.0935 55.6388Z" fill="#263238"/>
<path d="M48.0271 106.746L43.6885 104.365L44.3939 102.51L49.0159 105.119L48.0271 106.746Z" fill="#FC8135"/>
<path d="M56.9331 54.1282L56.3211 55.1203C56.276 55.1943 56.363 55.2877 56.4982 55.2974L68.638 56.3474C68.7411 56.3474 68.8345 56.312 68.8442 56.2476L69.0406 55.2201C69.0406 55.1492 68.9666 55.0816 68.8538 55.0719L57.1295 54.0573C57.0935 54.0519 57.0566 54.0555 57.0223 54.0678C56.988 54.0802 56.9573 54.101 56.9331 54.1282Z" fill="#FC8135"/>
<path d="M58.3957 55.5744L58.0736 55.5486C58.0124 55.5486 57.9673 55.5068 57.9738 55.4681L58.2379 54.1346C58.2379 54.0928 58.3055 54.067 58.3667 54.0734L58.6888 54.0992C58.7532 54.0992 58.7983 54.1411 58.7887 54.1797L58.5278 55.5132C58.5149 55.5519 58.4537 55.5809 58.3957 55.5744Z" fill="#263238"/>
<path d="M67.746 56.3829L67.4239 56.3571C67.3595 56.3571 67.3144 56.3152 67.3241 56.2766L67.5882 54.9431C67.5882 54.9044 67.6526 54.8755 67.7138 54.8819L68.0359 54.9077C68.0971 54.9077 68.1422 54.9495 68.1357 54.9882L67.8716 56.3217C67.8652 56.3668 67.7943 56.3893 67.746 56.3829Z" fill="#263238"/>
<path d="M63.069 55.9802L62.7469 55.9513C62.6857 55.9513 62.6407 55.9094 62.6471 55.8707L62.9112 54.5373C62.9112 54.4986 62.9756 54.4696 63.0401 54.4761L63.3622 54.505C63.4233 54.505 63.4684 54.5469 63.462 54.5856L63.1979 55.919C63.1914 55.9577 63.1335 55.9835 63.069 55.9802Z" fill="#263238"/>
<path d="M66.5702 29.0563C66.538 29.2849 66.6346 29.4879 66.7827 29.5072C66.9309 29.5265 67.0791 29.359 67.1048 29.1303C67.1306 28.9017 67.0372 28.6987 66.889 28.6794C66.7409 28.6601 66.5992 28.8276 66.5702 29.0563Z" fill="#263238"/>
<path d="M69.1536 29.4041C69.1246 29.6328 69.2212 29.8357 69.3694 29.8551C69.5175 29.8744 69.6657 29.7069 69.6915 29.4782C69.7172 29.2495 69.6271 29.0466 69.4789 29.0273C69.3307 29.0079 69.1858 29.1754 69.1536 29.4041Z" fill="#263238"/>
<path d="M69.4048 29.0305L69.9781 28.9467C69.9781 28.9467 69.6431 29.3365 69.4048 29.0305Z" fill="#263238"/>
<path d="M68.1387 29.6554C68.2729 30.2038 68.4809 30.7315 68.7571 31.224C68.6297 31.2917 68.489 31.3308 68.3449 31.3386C68.2009 31.3464 68.0568 31.3227 67.9229 31.2691L68.1387 29.6554Z" fill="#ED893E"/>
<path d="M66.5833 31.9519C66.1303 31.8043 65.7503 31.4899 65.5204 31.0726C65.5146 31.0593 65.5141 31.0442 65.5188 31.0305C65.5236 31.0168 65.5334 31.0054 65.5462 30.9985C65.5598 30.9918 65.5756 30.9907 65.5901 30.9955C65.6046 31.0003 65.6166 31.0107 65.6235 31.0243C65.7666 31.2752 65.9669 31.4888 66.2081 31.6478C66.4493 31.8067 66.7246 31.9065 67.0117 31.939C67.0262 31.939 67.0401 31.9448 67.0504 31.9551C67.0607 31.9653 67.0665 31.9793 67.0665 31.9938C67.0665 32.0083 67.0607 32.0222 67.0504 32.0325C67.0401 32.0428 67.0262 32.0485 67.0117 32.0485C66.8657 32.0324 66.722 32 66.5833 31.9519Z" fill="#263238"/>
<path d="M65.3944 27.7325C65.3757 27.7247 65.3591 27.7126 65.3461 27.697C65.3355 27.6868 65.327 27.6746 65.3212 27.661C65.3155 27.6474 65.3125 27.6328 65.3125 27.6181C65.3125 27.6034 65.3155 27.5888 65.3212 27.5752C65.327 27.5617 65.3355 27.5494 65.3461 27.5392C65.5039 27.3981 65.6936 27.2974 65.899 27.2457C66.1043 27.1941 66.3191 27.1931 66.5249 27.2429C66.539 27.2469 66.5521 27.2537 66.5635 27.263C66.5749 27.2722 66.5843 27.2836 66.5913 27.2965C66.5982 27.3094 66.6024 27.3235 66.6037 27.3381C66.6051 27.3527 66.6035 27.3674 66.599 27.3814C66.5908 27.4099 66.5716 27.434 66.5457 27.4485C66.5197 27.463 66.4891 27.4666 66.4605 27.4587C66.2911 27.421 66.1151 27.4241 65.9471 27.4678C65.7791 27.5114 65.6239 27.5944 65.4942 27.7099C65.4802 27.7207 65.464 27.7282 65.4468 27.7321C65.4296 27.736 65.4117 27.7361 65.3944 27.7325Z" fill="#263238"/>
<path d="M70.2389 28.4185C70.2221 28.412 70.2067 28.4021 70.1938 28.3895C70.0809 28.257 69.9384 28.153 69.7778 28.0858C69.6172 28.0187 69.443 27.9903 69.2694 28.003C69.2547 28.0063 69.2395 28.0064 69.2248 28.0033C69.21 28.0003 69.1961 27.9941 69.1839 27.9853C69.1718 27.9765 69.1616 27.9652 69.1541 27.9521C69.1466 27.9391 69.142 27.9246 69.1405 27.9096C69.1359 27.8801 69.1431 27.85 69.1606 27.8259C69.1781 27.8017 69.2045 27.7855 69.2339 27.7808C69.4442 27.7618 69.6559 27.7935 69.8515 27.873C70.047 27.9526 70.2207 28.0778 70.3581 28.2381C70.3737 28.2568 70.3829 28.2799 70.3843 28.3042C70.3857 28.3285 70.3792 28.3525 70.3658 28.3728C70.3524 28.3931 70.3328 28.4085 70.3099 28.4168C70.2871 28.425 70.2621 28.4256 70.2389 28.4185Z" fill="#263238"/>
<path d="M72.7866 52.7206C72.9952 52.0709 73.3296 51.4687 73.7709 50.9482C74.2122 50.4278 74.7517 49.9994 75.3585 49.6874C75.9654 49.3754 76.6278 49.1861 77.3078 49.1301C77.9879 49.0741 78.6723 49.1527 79.322 49.3612C79.9717 49.5697 80.5739 49.9042 81.0944 50.3455C81.6148 50.7867 82.0432 51.3262 82.3552 51.9331C82.6672 52.5399 82.8565 53.2023 82.9125 53.8824C82.9685 54.5624 82.89 55.2468 82.6814 55.8965L80.678 62.1645L70.7832 58.9854L72.7866 52.7206Z" fill="#FC8135"/>
<path opacity="0.3" d="M72.7866 52.7206C72.9952 52.0709 73.3296 51.4687 73.7709 50.9482C74.2122 50.4278 74.7517 49.9994 75.3585 49.6874C75.9654 49.3754 76.6278 49.1861 77.3078 49.1301C77.9879 49.0741 78.6723 49.1527 79.322 49.3612C79.9717 49.5697 80.5739 49.9042 81.0944 50.3455C81.6148 50.7867 82.0432 51.3262 82.3552 51.9331C82.6672 52.5399 82.8565 53.2023 82.9125 53.8824C82.9685 54.5624 82.89 55.2468 82.6814 55.8965L80.678 62.1645L70.7832 58.9854L72.7866 52.7206Z" fill="black"/>
<path d="M63.0238 49.5834L61.2136 55.2201C61.1871 55.3011 61.1769 55.3865 61.1837 55.4715C61.1904 55.5564 61.2139 55.6392 61.2529 55.715C61.2918 55.7908 61.3454 55.8581 61.4105 55.913C61.4757 55.9679 61.5511 56.0094 61.6323 56.035L70.7799 58.9725L72.7897 52.7174C73.2115 51.4065 74.1363 50.3167 75.3612 49.6874C76.586 49.0581 78.0106 48.9407 79.3218 49.3612L69.5591 46.224C68.247 45.8044 66.822 45.9225 65.5968 46.5523C64.3716 47.1821 63.4463 48.2722 63.0238 49.5834Z" fill="#FC8135"/>
<path d="M67.9327 53.8576L70.4547 46.0082C70.4634 45.98 70.4659 45.9503 70.4621 45.921C70.4583 45.8918 70.4483 45.8637 70.4327 45.8387C70.4171 45.8137 70.3964 45.7923 70.3718 45.7759C70.3473 45.7596 70.3195 45.7487 70.2904 45.744L67.7137 45.364L67.3916 46.3818L69.2694 46.9841L67.1436 53.6L67.9327 53.8576Z" fill="#263238"/>
<path d="M66.5929 53.426C66.5346 53.6079 66.5316 53.803 66.5842 53.9866C66.6368 54.1702 66.7426 54.3342 66.8883 54.4577C67.034 54.5812 67.213 54.6587 67.4027 54.6806C67.5925 54.7024 67.7844 54.6675 67.9544 54.5803C68.1243 54.4931 68.2646 54.3575 68.3575 54.1906C68.4504 54.0237 68.4917 53.833 68.4763 53.6427C68.4609 53.4523 68.3894 53.2708 68.2709 53.121C68.1524 52.9712 67.9921 52.8599 67.8104 52.8012C67.6894 52.7621 67.5619 52.7472 67.4352 52.7575C67.3085 52.7677 67.1851 52.8029 67.0719 52.8609C66.9588 52.919 66.8583 52.9988 66.7761 53.0957C66.6939 53.1927 66.6316 53.305 66.5929 53.426Z" fill="#263238"/>
<path d="M71.2566 59.9098L83.9472 63.9843C83.9933 63.9993 84.0419 64.0051 84.0902 64.0012C84.1386 63.9973 84.1856 63.9839 84.2288 63.9618C84.2719 63.9396 84.3102 63.9091 84.3415 63.8721C84.3727 63.8351 84.3964 63.7922 84.411 63.746C84.4265 63.6999 84.4326 63.6512 84.4289 63.6027C84.4252 63.5543 84.4119 63.507 84.3897 63.4638C84.3675 63.4205 84.3368 63.3822 84.2995 63.351C84.2623 63.3198 84.2191 63.2964 84.1727 63.2822L70.7799 58.9822C70.7201 59.1684 70.7368 59.3707 70.8262 59.5447C70.9156 59.7187 71.0704 59.85 71.2566 59.9098Z" fill="#FC8135"/>
<path opacity="0.2" d="M71.2566 59.9098L76.4424 61.575C76.4887 61.5901 76.5375 61.5959 76.586 61.5921C76.6346 61.5882 76.6819 61.5749 76.7253 61.5527C76.7687 61.5306 76.8073 61.5001 76.8389 61.463C76.8704 61.426 76.8944 61.383 76.9094 61.3367C76.9388 61.2436 76.9303 61.1426 76.8857 61.0557C76.841 60.9689 76.7639 60.9032 76.671 60.8729L70.7799 58.9822C70.7201 59.1684 70.7368 59.3707 70.8262 59.5447C70.9156 59.7187 71.0704 59.85 71.2566 59.9098Z" fill="black"/>
<path d="M57.8541 41.9047L57.677 42.1011L57.4773 42.3298C57.342 42.4844 57.2067 42.6519 57.0779 42.8098C56.8138 43.1318 56.5625 43.4765 56.3274 43.8244C55.3542 45.2019 54.5881 46.7147 54.0534 48.3144C53.9246 48.7138 53.8054 49.1132 53.712 49.5222C53.6798 49.6414 53.6766 49.6897 53.6605 49.7445C53.658 49.7917 53.658 49.839 53.6605 49.8862C53.6553 49.9365 53.6553 49.9873 53.6605 50.0376C53.6605 50.0956 53.77 50.2308 54.0341 50.3597C54.3516 50.5025 54.6861 50.6043 55.0294 50.6624C55.8578 50.7942 56.6967 50.8491 57.5353 50.8267C58.4114 50.8267 59.3004 50.7494 60.1893 50.656C61.0783 50.5626 61.9802 50.4466 62.8531 50.3146L63.2042 51.7093C61.4064 52.2944 59.5566 52.7053 57.6802 52.9364C56.6923 53.065 55.6934 53.0866 54.7008 53.0009C54.1334 52.9476 53.5761 52.8153 53.0453 52.6079C52.7268 52.4802 52.4276 52.3089 52.1563 52.099C51.8367 51.8484 51.5733 51.5335 51.3832 51.1746C51.056 50.5014 50.9685 49.7366 51.1352 49.0069C51.2125 48.5141 51.3253 48.0406 51.4573 47.5446C51.7101 46.5924 52.0464 45.6644 52.4623 44.7713C52.8792 43.8762 53.3649 43.0147 53.9149 42.1945C54.1919 41.7855 54.4882 41.3893 54.7975 40.9996C54.9553 40.8063 55.1196 40.6163 55.2806 40.4262L55.5415 40.146C55.6349 40.0462 55.709 39.9656 55.8378 39.8432L57.8541 41.9047Z" fill="#FFB573"/>
<path d="M62.1513 50.6109L64.4059 49.4159L64.5058 51.8381C64.5058 51.8381 62.8953 52.5048 61.9741 51.7705L62.1513 50.6109Z" fill="#FFB573"/>
<path d="M66.2644 49.2323L65.9262 51.4645L64.509 51.8381L64.4092 49.4159L66.2644 49.2323Z" fill="#FFB573"/>
<path d="M56.4918 37.3631C55.0713 37.6143 53.084 41.6856 53.084 41.6856L56.6625 44.9066C56.6625 44.9066 59.5066 41.8016 59.3552 39.9528C59.2264 38.3906 58.2987 37.041 56.4918 37.3631Z" fill="#FC8135"/>
<path opacity="0.7" d="M56.4918 37.3631C55.0713 37.6143 53.084 41.6856 53.084 41.6856L56.6625 44.9066C56.6625 44.9066 59.5066 41.8016 59.3552 39.9528C59.2264 38.3906 58.2987 37.041 56.4918 37.3631Z" fill="white"/>
<path d="M46.9063 109.854C46.8688 109.859 46.8309 109.859 46.7935 109.854C46.436 109.835 46.0559 109.287 45.8594 108.965C45.8534 108.956 45.8501 108.945 45.8501 108.934C45.8501 108.924 45.8534 108.913 45.8594 108.904C45.8653 108.894 45.8742 108.887 45.8846 108.883C45.8951 108.879 45.9066 108.878 45.9174 108.881C46.0334 108.904 47.0351 109.129 47.1607 109.467C47.1738 109.504 47.177 109.544 47.1703 109.582C47.1635 109.62 47.1469 109.656 47.1221 109.687C47.0705 109.765 46.9947 109.823 46.9063 109.854ZM46.0269 109.036C46.3136 109.477 46.597 109.741 46.8 109.754C46.8462 109.755 46.8918 109.744 46.9325 109.722C46.9731 109.7 47.0074 109.668 47.0319 109.629C47.0458 109.614 47.0553 109.597 47.0593 109.577C47.0633 109.558 47.0616 109.538 47.0544 109.519C46.9771 109.313 46.3748 109.12 46.0269 109.036Z" fill="#FC8135"/>
<path d="M46.8032 108.965C46.5062 109.047 46.1946 109.06 45.8917 109.004C45.8822 109.001 45.8737 108.995 45.8669 108.988C45.8601 108.98 45.8554 108.972 45.8531 108.962C45.8486 108.953 45.8462 108.944 45.8462 108.934C45.8462 108.925 45.8486 108.915 45.8531 108.907C45.8788 108.884 46.465 108.311 46.8741 108.34C46.9247 108.341 46.9743 108.354 47.0191 108.377C47.0639 108.401 47.1025 108.434 47.1318 108.475C47.167 108.513 47.1886 108.561 47.1933 108.613C47.1979 108.664 47.1854 108.715 47.1575 108.759C47.065 108.864 46.9406 108.937 46.8032 108.965ZM46.027 108.913C46.3491 108.959 46.9514 108.878 47.077 108.694C47.0963 108.665 47.1125 108.62 47.0545 108.546C47.035 108.518 47.0091 108.495 46.9788 108.479C46.9486 108.462 46.9149 108.453 46.8805 108.453C46.6003 108.434 46.1945 108.762 46.027 108.913Z" fill="#FC8135"/>
<path d="M61.449 113.825C61.1375 113.818 60.8277 113.778 60.5245 113.706C60.5139 113.702 60.5047 113.695 60.4983 113.686C60.4918 113.677 60.4883 113.666 60.4883 113.655C60.4883 113.643 60.4918 113.632 60.4983 113.623C60.5047 113.614 60.5139 113.607 60.5245 113.603C60.663 113.536 61.8967 112.959 62.2059 113.178C62.2338 113.197 62.256 113.223 62.2701 113.254C62.2843 113.284 62.2899 113.318 62.2864 113.352C62.2849 113.415 62.269 113.477 62.24 113.532C62.211 113.588 62.1696 113.637 62.1189 113.674C61.9169 113.793 61.6826 113.846 61.449 113.825ZM60.7178 113.632C61.0818 113.7 61.7582 113.79 62.0384 113.581C62.0743 113.552 62.1038 113.517 62.1249 113.476C62.146 113.436 62.1582 113.391 62.1608 113.345C62.1636 113.331 62.162 113.317 62.1563 113.303C62.1505 113.29 62.1408 113.279 62.1286 113.271C61.9546 113.152 61.2267 113.407 60.7081 113.632H60.7178Z" fill="#FC8135"/>
<path d="M60.5342 113.7C60.5226 113.703 60.5104 113.703 60.4988 113.7C60.491 113.693 60.4852 113.683 60.4818 113.673C60.4785 113.663 60.4776 113.652 60.4795 113.642C60.4795 113.59 60.7726 112.376 61.4458 112.453C61.6132 112.476 61.6583 112.556 61.668 112.624C61.7099 112.946 60.9336 113.555 60.5632 113.709L60.5342 113.7ZM61.3781 112.55C60.953 112.55 60.7049 113.259 60.6212 113.542C61.0238 113.329 61.5875 112.824 61.552 112.627C61.552 112.611 61.552 112.566 61.4264 112.553L61.3781 112.55Z" fill="#FC8135"/>
<path d="M66.8281 28.6826L67.3982 28.5989C67.3982 28.5989 67.06 28.9886 66.8281 28.6826Z" fill="#263238"/>
<path d="M86.6462 55.6292L74.1747 58.2059C73.9614 58.246 73.7409 58.201 73.5603 58.0806C73.3797 57.9603 73.2534 57.774 73.2084 57.5617L72.6254 54.8561L72.416 53.8576L72.7832 52.7174C72.8343 52.5538 72.8956 52.3935 72.9668 52.2375C72.9748 52.2127 72.9856 52.189 72.999 52.1666C73.2047 51.6974 73.4818 51.2628 73.8204 50.8783L74.4645 50.743L85.1581 48.5237C85.3714 48.4837 85.5919 48.5286 85.7725 48.649C85.953 48.7694 86.0794 48.9556 86.1244 49.1679L87.2614 54.6435C87.308 54.8556 87.2697 55.0775 87.1547 55.2617C87.0397 55.4459 86.8572 55.5778 86.6462 55.6292Z" fill="#FC8135"/>
<path opacity="0.3" d="M86.0277 48.878L80.011 54.9979L78.7226 54.4761L73.7108 52.4436L73.0054 52.157C73.2111 51.6877 73.4882 51.2531 73.8267 50.8686L74.4709 50.7333L85.1645 48.5141C85.3283 48.4814 85.4981 48.4986 85.652 48.5634C85.8059 48.6283 85.9368 48.7379 86.0277 48.878Z" fill="black"/>
<path d="M86.0277 48.878L78.7226 54.4857L78.2459 54.8529L73.656 52.5757L72.9731 52.2536C72.9812 52.2288 72.992 52.2051 73.0054 52.1827C73.2111 51.7135 73.4881 51.2789 73.8267 50.8944L74.4709 50.7591L85.1645 48.5398C85.3257 48.5045 85.4937 48.5178 85.6474 48.578C85.801 48.6382 85.9334 48.7426 86.0277 48.878Z" fill="#FC8135"/>
<path opacity="0.2" d="M86.0277 48.878L78.7226 54.4857L78.2459 54.8529L73.656 52.5757L72.9731 52.2536C72.9812 52.2288 72.992 52.2051 73.0054 52.1827C73.2111 51.7135 73.4881 51.2789 73.8267 50.8944L74.4709 50.7591L85.1645 48.5398C85.3257 48.5045 85.4937 48.5178 85.6474 48.578C85.801 48.6382 85.9334 48.7426 86.0277 48.878Z" fill="white"/>
<path d="M101.872 66.925L98.071 71.0221C97.921 71.1818 97.7139 71.2758 97.495 71.2837C97.276 71.2915 97.0628 71.2126 96.9017 71.064L87.5803 62.3835C87.4198 62.2339 87.3253 62.0268 87.3174 61.8076C87.3096 61.5883 87.3891 61.375 87.5384 61.2143L91.352 57.1172C91.4259 57.0369 91.515 56.9721 91.6141 56.9264C91.7132 56.8808 91.8204 56.8553 91.9295 56.8514C92.0386 56.8475 92.1473 56.8653 92.2494 56.9037C92.3516 56.9422 92.4451 57.0005 92.5245 57.0754L101.843 65.7558C101.963 65.8682 102.048 66.0141 102.085 66.1748C102.123 66.3355 102.111 66.5036 102.052 66.6577C102.012 66.7587 101.95 66.8499 101.872 66.925Z" fill="#FC8135"/>
<path opacity="0.3" d="M102.039 66.6738L93.5618 65.292L91.5938 56.9176C91.744 56.8484 91.9113 56.8252 92.0747 56.851C92.238 56.8768 92.3901 56.9504 92.5117 57.0625L101.83 65.743C101.957 65.8576 102.045 66.0086 102.082 66.1752C102.12 66.3419 102.105 66.516 102.039 66.6738Z" fill="black"/>
<path d="M102.039 66.6738L93.784 64.213L91.5938 56.9466C91.744 56.8774 91.9113 56.8542 92.0747 56.88C92.238 56.9058 92.3901 56.9794 92.5117 57.0915L101.83 65.772C101.951 65.8843 102.035 66.0302 102.073 66.1909C102.11 66.3516 102.098 66.5198 102.039 66.6738Z" fill="#FC8135"/>
<path opacity="0.2" d="M102.039 66.6738L93.784 64.213L91.5938 56.9466C91.744 56.8774 91.9113 56.8542 92.0747 56.88C92.238 56.9058 92.3901 56.9794 92.5117 57.0915L101.83 65.772C101.951 65.8843 102.035 66.0302 102.073 66.1909C102.11 66.3516 102.098 66.5198 102.039 66.6738Z" fill="white"/>
<path d="M105.186 73.673L109.373 78.5624C109.453 78.6559 109.514 78.7648 109.55 78.8823C109.587 78.9999 109.599 79.1237 109.586 79.2461C109.573 79.3685 109.535 79.4869 109.475 79.5942C109.414 79.7015 109.333 79.7954 109.235 79.8701L100.139 86.9562C99.9861 87.0482 99.8045 87.0801 99.6294 87.0456C99.4544 87.011 99.2984 86.9126 99.192 86.7694L95.9163 83.0331C95.8547 82.9613 95.8037 82.881 95.7649 82.7947C95.7041 82.6762 95.6787 82.5427 95.6919 82.4102C95.705 82.2776 95.7561 82.1517 95.839 82.0475L103.891 73.6375C104.017 73.5014 104.183 73.4092 104.365 73.3744C104.547 73.3396 104.736 73.3641 104.903 73.4443C105.011 73.5019 105.107 73.5795 105.186 73.673Z" fill="#FC8135"/>
<path opacity="0.3" d="M104.903 73.4539L102.902 82.3502L95.7776 82.8044C95.7168 82.6859 95.6914 82.5524 95.7046 82.4198C95.7177 82.2873 95.7688 82.1614 95.8517 82.0571L103.904 73.6472C104.029 73.5138 104.193 73.4234 104.372 73.3887C104.551 73.3539 104.737 73.3768 104.903 73.4539Z" fill="black"/>
<path d="M104.903 73.4539L101.55 82.8946L95.7712 82.8044C95.7104 82.6859 95.6851 82.5524 95.6982 82.4198C95.7113 82.2873 95.7624 82.1614 95.8453 82.0571L103.898 73.6472C104.023 73.5124 104.188 73.4211 104.369 73.3864C104.549 73.3516 104.736 73.3753 104.903 73.4539Z" fill="#FC8135"/>
<path opacity="0.2" d="M104.903 73.4539L101.55 82.8946L95.7712 82.8044C95.7104 82.6859 95.6851 82.5524 95.6982 82.4198C95.7113 82.2873 95.7624 82.1614 95.8453 82.0571L103.898 73.6472C104.023 73.5124 104.188 73.4211 104.369 73.3864C104.549 73.3516 104.736 73.3753 104.903 73.4539Z" fill="white"/>
</svg>
