<svg width="32" height="33" viewBox="0 0 32 33" fill="none" xmlns="http://www.w3.org/2000/svg">
<g clip-path="url(#clip0_4071_3040)">
<path d="M30.649 22.1927C31.4571 21.8798 32 21.0834 32 20.211V16.1743C32 14.9779 31.0266 14.0045 29.8302 14.0045H29.6086C30.2654 13.1542 30.2048 11.9246 29.4253 11.1451L26.571 8.29072C25.9541 7.67387 25.0071 7.49461 24.2144 7.84473C23.7886 8.03284 23.2813 7.9379 22.9521 7.60868C22.6229 7.27939 22.5279 6.7721 22.7159 6.34637C23.0661 5.55371 22.8869 4.60664 22.2699 3.98973L19.4157 1.13539C18.5697 0.289526 17.1931 0.289401 16.347 1.13539L3.47802 14.0045H2.16985C0.973365 14.0045 0 14.9779 0 16.1743V20.211C0 21.0834 0.542933 21.8799 1.35103 22.1926C1.78504 22.3607 2.07667 22.7865 2.07667 23.2522C2.07667 23.7178 1.78504 24.1436 1.35103 24.3117C0.542933 24.6247 0 25.4211 0 26.2935V30.3301C0 31.5265 0.973365 32.4999 2.16985 32.4999H29.8302C31.0266 32.4999 32 31.5265 32 30.3301V26.2935C32 25.4211 31.4571 24.6247 30.649 24.3117C30.215 24.1436 29.9233 23.7178 29.9233 23.2522C29.9233 22.7865 30.215 22.3607 30.649 22.1927ZM17.6781 2.46653C17.7902 2.3544 17.9726 2.35441 18.0846 2.46647L20.9389 5.32081C21.0104 5.39227 21.0325 5.49875 20.994 5.5859C20.4944 6.71726 20.7464 8.06509 21.621 8.93969C22.4957 9.81436 23.8435 10.0663 24.9749 9.56664C25.062 9.52824 25.1685 9.55033 25.24 9.62179L28.0942 12.4761C28.2064 12.5882 28.2064 12.7707 28.0943 12.8827L26.9724 14.0045H22.0681L14.1041 6.04043L17.6781 2.46653ZM12.7731 7.37144L19.4062 14.0045H6.13999L12.7731 7.37144ZM1.88235 30.3301V26.2935C1.88235 26.1924 1.94202 26.1014 2.03081 26.067C3.18413 25.6204 3.95897 24.4892 3.95897 23.2522C3.95897 22.0151 3.18406 20.884 2.03068 20.4373C1.94196 20.403 1.88235 20.312 1.88235 20.211V16.1743C1.88235 16.0158 2.01136 15.8868 2.16985 15.8868H23.5294V30.6176H2.16985C2.01136 30.6176 1.88235 30.4886 1.88235 30.3301ZM30.1176 20.211C30.1176 20.312 30.058 20.403 29.9693 20.4374C28.8159 20.884 28.041 22.0152 28.041 23.2522C28.041 24.4892 28.8159 25.6204 29.9692 26.067C30.058 26.1014 30.1176 26.1925 30.1176 26.2935V30.3301C30.1176 30.4886 29.9886 30.6176 29.8302 30.6176H25.4118V15.8868H29.8302C29.9886 15.8868 30.1176 16.0158 30.1176 16.1743V20.211Z" fill="#808080"/>
<path d="M6.58838 18.3818H20.706V20.2641H6.58838V18.3818Z" fill="#808080"/>
<path d="M6.58838 22.1465H20.706V24.0288H6.58838V22.1465Z" fill="#808080"/>
<path d="M6.58838 25.9112H20.706V27.7935H6.58838V25.9112Z" fill="#808080"/>
</g>
<defs>
<clipPath id="clip0_4071_3040">
<rect width="32" height="32" fill="white" transform="translate(0 0.5)"/>
</clipPath>
</defs>
</svg>
