<svg width="202" height="180" viewBox="0 0 202 180" fill="none" xmlns="http://www.w3.org/2000/svg">
<path d="M181.24 153.877H167.945V153.977H181.24V153.877Z" fill="#EBEBEB"/>
<path d="M133.602 154.969H130.113V155.069H133.602V154.969Z" fill="#EBEBEB"/>
<path d="M167.544 150.152H159.841V150.252H167.544V150.152Z" fill="#EBEBEB"/>
<path d="M39.0441 150.826H21.7076V150.926H39.0441V150.826Z" fill="#EBEBEB"/>
<path d="M45.1612 150.826H42.6204V150.926H45.1612V150.826Z" fill="#EBEBEB"/>
<path d="M91.0253 152.52H53.4222V152.62H91.0253V152.52Z" fill="#EBEBEB"/>
<path d="M95.7819 129.516H18.2797C17.6718 129.516 17.0888 129.274 16.659 128.844C16.2291 128.415 15.9877 127.832 15.9877 127.224V18.2719C15.993 17.6675 16.2368 17.0897 16.666 16.6642C17.0953 16.2387 17.6752 16 18.2797 16H95.7819C96.3897 16 96.9727 16.2415 97.4025 16.6713C97.8324 17.1011 98.0739 17.6841 98.0739 18.292V127.224C98.0739 127.832 97.8324 128.415 97.4025 128.844C96.9727 129.274 96.3897 129.516 95.7819 129.516ZM18.2797 16.0803C17.6987 16.0813 17.1419 16.3126 16.7311 16.7234C16.3203 17.1342 16.0891 17.691 16.088 18.2719V127.224C16.0891 127.805 16.3203 128.362 16.7311 128.772C17.1419 129.183 17.6987 129.414 18.2797 129.415H95.7819C96.3628 129.414 96.9196 129.183 97.3304 128.772C97.7412 128.362 97.9724 127.805 97.9735 127.224V18.2719C97.9724 17.691 97.7412 17.1342 97.3304 16.7234C96.9196 16.3126 96.3628 16.0813 95.7819 16.0803H18.2797Z" fill="#EBEBEB"/>
<path d="M182.609 129.516H105.098C104.491 129.515 103.908 129.273 103.479 128.843C103.049 128.414 102.807 127.831 102.806 127.224V18.2719C102.813 17.6679 103.057 17.0906 103.486 16.6654C103.915 16.2401 104.494 16.001 105.098 16H182.609C183.212 16.0021 183.79 16.2417 184.217 16.667C184.645 17.0923 184.887 17.6689 184.893 18.2719V127.224C184.893 127.83 184.652 128.412 184.224 128.842C183.796 129.271 183.215 129.514 182.609 129.516ZM105.098 16.0803C104.517 16.0813 103.961 16.3126 103.55 16.7234C103.139 17.1342 102.908 17.691 102.907 18.2719V127.224C102.908 127.805 103.139 128.362 103.55 128.772C103.961 129.183 104.517 129.414 105.098 129.415H182.609C183.19 129.414 183.746 129.183 184.157 128.772C184.568 128.362 184.799 127.805 184.8 127.224V18.2719C184.799 17.691 184.568 17.1342 184.157 16.7234C183.746 16.3126 183.19 16.0813 182.609 16.0803H105.098Z" fill="#EBEBEB"/>
<path d="M201.35 147.418H0.650146V147.519H201.35V147.418Z" fill="#EBEBEB"/>
<path d="M29.7434 147.454H37.2014L37.2014 106.15H29.7434L29.7434 147.454Z" fill="#E6E6E6"/>
<path d="M35.1624 147.454H75.4027V106.15H35.1624L35.1624 147.454Z" fill="#F5F5F5"/>
<path d="M27.9974 107.053H37.2657V105.243H27.9974V107.053Z" fill="#E0E0E0"/>
<path d="M34.464 107.053H76.7836V105.243H34.464V107.053Z" fill="#EBEBEB"/>
<path d="M58.1066 133.112C58.1986 133.113 58.2899 133.095 58.3751 133.06C58.4603 133.025 58.5377 132.974 58.603 132.909C58.6683 132.844 58.7201 132.767 58.7555 132.682C58.7908 132.597 58.809 132.506 58.809 132.414V129.267C58.809 129.175 58.7908 129.084 58.7555 128.999C58.7201 128.914 58.6683 128.837 58.603 128.772C58.5377 128.707 58.4603 128.655 58.3751 128.621C58.2899 128.586 58.1986 128.568 58.1066 128.568C57.9213 128.568 57.7437 128.642 57.6127 128.773C57.4817 128.904 57.4081 129.082 57.4081 129.267V132.406C57.4071 132.498 57.4244 132.59 57.459 132.676C57.4936 132.761 57.5449 132.839 57.6098 132.905C57.6748 132.971 57.7522 133.023 57.8374 133.058C57.9227 133.094 58.0142 133.112 58.1066 133.112Z" fill="#E6E6E6"/>
<path d="M53.386 133.112C53.5712 133.112 53.7489 133.039 53.8798 132.908C54.0108 132.777 54.0844 132.599 54.0844 132.414V129.267C54.0844 129.082 54.0108 128.904 53.8798 128.773C53.7489 128.642 53.5712 128.568 53.386 128.568C53.2007 128.568 53.0231 128.642 52.8921 128.773C52.7611 128.904 52.6875 129.082 52.6875 129.267V132.406C52.6865 132.498 52.7038 132.59 52.7384 132.676C52.773 132.761 52.8243 132.839 52.8893 132.905C52.9542 132.971 53.0316 133.023 53.1168 133.058C53.2021 133.094 53.2936 133.112 53.386 133.112Z" fill="#E6E6E6"/>
<path d="M75.4067 114.748V115.451H56.0954V147.454H55.3969V115.451H35.1664V114.748H75.4067Z" fill="#E0E0E0"/>
<path d="M155.426 89.432H165.617L157.417 42.9259H147.225L155.426 89.432Z" fill="#FAFAFA"/>
<path d="M149.493 89.432H152.243L144.042 42.9259H141.292L149.493 89.432Z" fill="#FAFAFA"/>
<path d="M119.681 90.2389H122.503L114.078 42.4442H111.252L119.681 90.2389Z" fill="#FAFAFA"/>
<path d="M125.305 90.2389H130.627L122.202 42.4442H116.879L125.305 90.2389Z" fill="#FAFAFA"/>
<path d="M139.559 42.2034H172.851V90.2589H139.559V42.2034ZM170.217 44.8365H142.192V87.6097H170.217V44.8365Z" fill="#E6E6E6"/>
<path d="M104.946 40.8867H174.167V91.5594H104.946V40.8867ZM171.534 43.5199H107.579V88.9262H171.534V43.5199Z" fill="#F5F5F5"/>
<path d="M78.3129 89.432H88.5044L80.3038 42.9259H70.1123L78.3129 89.432Z" fill="#FAFAFA"/>
<path d="M72.3843 89.432H75.1299L66.9293 42.9259H64.1837L72.3843 89.432Z" fill="#FAFAFA"/>
<path d="M42.5684 90.2389H45.3903L36.9649 42.4442H34.139L42.5684 90.2389Z" fill="#FAFAFA"/>
<path d="M48.1919 90.2389H53.5144L45.089 42.4442H39.7665L48.1919 90.2389Z" fill="#FAFAFA"/>
<path d="M62.4417 42.2034H95.7377V90.2589H62.4417V42.2034ZM93.1046 44.8365H65.0788V87.6097H93.1046V44.8365Z" fill="#E6E6E6"/>
<path d="M27.8329 40.8867H97.0542V91.5594H27.8329V40.8867ZM94.421 43.5199H30.4661V88.9262H94.421V43.5199Z" fill="#F5F5F5"/>
<path d="M157.043 132.466C157.175 127.685 156.373 122.924 154.683 118.449C156.048 115.924 155.562 107.146 152.785 107.439C151.769 107.543 152.126 109.899 151.307 109.667C149.63 109.193 148.995 104.677 147.093 104.011C145.889 103.585 146.691 107.041 145.72 107.326C144.749 107.611 141.048 106.925 140.281 108.394C139.514 109.863 143.043 110.148 143.585 110.538C144.126 110.927 141.678 111.525 142.842 112.456C144.006 113.388 146.559 111.1 146.832 111.846C147.105 112.593 144.423 113.452 145.246 114.608C146.069 115.764 149.834 113.628 150.236 114.712C150.637 115.796 147.057 116.446 148.466 118.112C149.457 119.28 152.415 119.095 154.121 118.847C154.234 118.826 154.318 118.81 154.39 118.79C155.95 123.234 156.631 127.939 156.397 132.643L157.043 132.466Z" fill="#E6E6E6"/>
<path d="M158.083 130.347C157.592 126.064 157.94 121.728 159.107 117.578C157.686 115.419 157.437 107.503 159.954 107.543C160.873 107.543 160.736 109.703 161.451 109.43C162.92 108.872 163.137 104.774 164.794 104.023C165.854 103.545 165.376 106.712 166.284 106.893C167.191 107.074 170.442 106.182 171.245 107.427C172.048 108.671 168.901 109.217 168.435 109.61C167.969 110.004 170.225 110.349 169.238 111.276C168.25 112.203 165.794 110.349 165.625 111.035C165.457 111.722 167.917 112.3 167.263 113.392C166.609 114.483 163.068 112.87 162.791 113.877C162.514 114.885 165.782 115.186 164.646 116.791C163.843 117.915 161.178 117.996 159.628 117.891C159.546 117.887 159.464 117.876 159.384 117.859C158.331 121.972 158.088 126.25 158.669 130.455L158.083 130.347Z" fill="#EBEBEB"/>
<path d="M157.051 130.347C156.972 127.448 157.457 124.562 158.48 121.849C157.653 120.316 157.95 114.997 159.632 115.174C160.25 115.238 160.034 116.663 160.527 116.522C161.547 116.238 161.928 113.5 163.084 113.095C163.823 112.838 163.317 114.933 163.915 115.102C164.513 115.27 166.749 114.869 167.215 115.748C167.68 116.627 165.541 116.812 165.208 117.048C164.875 117.285 166.364 117.646 165.657 118.212C164.951 118.778 163.401 117.41 163.249 117.839C163.096 118.269 164.714 118.823 164.212 119.513C163.711 120.203 161.431 118.919 161.186 119.577C160.941 120.235 163.116 120.629 162.257 121.64C161.659 122.347 159.849 122.234 158.829 122.086L158.669 122.05C157.728 124.746 157.319 127.599 157.465 130.451L157.051 130.347Z" fill="#F5F5F5"/>
<path d="M161.463 147.454H152.636L151.239 127.942H162.856L161.463 147.454Z" fill="#EBEBEB"/>
<path d="M101.477 164C144.46 164 179.305 161.966 179.305 159.456C179.305 156.947 144.46 154.912 101.477 154.912C58.4946 154.912 23.6501 156.947 23.6501 159.456C23.6501 161.966 58.4946 164 101.477 164Z" fill="#F5F5F5"/>
<path d="M109.741 135.055H94.3311V137.427H109.741V135.055Z" fill="#FC8135"/>
<path d="M94.9612 136.42H109.111C109.459 136.42 109.793 136.558 110.039 136.804C110.285 137.05 110.423 137.384 110.423 137.732V160.857H93.6447V137.736C93.6441 137.563 93.6778 137.392 93.7438 137.232C93.8098 137.072 93.9067 136.927 94.0291 136.804C94.1515 136.682 94.2968 136.585 94.4568 136.519C94.6168 136.453 94.7882 136.419 94.9612 136.42Z" fill="#FC8135"/>
<path opacity="0.5" d="M94.9612 136.42H109.111C109.459 136.42 109.793 136.558 110.039 136.804C110.285 137.05 110.423 137.384 110.423 137.732V160.857H93.6447V137.736C93.6441 137.563 93.6778 137.392 93.7438 137.232C93.8098 137.072 93.9067 136.927 94.0291 136.804C94.1515 136.682 94.2968 136.585 94.4568 136.519C94.6168 136.453 94.7882 136.419 94.9612 136.42Z" fill="white"/>
<path d="M108.974 132.137H95.0937C94.2934 132.137 93.6447 132.786 93.6447 133.586V134.337C93.6447 135.137 94.2934 135.786 95.0937 135.786H108.974C109.774 135.786 110.423 135.137 110.423 134.337V133.586C110.423 132.786 109.774 132.137 108.974 132.137Z" fill="#FC8135"/>
<path opacity="0.7" d="M108.974 132.137H95.0937C94.2934 132.137 93.6447 132.786 93.6447 133.586V134.337C93.6447 135.137 94.2934 135.786 95.0937 135.786H108.974C109.774 135.786 110.423 135.137 110.423 134.337V133.586C110.423 132.786 109.774 132.137 108.974 132.137Z" fill="white"/>
<path d="M98.4935 160.861H90.6501V159.769L98.4935 159.039V160.861Z" fill="#FC8135"/>
<path opacity="0.7" d="M98.4935 160.861H90.6501V159.769L98.4935 159.039V160.861Z" fill="white"/>
<path d="M128.377 42.7894C122.308 41.0955 116.251 39.3561 110.206 37.5712C104.319 39.3454 98.4313 41.0848 92.5441 42.7894C86.8175 41.0848 81.1029 39.3454 75.4004 37.5712C69.1813 39.3561 62.9516 41.0955 56.7112 42.7894L42.6582 99.8162C50.7691 98.1063 58.8734 96.3669 66.971 94.5981C74.5521 96.3696 82.1425 98.109 89.7424 99.8162C97.5028 98.1143 105.263 96.3749 113.024 94.5981C120.947 96.3776 128.88 98.117 136.823 99.8162C144.248 98.1063 151.666 96.3669 159.076 94.5981L145.015 37.5712C139.478 39.3454 133.932 41.0848 128.377 42.7894Z" fill="#FC8135"/>
<path opacity="0.8" d="M128.377 42.7894C122.308 41.0955 116.251 39.3561 110.206 37.5712C104.319 39.3454 98.4313 41.0848 92.5441 42.7894C86.8175 41.0848 81.1029 39.3454 75.4004 37.5712C69.1813 39.3561 62.9516 41.0955 56.7112 42.7894L42.6582 99.8162C50.7691 98.1063 58.8734 96.3669 66.971 94.5981C74.5521 96.3696 82.1425 98.109 89.7424 99.8162C97.5028 98.1143 105.263 96.3749 113.024 94.5981C120.947 96.3776 128.88 98.117 136.823 99.8162C144.248 98.1063 151.666 96.3669 159.076 94.5981L145.015 37.5712C139.478 39.3454 133.932 41.0848 128.377 42.7894Z" fill="white"/>
<path d="M89.8988 96.5047C97.5575 94.8028 105.21 93.0634 112.855 91.2865C120.671 93.066 128.496 94.8054 136.329 96.5047C142.518 95.065 148.704 93.5932 154.885 92.0893C151 75.2867 147.12 58.4855 143.245 41.6856C138.468 43.1868 133.679 44.6586 128.879 46.1009C122.703 44.407 116.537 42.6676 110.382 40.8828C104.393 42.6516 98.3978 44.391 92.3955 46.1009C86.5619 44.3963 80.7389 42.6569 74.9266 40.8828C69.6121 42.3786 64.2909 43.8504 58.963 45.2981C55.0774 62.0981 51.1972 78.898 47.3224 95.6979C54.0472 94.2475 60.7653 92.7757 67.4767 91.2825C74.9347 93.0513 82.4087 94.792 89.8988 96.5047Z" fill="#FC8135"/>
<path opacity="0.4" d="M89.8988 96.5047C97.5575 94.8028 105.21 93.0634 112.855 91.2865C120.671 93.066 128.496 94.8054 136.329 96.5047C142.518 95.065 148.704 93.5932 154.885 92.0893C151 75.2867 147.12 58.4855 143.245 41.6856C138.468 43.1868 133.679 44.6586 128.879 46.1009C122.703 44.407 116.537 42.6676 110.382 40.8828C104.393 42.6516 98.3978 44.391 92.3955 46.1009C86.5619 44.3963 80.7389 42.6569 74.9266 40.8828C69.6121 42.3786 64.2909 43.8504 58.963 45.2981C55.0774 62.0981 51.1972 78.898 47.3224 95.6979C54.0472 94.2475 60.7653 92.7757 67.4767 91.2825C74.9347 93.0513 82.4087 94.792 89.8988 96.5047Z" fill="white"/>
<path d="M107.255 81.4963C106.954 78.2851 106.709 75.367 105.449 73.6811C102.639 69.9521 95.9157 70.7469 91.693 71.5175C91.2233 70.7147 90.0191 68.479 88.6985 63.0882C87.4381 57.9422 81.6098 55.4616 77.1142 54.0125C75.8457 53.6111 74.2763 53.0732 74.0154 52.704C73.642 51.006 72.0084 50.9258 70.4028 50.8535C69.1143 50.7933 67.6451 50.7251 66.4731 49.9463C65.4254 49.2479 66.6296 45.9524 68.1991 42.7773L66.8785 43.1386C66.7661 43.3835 66.6497 43.6283 66.5373 43.8772C64.6708 48.0437 63.7074 50.701 65.2729 51.7125C66.8383 52.724 68.5684 52.7923 69.9973 52.8605C71.4263 52.9287 72.1087 53.005 72.197 53.4546C72.4298 54.6588 73.919 55.1926 76.3515 55.9392C80.498 57.2117 85.5395 59.1504 86.812 63.7224C88.9394 71.349 90.252 73.1553 90.5008 73.3841L90.8741 73.7293L91.3919 73.6209C95.1691 72.9024 101.307 72.0434 103.751 74.793C104.71 75.8727 104.955 78.7628 105.144 81.6368C105.357 85.2133 105.228 89.2634 106.316 92.8118L109.487 92.0812C107.91 88.4566 107.556 84.6915 107.255 81.4963Z" fill="#FC8135"/>
<path opacity="0.2" d="M107.255 81.4963C106.954 78.2851 106.709 75.367 105.449 73.6811C102.639 69.9521 95.9157 70.7469 91.693 71.5175C91.2233 70.7147 90.0191 68.479 88.6985 63.0882C87.4381 57.9422 81.6098 55.4616 77.1142 54.0125C75.8457 53.6111 74.2763 53.0732 74.0154 52.704C73.642 51.006 72.0084 50.9258 70.4028 50.8535C69.1143 50.7933 67.6451 50.7251 66.4731 49.9463C65.4254 49.2479 66.6296 45.9524 68.1991 42.7773L66.8785 43.1386C66.7661 43.3835 66.6497 43.6283 66.5373 43.8772C64.6708 48.0437 63.7074 50.701 65.2729 51.7125C66.8383 52.724 68.5684 52.7923 69.9973 52.8605C71.4263 52.9287 72.1087 53.005 72.197 53.4546C72.4298 54.6588 73.919 55.1926 76.3515 55.9392C80.498 57.2117 85.5395 59.1504 86.812 63.7224C88.9394 71.349 90.252 73.1553 90.5008 73.3841L90.8741 73.7293L91.3919 73.6209C95.1691 72.9024 101.307 72.0434 103.751 74.793C104.71 75.8727 104.955 78.7628 105.144 81.6368C105.357 85.2133 105.228 89.2634 106.316 92.8118L109.487 92.0812C107.91 88.4566 107.556 84.6915 107.255 81.4963Z" fill="white"/>
<g opacity="0.5">
<path d="M113.417 61.5227L126.771 62.6466C127.153 65.6812 127.341 67.2025 127.723 70.2371L118.776 69.3861L118.434 65.3079L113.618 64.7018C113.529 63.4334 113.489 62.7951 113.417 61.5227Z" fill="white"/>
<path d="M112.903 65.8779L117.391 66.488L117.732 70.9034L113.164 70.5502L112.903 65.8779Z" fill="white"/>
</g>
<path opacity="0.5" d="M134.579 52.4912C133.15 53.0572 132.431 53.3382 130.966 53.9041L131.588 57.9743C133.085 57.5047 133.828 57.2719 135.309 56.7982C135.028 55.0762 134.88 54.2132 134.579 52.4912Z" fill="white"/>
<path opacity="0.5" d="M67.6894 78.0444C64.8796 78.9234 63.4547 79.361 60.5847 80.236C60.115 82.7568 59.8782 84.0212 59.4045 86.542C62.3267 85.8115 63.7758 85.4502 66.6498 84.7196C67.0632 82.0503 67.272 80.7137 67.6894 78.0444Z" fill="white"/>
<path d="M111.297 59.9251C117.856 60.4603 124.412 60.9955 130.966 61.5307H131.094C136.345 60.1125 141.587 58.6688 146.821 57.1997L146.42 55.5419C141.191 57.0297 135.953 58.4855 130.705 59.9091L123.556 59.3271C121.6 53.9242 119.727 48.5 117.936 43.0543L115.929 42.4843C117.717 48.0718 119.582 53.6312 121.525 59.1625L111.004 58.2995C108.194 59.319 106.77 59.8328 103.887 60.8524H91.713C85.6064 59.889 79.5024 58.9136 73.4012 57.9262C75.7373 52.8124 77.9905 47.6651 80.1607 42.4843L78.8482 42.0829C76.5923 47.3787 74.2535 52.6344 71.8317 57.8499C66.3887 58.6527 60.9431 59.4408 55.4947 60.2142C55.3462 60.8644 55.27 61.1896 55.1214 61.8198C60.6688 61.017 66.2175 60.2142 71.7675 59.4114C73.8909 64.5332 76.2391 69.5347 78.6756 74.516L69.7846 73.8015C63.6164 75.4419 57.4375 77.0475 51.2479 78.6183C51.0151 79.6178 50.8987 80.1196 50.6699 81.119C57.0094 79.5349 63.3394 77.9186 69.6601 76.2701L79.7754 77.0729C81.6058 83.2946 83.5967 89.4682 85.7964 95.5654L87.9118 96.0471C85.6077 89.8575 83.5245 83.5596 81.5937 77.2255L90.7175 77.964C98.015 79.8988 105.33 81.7947 112.662 83.6519C117.864 81.9794 123.054 80.2667 128.232 78.514C130.348 81.681 131.444 83.2625 133.683 86.4296C138.12 88.9985 142.59 91.5126 147.094 93.9719L150.41 93.1691C145.392 90.4262 140.405 87.6311 135.45 84.7838C133.443 81.974 132.455 80.5531 130.544 77.7312L133.438 76.7398C139.162 75.7042 144.885 74.6565 150.606 73.5968C150.378 72.6174 150.265 72.1277 150.04 71.1483C144.185 72.2454 138.329 73.3292 132.471 74.3996C125.816 76.6983 119.145 78.9435 112.457 81.1351C108.411 80.1022 104.369 79.0545 100.331 77.9921C101.88 72.782 103.327 67.5437 104.67 62.2774C107.344 61.3581 108.668 60.8684 111.297 59.9251ZM98.7375 77.5667C95.7391 76.7639 94.2499 76.3625 91.3076 75.5837L80.6826 74.7127C78.2059 69.7394 75.8096 64.7419 73.642 59.6241C79.5881 60.5768 85.5341 61.5134 91.4802 62.4339H103.028C101.682 67.5103 100.245 72.5545 98.7174 77.5667H98.7375Z" fill="white"/>
<path opacity="0.1" d="M66.9628 94.5981C58.8652 96.3696 50.761 98.109 42.65 99.8162L56.699 42.7894C62.9394 41.0928 69.1691 39.3534 75.3882 37.5712L66.9628 94.5981Z" fill="black"/>
<path opacity="0.1" d="M113.019 94.5981C105.259 96.3776 97.4985 98.117 89.7382 99.8162C90.6748 80.8167 91.6114 61.8077 92.548 42.7894C98.4351 41.0848 104.322 39.3454 110.21 37.5712C111.143 56.5815 112.08 75.5905 113.019 94.5981Z" fill="black"/>
<path opacity="0.1" d="M159.064 94.5981C151.654 96.3696 144.236 98.109 136.81 99.8162L128.381 42.7894C133.936 41.0848 139.48 39.3454 145.011 37.5712L159.064 94.5981Z" fill="black"/>
<path opacity="0.1" d="M135.959 57.1716C135.959 57.6171 134.844 57.9744 133.471 57.9744C132.098 57.9744 130.986 57.6171 130.986 57.1716C130.986 56.726 132.098 56.3688 133.471 56.3688C134.844 56.3688 135.959 56.73 135.959 57.1716Z" fill="black"/>
<path d="M133.679 56.9026C134.936 56.9026 135.959 54.438 135.959 53.1817C135.959 52.5766 135.719 51.9963 135.292 51.5681C134.864 51.1399 134.284 50.8988 133.679 50.8977H133.278C132.978 50.8977 132.681 50.9568 132.405 51.0716C132.128 51.1865 131.876 51.3548 131.664 51.5669C131.453 51.779 131.285 52.0309 131.17 52.3079C131.056 52.585 130.998 52.8819 130.998 53.1817C130.998 54.438 132.018 56.9026 133.278 56.9026H133.679ZM132.768 53.1817C132.798 53.049 132.866 52.9275 132.962 52.8313C133.058 52.7351 133.18 52.668 133.312 52.6378C133.445 52.6075 133.583 52.6154 133.712 52.6605C133.84 52.7055 133.953 52.7859 134.038 52.8924C134.123 52.999 134.176 53.1272 134.191 53.2625C134.206 53.3978 134.182 53.5345 134.123 53.657C134.064 53.7795 133.971 53.8828 133.856 53.9549C133.74 54.0271 133.607 54.0651 133.471 54.0647C133.271 54.0179 133.094 53.9052 132.966 53.745C132.839 53.5848 132.769 53.3864 132.768 53.1817Z" fill="#263238"/>
<path d="M133.266 50.8977C132.966 50.8977 132.669 50.9568 132.393 51.0716C132.116 51.1865 131.864 51.3548 131.652 51.5669C131.441 51.779 131.273 52.0309 131.158 52.3079C131.044 52.585 130.986 52.8819 130.986 53.1817C130.986 54.438 132.006 56.9026 133.266 56.9026C134.526 56.9026 135.546 54.438 135.546 53.1817C135.547 52.8819 135.488 52.585 135.374 52.3079C135.259 52.0309 135.091 51.779 134.88 51.5669C134.668 51.3548 134.416 51.1865 134.139 51.0716C133.863 50.9568 133.566 50.8977 133.266 50.8977ZM133.266 54.0888C133.086 54.0888 132.909 54.0353 132.759 53.935C132.609 53.8347 132.493 53.6921 132.424 53.5254C132.355 53.3587 132.337 53.1753 132.373 52.9984C132.408 52.8215 132.495 52.6592 132.623 52.5319C132.751 52.4047 132.914 52.3182 133.091 52.2835C133.268 52.2488 133.451 52.2674 133.618 52.337C133.784 52.4066 133.926 52.524 134.026 52.6744C134.125 52.8247 134.178 53.0013 134.177 53.1817C134.177 53.3011 134.154 53.4194 134.108 53.5298C134.062 53.6401 133.995 53.7403 133.91 53.8246C133.825 53.9088 133.725 53.9756 133.614 54.0209C133.504 54.0663 133.386 54.0894 133.266 54.0888Z" fill="#FC8135"/>
<path opacity="0.3" d="M133.266 50.8977C132.966 50.8977 132.669 50.9568 132.393 51.0716C132.116 51.1865 131.864 51.3548 131.652 51.5669C131.441 51.779 131.273 52.0309 131.158 52.3079C131.044 52.585 130.986 52.8819 130.986 53.1817C130.986 54.438 132.006 56.9026 133.266 56.9026C134.526 56.9026 135.546 54.438 135.546 53.1817C135.547 52.8819 135.488 52.585 135.374 52.3079C135.259 52.0309 135.091 51.779 134.88 51.5669C134.668 51.3548 134.416 51.1865 134.139 51.0716C133.863 50.9568 133.566 50.8977 133.266 50.8977ZM133.266 54.0888C133.086 54.0888 132.909 54.0353 132.759 53.935C132.609 53.8347 132.493 53.6921 132.424 53.5254C132.355 53.3587 132.337 53.1753 132.373 52.9984C132.408 52.8215 132.495 52.6592 132.623 52.5319C132.751 52.4047 132.914 52.3182 133.091 52.2835C133.268 52.2488 133.451 52.2674 133.618 52.337C133.784 52.4066 133.926 52.524 134.026 52.6744C134.125 52.8247 134.178 53.0013 134.177 53.1817C134.177 53.3011 134.154 53.4194 134.108 53.5298C134.062 53.6401 133.995 53.7403 133.91 53.8246C133.825 53.9088 133.725 53.9756 133.614 54.0209C133.504 54.0663 133.386 54.0894 133.266 54.0888Z" fill="black"/>
<path opacity="0.1" d="M117.788 77.8958C117.788 78.3374 116.676 78.6986 115.303 78.6986C113.931 78.6986 112.815 78.3374 112.815 77.8958C112.815 77.4543 113.931 77.093 115.303 77.093C116.676 77.093 117.788 77.4503 117.788 77.8958Z" fill="black"/>
<path d="M115.508 77.6228C116.768 77.6228 117.788 75.1622 117.788 73.9018C117.788 73.2972 117.548 72.7172 117.12 72.2897C116.692 71.8621 116.113 71.6219 115.508 71.6219H115.106C114.807 71.6214 114.51 71.6799 114.233 71.7943C113.956 71.9086 113.704 72.0765 113.492 72.2882C113.28 72.5 113.111 72.7515 112.996 73.0284C112.882 73.3053 112.823 73.6021 112.823 73.9018C112.823 75.1622 113.846 77.6228 115.106 77.6228H115.508ZM114.601 73.9018C114.631 73.7691 114.698 73.6477 114.794 73.5515C114.891 73.4552 115.012 73.3881 115.145 73.3579C115.277 73.3277 115.416 73.3356 115.544 73.3806C115.673 73.4257 115.786 73.5061 115.871 73.6126C115.955 73.7191 116.008 73.8474 116.023 73.9827C116.038 74.1179 116.015 74.2547 115.956 74.3772C115.896 74.4997 115.804 74.603 115.688 74.6751C115.573 74.7472 115.439 74.7853 115.303 74.7849C115.103 74.7393 114.925 74.6271 114.797 74.4666C114.669 74.3061 114.6 74.1069 114.601 73.9018Z" fill="#263238"/>
<path d="M115.099 71.6219C114.799 71.6214 114.502 71.6799 114.225 71.7943C113.948 71.9086 113.696 72.0765 113.484 72.2882C113.272 72.5 113.103 72.7515 112.989 73.0284C112.874 73.3053 112.815 73.6021 112.815 73.9018C112.815 75.1622 113.838 77.6228 115.099 77.6228C116.359 77.6228 117.379 75.1622 117.379 73.9018C117.379 73.6024 117.32 73.306 117.205 73.0293C117.09 72.7527 116.923 72.5014 116.711 72.2897C116.499 72.078 116.248 71.91 115.971 71.7954C115.695 71.6809 115.398 71.6219 115.099 71.6219ZM115.099 74.8331C114.918 74.8339 114.742 74.7811 114.591 74.6815C114.441 74.5818 114.324 74.4398 114.254 74.2734C114.184 74.107 114.166 73.9236 114.2 73.7466C114.235 73.5696 114.322 73.4069 114.449 73.279C114.576 73.1512 114.739 73.064 114.915 73.0285C115.092 72.9931 115.276 73.0109 115.442 73.0797C115.609 73.1486 115.752 73.2653 115.852 73.4153C115.952 73.5652 116.006 73.7415 116.006 73.9219C116.001 74.1594 115.903 74.3854 115.733 74.5519C115.564 74.7183 115.336 74.812 115.099 74.813V74.8331Z" fill="#FC8135"/>
<path opacity="0.3" d="M115.099 71.6219C114.799 71.6214 114.502 71.6799 114.225 71.7943C113.948 71.9086 113.696 72.0765 113.484 72.2882C113.272 72.5 113.103 72.7515 112.989 73.0284C112.874 73.3053 112.815 73.6021 112.815 73.9018C112.815 75.1622 113.838 77.6228 115.099 77.6228C116.359 77.6228 117.379 75.1622 117.379 73.9018C117.379 73.6024 117.32 73.306 117.205 73.0293C117.09 72.7527 116.923 72.5014 116.711 72.2897C116.499 72.078 116.248 71.91 115.971 71.7954C115.695 71.6809 115.398 71.6219 115.099 71.6219ZM115.099 74.8331C114.918 74.8339 114.742 74.7811 114.591 74.6815C114.441 74.5818 114.324 74.4398 114.254 74.2734C114.184 74.107 114.166 73.9236 114.2 73.7466C114.235 73.5696 114.322 73.4069 114.449 73.279C114.576 73.1512 114.739 73.064 114.915 73.0285C115.092 72.9931 115.276 73.0109 115.442 73.0797C115.609 73.1486 115.752 73.2653 115.852 73.4153C115.952 73.5652 116.006 73.7415 116.006 73.9219C116.001 74.1594 115.903 74.3854 115.733 74.5519C115.564 74.7183 115.336 74.812 115.099 74.813V74.8331Z" fill="black"/>
<path opacity="0.1" d="M79.7795 79.8225C79.7795 80.2681 78.6636 80.6253 77.2908 80.6253C75.918 80.6253 74.8062 80.2681 74.8062 79.8225C74.8062 79.377 75.918 79.0197 77.2908 79.0197C78.6636 79.0197 79.7795 79.385 79.7795 79.8225Z" fill="black"/>
<path d="M77.4995 79.5575C78.7559 79.5575 79.7794 77.093 79.7794 75.8366C79.7794 75.2315 79.5393 74.6512 79.1119 74.223C78.6844 73.7948 78.1045 73.5537 77.4995 73.5526H77.0981C76.7983 73.5526 76.5015 73.6117 76.2246 73.7265C75.9478 73.8414 75.6962 74.0097 75.4845 74.2218C75.2727 74.4339 75.1049 74.6858 74.9905 74.9628C74.8762 75.2399 74.8176 75.5368 74.8181 75.8366C74.8181 77.093 75.8377 79.5575 77.0981 79.5575H77.4995ZM76.5883 75.8366C76.6185 75.7039 76.6856 75.5824 76.7819 75.4862C76.8781 75.39 76.9996 75.3229 77.1323 75.2927C77.265 75.2624 77.4035 75.2703 77.532 75.3154C77.6604 75.3604 77.7735 75.4408 77.8582 75.5474C77.9429 75.6539 77.9958 75.7821 78.0108 75.9174C78.0259 76.0527 78.0024 76.1894 77.9431 76.3119C77.8838 76.4344 77.7911 76.5377 77.6757 76.6098C77.5603 76.682 77.4268 76.72 77.2907 76.7197C77.0915 76.6728 76.9138 76.5601 76.7864 76.3999C76.6589 76.2397 76.5892 76.0413 76.5883 75.8366Z" fill="#263238"/>
<path d="M77.0861 73.5526C76.7864 73.5526 76.4896 73.6117 76.2127 73.7265C75.9358 73.8414 75.6843 74.0097 75.4725 74.2218C75.2608 74.4339 75.0929 74.6858 74.9786 74.9628C74.8642 75.2399 74.8056 75.5368 74.8062 75.8366C74.8062 77.093 75.8257 79.5575 77.0861 79.5575C78.3465 79.5575 79.3661 77.093 79.3661 75.8366C79.3666 75.5368 79.308 75.2399 79.1937 74.9628C79.0793 74.6858 78.9115 74.4339 78.6997 74.2218C78.4879 74.0097 78.2364 73.8414 77.9595 73.7265C77.6827 73.6117 77.3859 73.5526 77.0861 73.5526ZM77.0861 76.7638C76.9056 76.7646 76.7288 76.7117 76.5784 76.6119C76.4279 76.5121 76.3105 76.3698 76.2411 76.2032C76.1716 76.0365 76.1532 75.853 76.1882 75.6759C76.2233 75.4987 76.3101 75.336 76.4378 75.2083C76.5655 75.0807 76.7282 74.9938 76.9053 74.9588C77.0824 74.9237 77.266 74.9421 77.4326 75.0116C77.5993 75.081 77.7416 75.1985 77.8414 75.3489C77.9412 75.4994 77.9941 75.6761 77.9933 75.8566C77.988 76.0937 77.8901 76.3194 77.7206 76.4852C77.551 76.651 77.3233 76.7438 77.0861 76.7437V76.7638Z" fill="#FC8135"/>
<path opacity="0.3" d="M77.0861 73.5526C76.7864 73.5526 76.4896 73.6117 76.2127 73.7265C75.9358 73.8414 75.6843 74.0097 75.4725 74.2218C75.2608 74.4339 75.0929 74.6858 74.9786 74.9628C74.8642 75.2399 74.8056 75.5368 74.8062 75.8366C74.8062 77.093 75.8257 79.5575 77.0861 79.5575C78.3465 79.5575 79.3661 77.093 79.3661 75.8366C79.3666 75.5368 79.308 75.2399 79.1937 74.9628C79.0793 74.6858 78.9115 74.4339 78.6997 74.2218C78.4879 74.0097 78.2364 73.8414 77.9595 73.7265C77.6827 73.6117 77.3859 73.5526 77.0861 73.5526ZM77.0861 76.7638C76.9056 76.7646 76.7288 76.7117 76.5784 76.6119C76.4279 76.5121 76.3105 76.3698 76.2411 76.2032C76.1716 76.0365 76.1532 75.853 76.1882 75.6759C76.2233 75.4987 76.3101 75.336 76.4378 75.2083C76.5655 75.0807 76.7282 74.9938 76.9053 74.9588C77.0824 74.9237 77.266 74.9421 77.4326 75.0116C77.5993 75.081 77.7416 75.1985 77.8414 75.3489C77.9412 75.4994 77.9941 75.6761 77.9933 75.8566C77.988 76.0937 77.8901 76.3194 77.7206 76.4852C77.551 76.651 77.3233 76.7438 77.0861 76.7437V76.7638Z" fill="black"/>
<path opacity="0.1" d="M71.6151 56.6337C71.6151 57.0792 70.5032 57.4365 69.1304 57.4365C67.7576 57.4365 66.6417 57.0792 66.6417 56.6337C66.6417 56.1881 67.7576 55.8309 69.1304 55.8309C70.5032 55.8309 71.6151 56.1921 71.6151 56.6337Z" fill="black"/>
<path d="M69.335 56.3647C70.5954 56.3647 71.615 53.9001 71.615 52.6438C71.6155 52.344 71.5569 52.0471 71.4426 51.77C71.3282 51.4929 71.1604 51.2411 70.9486 51.029C70.7368 50.8169 70.4853 50.6486 70.2084 50.5337C69.9316 50.4189 69.6348 50.3598 69.335 50.3598H68.9336C68.3279 50.3598 67.7469 50.6004 67.3186 51.0288C66.8903 51.4571 66.6497 52.038 66.6497 52.6438C66.6497 53.9001 67.6732 56.3647 68.9336 56.3647H69.335ZM68.4279 52.6438C68.4581 52.5111 68.5252 52.3896 68.6214 52.2934C68.7177 52.1972 68.8392 52.1301 68.9719 52.0998C69.1046 52.0696 69.2431 52.0775 69.3715 52.1226C69.4999 52.1676 69.613 52.248 69.6978 52.3545C69.7825 52.461 69.8354 52.5893 69.8504 52.7246C69.8654 52.8599 69.8419 52.9966 69.7826 53.1191C69.7233 53.2416 69.6307 53.3449 69.5153 53.417C69.3998 53.4892 69.2664 53.5272 69.1303 53.5268C68.9304 53.4813 68.7519 53.369 68.6242 53.2085C68.4965 53.048 68.4273 52.8488 68.4279 52.6438Z" fill="#263238"/>
<path d="M68.9257 50.3598C68.3199 50.3598 67.739 50.6004 67.3107 51.0288C66.8824 51.4571 66.6417 52.038 66.6417 52.6438C66.6417 53.9001 67.6653 56.3647 68.9257 56.3647C70.1861 56.3647 71.2056 53.9001 71.2056 52.6438C71.2056 52.0387 70.9656 51.4584 70.5381 51.0302C70.1106 50.602 69.5307 50.3609 68.9257 50.3598ZM68.9257 53.571C68.7451 53.5718 68.5684 53.5189 68.418 53.4191C68.2675 53.3193 68.1501 53.177 68.0806 53.0104C68.0112 52.8437 67.9928 52.6602 68.0278 52.483C68.0628 52.3059 68.1497 52.1432 68.2774 52.0155C68.4051 51.8879 68.5678 51.801 68.7449 51.766C68.922 51.7309 69.1056 51.7493 69.2722 51.8188C69.4389 51.8882 69.5811 52.0056 69.681 52.1561C69.7808 52.3066 69.8336 52.4833 69.8328 52.6638C69.8266 52.9006 69.7284 53.1256 69.559 53.2912C69.3897 53.4568 69.1625 53.55 68.9257 53.5509V53.571Z" fill="#FC8135"/>
<path opacity="0.3" d="M68.9257 50.3598C68.3199 50.3598 67.739 50.6004 67.3107 51.0288C66.8824 51.4571 66.6417 52.038 66.6417 52.6438C66.6417 53.9001 67.6653 56.3647 68.9257 56.3647C70.1861 56.3647 71.2056 53.9001 71.2056 52.6438C71.2056 52.0387 70.9656 51.4584 70.5381 51.0302C70.1106 50.602 69.5307 50.3609 68.9257 50.3598ZM68.9257 53.571C68.7451 53.5718 68.5684 53.5189 68.418 53.4191C68.2675 53.3193 68.1501 53.177 68.0806 53.0104C68.0112 52.8437 67.9928 52.6602 68.0278 52.483C68.0628 52.3059 68.1497 52.1432 68.2774 52.0155C68.4051 51.8879 68.5678 51.801 68.7449 51.766C68.922 51.7309 69.1056 51.7493 69.2722 51.8188C69.4389 51.8882 69.5811 52.0056 69.681 52.1561C69.7808 52.3066 69.8336 52.4833 69.8328 52.6638C69.8266 52.9006 69.7284 53.1256 69.559 53.2912C69.3897 53.4568 69.1625 53.55 68.9257 53.5509V53.571Z" fill="black"/>
<path opacity="0.1" d="M110.551 57.9703C110.551 58.4119 109.439 58.7731 108.066 58.7731C106.693 58.7731 105.577 58.4119 105.577 57.9703C105.577 57.5288 106.693 57.1675 108.066 57.1675C109.439 57.1675 110.551 57.5248 110.551 57.9703Z" fill="black"/>
<path d="M108.271 57.6974C109.531 57.6974 110.551 55.2368 110.551 53.9764C110.551 53.6767 110.493 53.3798 110.378 53.1027C110.264 52.8256 110.096 52.5738 109.884 52.3616C109.673 52.1495 109.421 51.9812 109.144 51.8664C108.867 51.7515 108.57 51.6924 108.271 51.6924H107.869C107.264 51.6924 106.683 51.9331 106.254 52.3614C105.826 52.7897 105.585 53.3707 105.585 53.9764C105.585 55.2368 106.609 57.6974 107.869 57.6974H108.271ZM107.364 53.9764C107.394 53.8437 107.461 53.7223 107.557 53.626C107.653 53.5298 107.775 53.4627 107.908 53.4325C108.04 53.4023 108.179 53.4101 108.307 53.4552C108.436 53.5003 108.549 53.5807 108.633 53.6872C108.718 53.7937 108.771 53.922 108.786 54.0572C108.801 54.1925 108.778 54.3293 108.718 54.4518C108.659 54.5743 108.566 54.6775 108.451 54.7497C108.336 54.8218 108.202 54.8599 108.066 54.8595C107.866 54.8139 107.688 54.7016 107.56 54.5412C107.432 54.3807 107.363 54.1815 107.364 53.9764Z" fill="#263238"/>
<path d="M107.861 51.6924C107.256 51.6924 106.675 51.9331 106.246 52.3614C105.818 52.7897 105.577 53.3707 105.577 53.9764C105.577 55.2368 106.601 57.6974 107.861 57.6974C109.122 57.6974 110.141 55.2368 110.141 53.9764C110.141 53.3714 109.901 52.791 109.474 52.3628C109.046 51.9346 108.466 51.6935 107.861 51.6924ZM107.861 54.9036C107.681 54.9044 107.504 54.8516 107.354 54.7518C107.203 54.6519 107.086 54.5097 107.016 54.343C106.947 54.1764 106.928 53.9928 106.963 53.8157C106.999 53.6386 107.085 53.4758 107.213 53.3482C107.341 53.2205 107.503 53.1336 107.681 53.0986C107.858 53.0636 108.041 53.082 108.208 53.1514C108.375 53.2209 108.517 53.3383 108.617 53.4888C108.716 53.6392 108.769 53.8159 108.769 53.9965C108.762 54.2332 108.664 54.4583 108.495 54.6239C108.325 54.7895 108.098 54.8826 107.861 54.8836V54.9036Z" fill="#FC8135"/>
<path opacity="0.3" d="M107.861 51.6924C107.256 51.6924 106.675 51.9331 106.246 52.3614C105.818 52.7897 105.577 53.3707 105.577 53.9764C105.577 55.2368 106.601 57.6974 107.861 57.6974C109.122 57.6974 110.141 55.2368 110.141 53.9764C110.141 53.3714 109.901 52.791 109.474 52.3628C109.046 51.9346 108.466 51.6935 107.861 51.6924ZM107.861 54.9036C107.681 54.9044 107.504 54.8516 107.354 54.7518C107.203 54.6519 107.086 54.5097 107.016 54.343C106.947 54.1764 106.928 53.9928 106.963 53.8157C106.999 53.6386 107.085 53.4758 107.213 53.3482C107.341 53.2205 107.503 53.1336 107.681 53.0986C107.858 53.0636 108.041 53.082 108.208 53.1514C108.375 53.2209 108.517 53.3383 108.617 53.4888C108.716 53.6392 108.769 53.8159 108.769 53.9965C108.762 54.2332 108.664 54.4583 108.495 54.6239C108.325 54.7895 108.098 54.8826 107.861 54.8836V54.9036Z" fill="black"/>
<path d="M119.327 120.93C116.147 121.327 112.93 121.327 109.75 120.93C106.538 120.593 104.459 117.972 105.033 115.523C105.081 115.334 105.101 115.238 105.146 115.045C105.724 112.597 108.212 111.12 110.745 111.385C113.264 111.698 115.812 111.698 118.332 111.385C120.864 111.12 123.353 112.589 123.927 115.045C123.975 115.238 123.995 115.334 124.039 115.523C124.617 117.955 122.526 120.593 119.327 120.93Z" fill="#FC8135"/>
<path d="M115.646 119.758L115.285 128.564H116.73L117.091 119.758H115.646Z" fill="#263238"/>
<path d="M110.219 128.564H111.664L112.025 119.758H110.58L110.219 128.564Z" fill="#263238"/>
<g opacity="0.6">
<path d="M115.646 119.758L115.285 128.564H116.73L117.091 119.758H115.646Z" fill="white"/>
<path d="M110.219 128.564H111.664L112.025 119.758H110.58L110.219 128.564Z" fill="white"/>
</g>
<path d="M115.915 131.25H99.4457L98.0006 160.945H99.1887L101.356 133.622H106.518L107.221 160.945H108.14L108.842 133.622H114.004L116.172 160.945H117.36L115.915 131.25Z" fill="#263238"/>
<path opacity="0.6" d="M115.915 131.25H99.4457L98.0006 160.945H99.1887L101.356 133.622H106.518L107.221 160.945H108.14L108.842 133.622H114.004L116.172 160.945H117.36L115.915 131.25Z" fill="white"/>
<path opacity="0.2" d="M115.915 131.25H99.4455L99.3291 133.622H101.356H106.518H108.842H114.004H116.031L115.915 131.25Z" fill="black"/>
<path d="M118.62 120.93C115.439 121.327 112.22 121.327 109.039 120.93C105.828 120.593 103.752 117.972 104.326 115.523C104.371 115.334 104.395 115.238 104.439 115.045C105.013 112.597 107.502 111.12 110.034 111.385C112.554 111.698 115.102 111.698 117.621 111.385C120.158 111.12 122.646 112.589 123.22 115.045C123.265 115.238 123.289 115.334 123.333 115.523C123.907 117.955 121.832 120.593 118.62 120.93Z" fill="#FC8135"/>
<g opacity="0.5">
<path d="M118.62 120.93C115.439 121.327 112.22 121.327 109.039 120.93C105.828 120.593 103.752 117.972 104.326 115.523C104.371 115.334 104.395 115.238 104.439 115.045C105.013 112.597 107.502 111.12 110.034 111.385C112.554 111.698 115.102 111.698 117.621 111.385C120.158 111.12 122.646 112.589 123.22 115.045C123.265 115.238 123.289 115.334 123.333 115.523C123.907 117.955 121.832 120.593 118.62 120.93Z" fill="white"/>
</g>
<g opacity="0.7">
<path d="M118.219 116.025C118.219 116.148 118.182 116.268 118.114 116.37C118.046 116.473 117.949 116.552 117.835 116.6C117.721 116.647 117.596 116.659 117.475 116.635C117.355 116.611 117.244 116.552 117.157 116.465C117.07 116.378 117.011 116.267 116.987 116.146C116.963 116.025 116.975 115.9 117.022 115.787C117.069 115.673 117.149 115.576 117.251 115.507C117.353 115.439 117.474 115.403 117.597 115.403C117.762 115.403 117.92 115.468 118.037 115.585C118.153 115.701 118.219 115.86 118.219 116.025Z" fill="white"/>
<path d="M110.705 116.025C110.706 116.149 110.67 116.271 110.601 116.374C110.533 116.478 110.435 116.559 110.32 116.607C110.206 116.654 110.079 116.667 109.958 116.643C109.836 116.619 109.724 116.559 109.636 116.472C109.548 116.384 109.488 116.272 109.464 116.15C109.44 116.028 109.453 115.902 109.501 115.787C109.549 115.673 109.63 115.575 109.733 115.506C109.837 115.438 109.959 115.402 110.083 115.403C110.164 115.403 110.245 115.419 110.321 115.45C110.396 115.481 110.465 115.527 110.523 115.585C110.58 115.643 110.626 115.711 110.658 115.787C110.689 115.862 110.705 115.943 110.705 116.025Z" fill="white"/>
</g>
<path d="M118.055 131.78H97.3062C97.0461 131.78 96.7886 131.729 96.5483 131.63C96.3079 131.531 96.0896 131.385 95.9057 131.201C95.7218 131.017 95.5761 130.799 95.4768 130.559C95.3776 130.318 95.3267 130.061 95.3273 129.801C95.3273 129.276 95.5358 128.773 95.9069 128.401C96.278 128.03 96.7813 127.822 97.3062 127.822H118.055C118.579 127.822 119.083 128.03 119.454 128.401C119.825 128.773 120.033 129.276 120.033 129.801C120.034 130.061 119.983 130.318 119.884 130.559C119.785 130.799 119.639 131.017 119.455 131.201C119.271 131.385 119.053 131.531 118.812 131.63C118.572 131.729 118.315 131.78 118.055 131.78Z" fill="#FC8135"/>
<path opacity="0.5" d="M118.055 131.78H97.3062C97.0461 131.78 96.7886 131.729 96.5483 131.63C96.3079 131.531 96.0896 131.385 95.9057 131.201C95.7218 131.017 95.5761 130.799 95.4768 130.559C95.3776 130.318 95.3267 130.061 95.3273 129.801C95.3273 129.276 95.5358 128.773 95.9069 128.401C96.278 128.03 96.7813 127.822 97.3062 127.822H118.055C118.579 127.822 119.083 128.03 119.454 128.401C119.825 128.773 120.033 129.276 120.033 129.801C120.034 130.061 119.983 130.318 119.884 130.559C119.785 130.799 119.639 131.017 119.455 131.201C119.271 131.385 119.053 131.531 118.812 131.63C118.572 131.729 118.315 131.78 118.055 131.78Z" fill="white"/>
<path d="M92.2845 89.6086C92.2845 89.6086 87.3272 85.7672 91.7627 81.982C91.7627 81.982 96.6878 76.4106 99.7505 80.4768C100.284 81.1833 102.608 80.4447 102.962 83.2866C103.291 85.8796 105.097 84.4908 104.917 87.409C104.764 89.8896 106.635 89.2955 106.602 90.8409C106.562 92.8479 101.786 91.8645 99.4695 93.1289C96.8805 94.5458 94.6287 96.9823 94.0747 94.3331C93.7439 92.67 93.1389 91.0734 92.2845 89.6086Z" fill="#263238"/>
<path d="M97.3462 103.457C97.3462 103.457 97.1896 109.831 94.9177 111.324C92.6458 112.818 86.6208 103.048 86.6208 103.048L86.2595 98.0822L88.7883 97.2072L89.8119 100.968L88.9088 102.807C88.9088 102.807 92.4812 107.684 92.9508 107.142C93.4205 106.6 93.7536 102.357 93.7536 102.357L97.3462 103.457Z" fill="#FF8B7B"/>
<path d="M95.2228 96.1233C93.1717 97.46 93.4406 100.579 92.8145 104.276L97.7477 104.914C97.7477 104.914 98.8796 93.743 95.2228 96.1233Z" fill="#FC8135"/>
<path opacity="0.1" d="M94.8976 97.9297C94.8976 97.9297 93.3763 100.88 94.8976 106.387C95.3049 107.721 95.5739 109.093 95.7004 110.481C96.6878 109 97.0772 106.435 97.2297 104.862L97.7234 104.926C97.7234 104.926 98.1449 100.836 97.6672 98.1344L96.2061 97.2714L94.8976 97.9297Z" fill="black"/>
<path d="M79.46 131.31L81.4549 153.118L84.1363 153.431L85.5171 131.683L79.46 131.31Z" fill="#FF8B7B"/>
<path opacity="0.1" d="M79.46 131.31L81.4549 153.118L84.1363 153.431L85.5171 131.683L79.46 131.31Z" fill="black"/>
<path d="M81.4429 152.801L84.0199 151.966C84.0744 151.948 84.1333 151.95 84.1871 151.969C84.2409 151.989 84.2866 152.026 84.317 152.074L85.6456 154.322C85.6762 154.369 85.6968 154.421 85.7061 154.476C85.7154 154.531 85.7132 154.587 85.6996 154.641C85.686 154.695 85.6614 154.746 85.6272 154.79C85.593 154.834 85.5501 154.87 85.5011 154.896C85.4763 154.912 85.4492 154.925 85.4208 154.932C84.345 155.266 83.3697 155.518 82.037 155.956C80.4595 156.474 80.9211 156.53 79.0787 157.16C77.9668 157.542 77.3487 156.357 77.7982 156.121C79.8775 155.141 80.2869 154.274 80.8689 153.226C81.0004 153.018 81.2052 152.866 81.4429 152.801Z" fill="#263238"/>
<path d="M86.4 132.984L83.53 156.695L85.6414 157.236C88.5584 150.126 90.7844 142.752 92.2886 135.216L86.4 132.984Z" fill="#FF8B7B"/>
<path d="M83.5181 156.297L86.1112 157.1C86.1662 157.117 86.2139 157.152 86.2466 157.199C86.2794 157.246 86.2953 157.303 86.2918 157.361L86.1072 159.942C86.1075 159.999 86.0959 160.055 86.073 160.106C86.0501 160.158 86.0165 160.205 85.9745 160.243C85.9324 160.28 85.8827 160.309 85.8288 160.326C85.7749 160.344 85.7179 160.349 85.6616 160.343C85.6323 160.347 85.6026 160.347 85.5733 160.343C84.4976 159.998 83.5663 159.653 82.2096 159.251C80.604 158.778 80.9652 159.087 79.0907 158.553C77.9628 158.232 78.1394 156.891 78.6331 156.972C80.901 157.353 81.7279 156.871 82.8037 156.341C83.0289 156.242 83.2823 156.226 83.5181 156.297Z" fill="#263238"/>
<path d="M111.925 114.961C112.006 115.543 112.172 116.11 112.419 116.643C114.209 120.805 116.834 131.093 94.1792 128.858L92.7422 136.552L78.922 132.498C78.922 132.498 78.3681 121.809 80.7203 119.742C83.6184 117.197 98.9599 117.297 98.9599 117.297L98.8796 115.455L111.925 114.961Z" fill="#FC8135"/>
<path opacity="0.1" d="M86.3037 122.102C83.5661 124.069 83.1728 129.375 83.3815 133.807L85.4888 134.425C85.4527 132.506 85.4888 127.629 86.693 125.193C88.2224 122.094 92.5896 119.015 98.153 118.325C98.149 118.305 91.3252 118.489 86.3037 122.102Z" fill="black"/>
<path d="M103.399 115.856C105.747 115.944 113.125 116.587 112.72 114.652C112.057 111.706 111.601 108.718 111.355 105.709C110.974 100.33 111.303 94.9513 109.541 93.1811C107.702 91.3387 96.6276 93.731 95.2227 96.4726C93.577 99.6838 95.2227 103.296 96.5393 108.25C97.322 111.212 97.8358 113.97 98.3255 115.475C98.7189 116.703 102.131 115.812 103.399 115.856Z" fill="#263238"/>
<path opacity="0.1" d="M112.419 116.643C112.172 116.11 112.006 115.543 111.925 114.961L98.8795 115.455L98.9558 117.209C99.6382 117.394 100.802 117.526 102.633 117.209C105.679 116.659 109.204 118.112 112.579 117.036L112.419 116.643Z" fill="black"/>
<path opacity="0.6" d="M104.17 112.878C104.17 112.878 109.697 112.043 112.001 110.951C111.748 109.438 111.495 107.615 111.363 105.733C111.07 101.635 111.19 97.5362 110.484 95.0355L106.655 95.8022C106.655 95.8022 106.354 98.4835 110.147 107.515L108.987 110.212L104.17 112.878Z" fill="black"/>
<path opacity="0.1" d="M108.08 128.115C99.5179 128.556 94.5607 126.365 94.5607 126.365L94.1793 128.857C100.702 129.496 105.125 129.102 108.08 128.115Z" fill="black"/>
<path d="M108.774 100.788C108.774 100.788 110.893 105.669 110.532 106.387C110.171 107.106 103.941 111.264 103.941 111.264C103.941 111.264 100.228 108.735 99.2407 109.819C98.5887 110.55 98.0005 111.336 97.4825 112.167L98.2853 112.529L100.312 111.89C100.312 111.89 103.002 113.588 104.174 112.878C104.174 112.878 113.807 109.546 114.048 107.021C114.289 104.497 112.009 98.9934 112.009 98.9934L108.774 100.788Z" fill="#FF8B7B"/>
<path d="M108.184 92.6673C107.169 92.7115 104.242 93.9438 108.891 101.9L113.093 99.8684C113.093 99.8684 110.994 92.5268 108.184 92.6673Z" fill="#FC8135"/>
<path d="M99.1887 88.5369C99.7908 90.3111 100.818 92.7315 102.548 93.157C102.548 93.157 103.423 94.9152 99.9152 99.2623C96.9489 97.8654 97.5751 94.7586 97.5751 94.7586C98.2013 94.3572 98.5063 93.8354 97.6273 92.8961L99.1887 88.5369Z" fill="#FF8B7B"/>
<path opacity="0.1" d="M98.5021 90.4476L97.6271 92.8961C97.8957 93.144 98.0831 93.4672 98.1649 93.8233C99.8669 93.2092 99.7705 90.0903 99.7705 90.0903L98.5021 90.4476Z" fill="black"/>
<path d="M99.7026 84.6032C100.505 87.6297 100.883 88.8901 99.8792 90.9012C98.37 93.9277 94.4764 94.2247 92.8026 91.4952C91.3013 89.0346 90.2657 84.4788 92.8026 82.3714C93.3558 81.8989 94.021 81.576 94.7345 81.4335C95.448 81.291 96.1861 81.3337 96.8784 81.5575C97.5708 81.7813 98.1942 82.1787 98.6893 82.7119C99.1844 83.2451 99.5347 83.8962 99.7067 84.6032H99.7026Z" fill="#FF8B7B"/>
<path d="M95.0101 87.4491C95.1105 87.6859 95.0663 87.9268 94.9138 87.995C94.7613 88.0633 94.5565 87.9188 94.4562 87.6859C94.3559 87.4531 94.404 87.2083 94.5525 87.1441C94.7011 87.0798 94.9058 87.2484 95.0101 87.4491Z" fill="#263238"/>
<path d="M92.3728 88.5931C92.4692 88.8299 92.425 89.0708 92.2765 89.135C92.128 89.1992 91.9153 89.0627 91.8149 88.8299C91.7146 88.5971 91.7627 88.3522 91.9153 88.288C92.0678 88.2238 92.2725 88.3603 92.3728 88.5931Z" fill="#263238"/>
<path d="M91.9876 88.272L91.3574 88.3482C91.3574 88.3482 91.8311 88.6533 91.9876 88.272Z" fill="#263238"/>
<path d="M93.3683 88.6533C93.3849 89.2766 93.316 89.8992 93.1636 90.5038C93.3194 90.5372 93.4806 90.5369 93.6364 90.503C93.7921 90.469 93.9389 90.4023 94.0667 90.3071L93.3683 88.6533Z" fill="#FF5652"/>
<path d="M95.7406 90.6965C95.6351 90.7643 95.5236 90.8221 95.4074 90.8691C95.3987 90.8731 95.3893 90.8753 95.3798 90.8757C95.3702 90.8761 95.3606 90.8745 95.3517 90.8711C95.3427 90.8678 95.3345 90.8627 95.3275 90.8561C95.3206 90.8496 95.315 90.8417 95.3111 90.8329C95.3073 90.8237 95.3054 90.8139 95.3056 90.8039C95.3057 90.794 95.308 90.7842 95.3121 90.7751C95.3163 90.7661 95.3222 90.758 95.3296 90.7514C95.3371 90.7447 95.3458 90.7397 95.3552 90.7366C95.6493 90.6201 95.9117 90.4357 96.1209 90.1986C96.3302 89.9614 96.4804 89.6781 96.5594 89.3718C96.5633 89.3522 96.5747 89.3349 96.5913 89.3237C96.6078 89.3124 96.6281 89.3081 96.6477 89.3116C96.6573 89.3131 96.6664 89.3164 96.6747 89.3215C96.6829 89.3266 96.69 89.3332 96.6956 89.3411C96.7013 89.3489 96.7052 89.3578 96.7073 89.3672C96.7095 89.3767 96.7097 89.3864 96.7079 89.3959C96.642 89.6664 96.5224 89.9209 96.3562 90.1443C96.19 90.3677 95.9807 90.5555 95.7406 90.6965Z" fill="#263238"/>
<path d="M95.8491 86.4858C95.8233 86.5041 95.7925 86.5139 95.7608 86.5139C95.7292 86.5139 95.6983 86.5041 95.6725 86.4858C95.4685 86.3539 95.2394 86.2659 94.9997 86.2272C94.7599 86.1885 94.5147 86.2 94.2796 86.261C94.2413 86.2709 94.2007 86.2656 94.1662 86.2461C94.1318 86.2267 94.1062 86.1946 94.095 86.1566C94.0895 86.1382 94.0878 86.1188 94.0898 86.0997C94.0919 86.0805 94.0978 86.062 94.1072 86.0452C94.1165 86.0284 94.1291 86.0136 94.1443 86.0017C94.1594 85.9898 94.1768 85.9811 94.1954 85.976C94.4775 85.9014 94.7723 85.8886 95.0598 85.9385C95.3473 85.9884 95.6207 86.0998 95.8612 86.265C95.8746 86.2784 95.8853 86.2944 95.8926 86.3119C95.8999 86.3295 95.9037 86.3483 95.9037 86.3673C95.9037 86.3864 95.8999 86.4052 95.8926 86.4228C95.8853 86.4403 95.8746 86.4563 95.8612 86.4697C95.8579 86.4756 95.8539 86.481 95.8491 86.4858Z" fill="#263238"/>
<path d="M91.0603 87.71C91.0373 87.7238 91.0109 87.7311 90.984 87.7311C90.9572 87.7311 90.9308 87.7238 90.9078 87.71C90.8903 87.7012 90.8748 87.6889 90.8622 87.6738C90.8496 87.6588 90.8402 87.6414 90.8346 87.6226C90.829 87.6038 90.8272 87.5841 90.8294 87.5646C90.8317 87.5451 90.8378 87.5263 90.8476 87.5093C90.9518 87.2946 91.1075 87.109 91.3008 86.9689C91.494 86.8289 91.7189 86.7387 91.9554 86.7065C91.9742 86.7037 91.9934 86.7047 92.0117 86.7095C92.0301 86.7143 92.0473 86.7228 92.0623 86.7344C92.0773 86.746 92.0898 86.7606 92.099 86.7772C92.1083 86.7938 92.114 86.8121 92.116 86.8309C92.1194 86.8697 92.1074 86.9083 92.0826 86.9383C92.0578 86.9683 92.0222 86.9874 91.9835 86.9915C91.7993 87.0262 91.6257 87.1034 91.4766 87.217C91.3274 87.3306 91.2069 87.4774 91.1245 87.6458C91.1096 87.6728 91.0873 87.695 91.0603 87.71Z" fill="#263238"/>
<path d="M94.6409 87.1682L94.0107 87.2404C94.0107 87.2404 94.4724 87.5455 94.6409 87.1682Z" fill="#263238"/>
<path d="M101.256 86.6222C101.241 87.2147 100.993 87.7773 100.566 88.1877C99.9915 88.7256 99.3613 88.3001 99.1927 87.5655C99.0643 86.9032 99.1927 85.8275 99.9233 85.5585C100.084 85.5034 100.257 85.4899 100.425 85.5193C100.592 85.5486 100.75 85.6198 100.883 85.7263C101.016 85.8328 101.12 85.9711 101.185 86.1284C101.25 86.2857 101.275 86.457 101.256 86.6262V86.6222Z" fill="#FF8B7B"/>
<path d="M92.5576 83.1461C92.5803 83.6519 92.7762 84.1344 93.1123 84.513C93.4485 84.8915 93.9045 85.143 94.4041 85.2254C96.2304 85.5866 96.2224 87.5374 97.5189 87.5856C98.8154 87.6338 98.4221 89.1069 99.4496 88.838C100.477 88.569 99.9233 87.0798 100.477 86.5099C101.26 85.7071 99.7507 82.2149 97.9163 81.4924C96.0819 80.7698 92.1964 80.7979 92.5576 83.1461Z" fill="#263238"/>
<path d="M92.8024 82.7567C92.8024 82.7567 91.3614 84.0091 91.6705 85.5023C91.9796 86.9955 90.9038 87.2403 91.2691 88.6693C91.6344 90.0983 92.6941 90.2749 92.8064 91.4791C92.9188 92.6833 94.0749 92.9763 93.6092 93.6387C93.1436 94.301 92.3127 92.7957 92.2525 91.6317C92.1923 90.4676 90.7754 90.4034 90.5947 88.866C90.4141 87.3287 91.2289 86.6061 90.9961 85.2534C90.7633 83.9007 90.5947 81.97 93.1677 82.0904C95.7407 82.2108 92.8024 82.7567 92.8024 82.7567Z" fill="#263238"/>
<path d="M92.7182 81.7252C92.7182 81.7252 91.0685 84.6674 92.7182 85.8636C94.368 87.0598 92.0117 84.3503 92.7182 81.7252Z" fill="#263238"/>
<path d="M92.2405 82.0463C92.2405 82.0463 89.1457 82.3232 89.0655 84.6433C88.9852 86.9634 89.6756 82.9414 92.2405 82.0463Z" fill="#263238"/>
<path d="M87.7127 98.1946C87.7047 98.4308 87.7433 98.6662 87.8263 98.8875C87.9093 99.1087 88.0351 99.3115 88.1965 99.4841C88.3579 99.6567 88.5518 99.7958 88.767 99.8934C88.9822 99.991 89.2146 100.045 89.4508 100.053H89.5431C89.7157 100.856 90.4262 100.932 91.2731 100.932H91.6384C92.6178 100.932 93.4086 100.655 93.4086 99.6757V96.5609C93.4086 96.4274 93.3558 96.2994 93.2619 96.2047C93.1679 96.1099 93.0403 96.0562 92.9068 96.0551H90.0047C89.8713 96.0562 89.7436 96.1099 89.6497 96.2047C89.5557 96.2994 89.5029 96.4274 89.5029 96.5609V96.7616H89.4508C88.3871 96.7536 87.7127 97.2834 87.7127 98.1946ZM88.355 98.2668C88.355 97.6728 88.7845 97.3275 89.4869 97.3275V99.4911C89.1792 99.4785 88.8889 99.345 88.6791 99.1195C88.4694 98.8939 88.3572 98.5947 88.367 98.2869L88.355 98.2668Z" fill="#FC8135"/>
<path opacity="0.2" d="M87.7127 98.1946C87.7047 98.4308 87.7433 98.6662 87.8263 98.8875C87.9093 99.1087 88.0351 99.3115 88.1965 99.4841C88.3579 99.6567 88.5518 99.7958 88.767 99.8934C88.9822 99.991 89.2146 100.045 89.4508 100.053H89.5431C89.7157 100.856 90.4262 100.932 91.2731 100.932H91.6384C92.6178 100.932 93.4086 100.655 93.4086 99.6757V96.5609C93.4086 96.4274 93.3558 96.2994 93.2619 96.2047C93.1679 96.1099 93.0403 96.0562 92.9068 96.0551H90.0047C89.8713 96.0562 89.7436 96.1099 89.6497 96.2047C89.5557 96.2994 89.5029 96.4274 89.5029 96.5609V96.7616H89.4508C88.3871 96.7536 87.7127 97.2834 87.7127 98.1946ZM88.355 98.2668C88.355 97.6728 88.7845 97.3275 89.4869 97.3275V99.4911C89.1792 99.4785 88.8889 99.345 88.6791 99.1195C88.4694 98.8939 88.3572 98.5947 88.367 98.2869L88.355 98.2668Z" fill="black"/>
<path opacity="0.1" d="M89.4989 99.4911V99.6838C89.4999 99.8106 89.5133 99.937 89.539 100.061H89.4467C89.2974 100.062 89.1488 100.041 89.0051 100.001V99.3828C89.1596 99.4552 89.3283 99.4923 89.4989 99.4911Z" fill="black"/>
<path opacity="0.1" d="M89.4628 96.7535H89.515V97.3235C89.3536 97.3227 89.1928 97.3443 89.0374 97.3878V96.7857C89.1781 96.7633 89.3204 96.7525 89.4628 96.7535Z" fill="black"/>
<path opacity="0.1" d="M89.4989 99.4911V99.6838C89.4999 99.8106 89.5133 99.937 89.539 100.061H89.4467C89.2974 100.062 89.1488 100.041 89.0051 100.001V99.3828C89.1596 99.4552 89.3283 99.4923 89.4989 99.4911Z" fill="black"/>
<path opacity="0.1" d="M89.4628 96.7535H89.515V97.3235C89.3536 97.3227 89.1928 97.3443 89.0374 97.3878V96.7857C89.1781 96.7633 89.3204 96.7525 89.4628 96.7535Z" fill="black"/>
<path d="M86.6008 103.048L86.2395 98.0822L88.7683 97.2072L89.7919 100.972L88.8887 102.807L86.6008 103.048Z" fill="#FF8B7B"/>
<path d="M80.9943 103.862C80.9943 103.862 78.7023 106.475 77.9557 103.425C77.2091 100.374 76.4987 97.7169 76.4987 97.7169C76.4987 97.7169 88.8939 101.281 80.9943 103.862Z" fill="#FC8135"/>
<path opacity="0.3" d="M80.9943 103.862C80.9943 103.862 78.7023 106.475 77.9557 103.425C77.2091 100.374 76.4987 97.7169 76.4987 97.7169C76.4987 97.7169 88.8939 101.281 80.9943 103.862Z" fill="black"/>
<path d="M81.3153 107.808C81.3153 107.808 82.1181 101.671 78.7504 99.6356C78.7504 99.6356 81.6445 102.333 80.7574 107.732L81.3153 107.808Z" fill="#FC8135"/>
<path opacity="0.5" d="M81.3153 107.808C81.3153 107.808 82.1181 101.671 78.7504 99.6356C78.7504 99.6356 81.6445 102.333 80.7574 107.732L81.3153 107.808Z" fill="white"/>
<path d="M82.7324 104.175C82.7324 104.175 80.0832 101.602 83.1097 100.161C86.1363 98.7204 89.3876 101.498 89.3876 101.498C89.3876 101.498 82.9412 108.691 82.7324 104.175Z" fill="#FC8135"/>
<path d="M81.6646 107.519C81.6646 107.519 81.7167 101.695 86.1321 101.498C86.1321 101.498 82.4272 102.269 82.066 107.519H81.6646Z" fill="#FC8135"/>
<path opacity="0.5" d="M81.6646 107.519C81.6646 107.519 81.7167 101.695 86.1321 101.498C86.1321 101.498 82.4272 102.269 82.066 107.519H81.6646Z" fill="white"/>
<path d="M79.2644 104.95C79.2644 104.95 81.2192 102.542 78.5981 101.964C75.9769 101.386 73.717 104.95 73.717 104.95C73.717 104.95 80.292 107.716 79.2644 104.95Z" fill="#FC8135"/>
<path opacity="0.2" d="M79.2644 104.95C79.2644 104.95 81.2192 102.542 78.5981 101.964C75.9769 101.386 73.717 104.95 73.717 104.95C73.717 104.95 80.292 107.716 79.2644 104.95Z" fill="white"/>
<path d="M80.625 107.519C80.625 107.519 79.5413 101.241 75.162 104.131C75.162 104.131 78.9552 102.281 80.0831 107.519H80.625Z" fill="#FC8135"/>
<path opacity="0.5" d="M80.625 107.519C80.625 107.519 79.5413 101.241 75.162 104.131C75.162 104.131 78.9552 102.281 80.0831 107.519H80.625Z" fill="white"/>
<path d="M84.9601 107.102H77.5623L77.7469 108.603H78.2286L78.8267 113.516H83.6956L84.2977 108.603H84.7754L84.9601 107.102Z" fill="#263238"/>
<path opacity="0.4" d="M84.1694 109.655L84.2898 108.667H78.2367L78.3571 109.655H84.1694Z" fill="black"/>
<path d="M133.469 117.092H132.253H115.266H114.049L110.076 160.945H111.292H111.757H112.974L117.734 119.441H129.784L134.545 160.945H135.761H136.227H137.443L133.469 117.092Z" fill="#263238"/>
<path opacity="0.2" d="M133.469 117.092H132.253H115.266H114.049L110.076 160.945H111.292H111.757H112.974L117.734 119.441H129.784L134.545 160.945H135.761H136.227H137.443L133.469 117.092Z" fill="white"/>
<path opacity="0.1" d="M117.734 119.441H130.997L135.761 160.945H137.443L133.469 117.092H115.266L111.292 160.945H112.974L117.734 119.441Z" fill="white"/>
<path d="M87.4889 117.092H86.2727H69.2854H68.0692L64.0953 160.945H65.3116H65.7772H66.9934L71.754 119.441H83.804L88.5646 160.945H89.7809H90.2465H91.4627L87.4889 117.092Z" fill="#263238"/>
<path opacity="0.2" d="M87.4889 117.092H86.2727H69.2854H68.0692L64.0953 160.945H65.3116H65.7772H66.9934L71.754 119.441H83.804L88.5646 160.945H89.7809H90.2465H91.4627L87.4889 117.092Z" fill="white"/>
<path opacity="0.1" d="M71.7542 119.441H85.0165L89.7811 160.945H91.4629L87.4891 117.092H69.2856L65.3118 160.945H66.9936L71.7542 119.441Z" fill="white"/>
<path d="M138.659 113.665H62.6504V115.451H138.659V113.665Z" fill="#FC8135"/>
<path opacity="0.5" d="M138.659 113.665H62.6504V115.451H138.659V113.665Z" fill="white"/>
<path opacity="0.2" d="M138.659 113.665H110.927V115.451H138.659V113.665Z" fill="black"/>
<path d="M137.214 115.354H64.0953V117.141H137.214V115.354Z" fill="#FC8135"/>
<path opacity="0.2" d="M137.214 115.354H64.0953V117.141H137.214V115.354Z" fill="white"/>
<path opacity="0.2" d="M137.214 115.354H110.927V117.141H137.214V115.354Z" fill="black"/>
<path d="M116.362 112.541H93.3133C93.1643 112.541 93.0213 112.6 92.9159 112.705C92.8105 112.811 92.7513 112.954 92.7513 113.103C92.7513 113.252 92.8105 113.395 92.9159 113.5C93.0213 113.605 93.1643 113.665 93.3133 113.665H116.362C116.511 113.665 116.654 113.605 116.759 113.5C116.864 113.395 116.924 113.252 116.924 113.103C116.924 112.954 116.864 112.811 116.759 112.705C116.654 112.6 116.511 112.541 116.362 112.541Z" fill="#1A2E35"/>
<path opacity="0.3" d="M116.362 112.541H93.3133C93.1643 112.541 93.0213 112.6 92.9159 112.705C92.8105 112.811 92.7513 112.954 92.7513 113.103C92.7513 113.252 92.8105 113.395 92.9159 113.5C93.0213 113.605 93.1643 113.665 93.3133 113.665H116.362C116.511 113.665 116.654 113.605 116.759 113.5C116.864 113.395 116.924 113.252 116.924 113.103C116.924 112.954 116.864 112.811 116.759 112.705C116.654 112.6 116.511 112.541 116.362 112.541Z" fill="white"/>
<path d="M93.6183 113.319H103.164C103.206 113.319 103.248 113.309 103.285 113.289C103.323 113.27 103.355 113.242 103.379 113.207C103.404 113.172 103.419 113.132 103.425 113.091C103.431 113.049 103.427 113.006 103.412 112.966L99.567 101.98C99.5153 101.832 99.4187 101.703 99.2906 101.613C99.1625 101.522 99.0094 101.474 98.8525 101.474H89.3113C89.2686 101.474 89.2265 101.483 89.1884 101.503C89.1504 101.522 89.1175 101.55 89.0927 101.585C89.0679 101.619 89.0518 101.66 89.0458 101.702C89.0399 101.744 89.0442 101.787 89.0584 101.827L92.9078 112.814C92.9583 112.962 93.054 113.09 93.1815 113.181C93.309 113.272 93.4618 113.32 93.6183 113.319Z" fill="#1A2E35"/>
<path opacity="0.5" d="M93.6183 113.319H103.164C103.206 113.319 103.248 113.309 103.285 113.289C103.323 113.27 103.355 113.242 103.379 113.207C103.404 113.172 103.419 113.132 103.425 113.091C103.431 113.049 103.427 113.006 103.412 112.966L99.567 101.98C99.5153 101.832 99.4187 101.703 99.2906 101.613C99.1625 101.522 99.0094 101.474 98.8525 101.474H89.3113C89.2686 101.474 89.2265 101.483 89.1884 101.503C89.1504 101.522 89.1175 101.55 89.0927 101.585C89.0679 101.619 89.0518 101.66 89.0458 101.702C89.0399 101.744 89.0442 101.787 89.0584 101.827L92.9078 112.814C92.9583 112.962 93.054 113.09 93.1815 113.181C93.309 113.272 93.4618 113.32 93.6183 113.319Z" fill="white"/>
<path d="M93.2811 113.319H102.822C102.865 113.32 102.907 113.31 102.945 113.291C102.983 113.271 103.016 113.243 103.041 113.209C103.066 113.174 103.082 113.134 103.088 113.092C103.094 113.049 103.089 113.006 103.075 112.966L99.2258 101.98C99.1754 101.832 99.0796 101.703 98.9521 101.612C98.8246 101.522 98.6718 101.473 98.5154 101.474H88.9701C88.9278 101.474 88.8861 101.484 88.8486 101.504C88.8111 101.524 88.7788 101.552 88.7544 101.586C88.73 101.621 88.7143 101.661 88.7085 101.703C88.7028 101.745 88.7071 101.787 88.7212 101.827L92.5546 112.814C92.607 112.964 92.7054 113.093 92.8359 113.184C92.9664 113.275 93.1222 113.322 93.2811 113.319Z" fill="#1A2E35"/>
<path opacity="0.7" d="M93.2811 113.319H102.822C102.865 113.32 102.907 113.31 102.945 113.291C102.983 113.271 103.016 113.243 103.041 113.209C103.066 113.174 103.082 113.134 103.088 113.092C103.094 113.049 103.089 113.006 103.075 112.966L99.2258 101.98C99.1754 101.832 99.0796 101.703 98.9521 101.612C98.8246 101.522 98.6718 101.473 98.5154 101.474H88.9701C88.9278 101.474 88.8861 101.484 88.8486 101.504C88.8111 101.524 88.7788 101.552 88.7544 101.586C88.73 101.621 88.7143 101.661 88.7085 101.703C88.7028 101.745 88.7071 101.787 88.7212 101.827L92.5546 112.814C92.607 112.964 92.7054 113.093 92.8359 113.184C92.9664 113.275 93.1222 113.322 93.2811 113.319Z" fill="white"/>
<path d="M96.5364 107.395C96.6609 107.916 96.4722 108.338 96.135 108.338C95.7979 108.338 95.3965 107.916 95.272 107.395C95.1476 106.873 95.3403 106.455 95.6935 106.455C96.0467 106.455 96.416 106.877 96.5364 107.395Z" fill="white"/>
<path opacity="0.2" d="M104.063 113.665C103.914 113.665 103.771 113.605 103.665 113.5C103.56 113.395 103.501 113.252 103.501 113.103C103.501 112.954 103.56 112.811 103.665 112.705C103.771 112.6 103.914 112.541 104.063 112.541H116.362C116.511 112.541 116.654 112.6 116.759 112.705C116.864 112.811 116.924 112.954 116.924 113.103C116.924 113.252 116.864 113.395 116.759 113.5C116.654 113.605 116.511 113.665 116.362 113.665H104.063Z" fill="white"/>
</svg>
