<svg width="162" height="120" viewBox="0 0 162 120" fill="none" xmlns="http://www.w3.org/2000/svg">
<path d="M145.482 110.8H134.799V110.88H145.482V110.8Z" fill="#EBEBEB"/>
<path d="M107.2 111.678H104.396V111.758H107.2V111.678Z" fill="#EBEBEB"/>
<path d="M134.476 107.807H128.286V107.887H134.476V107.807Z" fill="#EBEBEB"/>
<path d="M31.2112 108.349H17.2793V108.429H31.2112V108.349Z" fill="#EBEBEB"/>
<path d="M36.1278 108.349H34.0859V108.429H36.1278V108.349Z" fill="#EBEBEB"/>
<path d="M72.9842 109.71H42.7656V109.791H72.9842V109.71Z" fill="#EBEBEB"/>
<path d="M77.2585 91.2234H14.9698C14.4813 91.2234 14.0128 91.0294 13.6674 90.6839C13.322 90.3385 13.1279 89.87 13.1279 89.3815V1.82576C13.1322 1.34006 13.3281 0.875702 13.6731 0.533762C14.018 0.191822 14.4841 -1.86208e-05 14.9698 1.35563e-09H77.2585C77.5004 1.35563e-09 77.7399 0.0476414 77.9634 0.140205C78.1868 0.232768 78.3899 0.368441 78.5609 0.539476C78.7319 0.710511 78.8676 0.91356 78.9602 1.13703C79.0527 1.3605 79.1004 1.60001 79.1004 1.84189V89.3815C79.1004 89.6234 79.0527 89.8629 78.9602 90.0864C78.8676 90.3099 78.7319 90.5129 78.5609 90.6839C78.3899 90.855 78.1868 90.9907 77.9634 91.0832C77.7399 91.1758 77.5004 91.2234 77.2585 91.2234ZM14.9698 0.0645147C14.503 0.0653674 14.0555 0.2512 13.7254 0.581313C13.3953 0.911425 13.2094 1.35891 13.2086 1.82576V89.3815C13.2094 89.8484 13.3953 90.2959 13.7254 90.626C14.0555 90.9561 14.503 91.1419 14.9698 91.1428H77.2585C77.7253 91.1419 78.1728 90.9561 78.5029 90.626C78.8331 90.2959 79.0189 89.8484 79.0197 89.3815V1.82576C79.0189 1.35891 78.8331 0.911425 78.5029 0.581313C78.1728 0.2512 77.7253 0.0653674 77.2585 0.0645147H14.9698Z" fill="#EBEBEB"/>
<path d="M147.031 91.2234H84.7423C84.2538 91.2234 83.7853 91.0294 83.4399 90.6839C83.0944 90.3385 82.9004 89.87 82.9004 89.3815V1.82576C82.9046 1.34006 83.1006 0.875702 83.4455 0.533762C83.7905 0.191822 84.2566 -1.86208e-05 84.7423 1.35563e-09H147.031C147.519 1.35563e-09 147.988 0.194055 148.333 0.539476C148.679 0.884897 148.873 1.35339 148.873 1.84189V89.3815C148.873 89.87 148.679 90.3385 148.333 90.6839C147.988 91.0294 147.519 91.2234 147.031 91.2234ZM84.7423 0.0645147C84.2754 0.0653674 83.8279 0.2512 83.4978 0.581313C83.1677 0.911425 82.9819 1.35891 82.981 1.82576V89.3815C82.9819 89.8484 83.1677 90.2959 83.4978 90.626C83.8279 90.9561 84.2754 91.1419 84.7423 91.1428H147.031C147.498 91.1419 147.945 90.9561 148.275 90.626C148.606 90.2959 148.791 89.8484 148.792 89.3815V1.82576C148.791 1.35891 148.606 0.911425 148.275 0.581313C147.945 0.2512 147.498 0.0653674 147.031 0.0645147H84.7423Z" fill="#EBEBEB"/>
<path d="M161.643 105.61H0.357422V105.691H161.643V105.61Z" fill="#EBEBEB"/>
<path d="M113.28 103.736H143.982V62.8826L113.28 62.8826V103.736Z" fill="#F5F5F5"/>
<path d="M107.422 103.736H113.28V62.8826H107.422V103.736Z" fill="#E6E6E6"/>
<path d="M115.274 75.8369H141.831V65.9146H115.274V75.8369Z" fill="#FAFAFA"/>
<path d="M132.015 65.9141L131.899 67.2366C131.882 67.4474 131.785 67.6437 131.629 67.7866C131.473 67.9294 131.269 68.0083 131.057 68.0076H126.048C125.836 68.0083 125.632 67.9294 125.476 67.7866C125.32 67.6437 125.224 67.4474 125.206 67.2366L125.09 65.9141H132.015Z" fill="#EBEBEB"/>
<path d="M115.274 86.8398H141.831V76.9175H115.274V86.8398Z" fill="#FAFAFA"/>
<path d="M132.015 76.9209L131.899 78.2434C131.881 78.4539 131.784 78.6498 131.628 78.7926C131.472 78.9353 131.269 79.0144 131.057 79.0144H126.048C125.837 79.0144 125.633 78.9353 125.477 78.7926C125.321 78.6498 125.225 78.4539 125.206 78.2434L125.09 76.9209H132.015Z" fill="#EBEBEB"/>
<path d="M115.274 97.8457H141.831V87.9234H115.274V97.8457Z" fill="#FAFAFA"/>
<path d="M132.015 87.9238L131.899 89.2464C131.882 89.4571 131.785 89.6535 131.629 89.7963C131.473 89.9392 131.269 90.0181 131.057 90.0173H126.048C125.836 90.0181 125.632 89.9392 125.476 89.7963C125.32 89.6535 125.224 89.4571 125.206 89.2464L125.09 87.9238H132.015Z" fill="#EBEBEB"/>
<path d="M115.273 105.778H141.508L141.831 103.732H115.273V105.778Z" fill="#E6E6E6"/>
<path d="M109.79 105.778H115.274V103.732H109.468L109.79 105.778Z" fill="#E0E0E0"/>
<path d="M127.606 62.927H138.089L136.928 49.6338H126.444L127.606 62.927Z" fill="#FAFAFA"/>
<path d="M127.606 62.927H127.106L125.941 49.6338H126.445L127.606 62.927Z" fill="#EBEBEB"/>
<path d="M128.558 61.5728H136.903L135.977 50.9893H127.632L128.558 61.5728Z" fill="#F0F0F0"/>
<path d="M129.167 60.7021H136.138L135.367 51.8604H128.393L129.167 60.7021Z" fill="#E6E6E6"/>
<path d="M124.661 62.9271L125.38 54.6982H114.945L114.226 62.9271H124.661Z" fill="#F0F0F0"/>
<path d="M124.66 62.9271L125.379 54.6982H125.941L125.221 62.9271H124.66Z" fill="#E0E0E0"/>
<path d="M123.671 62.0885L124.245 55.5371H115.936L115.361 62.0885H123.671Z" fill="#EBEBEB"/>
<path d="M123.035 61.5499L123.512 56.0791H116.57L116.093 61.5499H123.035Z" fill="#F5F5F5"/>
<path d="M100.561 100.245C100.561 102.426 100.219 103.836 99.6452 104.742C99.4243 105.074 99.1238 105.345 98.771 105.531C98.4183 105.717 98.0246 105.812 97.6259 105.807H94.4679C94.0692 105.812 93.6755 105.717 93.3228 105.531C92.9701 105.345 92.6695 105.074 92.4486 104.742C91.8744 103.836 91.5293 102.426 91.5293 100.245C91.5293 97.0811 92.9099 94.5489 93.3615 92.5296C93.5228 91.8006 92.9809 89.5684 92.9809 89.5684H99.1097C99.1097 89.5684 98.571 91.8006 98.7323 92.5296C99.1839 94.5489 100.561 97.094 100.561 100.245Z" fill="#EBEBEB"/>
<path d="M111 87.4457C111 84.6974 106.694 85.8329 105.61 81.5781C105.197 79.9653 108.7 76.3105 108.7 76.3105H97.7746C97.7746 76.3105 101.278 79.9653 100.865 81.5781C99.7809 85.8393 95.4746 84.6974 95.4746 87.4457C95.4746 90.4682 101.549 96.7681 101.842 103.858C101.868 104.503 100.7 105.794 100.7 105.794H105.771C105.771 105.794 104.6 104.478 104.629 103.858C104.926 96.7713 111 90.4682 111 87.4457Z" fill="#F5F5F5"/>
<path d="M107.7 94.5817C108.345 93.2463 107.023 88.7109 107.023 88.7109H111.755C111.755 88.7109 110.442 93.2463 111.077 94.5817C111.526 95.5237 112.542 96.1269 112.542 97.2397V103.94C112.542 105.675 111.123 105.807 109.387 105.807C107.652 105.807 106.232 105.675 106.232 103.94V97.2397C106.232 96.1269 107.252 95.5237 107.7 94.5817Z" fill="#F0F0F0"/>
<path d="M53.6299 55.0078C50.9138 53.8304 49.3622 51.3466 50.1751 49.4692C50.988 47.5919 53.8589 47.0241 56.5782 48.2015C59.2975 49.3789 60.8458 51.8627 60.0329 53.7401C59.22 55.6175 56.3491 56.1852 53.6299 55.0078ZM55.7943 49.9983C54.504 49.4467 53.175 49.7112 52.7944 50.5918C52.4138 51.4724 53.1396 52.6337 54.4073 53.1724C55.675 53.7111 57.0265 53.4595 57.4072 52.5788C57.7878 51.6982 57.0685 50.5628 55.7943 49.9983Z" fill="#E6E6E6"/>
<path d="M56.8303 50.1147L55.54 49.5566L63.3463 31.5119C63.3828 31.4269 63.4357 31.3499 63.5021 31.2855C63.5685 31.2211 63.647 31.1705 63.7331 31.1366C63.8192 31.1027 63.9112 31.0862 64.0037 31.088C64.0962 31.0899 64.1874 31.1101 64.2721 31.1474C64.3567 31.1839 64.4333 31.2368 64.4975 31.3029C64.5616 31.3691 64.6121 31.4473 64.6459 31.533C64.6798 31.6187 64.6964 31.7103 64.6948 31.8024C64.6932 31.8946 64.6734 31.9855 64.6366 32.07L56.8303 50.1147Z" fill="#E6E6E6"/>
<path d="M65.2335 33.8155L62.7529 32.7317L63.3142 31.4414L65.7916 32.5252L65.2335 33.8155Z" fill="#E6E6E6"/>
<path d="M64.0105 35.2607L62.2363 34.4898L62.7944 33.1963L64.5685 33.9672L64.0105 35.2607Z" fill="#E6E6E6"/>
<path d="M62.0715 35.6605L61.5127 36.9512L63.5019 37.8124L64.0607 36.5218L62.0715 35.6605Z" fill="#E6E6E6"/>
<path d="M57.3298 48.1894L56.6201 47.883C56.4506 47.8087 56.3174 47.6702 56.2497 47.4979C56.182 47.3256 56.1853 47.1335 56.2588 46.9637C56.3326 46.7935 56.4708 46.6596 56.6431 46.5913C56.8155 46.5229 57.0079 46.5258 57.1782 46.5992L57.8878 46.9056C58.0574 46.9799 58.1906 47.1184 58.2583 47.2907C58.326 47.463 58.3227 47.6551 58.2491 47.8249C58.1754 47.9951 58.0372 48.129 57.8648 48.1973C57.6925 48.2657 57.5001 48.2628 57.3298 48.1894Z" fill="#E6E6E6"/>
<path d="M112.764 41.9865C113.573 42.4974 114.212 43.2379 114.598 44.1135C114.984 44.989 115.101 45.9598 114.932 46.9019C114.764 47.8439 114.319 48.7145 113.654 49.4023C112.988 50.09 112.133 50.5639 111.197 50.7632C110.261 50.9625 109.287 50.8783 108.399 50.5212C107.511 50.1642 106.75 49.5506 106.212 48.7588C105.675 47.967 105.386 47.033 105.382 46.0761C105.378 45.1191 105.659 44.1827 106.19 43.3864C106.877 42.3301 107.955 41.5895 109.188 41.327C110.42 41.0646 111.706 41.3017 112.764 41.9865ZM108.845 47.867C109.212 48.1255 109.648 48.2686 110.097 48.278C110.546 48.2874 110.988 48.1627 111.366 47.9198C111.743 47.6769 112.04 47.3268 112.218 46.9144C112.396 46.5019 112.447 46.0458 112.364 45.6044C112.281 45.1629 112.069 44.7562 111.753 44.4362C111.438 44.1161 111.035 43.8974 110.595 43.8078C110.155 43.7183 109.698 43.762 109.283 43.9335C108.867 44.1049 108.513 44.3963 108.264 44.7703C107.931 45.258 107.805 45.8581 107.914 46.4388C108.022 47.0194 108.357 47.5331 108.845 47.867Z" fill="#E6E6E6"/>
<path d="M108.326 47.292L109.661 48.1823L100.106 62.8013C99.9883 62.9782 99.8047 63.101 99.596 63.1428C99.3874 63.1845 99.1707 63.1417 98.9936 63.0238C98.9061 62.9656 98.8309 62.8907 98.7723 62.8034C98.7138 62.7162 98.673 62.6182 98.6523 62.5151C98.6317 62.4121 98.6315 62.306 98.6519 62.2029C98.6722 62.0997 98.7127 62.0017 98.771 61.9142L108.326 47.292Z" fill="#E6E6E6"/>
<path d="M98.8325 58.7245L101.645 60.6115L100.242 62.7179L97.4261 60.8276C97.2324 60.6972 97.0983 60.4953 97.0529 60.2663C97.0076 60.0372 97.0548 59.7995 97.1841 59.6051L97.6067 58.96C97.7388 58.7671 97.9416 58.6342 98.1712 58.5902C98.4007 58.5461 98.6383 58.5943 98.8325 58.7245Z" fill="#E6E6E6"/>
<path d="M73.7554 14.0517L72.2716 17.8903C72.2398 17.9727 72.1921 18.048 72.1312 18.112C72.0704 18.1759 71.9975 18.2273 71.9168 18.2631C71.836 18.2989 71.749 18.3184 71.6608 18.3206C71.5725 18.3228 71.4846 18.3075 71.4023 18.2757C71.3199 18.244 71.2445 18.1963 71.1806 18.1354C71.1166 18.0745 71.0653 18.0016 71.0295 17.9209C70.9937 17.8402 70.9741 17.7532 70.972 17.6649C70.9698 17.5767 70.985 17.4888 71.0168 17.4064L72.5006 13.5678C72.7301 12.971 72.7136 12.3076 72.4548 11.7229C72.196 11.1382 71.716 10.68 71.12 10.4485L69.7458 9.91629C69.1499 9.68649 68.4871 9.70205 67.9026 9.95956C67.318 10.2171 66.8593 10.6956 66.6266 11.2904L66.0201 12.8582L64.7686 12.3743L65.375 10.8066C65.5525 10.3465 65.8188 9.92597 66.1589 9.56886C66.4989 9.21176 66.9059 8.92513 67.3567 8.72534C67.8075 8.52555 68.2933 8.41651 68.7862 8.40444C69.2792 8.39238 69.7697 8.47753 70.2297 8.65504L71.6039 9.18405C72.0649 9.36218 72.4863 9.62942 72.844 9.97052C73.2017 10.3116 73.4887 10.7199 73.6885 11.1719C73.8883 11.624 73.9971 12.111 74.0086 12.6051C74.02 13.0993 73.934 13.5908 73.7554 14.0517Z" fill="#F0F0F0"/>
<path d="M73.5197 14.6545C73.4174 14.523 73.2814 14.4216 73.1262 14.361L65.6425 11.4578C65.4152 11.3722 65.1634 11.3794 64.9414 11.4778C64.7193 11.5761 64.5448 11.7578 64.4555 11.9836L61.5523 19.4705C61.4651 19.6972 61.4715 19.9493 61.5701 20.1713C61.6687 20.3933 61.8514 20.5671 62.0781 20.6543L69.5618 23.5575C69.6742 23.6012 69.7942 23.6222 69.9148 23.6194C70.0354 23.6166 70.1542 23.59 70.2645 23.5412C70.3748 23.4923 70.4744 23.4222 70.5575 23.3347C70.6406 23.2473 70.7056 23.1443 70.7488 23.0317L73.652 15.548C73.7093 15.4004 73.7273 15.2404 73.7041 15.0838C73.6809 14.9271 73.6174 14.7792 73.5197 14.6545ZM67.836 20.4382L65.4651 19.5221L66.7199 17.3319C66.6226 17.1358 66.5758 16.9185 66.5837 16.6997C66.5916 16.481 66.6539 16.2676 66.765 16.079C66.8761 15.8904 67.0325 15.7325 67.2201 15.6196C67.4076 15.5067 67.6204 15.4423 67.839 15.4323C68.0577 15.4224 68.2754 15.4671 68.4724 15.5625C68.6695 15.6579 68.8396 15.8009 68.9674 15.9786C69.0952 16.1563 69.1767 16.3631 69.2044 16.5803C69.2322 16.7974 69.2053 17.018 69.1263 17.2222C69.0616 17.3927 68.9614 17.5476 68.8324 17.6766C68.7034 17.8056 68.5485 17.9058 68.3779 17.9705L67.836 20.4382Z" fill="#E6E6E6"/>
<path d="M22.6631 101.436L82.3809 101.436V69.2977H22.6631L22.6631 101.436Z" fill="#E6E6E6"/>
<path d="M77.5939 105.606H81.3486V102.771H77.5939V105.606Z" fill="#E6E6E6"/>
<path d="M18.1056 105.606H21.8604L21.8604 66.9075H18.1056L18.1056 105.606Z" fill="#E6E6E6"/>
<path d="M21.8145 66.9043V105.613H23.8176V103.445H81.3484V105.613H83.3515V66.9043H21.8145ZM23.8176 70.4074H51.5814V83.849H23.8176V70.4074ZM81.3484 99.9325H53.5814V70.4074H81.3451L81.3484 99.9325ZM23.8176 99.9325V85.8522H51.5814V99.9325H23.8176Z" fill="#F0F0F0"/>
<path d="M53.582 99.9365H79.4717V71.8566H53.582V99.9365Z" fill="#F5F5F5"/>
<path d="M54.7559 85.0528C54.7559 85.2908 54.8264 85.5234 54.9586 85.7213C55.0908 85.9191 55.2788 86.0733 55.4986 86.1644C55.7185 86.2555 55.9604 86.2793 56.1938 86.2329C56.4272 86.1865 56.6416 86.0719 56.8098 85.9036C56.9781 85.7353 57.0927 85.5209 57.1391 85.2875C57.1856 85.0541 57.1617 84.8122 57.0707 84.5924C56.9796 84.3725 56.8254 84.1846 56.6275 84.0524C56.4296 83.9202 56.197 83.8496 55.9591 83.8496C55.801 83.8496 55.6446 83.8807 55.4986 83.9412C55.3526 84.0017 55.22 84.0903 55.1083 84.202C54.9965 84.3137 54.9079 84.4464 54.8474 84.5924C54.787 84.7383 54.7559 84.8948 54.7559 85.0528Z" fill="#FAFAFA"/>
<path d="M55.9591 86.2559C56.189 86.2552 56.4139 86.1885 56.6071 86.0639C56.8003 85.9393 56.9538 85.7619 57.0493 85.5527C57.123 85.7092 57.1616 85.8798 57.1622 86.0527C57.1622 86.3718 57.0355 86.6779 56.8098 86.9035C56.5842 87.1291 56.2782 87.2559 55.9591 87.2559C55.6399 87.2559 55.3339 87.1291 55.1083 86.9035C54.8826 86.6779 54.7559 86.3718 54.7559 86.0527C54.7565 85.8798 54.7951 85.7092 54.8688 85.5527C54.9643 85.7619 55.1178 85.9393 55.311 86.0639C55.5042 86.1885 55.7291 86.2552 55.9591 86.2559Z" fill="#E0E0E0"/>
<path d="M69.4325 99.9324H63.2552L60.3037 71.8525H66.481L69.4325 99.9324Z" fill="#FAFAFA"/>
<path d="M61.6756 99.9324H60.4467L57.4951 71.8525H58.7241L61.6756 99.9324Z" fill="#FAFAFA"/>
<path d="M45.3274 83.8369H47.7725V71.8276H45.3274V83.8369Z" fill="#FAFAFA"/>
<path d="M35.1819 83.8369H37.627V71.8276H35.1819V83.8369Z" fill="#F5F5F5"/>
<path d="M42.8791 83.8369H45.3242V72.6695H42.8791V83.8369Z" fill="#F5F5F5"/>
<path d="M37.6272 83.8369H40.0723V72.6695H37.6272V83.8369Z" fill="#FAFAFA"/>
<path d="M40.0756 83.8369H41.6562V71.8276H40.0756V83.8369Z" fill="#EBEBEB"/>
<path d="M41.6534 83.8369H42.876V72.6695H41.6534V83.8369Z" fill="#FAFAFA"/>
<path d="M32.7375 83.8369H35.1826V71.8276H32.7375V83.8369Z" fill="#EBEBEB"/>
<path d="M30.2893 83.8369H32.7344V72.6695H30.2893V83.8369Z" fill="#E6E6E6"/>
<path d="M25.0373 83.8369H27.4824V72.6695H25.0373V83.8369Z" fill="#E6E6E6"/>
<path d="M27.4858 83.8369H29.0664V71.8276H27.4858V83.8369Z" fill="#FAFAFA"/>
<path d="M29.0665 83.8369H30.2891V72.6695H29.0665V83.8369Z" fill="#EBEBEB"/>
<path d="M23.8146 83.8369H25.0371V72.1114H23.8146V83.8369Z" fill="#EBEBEB"/>
<path d="M26.2596 87.9238H23.8145V99.9332H26.2596V87.9238Z" fill="#EBEBEB"/>
<path d="M36.4011 87.9238H33.9561V99.9332H36.4011V87.9238Z" fill="#FAFAFA"/>
<path d="M28.7049 88.7686H26.2598V99.936H28.7049V88.7686Z" fill="#FAFAFA"/>
<path d="M33.9568 88.7686H31.5117V99.936H33.9568V88.7686Z" fill="#EBEBEB"/>
<path d="M31.5113 87.9238H29.9307V99.9332H31.5113V87.9238Z" fill="#FAFAFA"/>
<path d="M29.9306 88.7686H28.708V99.936H29.9306V88.7686Z" fill="#F5F5F5"/>
<path d="M38.8504 87.9238H36.4053V99.9332H38.8504V87.9238Z" fill="#EBEBEB"/>
<path d="M41.2947 88.7686H38.8496V99.936H41.2947V88.7686Z" fill="#F5F5F5"/>
<path d="M46.5467 88.7686H44.1016V99.936H46.5467V88.7686Z" fill="#E6E6E6"/>
<path d="M44.1011 87.9238H42.5205V99.9332H44.1011V87.9238Z" fill="#FAFAFA"/>
<path d="M49.3531 87.9238H47.7725V99.9332H49.3531V87.9238Z" fill="#FAFAFA"/>
<path d="M42.5204 88.7686H41.2979V99.936H42.5204V88.7686Z" fill="#EBEBEB"/>
<path d="M47.7694 88.207H46.5469V99.9325H47.7694V88.207Z" fill="#EBEBEB"/>
<path d="M26.5442 46.2217C26.2907 46.3465 26.0814 46.5457 25.9442 46.7926C25.7571 47.1733 26.341 47.8797 26.341 47.8797C26.4817 47.9738 26.6426 48.0336 26.8106 48.0543C26.9787 48.0751 27.1493 48.0561 27.3087 47.9991L27.7925 47.7797C27.7925 47.7797 26.9635 46.3378 26.5603 46.3217L26.5442 46.2217Z" fill="#E6E6E6"/>
<path d="M28.6245 46.2086C28.6826 46.8925 28.26 47.757 27.6568 47.8215C27.0536 47.886 26.4859 47.0957 26.4149 46.4022C26.3439 45.7086 26.8471 45.6506 27.4568 45.599C28.0665 45.5473 28.5632 45.5248 28.6245 46.2086Z" fill="#E6E6E6"/>
<path d="M26.8337 46.0088C26.8337 46.0088 27.3014 46.3797 28.2627 46.1636C28.2627 46.1636 26.7466 47.1733 26.8337 46.0088Z" fill="#E6E6E6"/>
<path d="M27.2471 45.8735C27.2471 45.8735 27.7858 45.78 27.7922 46.0026C27.7922 46.0026 28.2503 45.9768 28.1858 45.7864C28.1212 45.5961 27.2471 45.8735 27.2471 45.8735Z" fill="#E6E6E6"/>
<g opacity="0.2">
<path d="M26.8347 46.0078C26.8347 46.0078 27.3024 46.3788 28.2637 46.1626C28.2637 46.1626 26.7476 47.1723 26.8347 46.0078Z" fill="#FAFAFA"/>
</g>
<g opacity="0.2">
<path d="M27.2471 45.8726C27.2471 45.8726 27.7858 45.779 27.7922 46.0016C27.7922 46.0016 28.2503 45.9758 28.1858 45.7855C28.1212 45.5951 27.2471 45.8726 27.2471 45.8726Z" fill="#FAFAFA"/>
</g>
<path d="M26.624 48.0243C26.7281 48.1803 26.8742 48.3037 27.0454 48.3802C27.2167 48.4567 27.4061 48.4832 27.5917 48.4565C27.7752 48.4289 27.9509 48.3633 28.1075 48.2639C28.2642 48.1644 28.3983 48.0334 28.5014 47.8791C28.7026 47.568 28.8142 47.2075 28.824 46.8372C28.824 46.7437 28.824 46.5146 28.7111 46.4662C28.5982 46.4179 28.524 46.5953 28.4724 46.6695C28.3218 46.886 28.15 47.087 27.9595 47.2694C27.7711 47.4503 27.5621 47.6083 27.3369 47.7404C27.2724 47.7598 26.6595 48.0791 26.624 48.0243Z" fill="#E6E6E6"/>
<path d="M29.2436 46.6597C29.2993 46.7996 29.3188 46.9514 29.3001 47.1008C29.2815 47.2503 29.2255 47.3926 29.1371 47.5145C29.0099 47.6655 28.8557 47.7913 28.6823 47.8855C28.5629 47.9565 28.4113 48.0242 28.2952 47.95C28.1791 47.8758 28.1823 47.6855 28.2113 47.5404C28.2565 47.3178 28.3049 47.0952 28.3629 46.8726C28.3904 46.6497 28.4513 46.4322 28.5436 46.2275C28.6436 46.0855 28.7823 46.1694 28.9339 46.2759C29.0714 46.3718 29.1789 46.505 29.2436 46.6597Z" fill="#E6E6E6"/>
<g opacity="0.2">
<path d="M26.7798 47.6473C26.6625 47.6378 26.5499 47.5965 26.4544 47.5277C26.3589 47.4589 26.284 47.3653 26.2379 47.2569C26.1734 47.0924 26.1734 46.6828 26.3863 46.6279C26.4505 46.9899 26.5841 47.336 26.7798 47.6473Z" fill="#FAFAFA"/>
</g>
<g opacity="0.2">
<path d="M28.3701 47.6271C28.4816 47.5946 28.5835 47.5353 28.6667 47.4543C28.7499 47.3733 28.812 47.2731 28.8475 47.1626C28.883 47.04 28.8475 46.4142 28.6508 46.6755C28.5895 46.7626 28.6024 47.0368 28.5701 47.1497C28.5224 47.3161 28.4553 47.4763 28.3701 47.6271Z" fill="#FAFAFA"/>
</g>
<g opacity="0.2">
<path d="M27.5186 48.0146C27.6085 48.0897 27.7212 48.1322 27.8384 48.1351C27.9555 48.138 28.0701 48.1012 28.1637 48.0308C28.1379 48.1534 27.7573 48.2533 27.6412 48.2888C27.3186 48.3792 27.1702 48.2437 26.8735 48.1179C26.8573 48.1179 27.3283 48.1888 27.5186 48.0146Z" fill="#FAFAFA"/>
</g>
<path d="M26.9854 60.5795L27.0144 51.2733L27.4918 48.4443L27.6724 48.4734L27.1982 51.2894L27.1628 60.7569L26.9854 60.5795Z" fill="#E0E0E0"/>
<path d="M27.1791 51.224L27.034 51.3369C26.87 51.1074 26.7254 50.8646 26.6017 50.6111C26.3598 50.1101 26.0553 49.6418 25.6953 49.2176L25.8308 49.0918C26.2015 49.5281 26.5158 50.0093 26.7663 50.524C26.8845 50.7682 27.0226 51.0024 27.1791 51.224Z" fill="#E0E0E0"/>
<path d="M27.2925 49.9761C27.5421 49.9085 27.7594 49.7541 27.9054 49.5406C28.05 49.2874 28.1422 49.0077 28.1763 48.7181C27.8538 48.8149 27.5086 48.66 27.1764 48.6987C27.0437 48.7151 26.9165 48.7618 26.8047 48.835C26.6928 48.9083 26.5993 49.0062 26.5312 49.1213C26.357 49.4213 26.2861 49.7664 26.4409 49.8987C26.7039 50.0342 27.0093 50.0619 27.2925 49.9761Z" fill="#E6E6E6"/>
<path d="M26.0536 49.3339C25.904 49.427 25.7359 49.4864 25.561 49.5082C25.3862 49.5299 25.2086 49.5133 25.0408 49.4597C24.7182 49.3532 24.6117 48.85 24.4795 48.5242C24.8947 48.4854 25.3126 48.4854 25.7278 48.5242C25.8156 48.5296 25.901 48.5543 25.978 48.5967C26.055 48.6391 26.1216 48.6981 26.173 48.7694C26.2213 48.8425 26.2412 48.9309 26.2287 49.0177C26.2162 49.1045 26.1723 49.1837 26.1053 49.2403L26.0536 49.3339Z" fill="#E6E6E6"/>
<path d="M24.5271 49.8798C24.6603 49.7472 24.8208 49.6453 24.9974 49.5813C25.174 49.5172 25.3625 49.4925 25.5497 49.5088C25.6995 49.5364 25.8407 49.599 25.9618 49.6915C26.0829 49.784 26.1804 49.9037 26.2465 50.041C26.1962 50.1367 26.1212 50.2171 26.0293 50.2738C25.9374 50.3306 25.8319 50.3616 25.7239 50.3636C25.5039 50.3669 25.2852 50.3298 25.0787 50.2539C24.8727 50.1762 24.6538 50.1379 24.4336 50.141L24.5271 49.8798Z" fill="#E6E6E6"/>
<path d="M30.7373 48.2793C30.9417 48.4725 31.0824 48.7234 31.1405 48.9986C31.2083 49.4212 30.4438 49.9212 30.4438 49.9212C30.2805 49.9715 30.1076 49.9822 29.9393 49.9525C29.771 49.9227 29.6123 49.8534 29.4761 49.7502L29.0664 49.3954C29.0664 49.3954 30.2857 48.2632 30.6793 48.3696L30.7373 48.2793Z" fill="#E6E6E6"/>
<path d="M28.7436 47.6567C28.4887 48.3018 28.6403 49.2405 29.2081 49.4696C29.7758 49.6986 30.5435 49.1244 30.8016 48.5018C31.0596 47.8793 30.6145 47.6438 30.0338 47.418C29.4532 47.1922 29.0081 47.0212 28.7436 47.6567Z" fill="#E6E6E6"/>
<path d="M30.5213 47.9887C30.5213 47.9887 29.9632 48.2081 29.1084 47.7178C29.1084 47.7178 30.26 49.1274 30.5213 47.9887Z" fill="#E6E6E6"/>
<path d="M30.1664 47.7407C30.1664 47.7407 29.6794 47.4923 29.6052 47.7052C29.6052 47.7052 29.1762 47.5471 29.2826 47.3826C29.389 47.2181 30.1664 47.7407 30.1664 47.7407Z" fill="#E6E6E6"/>
<g opacity="0.2">
<path d="M30.5203 47.9897C30.5203 47.9897 29.9622 48.2091 29.1074 47.7188C29.1074 47.7188 30.259 49.1284 30.5203 47.9897Z" fill="#FAFAFA"/>
</g>
<g opacity="0.2">
<path d="M30.1664 47.7407C30.1664 47.7407 29.6794 47.4923 29.6052 47.7052C29.6052 47.7052 29.1762 47.5471 29.2826 47.3826C29.389 47.2181 30.1664 47.7407 30.1664 47.7407Z" fill="#FAFAFA"/>
</g>
<path d="M30.1275 49.9794C29.9828 50.0953 29.809 50.1689 29.6251 50.1923C29.4413 50.2156 29.2546 50.1877 29.0855 50.1117C28.9185 50.0311 28.77 49.9166 28.6495 49.7756C28.529 49.6345 28.4391 49.47 28.3856 49.2924C28.2855 48.9336 28.2855 48.5544 28.3856 48.1956C28.4049 48.1021 28.4694 47.873 28.6017 47.873C28.7339 47.873 28.7404 48.0505 28.7694 48.1376C28.8501 48.3905 28.9583 48.6339 29.092 48.8633C29.2212 49.087 29.376 49.2948 29.5533 49.4827C29.5855 49.5375 30.0791 50.0214 30.1275 49.9794Z" fill="#E6E6E6"/>
<path d="M28.0277 47.9056C27.9321 48.0216 27.8682 48.1605 27.8422 48.3086C27.8162 48.4567 27.829 48.609 27.8793 48.7507C27.9527 48.9342 28.0624 49.101 28.2019 49.241C28.2922 49.3442 28.418 49.4539 28.5503 49.4152C28.6825 49.3765 28.7341 49.1958 28.7503 49.0507C28.7729 48.8217 28.7922 48.5959 28.8019 48.3668C28.8357 48.1477 28.8357 47.9247 28.8019 47.7056C28.7503 47.5378 28.589 47.5765 28.4148 47.6346C28.2627 47.6864 28.1285 47.7804 28.0277 47.9056Z" fill="#E6E6E6"/>
<g opacity="0.2">
<path d="M30.0928 49.569C30.2094 49.5998 30.3324 49.5961 30.4469 49.5583C30.5615 49.5205 30.6626 49.4502 30.7379 49.3561C30.8444 49.2206 30.9637 48.8271 30.7799 48.7109C30.6076 49.0381 30.3744 49.3293 30.0928 49.569Z" fill="#FAFAFA"/>
</g>
<g opacity="0.2">
<path d="M28.5765 49.0859C28.4784 49.0231 28.3975 48.9368 28.3412 48.8349C28.2848 48.7329 28.2549 48.6185 28.2539 48.5021C28.2539 48.373 28.4829 47.7892 28.5765 48.0956C28.6087 48.1956 28.5152 48.4537 28.5152 48.5698C28.516 48.7436 28.5366 48.9168 28.5765 49.0859Z" fill="#FAFAFA"/>
</g>
<g opacity="0.2">
<path d="M29.2761 49.7058C29.1711 49.7484 29.055 49.755 28.9459 49.7247C28.8368 49.6943 28.7408 49.6287 28.6729 49.5381C28.6729 49.6607 28.9954 49.8607 29.0954 49.9381C29.3632 50.1155 29.5567 50.0316 29.8793 49.9994C29.8793 49.9994 29.4083 49.9316 29.2761 49.7058Z" fill="#FAFAFA"/>
</g>
<path d="M26.7207 59.1887L26.8368 58.8081L26.9917 58.2952L27.1723 57.6952L28.6207 52.9308L28.8013 51.5631L28.9626 50.3502L28.9948 50.0986L29.0852 50.1083V50.1115L29.1787 50.1212L29.1755 50.1438L29.1432 50.3825L28.9723 51.6792L28.8335 52.7373L28.8013 52.9695L28.7884 53.005L27.1723 58.3275L26.9884 58.9242L26.9078 59.2016L26.7917 59.579L26.7207 59.1887Z" fill="#E0E0E0"/>
<path d="M28.6562 52.8763L28.7627 53.0247C28.9862 52.8526 29.1955 52.6627 29.3885 52.4569C29.7708 52.0479 30.2045 51.6901 30.6788 51.3924L30.5852 51.2344C30.1018 51.5401 29.6604 51.9077 29.2724 52.3279C29.0805 52.5253 28.8746 52.7086 28.6562 52.8763Z" fill="#E0E0E0"/>
<path d="M28.9185 51.65C28.6987 51.513 28.536 51.301 28.4605 51.0533C28.3954 50.7682 28.3899 50.4728 28.4444 50.1855C28.7218 50.3726 29.0895 50.3242 29.4121 50.4597C29.5341 50.5145 29.6421 50.5964 29.7276 50.6993C29.8132 50.8022 29.874 50.9233 29.9056 51.0533C29.983 51.3758 29.9508 51.7371 29.7637 51.8242C29.47 51.88 29.1662 51.8174 28.9185 51.65Z" fill="#E6E6E6"/>
<path d="M30.2885 51.3986C30.4036 51.5317 30.5464 51.6382 30.7068 51.7106C30.8672 51.783 31.0415 51.8197 31.2175 51.818C31.5691 51.818 31.811 51.3599 32.0304 51.0857C31.6461 50.9258 31.2476 50.8026 30.8401 50.718C30.7548 50.6972 30.666 50.6957 30.58 50.7135C30.4941 50.7314 30.4132 50.7682 30.3433 50.8212C30.2748 50.8765 30.229 50.955 30.2147 51.0419C30.2004 51.1288 30.2187 51.2179 30.2659 51.2922L30.2885 51.3986Z" fill="#E6E6E6"/>
<path d="M31.589 52.3666C31.5006 52.2014 31.3766 52.0578 31.226 51.9462C31.0754 51.8347 30.9019 51.7579 30.7181 51.7214C30.5668 51.7037 30.4134 51.7219 30.2705 51.7746C30.1275 51.8273 29.9991 51.913 29.8955 52.0247C29.9147 52.1316 29.9622 52.2314 30.0331 52.3137C30.1041 52.396 30.1958 52.4577 30.2987 52.4924C30.5071 52.5584 30.7257 52.5857 30.9439 52.573C31.1621 52.5588 31.381 52.5862 31.589 52.6537V52.3666Z" fill="#E6E6E6"/>
<path d="M24.2019 47.9053C23.9766 48.0749 23.8079 48.3088 23.7181 48.5762C23.602 48.9859 24.3019 49.573 24.3019 49.573C24.4563 49.6403 24.6242 49.6704 24.7923 49.6609C24.9604 49.6514 25.1239 49.6025 25.2697 49.5181L25.7083 49.2117C25.7083 49.2117 24.6342 47.944 24.2342 48.002L24.2019 47.9053Z" fill="#E6E6E6"/>
<path d="M26.247 47.5214C26.4277 48.1827 26.1664 49.1085 25.5761 49.2697C24.9858 49.431 24.2858 48.7698 24.1084 48.1085C23.931 47.4472 24.3987 47.2924 24.989 47.1408C25.5793 46.9892 26.0664 46.8601 26.247 47.5214Z" fill="#E6E6E6"/>
<path d="M24.4502 47.6442C24.4502 47.6442 24.976 47.9281 25.8824 47.541C25.8824 47.541 24.576 48.8087 24.4502 47.6442Z" fill="#E6E6E6"/>
<path d="M24.8311 47.4372C24.8311 47.4372 25.3439 47.2469 25.3923 47.4663C25.3923 47.4663 25.8375 47.3598 25.7407 47.1824C25.6439 47.005 24.8311 47.4372 24.8311 47.4372Z" fill="#E6E6E6"/>
<g opacity="0.2">
<path d="M24.4502 47.6433C24.4502 47.6433 24.976 47.9271 25.8824 47.54C25.8824 47.54 24.576 48.8077 24.4502 47.6433Z" fill="#FAFAFA"/>
</g>
<g opacity="0.2">
<path d="M24.8311 47.4382C24.8311 47.4382 25.3439 47.2479 25.3923 47.4672C25.3923 47.4672 25.8375 47.3608 25.7407 47.1834C25.6439 47.006 24.8311 47.4382 24.8311 47.4382Z" fill="#FAFAFA"/>
</g>
<path d="M24.6055 49.6762C24.7354 49.8084 24.8994 49.9022 25.0792 49.9472C25.2591 49.9921 25.4479 49.9865 25.6248 49.931C25.8005 49.8704 25.9617 49.774 26.0983 49.648C26.2348 49.522 26.3438 49.369 26.4183 49.1988C26.5651 48.8565 26.6143 48.4802 26.5603 48.1117C26.5603 48.0182 26.5151 47.7891 26.3828 47.7666C26.2506 47.744 26.2216 47.9278 26.1828 48.0117C26.0746 48.2518 25.9416 48.4799 25.7861 48.6923C25.6317 48.9 25.453 49.0884 25.2538 49.2536C25.1958 49.2891 24.6506 49.7149 24.6055 49.6762Z" fill="#E6E6E6"/>
<path d="M26.9371 47.8539C27.0175 47.981 27.0641 48.1265 27.0726 48.2766C27.081 48.4268 27.051 48.5766 26.9854 48.7119C26.8895 48.8851 26.7602 49.0375 26.6048 49.1603C26.5016 49.2506 26.3629 49.3441 26.2371 49.2925C26.1113 49.2409 26.079 49.0538 26.0822 48.9054C26.0822 48.6764 26.0822 48.4506 26.1081 48.2216C26.0978 48.0045 26.1195 47.7872 26.1726 47.5765C26.2435 47.4152 26.3984 47.4732 26.5661 47.5506C26.7154 47.6155 26.8438 47.7204 26.9371 47.8539Z" fill="#E6E6E6"/>
<g opacity="0.2">
<path d="M24.6927 49.2662C24.5747 49.2813 24.4549 49.2622 24.3475 49.2114C24.24 49.1605 24.1493 49.0799 24.0862 48.9791C23.9959 48.8307 23.9217 48.4243 24.1185 48.334C24.2495 48.6781 24.4443 48.9944 24.6927 49.2662Z" fill="#FAFAFA"/>
</g>
<g opacity="0.2">
<path d="M26.2529 48.9633C26.3567 48.9108 26.4459 48.8337 26.5129 48.7386C26.5798 48.6436 26.6224 48.5335 26.6368 48.4182C26.6368 48.2924 26.4916 47.6859 26.3562 47.9762C26.3401 48.135 26.3401 48.2949 26.3562 48.4537C26.3413 48.6269 26.3067 48.7979 26.2529 48.9633Z" fill="#FAFAFA"/>
</g>
<g opacity="0.2">
<path d="M25.4851 49.4962C25.5846 49.5503 25.6992 49.5701 25.8111 49.5526C25.923 49.5351 26.0261 49.4813 26.1044 49.3994C26.1044 49.522 25.7464 49.6897 25.6367 49.7478C25.3496 49.8897 25.1657 49.7865 24.8496 49.7188C24.8496 49.7188 25.327 49.7026 25.4851 49.4962Z" fill="#FAFAFA"/>
</g>
<path d="M27.218 61.9531L25.5729 52.7921L25.5342 49.9212L25.718 49.918L25.7568 52.776L27.4245 62.0951L27.218 61.9531Z" fill="#E0E0E0"/>
<path d="M25.7278 52.7151L25.602 52.8506C25.4004 52.6514 25.2159 52.4356 25.0504 52.2055C24.7212 51.7585 24.3364 51.3553 23.9053 51.0055L24.0182 50.8604C24.4616 51.2229 24.8572 51.6402 25.1956 52.1023C25.356 52.3207 25.534 52.5257 25.7278 52.7151Z" fill="#E0E0E0"/>
<path d="M25.6111 51.4661C25.8458 51.3561 26.0326 51.1647 26.1369 50.9274C26.2352 50.6526 26.2759 50.3605 26.2562 50.0693C25.9562 50.2242 25.5885 50.1306 25.2692 50.2274C25.1413 50.2685 25.0243 50.3381 24.9271 50.4308C24.8299 50.5235 24.755 50.637 24.7079 50.7629C24.5918 51.0854 24.5821 51.4338 24.7595 51.5403C25.042 51.6292 25.3482 51.6025 25.6111 51.4661Z" fill="#E6E6E6"/>
<path d="M24.2798 51.0568C24.1506 51.1753 23.997 51.2641 23.8299 51.3171C23.6627 51.37 23.486 51.3857 23.3121 51.3632C22.9637 51.3181 22.7766 50.8407 22.5928 50.5439C22.9929 50.4281 23.4035 50.3525 23.8185 50.3181C23.9054 50.3072 23.9935 50.3157 24.0767 50.343C24.1598 50.3704 24.2358 50.4158 24.2992 50.4762C24.36 50.5397 24.3955 50.6233 24.399 50.7112C24.4026 50.7991 24.374 50.8853 24.3185 50.9536L24.2798 51.0568Z" fill="#E6E6E6"/>
<path d="M22.8764 51.8664C22.9839 51.7128 23.1235 51.5845 23.2856 51.4904C23.4477 51.3962 23.6284 51.3385 23.8151 51.3213C23.9678 51.3209 24.1184 51.3566 24.2546 51.4256C24.3909 51.4946 24.5088 51.5948 24.5989 51.7181C24.5679 51.8227 24.5088 51.9168 24.4281 51.9901C24.3473 52.0635 24.248 52.1133 24.1409 52.1342C23.9277 52.1745 23.7089 52.1745 23.4957 52.1342C23.2826 52.0938 23.0637 52.0938 22.8506 52.1342L22.8764 51.8664Z" fill="#E6E6E6"/>
<path d="M27.8886 56.3304H25.9532C25.8816 56.3273 25.811 56.3482 25.7526 56.3896C25.6942 56.4311 25.6513 56.4908 25.6306 56.5594C25.2742 57.8245 25.1079 59.1356 25.137 60.4496C25.137 62.7076 25.7306 65.7463 25.9177 66.6398C25.9321 66.7143 25.9723 66.7814 26.0313 66.8292C26.0904 66.877 26.1643 66.9024 26.2402 66.9011H27.5821C27.6581 66.9024 27.732 66.877 27.791 66.8292C27.8501 66.7814 27.8903 66.7143 27.9047 66.6398C28.0918 65.7463 28.6853 62.7237 28.6853 60.4496C28.7145 59.1356 28.5482 57.8245 28.1918 56.5594C28.172 56.494 28.132 56.4367 28.0775 56.3955C28.023 56.3543 27.9569 56.3315 27.8886 56.3304Z" fill="#F0F0F0"/>
<path d="M81.0005 119.999C115.542 119.999 143.544 118.364 143.544 116.348C143.544 114.331 115.542 112.696 81.0005 112.696C46.4587 112.696 18.457 114.331 18.457 116.348C18.457 118.364 46.4587 119.999 81.0005 119.999Z" fill="#F5F5F5"/>
<path d="M39.3174 103.793C39.2646 103.79 39.2152 103.766 39.1797 103.727C39.1442 103.688 39.1253 103.636 39.1271 103.583C39.3658 94.1028 39.8529 78.5516 39.8787 78.4645C39.8957 78.4128 39.932 78.3695 39.98 78.3437C40.028 78.3179 40.0841 78.3115 40.1367 78.3258C40.189 78.3422 40.2327 78.3784 40.2586 78.4266C40.2845 78.4748 40.2906 78.5313 40.2754 78.5839C40.2754 78.6032 39.7754 94.2093 39.5367 103.593C39.5363 103.62 39.5305 103.646 39.5197 103.671C39.5089 103.696 39.4933 103.718 39.4738 103.737C39.4543 103.755 39.4313 103.77 39.4061 103.78C39.3809 103.789 39.354 103.794 39.3271 103.793H39.3174Z" fill="#263238"/>
<path d="M38.0433 72.136C38.124 72.865 39.011 75.3972 39.7271 75.3198C40.4433 75.2423 40.769 72.5779 40.6949 71.8489C40.6568 71.4981 40.4809 71.1768 40.206 70.9557C39.931 70.7346 39.5795 70.6318 39.2288 70.6699C38.878 70.708 38.5567 70.8838 38.3356 71.1587C38.1145 71.4337 38.0117 71.7852 38.0498 72.136H38.0433Z" fill="#FC8135"/>
<path d="M41.5879 80.1232C41.5073 79.3909 40.6202 76.8587 39.9041 76.9394C39.188 77.02 38.8654 79.678 38.9364 80.4103C38.9744 80.761 39.1503 81.0823 39.4252 81.3034C39.7002 81.5245 40.0517 81.6273 40.4024 81.5893C40.7532 81.5512 41.0745 81.3753 41.2956 81.1004C41.5167 80.8254 41.6195 80.4739 41.5814 80.1232H41.5879Z" fill="#FC8135"/>
<path d="M35.8401 77.9008C36.5691 77.8234 39.1013 76.9492 39.0206 76.2169C38.94 75.4847 36.282 75.1783 35.553 75.2492C35.3793 75.2681 35.211 75.321 35.0578 75.4048C34.9045 75.4887 34.7693 75.602 34.6598 75.7381C34.5504 75.8742 34.4688 76.0306 34.4197 76.1983C34.3707 76.366 34.3551 76.5416 34.374 76.7153C34.3928 76.889 34.4457 77.0573 34.5296 77.2105C34.6135 77.3638 34.7267 77.499 34.8628 77.6085C34.999 77.7179 35.1554 77.7995 35.323 77.8486C35.4907 77.8976 35.6664 77.9132 35.8401 77.8943V77.9008Z" fill="#FC8135"/>
<path d="M43.8074 74.3588C43.0784 74.4362 40.5462 75.3265 40.6269 76.0426C40.7075 76.7587 43.3655 77.0813 44.0945 77.0103C44.2707 76.9949 44.442 76.9445 44.5985 76.862C44.7549 76.7794 44.8933 76.6666 45.0055 76.5299C45.1178 76.3932 45.2016 76.2355 45.2521 76.066C45.3026 75.8965 45.3188 75.7187 45.2997 75.5428C45.2806 75.367 45.2266 75.1968 45.1409 75.0421C45.0551 74.8874 44.9394 74.7514 44.8004 74.6421C44.6614 74.5327 44.502 74.4521 44.3315 74.4052C44.161 74.3582 43.9828 74.3457 43.8074 74.3685V74.3588Z" fill="#FC8135"/>
<path d="M35.7401 74.5583C36.311 75.0196 38.7206 76.1906 39.1819 75.6196C39.6432 75.0486 37.9787 72.9455 37.4077 72.4842C37.2728 72.3647 37.115 72.2738 36.9438 72.2171C36.7727 72.1604 36.5919 72.139 36.4122 72.1542C36.2326 72.1694 36.0579 72.2209 35.8988 72.3056C35.7396 72.3902 35.5993 72.5063 35.4864 72.6468C35.3734 72.7873 35.2901 72.9493 35.2416 73.1229C35.193 73.2965 35.1802 73.4782 35.204 73.6569C35.2277 73.8356 35.2874 74.0077 35.3796 74.1626C35.4717 74.3175 35.5944 74.4522 35.7401 74.5583Z" fill="#FC8135"/>
<path d="M43.9044 77.7002C43.3334 77.239 40.9238 76.068 40.4657 76.639C40.0077 77.2099 41.6657 79.3131 42.2399 79.7711C42.3752 79.8864 42.5322 79.9734 42.7017 80.0269C42.8712 80.0804 43.0497 80.0993 43.2266 80.0826C43.4035 80.0659 43.5753 80.0139 43.7318 79.9297C43.8883 79.8454 44.0263 79.7306 44.1376 79.5921C44.249 79.4536 44.3314 79.2941 44.38 79.1232C44.4287 78.9522 44.4425 78.7733 44.4208 78.5969C44.399 78.4205 44.3421 78.2502 44.2534 78.0962C44.1647 77.9422 44.046 77.8076 43.9044 77.7002Z" fill="#FC8135"/>
<path d="M38.2467 80.2042C38.7079 79.6332 39.8789 77.2236 39.3047 76.7655C38.7305 76.3075 36.6338 77.9655 36.1725 78.5397C35.9518 78.8147 35.8494 79.1662 35.8878 79.5168C35.9262 79.8673 36.1023 80.1883 36.3774 80.409C36.6524 80.6297 37.0039 80.7321 37.3544 80.6937C37.705 80.6553 38.0259 80.4792 38.2467 80.2042Z" fill="#FC8135"/>
<path d="M41.3857 72.0526C40.9277 72.6267 39.7535 75.0331 40.3277 75.4944C40.9019 75.9557 42.9986 74.2912 43.4599 73.7203C43.5794 73.5853 43.6702 73.4275 43.727 73.2563C43.7837 73.0852 43.8051 72.9044 43.7899 72.7247C43.7747 72.5451 43.7232 72.3704 43.6385 72.2113C43.5538 72.0521 43.4377 71.9118 43.2972 71.7989C43.1567 71.6859 42.9948 71.6026 42.8211 71.5541C42.6475 71.5055 42.4659 71.4927 42.2872 71.5165C42.1085 71.5402 41.9364 71.5999 41.7815 71.6921C41.6265 71.7842 41.4919 71.9069 41.3857 72.0526Z" fill="#FC8135"/>
<g opacity="0.6">
<path d="M38.0433 72.136C38.124 72.865 39.011 75.3972 39.7271 75.3198C40.4433 75.2423 40.769 72.5779 40.6949 71.8489C40.6568 71.4981 40.4809 71.1768 40.206 70.9557C39.931 70.7346 39.5795 70.6318 39.2288 70.6699C38.878 70.708 38.5567 70.8838 38.3356 71.1587C38.1145 71.4337 38.0117 71.7852 38.0498 72.136H38.0433Z" fill="white"/>
<path d="M41.5879 80.1232C41.5073 79.3909 40.6202 76.8587 39.9041 76.9394C39.188 77.02 38.8654 79.678 38.9364 80.4103C38.9744 80.761 39.1503 81.0823 39.4252 81.3034C39.7002 81.5245 40.0517 81.6273 40.4024 81.5893C40.7532 81.5512 41.0745 81.3753 41.2956 81.1004C41.5167 80.8254 41.6195 80.4739 41.5814 80.1232H41.5879Z" fill="white"/>
<path d="M35.8401 77.8998C36.5691 77.8224 39.1013 76.9482 39.0206 76.216C38.94 75.4837 36.282 75.1773 35.553 75.2482C35.3793 75.2671 35.211 75.32 35.0578 75.4039C34.9045 75.4877 34.7693 75.601 34.6598 75.7371C34.5504 75.8733 34.4688 76.0296 34.4197 76.1973C34.3707 76.365 34.3551 76.5407 34.374 76.7143C34.3928 76.888 34.4457 77.0563 34.5296 77.2095C34.6135 77.3628 34.7267 77.498 34.8628 77.6075C34.999 77.717 35.1554 77.7986 35.323 77.8476C35.4907 77.8966 35.6664 77.9122 35.8401 77.8933V77.8998Z" fill="white"/>
<path d="M43.8074 74.3588C43.0784 74.4362 40.5462 75.3265 40.6269 76.0426C40.7075 76.7587 43.3655 77.0813 44.0945 77.0103C44.2707 76.9949 44.442 76.9445 44.5985 76.862C44.7549 76.7794 44.8933 76.6666 45.0055 76.5299C45.1178 76.3932 45.2016 76.2355 45.2521 76.066C45.3026 75.8965 45.3188 75.7187 45.2997 75.5428C45.2806 75.367 45.2266 75.1968 45.1409 75.0421C45.0551 74.8874 44.9394 74.7514 44.8004 74.6421C44.6614 74.5327 44.502 74.4521 44.3315 74.4052C44.161 74.3582 43.9828 74.3457 43.8074 74.3685V74.3588Z" fill="white"/>
<path d="M35.7401 74.5583C36.311 75.0196 38.7206 76.1906 39.1819 75.6196C39.6432 75.0486 37.9787 72.9455 37.4077 72.4842C37.2728 72.3647 37.115 72.2738 36.9438 72.2171C36.7727 72.1604 36.5919 72.139 36.4122 72.1542C36.2326 72.1694 36.0579 72.2209 35.8988 72.3056C35.7396 72.3902 35.5993 72.5063 35.4864 72.6468C35.3734 72.7873 35.2901 72.9493 35.2416 73.1229C35.193 73.2965 35.1802 73.4782 35.204 73.6569C35.2277 73.8356 35.2874 74.0077 35.3796 74.1626C35.4717 74.3175 35.5944 74.4522 35.7401 74.5583Z" fill="white"/>
<path d="M43.9044 77.7002C43.3334 77.239 40.9238 76.068 40.4657 76.639C40.0077 77.2099 41.6657 79.3131 42.2399 79.7711C42.3752 79.8864 42.5322 79.9734 42.7017 80.0269C42.8712 80.0804 43.0497 80.0993 43.2266 80.0826C43.4035 80.0659 43.5753 80.0139 43.7318 79.9297C43.8883 79.8454 44.0263 79.7306 44.1376 79.5921C44.249 79.4536 44.3314 79.2941 44.38 79.1232C44.4287 78.9522 44.4425 78.7733 44.4208 78.5969C44.399 78.4205 44.3421 78.2502 44.2534 78.0962C44.1647 77.9422 44.046 77.8076 43.9044 77.7002Z" fill="white"/>
<path d="M38.2467 80.2032C38.7079 79.6322 39.8789 77.2226 39.3047 76.7646C38.7305 76.3065 36.6338 77.9645 36.1725 78.5387C35.9518 78.8138 35.8494 79.1652 35.8878 79.5158C35.9262 79.8663 36.1023 80.1873 36.3774 80.408C36.6524 80.6287 37.0039 80.7312 37.3544 80.6927C37.705 80.6543 38.0259 80.4782 38.2467 80.2032Z" fill="white"/>
<path d="M41.3848 72.0526C40.9267 72.6267 39.7525 75.0331 40.3267 75.4944C40.9009 75.9557 42.9976 74.2912 43.4589 73.7203C43.5784 73.5853 43.6693 73.4275 43.726 73.2563C43.7827 73.0852 43.8041 72.9044 43.7889 72.7247C43.7737 72.5451 43.7222 72.3704 43.6375 72.2113C43.5528 72.0521 43.4367 71.9118 43.2962 71.7989C43.1557 71.6859 42.9938 71.6026 42.8202 71.5541C42.6466 71.5055 42.4649 71.4927 42.2862 71.5165C42.1075 71.5402 41.9354 71.5999 41.7805 71.6921C41.6255 71.7842 41.4909 71.9069 41.3848 72.0526Z" fill="white"/>
</g>
<path d="M38.2498 76.3004C38.2841 76.6096 38.4092 76.9017 38.6094 77.1398C38.8096 77.3779 39.0759 77.5514 39.3746 77.6383C39.6733 77.7253 39.991 77.7217 40.2877 77.6282C40.5844 77.5346 40.8468 77.3553 41.0416 77.1128C41.2364 76.8702 41.355 76.5754 41.3824 76.2655C41.4098 75.9556 41.3448 75.6446 41.1955 75.3716C41.0463 75.0987 40.8195 74.8761 40.5438 74.7319C40.2681 74.5878 39.9559 74.5285 39.6466 74.5617C39.4405 74.5838 39.2409 74.6463 39.0591 74.7458C38.8773 74.8452 38.7169 74.9795 38.5872 75.141C38.4574 75.3026 38.3608 75.4881 38.3029 75.6871C38.245 75.886 38.227 76.0944 38.2498 76.3004Z" fill="#FC8135"/>
<path d="M38.4204 96.8483C36.6043 96.8871 33.4947 95.2097 32.2721 93.571C31.0496 91.9323 34.5108 92.9259 34.1495 91.6356C33.7882 90.3453 29.5012 91.313 28.7045 89.4356C27.9077 87.5583 31.0044 87.9873 30.8786 87.0293C30.7528 86.0712 27.5464 86.2744 26.511 84.2874C25.4755 82.3003 28.3013 83.4035 27.8561 82.581C27.411 81.7584 23.8659 78.2908 25.3433 77.5618C26.8207 76.8328 30.1432 80.4423 31.256 80.8455C32.3689 81.2488 32.6205 78.7456 34.0656 79.9359C35.5108 81.1262 34.4495 86.3583 36.1527 87.0325C37.4204 87.5421 36.8752 85.1519 38.3333 85.7422C40.8751 86.797 39.1429 96.8322 38.4204 96.8483Z" fill="#FC8135"/>
<g opacity="0.2">
<path d="M38.4204 96.8483C36.6043 96.8871 33.4947 95.2097 32.2721 93.571C31.0496 91.9323 34.5108 92.9259 34.1495 91.6356C33.7882 90.3453 29.5012 91.313 28.7045 89.4356C27.9077 87.5583 31.0044 87.9873 30.8786 87.0293C30.7528 86.0712 27.5464 86.2744 26.511 84.2874C25.4755 82.3003 28.3013 83.4035 27.8561 82.581C27.411 81.7584 23.8659 78.2908 25.3433 77.5618C26.8207 76.8328 30.1432 80.4423 31.256 80.8455C32.3689 81.2488 32.6205 78.7456 34.0656 79.9359C35.5108 81.1262 34.4495 86.3583 36.1527 87.0325C37.4204 87.5421 36.8752 85.1519 38.3333 85.7422C40.8751 86.797 39.1429 96.8322 38.4204 96.8483Z" fill="white"/>
</g>
<path d="M41.0178 94.5417C41.0468 94.5934 40.7759 94.8643 41.6629 94.8869C43.8726 94.9772 47.7918 94.8288 49.2466 92.8192C51.3433 89.9515 46.5112 90.2161 46.9886 88.6258C47.466 87.0355 52.6498 88.3355 53.6626 86.0775C54.6755 83.8194 50.8982 84.2614 51.0821 83.0969C51.2659 81.9324 55.2174 83.442 56.5238 81.0453C57.8303 78.6486 54.3691 79.9324 54.911 78.9389C55.4529 77.9454 59.8786 73.8229 58.098 72.9004C56.3174 71.9778 52.1917 76.2938 50.8304 76.7712C49.4692 77.2486 49.1531 73.0036 47.366 74.4197C45.579 75.8358 46.7499 82.2195 44.6629 83.013C43.1081 83.6033 43.9564 81.3131 42.0371 81.4002C39.434 81.5066 38.5759 90.4612 41.0178 94.5417Z" fill="#FC8135"/>
<g opacity="0.3">
<path d="M41.0178 94.5417C41.0468 94.5934 40.7759 94.8643 41.6629 94.8869C43.8726 94.9772 47.7918 94.8288 49.2466 92.8192C51.3433 89.9515 46.5112 90.2161 46.9886 88.6258C47.466 87.0355 52.6498 88.3355 53.6626 86.0775C54.6755 83.8194 50.8982 84.2614 51.0821 83.0969C51.2659 81.9324 55.2174 83.442 56.5238 81.0453C57.8303 78.6486 54.3691 79.9324 54.911 78.9389C55.4529 77.9454 59.8786 73.8229 58.098 72.9004C56.3174 71.9778 52.1917 76.2938 50.8304 76.7712C49.4692 77.2486 49.1531 73.0036 47.366 74.4197C45.579 75.8358 46.7499 82.2195 44.6629 83.013C43.1081 83.6033 43.9564 81.3131 42.0371 81.4002C39.434 81.5066 38.5759 90.4612 41.0178 94.5417Z" fill="white"/>
</g>
<path d="M39.3626 102.361C39.3436 102.359 39.3252 102.354 39.3085 102.344C39.2918 102.335 39.2771 102.323 39.2654 102.308C39.2536 102.292 39.245 102.275 39.2401 102.257C39.2352 102.238 39.2341 102.219 39.2368 102.2C41.0496 87.3618 49.601 81.3233 49.6881 81.2652C49.7036 81.2546 49.721 81.2472 49.7393 81.2433C49.7577 81.2394 49.7766 81.2392 49.795 81.2427C49.8134 81.2461 49.831 81.2531 49.8467 81.2634C49.8624 81.2736 49.8759 81.2868 49.8865 81.3023C49.8971 81.3178 49.9045 81.3352 49.9084 81.3535C49.9123 81.3718 49.9125 81.3907 49.909 81.4092C49.9056 81.4276 49.8986 81.4452 49.8883 81.4609C49.8781 81.4766 49.8649 81.4901 49.8494 81.5007C49.7655 81.562 41.3206 87.5296 39.5271 102.236C39.5247 102.255 39.5186 102.273 39.509 102.29C39.4994 102.307 39.4865 102.321 39.4712 102.333C39.4559 102.345 39.4384 102.353 39.4198 102.358C39.4011 102.363 39.3817 102.364 39.3626 102.361Z" fill="#263238"/>
<path d="M47.7266 83.3266C47.6976 83.326 47.6697 83.3163 47.6465 83.2989C47.6234 83.2816 47.6063 83.2574 47.5975 83.2299C47.5852 83.1935 47.5878 83.1537 47.6047 83.1193C47.6216 83.0848 47.6515 83.0585 47.6878 83.046C47.7427 83.0299 49.0168 82.6266 51.1007 83.0686C51.1378 83.0771 51.1703 83.0996 51.1913 83.1314C51.2124 83.1633 51.2203 83.202 51.2136 83.2395C51.2058 83.2771 51.1834 83.3101 51.1514 83.3313C51.1193 83.3525 51.0802 83.3601 51.0426 83.3524C49.0362 82.9266 47.7911 83.3169 47.7782 83.3202C47.7616 83.3257 47.744 83.3279 47.7266 83.3266Z" fill="#263238"/>
<path d="M46.1627 85.1297C46.1256 85.1289 46.0904 85.1136 46.0644 85.087C46.0385 85.0605 46.024 85.0249 46.024 84.9878C45.9789 80.4976 48.5788 76.9912 48.6046 76.9558C48.6281 76.9265 48.6618 76.9073 48.6989 76.9019C48.736 76.8965 48.7738 76.9054 48.8046 76.9267C48.8198 76.9382 48.8327 76.9525 48.8424 76.9689C48.8521 76.9853 48.8585 77.0035 48.8612 77.0223C48.8639 77.0412 48.8628 77.0604 48.8581 77.0789C48.8534 77.0973 48.8451 77.1147 48.8336 77.1299C48.8078 77.1622 46.253 80.5976 46.3111 84.9846C46.3111 85.0225 46.2963 85.059 46.2697 85.0861C46.2432 85.1132 46.2071 85.1289 46.1692 85.1297H46.1627Z" fill="#263238"/>
<path d="M43.6015 88.9296C43.5831 88.9292 43.565 88.925 43.5484 88.9172C43.5317 88.9095 43.5169 88.8983 43.5047 88.8844C43.4912 88.8712 43.4804 88.8554 43.4731 88.838C43.4657 88.8205 43.4619 88.8018 43.4619 88.7828C43.4619 88.7639 43.4657 88.7452 43.4731 88.7277C43.4804 88.7103 43.4912 88.6945 43.5047 88.6812C43.5241 88.6651 45.4402 86.8845 47.9691 87.7877C48.0004 87.8038 48.0247 87.8307 48.0376 87.8634C48.0505 87.8961 48.0511 87.9324 48.0392 87.9655C48.0274 87.9986 48.004 88.0263 47.9733 88.0434C47.9426 88.0605 47.9068 88.066 47.8724 88.0587C45.5176 87.2135 43.7209 88.8748 43.7047 88.8909C43.6911 88.9041 43.6749 88.9143 43.6571 88.9209C43.6394 88.9276 43.6205 88.9306 43.6015 88.9296Z" fill="#263238"/>
<path d="M42.2691 91.5808C42.2422 91.5791 42.2163 91.57 42.1941 91.5547C42.1719 91.5394 42.1544 91.5183 42.1433 91.4937C41.5056 89.71 41.3466 87.7904 41.682 85.9261C41.6847 85.9074 41.6912 85.8893 41.701 85.8731C41.7108 85.8569 41.7238 85.8429 41.7391 85.8317C41.7544 85.8206 41.7718 85.8127 41.7903 85.8084C41.8087 85.8041 41.8278 85.8035 41.8465 85.8067C41.884 85.8131 41.9175 85.8339 41.9398 85.8646C41.9621 85.8954 41.9715 85.9337 41.9659 85.9712C41.6468 87.7825 41.799 89.6454 42.4078 91.3808C42.4153 91.3979 42.4193 91.4164 42.4196 91.4351C42.4199 91.4538 42.4165 91.4724 42.4096 91.4898C42.4027 91.5071 42.3924 91.523 42.3794 91.5364C42.3664 91.5498 42.3508 91.5605 42.3336 91.5679C42.3133 91.5768 42.2913 91.5812 42.2691 91.5808Z" fill="#263238"/>
<path d="M39.4173 107.665C39.3813 107.663 39.3473 107.648 39.3222 107.622C39.297 107.596 39.2826 107.562 39.2818 107.526L39.0947 103.594C38.5431 90.52 29.5788 81.6299 29.4885 81.5428C29.4671 81.5152 29.4563 81.4807 29.4582 81.4458C29.4601 81.4109 29.4746 81.3779 29.4989 81.3528C29.5232 81.3276 29.5558 81.3122 29.5906 81.3091C29.6255 81.3061 29.6602 81.3158 29.6885 81.3363C29.7788 81.4267 38.827 90.3909 39.3818 103.594L39.5689 107.526C39.5698 107.564 39.5557 107.601 39.5298 107.628C39.5039 107.656 39.4681 107.673 39.4302 107.674L39.4173 107.665Z" fill="#263238"/>
<path d="M33.1853 86.4482H33.1627C33.1475 86.4471 33.1329 86.4415 33.1208 86.4321L33.0724 86.416C31.9062 85.9286 30.6526 85.6849 29.3887 85.6999C29.3507 85.7007 29.3139 85.6867 29.2862 85.6608C29.2584 85.6349 29.2419 85.5991 29.2403 85.5612C29.2398 85.5421 29.2432 85.5231 29.2501 85.5054C29.257 85.4876 29.2673 85.4713 29.2805 85.4576C29.2937 85.4438 29.3094 85.4327 29.3269 85.4251C29.3443 85.4174 29.3631 85.4132 29.3822 85.4128C30.6888 85.3974 31.9848 85.6476 33.1918 86.1482L33.2369 86.1676H33.2627C33.2914 86.1815 33.3143 86.2047 33.3278 86.2335C33.3413 86.2623 33.3446 86.2948 33.3369 86.3257C33.3321 86.3616 33.3137 86.3943 33.2855 86.4171C33.2573 86.4399 33.2215 86.451 33.1853 86.4482Z" fill="#263238"/>
<path d="M34.4528 88.1358C34.4339 88.1347 34.4155 88.1296 34.3987 88.1211C34.3819 88.1126 34.367 88.1007 34.3549 88.0862C34.3428 88.0717 34.3338 88.0549 34.3285 88.0368C34.3231 88.0187 34.3215 87.9997 34.3237 87.981C34.6689 84.1101 32.6722 80.9457 32.6496 80.9167C32.6313 80.8842 32.6262 80.846 32.6353 80.8099C32.6444 80.7738 32.667 80.7425 32.6985 80.7226C32.73 80.7027 32.7679 80.6957 32.8045 80.703C32.841 80.7103 32.8733 80.7314 32.8947 80.7618C32.9141 80.7941 34.9657 84.0456 34.6076 88.0068C34.606 88.0255 34.6007 88.0436 34.592 88.0602C34.5833 88.0769 34.5715 88.0916 34.5571 88.1036C34.5427 88.1156 34.526 88.1246 34.5081 88.1301C34.4902 88.1357 34.4714 88.1376 34.4528 88.1358Z" fill="#263238"/>
<path d="M35.7626 90.3713C35.7261 90.3706 35.6913 90.3555 35.6659 90.3294C35.1861 89.8952 34.6059 89.5871 33.9775 89.4328C33.3491 89.2785 32.6922 89.2829 32.0659 89.4455C32.0287 89.4554 31.9891 89.45 31.9559 89.4306C31.9226 89.4113 31.8984 89.3795 31.8885 89.3423C31.8837 89.3241 31.8825 89.3051 31.8851 89.2864C31.8877 89.2677 31.894 89.2498 31.9036 89.2336C31.9132 89.2173 31.926 89.2032 31.9411 89.192C31.9562 89.1807 31.9735 89.1726 31.9918 89.1681C32.6661 88.9877 33.3752 88.9818 34.0524 89.1511C34.7296 89.3204 35.3526 89.6593 35.8626 90.1358C35.8762 90.149 35.887 90.1648 35.8943 90.1823C35.9017 90.1997 35.9055 90.2185 35.9055 90.2374C35.9055 90.2564 35.9017 90.2751 35.8943 90.2926C35.887 90.31 35.8762 90.3258 35.8626 90.339C35.8489 90.3508 35.833 90.3597 35.8159 90.3653C35.7987 90.3708 35.7806 90.3729 35.7626 90.3713Z" fill="#263238"/>
<path d="M37.4244 94.0553C37.403 94.0549 37.382 94.0494 37.3632 94.0391C37.3463 94.0306 37.3313 94.0188 37.319 94.0044C37.3067 93.99 37.2975 93.9733 37.2918 93.9553C37.2861 93.9372 37.284 93.9182 37.2858 93.8994C37.2875 93.8806 37.293 93.8623 37.3019 93.8456C37.9594 92.3601 38.2248 90.7308 38.0728 89.1135C38.0701 89.0755 38.0825 89.0379 38.1072 89.009C38.132 88.98 38.1671 88.9619 38.2051 88.9586C38.224 88.9569 38.243 88.9589 38.2611 88.9646C38.2792 88.9704 38.296 88.9797 38.3104 88.992C38.3249 89.0044 38.3367 89.0194 38.3452 89.0364C38.3537 89.0534 38.3587 89.0719 38.3599 89.0909C38.5245 90.7621 38.2476 92.4472 37.5567 93.9778C37.5444 94.0021 37.5254 94.0222 37.5019 94.0359C37.4785 94.0497 37.4516 94.0564 37.4244 94.0553Z" fill="#263238"/>
<path d="M47.5044 108.284C47.5044 112.868 45.4399 116.587 39.1949 116.587C33.2338 116.587 30.8887 112.868 30.8887 108.284C30.8875 106.619 31.3877 104.993 32.3241 103.616H46.0689C47.0054 104.993 47.5056 106.619 47.5044 108.284Z" fill="#FC8135"/>
<path opacity="0.7" d="M47.5044 108.284C47.5044 112.868 45.4399 116.587 39.1949 116.587C33.2338 116.587 30.8887 112.868 30.8887 108.284C30.8875 106.619 31.3877 104.993 32.3241 103.616H46.0689C47.0054 104.993 47.5056 106.619 47.5044 108.284Z" fill="white"/>
<path d="M95.225 112.533L98.4378 112.066L97.6282 104.55L94.4121 105.018L95.225 112.533Z" fill="#E8BFBF"/>
<path d="M100.909 112.178C101.188 112.157 101.451 112.043 101.658 111.855C101.701 111.801 101.73 111.736 101.743 111.668C101.756 111.599 101.752 111.529 101.732 111.462C101.722 111.421 101.702 111.382 101.674 111.351C101.646 111.319 101.61 111.295 101.57 111.281C101.141 111.126 99.9576 111.994 99.835 112.091C99.8219 112.101 99.8121 112.114 99.8069 112.13C99.8017 112.145 99.8014 112.162 99.806 112.178C99.8113 112.192 99.821 112.205 99.8337 112.213C99.8464 112.222 99.8615 112.227 99.8769 112.226C100.222 112.241 100.567 112.225 100.909 112.178ZM101.361 111.423C101.409 111.412 101.458 111.412 101.506 111.423C101.523 111.428 101.538 111.438 101.55 111.451C101.562 111.464 101.57 111.48 101.574 111.497C101.587 111.542 101.59 111.588 101.581 111.634C101.573 111.679 101.554 111.722 101.525 111.759C101.361 111.962 100.835 112.081 100.106 112.081C100.488 111.796 100.915 111.578 101.37 111.436L101.361 111.423Z" fill="#FC8135"/>
<path d="M99.8957 112.23H99.9215C100.28 111.995 100.921 111.175 100.799 110.824C100.774 110.762 100.728 110.711 100.669 110.68C100.61 110.648 100.542 110.639 100.476 110.653C100.399 110.655 100.323 110.673 100.253 110.706C100.183 110.739 100.121 110.785 100.07 110.843C99.7247 111.243 99.7925 112.133 99.7925 112.159C99.7927 112.172 99.7957 112.185 99.8013 112.197C99.8068 112.208 99.8148 112.219 99.8247 112.227C99.8357 112.232 99.8477 112.236 99.8599 112.236C99.8721 112.237 99.8843 112.235 99.8957 112.23ZM100.434 110.804L100.48 110.782C100.622 110.782 100.638 110.83 100.641 110.846C100.718 111.062 100.289 111.691 99.9344 111.982C99.9022 111.611 99.9893 111.239 100.183 110.921C100.251 110.85 100.343 110.807 100.441 110.801L100.434 110.804Z" fill="#FC8135"/>
<path d="M98.0957 110.733L95.2474 111.413C95.1856 111.426 95.1306 111.461 95.0931 111.511C95.0555 111.562 95.0381 111.625 95.0441 111.687L95.1377 115.813C95.1472 115.882 95.1701 115.947 95.2051 116.007C95.24 116.067 95.2864 116.119 95.3415 116.16C95.3967 116.202 95.4594 116.232 95.5263 116.25C95.5932 116.267 95.6628 116.271 95.7312 116.262C95.7516 116.263 95.7721 116.263 95.7925 116.262C97.0247 115.939 97.6086 115.745 99.1763 115.381C100.144 115.162 103.186 114.929 104.434 114.375C105.683 113.82 105.195 112.555 104.628 112.675C102.796 113.068 100.434 112.284 99.1086 111.091C98.9408 110.991 98.3053 110.684 98.0957 110.733Z" fill="#263238"/>
<path opacity="0.2" d="M97.6282 104.55L98.0443 108.424L94.8315 108.895L94.4121 105.021L97.6282 104.55Z" fill="black"/>
<path d="M99.344 106.83L93.399 107.94C93.399 107.94 90.512 103.817 89.9668 100.891C89.3991 97.843 90.0056 87.4691 89.9668 87.3433C88.2862 81.6661 83.7154 66.9568 81.5122 61.5376C80.2897 58.5376 79.4316 56.5183 79.4316 56.5183L80.0478 56.3796L84.9025 54.3926L88.4508 55.0571C88.4508 55.0571 99.1956 76.7888 100.321 84.9627C101.15 91.0594 99.344 106.83 99.344 106.83Z" fill="#FC8135"/>
<path opacity="0.3" d="M99.344 106.83L93.399 107.94C93.399 107.94 90.512 103.817 89.9668 100.891C89.3991 97.843 90.0056 87.4691 89.9668 87.3433C88.2862 81.6661 83.7154 66.9568 81.5122 61.5376C80.2897 58.5376 79.4316 56.5183 79.4316 56.5183L80.0478 56.3796L84.9025 54.3926L88.4508 55.0571C88.4508 55.0571 99.1956 76.7888 100.321 84.9627C101.15 91.0594 99.344 106.83 99.344 106.83Z" fill="white"/>
<path opacity="0.2" d="M88.5673 82.4147C86.8867 76.7374 83.4932 68.128 81.2868 62.7152L79.8256 57.5541L79.5449 56.5605L80.0578 57.4992L85.8157 70.2537C88.3576 75.1601 88.606 82.5534 88.5673 82.4147Z" fill="black"/>
<path d="M62.4746 110.765L65.339 111.971L68.3938 105.413L65.5326 104.207L62.4746 110.765Z" fill="#E8BFBF"/>
<path d="M67.2037 113.342C67.4305 113.485 67.6991 113.545 67.965 113.513C68.0296 113.496 68.0891 113.464 68.138 113.418C68.187 113.372 68.2239 113.315 68.2456 113.252C68.2621 113.215 68.2686 113.175 68.2647 113.135C68.2607 113.094 68.2463 113.056 68.223 113.023C67.9779 112.662 66.5811 112.665 66.4263 112.665C66.4109 112.667 66.3963 112.672 66.3838 112.681C66.3714 112.69 66.3615 112.703 66.3553 112.717C66.3513 112.731 66.3516 112.746 66.3562 112.761C66.3608 112.775 66.3695 112.788 66.3811 112.797C66.6379 113.004 66.9133 113.186 67.2037 113.342ZM67.9779 113.02C68.0225 113.038 68.0615 113.068 68.0908 113.107C68.0987 113.121 68.1028 113.137 68.1028 113.154C68.1028 113.17 68.0987 113.186 68.0908 113.201C68.0757 113.242 68.0512 113.279 68.0193 113.309C67.9874 113.339 67.9489 113.362 67.9069 113.375C67.6617 113.439 67.194 113.233 66.6166 112.82C67.0765 112.81 67.5348 112.878 67.9714 113.023L67.9779 113.02Z" fill="#FC8135"/>
<path d="M66.3936 112.811H66.4194C66.8291 112.833 67.7871 112.562 67.8936 112.224C67.9109 112.161 67.9051 112.094 67.8773 112.034C67.8495 111.975 67.8015 111.928 67.742 111.901C67.6817 111.859 67.6132 111.83 67.5409 111.816C67.4686 111.802 67.3943 111.804 67.3226 111.821C66.8259 111.93 66.3839 112.65 66.3549 112.679C66.3495 112.69 66.3467 112.702 66.3467 112.714C66.3467 112.726 66.3495 112.738 66.3549 112.75C66.3556 112.762 66.3595 112.774 66.3663 112.785C66.373 112.796 66.3825 112.805 66.3936 112.811ZM67.6162 112.014H67.6613C67.7742 112.088 67.7549 112.14 67.7484 112.156C67.6871 112.362 67.0033 112.608 66.5646 112.633C66.7476 112.328 67.0234 112.09 67.3517 111.953C67.4457 111.937 67.5422 111.956 67.6226 112.008L67.6162 112.014Z" fill="#FC8135"/>
<path d="M65.8583 110.643L63.2777 109.559C63.2217 109.531 63.1571 109.526 63.0972 109.544C63.0372 109.562 62.9863 109.602 62.9551 109.656L60.6971 112.882C60.6654 112.94 60.6455 113.004 60.6385 113.07C60.6316 113.136 60.6377 113.202 60.6566 113.266C60.6755 113.33 60.7067 113.389 60.7486 113.44C60.7904 113.492 60.842 113.534 60.9003 113.566L60.9552 113.591C62.0809 114.053 62.6487 114.22 64.0648 114.827C64.9325 115.201 67.4163 116.746 68.6937 117.02C69.9711 117.295 70.3065 116.053 69.8033 115.817C68.1679 115.085 66.7937 113.15 66.4357 111.475C66.355 111.314 66.0389 110.717 65.8583 110.643Z" fill="#263238"/>
<path opacity="0.2" d="M68.5195 105.491L66.8647 108.83L64.0293 107.559L65.6809 104.217L68.5195 105.491Z" fill="black"/>
<path d="M69.1168 109.13L63.4137 106.091C63.4137 106.091 62.3202 102.03 63.4137 99.4399C65.5169 94.4562 70.9942 87.1274 71.0297 86.9887C72.4909 81.2533 75.0521 65.5408 75.9295 59.7636C76.4134 56.5604 76.7005 55.8701 76.7005 55.8701L77.3037 56.0669L86.0132 56.083C86.0132 56.083 87.6583 69.3085 81.3488 89.7596C79.7811 94.8497 77.1553 99.0819 72.8232 104.808C71.6632 106.311 70.4261 107.754 69.1168 109.13Z" fill="#FC8135"/>
<path opacity="0.3" d="M69.1168 109.13L63.4137 106.091C63.4137 106.091 62.3202 102.03 63.4137 99.4399C65.5169 94.4562 70.9942 87.1274 71.0297 86.9887C72.4909 81.2533 75.0521 65.5408 75.9295 59.7636C76.4134 56.5604 76.7005 55.8701 76.7005 55.8701L77.3037 56.0669L86.0132 56.083C86.0132 56.083 87.6583 69.3085 81.3488 89.7596C79.7811 94.8497 77.1553 99.0819 72.8232 104.808C71.6632 106.311 70.4261 107.754 69.1168 109.13Z" fill="white"/>
<path d="M93.7607 45.2861C93.8928 44.2378 94.3367 43.2534 95.0349 42.4604C95.2123 42.2733 95.8929 41.9894 96.28 41.7378C98.1735 40.4959 101.967 38.9443 101.967 38.9443L103.138 39.9637C103.138 39.9637 100.828 42.1959 99.4541 43.2668C99.1832 43.4797 98.8703 43.7345 98.5413 44.0055C97.9413 44.5023 95.1285 46.357 94.593 46.8248L93.7607 45.2861Z" fill="#E8BFBF"/>
<path d="M105.302 38.3676L103.138 39.9805L101.925 39.0869C102.236 38.6928 102.571 38.318 102.928 37.9644C103.038 37.8579 103.125 37.7305 103.185 37.5899C103.245 37.4492 103.276 37.2979 103.276 37.145C103.252 36.6462 103.363 36.15 103.599 35.7096C103.598 35.701 103.598 35.6924 103.599 35.6838C103.709 35.5285 103.862 35.4079 104.038 35.336C104.214 35.2641 104.407 35.2438 104.595 35.2777C104.782 35.3115 104.956 35.398 105.096 35.527C105.236 35.6561 105.337 35.8223 105.386 36.0064L105.709 37.1612C105.768 37.3799 105.761 37.6113 105.688 37.8261C105.616 38.0408 105.482 38.2293 105.302 38.3676Z" fill="#E8BFBF"/>
<path d="M94.4506 45.7181L93.8796 46.2407C93.7022 46.0988 93.4216 45.8698 93.0668 45.573C90.2862 43.2666 83.3154 37.6667 86.0928 36.07C88.4766 34.6991 91.0055 38.8893 92.2668 40.1505C92.859 40.7818 93.3724 41.4826 93.7958 42.2376C94.3893 43.3085 94.828 44.602 94.4506 45.7181Z" fill="#263238"/>
<path d="M93.7933 41.7383C92.8041 42.4621 91.9677 43.3741 91.332 44.4221C91.5649 45.1843 91.9584 45.8879 92.4858 46.4855C93.0133 47.083 93.6626 47.5608 94.39 47.8865C95.1984 46.0532 95.5451 44.0496 95.3997 42.0512C94.8965 41.9351 94.2965 41.848 93.7933 41.7383Z" fill="#263238"/>
<path d="M78.4869 35.7443C77.4902 36.0669 76.3515 35.8056 75.7128 36.6346C75.0741 37.4636 74.8838 38.5507 74.8838 39.5958C74.9426 41.0496 75.1655 42.492 75.5483 43.8957C75.9483 45.6161 76.3493 47.3311 76.7515 49.0407C77.0257 50.2149 76.7354 55.6696 77.0289 55.7599C77.0289 55.7599 86.148 55.5825 88.435 55.2599C88.435 55.2599 88.6318 49.6536 88.8157 47.744C88.8576 47.3214 89.4995 45.5215 89.5737 45.0699C89.9318 42.9409 89.2318 41.4409 88.4963 39.4087C88.4963 39.4087 86.8835 36.1604 86.0932 36.0701C84.69 35.912 81.2578 34.8379 78.4869 35.7443Z" fill="#263238"/>
<path d="M78.0963 38.4318C78.0641 38.2447 76.4448 34.9738 74.8932 37.2609C72.7352 40.4414 72.59 44.4349 72.59 44.4349C72.59 44.4349 71.2643 48.3057 72.1868 49.1638C73.1094 50.0218 74.1222 50.5573 74.7674 50.0767C75.2227 49.679 75.586 49.187 75.8319 48.6348C75.8319 48.6348 78.6705 41.7607 78.0963 38.4318Z" fill="#263238"/>
<path d="M77.9963 34.5323C77.839 34.6739 77.7161 34.8496 77.6372 35.046C77.5582 35.2424 77.5253 35.4542 77.5409 35.6653C77.5564 35.8764 77.6201 36.0811 77.727 36.2638C77.8339 36.4465 77.9812 36.6023 78.1576 36.7193C78.063 37.051 78.0639 37.4026 78.1603 37.7338C78.2566 38.065 78.4445 38.3622 78.7023 38.5914C78.9601 38.8205 79.2773 38.9723 79.6175 39.0291C79.9577 39.086 80.307 39.0457 80.6253 38.9128C80.3543 39.4031 80.6608 40.0515 81.135 40.3547C81.6351 40.6133 82.1853 40.7608 82.7478 40.7869C83.3125 40.8138 83.8543 41.0181 84.2962 41.3708L86.0187 38.8902C86.2717 38.587 86.4358 38.2197 86.4929 37.829C86.509 37.4386 86.2122 37.0064 85.8219 37.0354C86.0176 36.8243 86.1266 36.5472 86.1271 36.2593C86.1277 35.9715 86.0198 35.6939 85.825 35.482C85.6302 35.2701 85.3627 35.1393 85.0758 35.1158C84.7889 35.0922 84.5036 35.1775 84.2768 35.3548C84.3044 35.1856 84.2818 35.0121 84.2119 34.8556C84.142 34.6991 84.0277 34.5665 83.8833 34.4742C83.5901 34.2974 83.2575 34.1965 82.9156 34.1807L77.9963 34.5323Z" fill="#263238"/>
<path d="M79.032 30.3223C79.4804 31.9674 80.0255 35.0028 78.9385 36.2028C80.9306 37.0627 82.7239 38.3244 84.2061 39.9091C84.5976 39.5491 84.8662 39.0751 84.9739 38.5542C85.0815 38.0333 85.0228 37.4917 84.8061 37.006C84.6793 36.6975 84.4918 36.4177 84.2546 36.1833C84.0174 35.9488 83.7354 35.7646 83.4255 35.6415C82.2255 35.1318 82.2158 33.9544 82.4158 32.8222L79.032 30.3223Z" fill="#E8BFBF"/>
<path opacity="0.2" d="M79.71 33.125L80.8422 33.4314C81.3276 33.5633 81.835 33.593 82.3325 33.5185C82.2907 33.8673 82.3271 34.221 82.4389 34.554C82.06 34.7003 81.6466 34.7334 81.2492 34.6492C80.8518 34.565 80.4874 34.3672 80.2003 34.0798C79.9909 33.7873 79.8256 33.4656 79.71 33.125Z" fill="black"/>
<path d="M76.8359 28.9187C78.0327 31.4476 78.4875 32.5444 80.3326 33.3508C83.1132 34.5669 85.9518 32.5347 85.5325 29.6993C85.1518 27.1478 83.2551 23.4349 80.3036 23.422C79.6538 23.416 79.0132 23.576 78.4426 23.8869C77.872 24.1977 77.3902 24.6492 77.0429 25.1984C76.6956 25.7476 76.4943 26.3764 76.4581 27.0252C76.4219 27.674 76.5519 28.3213 76.8359 28.9058V28.9187Z" fill="#E8BFBF"/>
<path d="M78.1513 24.0872C77.2771 23.6808 76.1933 24.013 75.4643 24.6517C74.7352 25.2904 74.274 26.213 73.8514 27.1C73.5969 27.572 73.4018 28.0736 73.2708 28.5935C73.1403 29.1196 73.2117 29.6755 73.4708 30.1516C73.609 30.374 73.798 30.5604 74.0223 30.6956C74.2466 30.8307 74.4998 30.9107 74.7611 30.929C74.9218 30.9389 75.0767 30.9925 75.2092 31.084C75.3416 31.1755 75.4466 31.3015 75.5126 31.4483C75.5788 31.7196 75.5788 32.0028 75.5126 32.2741C75.4513 32.5372 75.4513 32.8109 75.5126 33.0741C75.6006 33.281 75.7449 33.459 75.9291 33.5879C76.1133 33.7168 76.33 33.7914 76.5546 33.8031C77.0038 33.8155 77.4514 33.7433 77.8739 33.5902C78.0026 33.5462 78.1407 33.5374 78.2739 33.5646C78.4072 33.5918 78.5308 33.6541 78.6319 33.745C78.6836 33.7925 78.7272 33.848 78.7609 33.9095C78.7939 33.9655 78.8416 34.0112 78.899 34.0417C78.9563 34.0722 79.0209 34.0862 79.0857 34.0822C79.1505 34.0782 79.2129 34.0563 79.2661 34.019C79.3192 33.9817 79.361 33.9304 79.3867 33.8708C79.7771 32.9418 79.2093 31.4612 78.3642 30.3225C77.9158 29.7225 77.9384 29.8742 77.7642 29.1451C77.6158 28.5387 77.8384 27.9065 78.1094 27.3452C78.4739 26.5936 78.9384 25.8646 78.7932 24.9678C78.7659 24.7799 78.6931 24.6015 78.5813 24.448C78.4694 24.2946 78.3218 24.1707 78.1513 24.0872Z" fill="#263238"/>
<path d="M76.9095 31.5093C77.3079 31.932 77.8578 32.1792 78.4384 32.1964C79.2094 32.2157 79.4062 31.4803 79.032 30.8513C78.7094 30.2868 77.8901 29.5997 77.1933 29.8835C76.4966 30.1674 76.4256 30.9674 76.9095 31.5093Z" fill="#E8BFBF"/>
<path d="M81.645 28.4704C81.7353 28.6897 81.9128 28.8091 82.0515 28.751C82.1902 28.693 82.2257 28.4833 82.1482 28.2672C82.0708 28.0511 81.8837 27.9446 81.7418 27.9865C81.5999 28.0285 81.5708 28.2575 81.645 28.4704Z" fill="#263238"/>
<path d="M84.0157 27.4515C84.1028 27.6741 84.2802 27.7902 84.4189 27.7354C84.5577 27.6806 84.5931 27.4677 84.5157 27.2516C84.4383 27.0354 84.2512 26.929 84.1125 26.9709C83.9738 27.0128 83.9319 27.2419 84.0157 27.4515Z" fill="#263238"/>
<path d="M84.0508 27.0098L84.4992 26.6582C84.4992 26.6582 84.4024 27.1582 84.0508 27.0098Z" fill="#263238"/>
<path d="M83.4033 27.9258C83.9517 28.4677 84.371 28.5709 84.9581 28.9387C84.9524 29.0868 84.8995 29.2292 84.8073 29.3452C84.7151 29.4612 84.5882 29.5448 84.4452 29.5838L83.4033 27.9258Z" fill="#ED847E"/>
<path d="M84.1933 30.6189C84.296 30.5812 84.3953 30.5348 84.4901 30.4802C84.505 30.472 84.5161 30.4582 84.5209 30.4419C84.5258 30.4256 84.5239 30.4081 84.5159 30.3931C84.5066 30.3785 84.4922 30.3678 84.4756 30.3631C84.459 30.3583 84.4412 30.3598 84.4256 30.3673C84.1788 30.5106 83.9014 30.593 83.6164 30.6076C83.3314 30.6222 83.047 30.5685 82.7869 30.4511C82.771 30.4432 82.7527 30.4418 82.7358 30.4472C82.7189 30.4526 82.7048 30.4645 82.6966 30.4802C82.6921 30.4877 82.6892 30.4961 82.688 30.5048C82.6869 30.5136 82.6876 30.5224 82.69 30.5309C82.6924 30.5394 82.6965 30.5472 82.7021 30.554C82.7077 30.5608 82.7146 30.5664 82.7224 30.5705C82.9519 30.6763 83.2003 30.7351 83.453 30.7434C83.7056 30.7517 83.9573 30.7094 84.1933 30.6189Z" fill="#263238"/>
<path d="M81.5671 26.7124C81.5655 26.742 81.5547 26.7704 81.5362 26.7935C81.5177 26.8167 81.4924 26.8334 81.4638 26.8415C80.8445 27.0253 80.5703 27.8092 80.5703 27.8092C80.5646 27.8266 80.5555 27.8426 80.5436 27.8565C80.5317 27.8703 80.5171 27.8817 80.5008 27.89C80.4845 27.8982 80.4667 27.9031 80.4484 27.9045C80.4302 27.9059 80.4119 27.9036 80.3945 27.8979C80.3772 27.8922 80.3611 27.8831 80.3472 27.8712C80.3334 27.8592 80.322 27.8447 80.3138 27.8284C80.3055 27.812 80.3006 27.7943 80.2992 27.776C80.2979 27.7578 80.3001 27.7395 80.3058 27.7221C80.3284 27.6898 80.6284 26.7899 81.3832 26.5641C81.4191 26.5549 81.4571 26.5598 81.4895 26.5778C81.5219 26.5958 81.5462 26.6255 81.5574 26.6608C81.565 26.6769 81.5683 26.6947 81.5671 26.7124Z" fill="#263238"/>
<path d="M84.4223 26.3321C84.3983 26.3492 84.3696 26.3584 84.3401 26.3584C84.3106 26.3584 84.2819 26.3492 84.2578 26.3321C83.7546 25.9257 82.9514 26.1483 82.9482 26.1515C82.9306 26.1569 82.9121 26.1588 82.8938 26.1571C82.8755 26.1553 82.8577 26.1499 82.8415 26.1412C82.8253 26.1325 82.811 26.1206 82.7994 26.1063C82.7878 26.0921 82.7792 26.0756 82.774 26.0579C82.7639 26.0224 82.768 25.9844 82.7854 25.9519C82.8029 25.9194 82.8324 25.8949 82.8675 25.8837C82.9062 25.8837 83.8353 25.6192 84.432 26.1095C84.46 26.1334 84.4779 26.167 84.4821 26.2035C84.4863 26.24 84.4764 26.2768 84.4546 26.3063C84.4455 26.3168 84.4345 26.3255 84.4223 26.3321Z" fill="#263238"/>
<path d="M81.6963 28.0222L82.1447 27.6738C82.1447 27.6738 82.0414 28.1738 81.6963 28.0222Z" fill="#263238"/>
<path d="M78.3449 23.6644C77.9919 23.6955 77.6505 23.8063 77.3466 23.9884C77.0426 24.1706 76.784 24.4193 76.5901 24.7159C76.332 25.1159 76.2417 25.7224 76.6223 26.0062C76.8165 26.1247 77.0401 26.1862 77.2675 26.1836C78.2352 26.2707 79.4578 25.5127 79.4578 25.5127C79.0803 23.8998 82.4448 22.6676 84.1028 25.1514C84.5899 25.8804 84.4576 26.4095 85.2673 26.7482C85.6479 26.9062 86.1511 26.8611 86.3963 27.1965C86.7995 27.7481 86.0221 28.6836 86.5156 29.1578C86.8543 29.4803 87.622 29.3578 87.6704 29.8255C87.6898 30.0448 87.5479 30.361 87.7575 30.4255C87.8737 30.461 87.9833 30.3545 88.0575 30.2577C88.2591 30.0412 88.4071 29.7805 88.4898 29.4965C88.5291 29.3545 88.5204 29.2034 88.465 29.0669C88.4096 28.9304 88.3105 28.816 88.1833 28.7416C87.9769 28.6481 87.4317 28.7416 87.4672 28.9739C87.3837 28.4623 87.3566 27.9431 87.3866 27.4256C87.4769 26.9933 87.8898 26.6159 87.764 26.1901C87.6382 25.7643 87.093 25.545 86.6253 25.4869C86.1576 25.4288 85.6253 25.3611 85.335 24.9869C85.0447 24.6127 85.1608 23.9676 85.0576 23.4482C84.9713 23.1237 84.8094 22.8241 84.5851 22.5741C84.3608 22.324 84.0806 22.1306 83.7673 22.0096C81.8803 21.1999 78.9868 21.316 78.3449 23.6644Z" fill="#263238"/>
<path d="M83.6581 32.2576L77.2067 35.4995C76.181 36.0135 75.3849 36.8929 74.9753 37.9646C74.5657 39.0363 74.5723 40.2226 74.9938 41.2897L78.097 49.2249C78.5157 50.291 79.3171 51.1626 80.3444 51.6691C81.3717 52.1756 82.551 52.2806 83.6517 51.9636L90.587 49.9636C91.202 49.7872 91.7734 49.4843 92.2645 49.0742C92.7557 48.6642 93.1557 48.156 93.4391 47.5824C93.7224 47.0087 93.8828 46.3822 93.9099 45.7429C93.937 45.1037 93.8303 44.4658 93.5966 43.8702L89.9999 34.7027C89.7681 34.1064 89.4144 33.5651 88.9614 33.1133C88.5084 32.6616 87.9661 32.3094 87.3692 32.0792C86.7722 31.8491 86.1338 31.7461 85.4948 31.7768C84.8558 31.8075 84.2302 31.9713 83.6581 32.2576ZM82.5904 45.8831C82.0753 46.085 81.512 46.1296 80.9715 46.0113C80.4311 45.893 79.9379 45.617 79.5543 45.2184C79.1708 44.8197 78.9141 44.3162 78.8167 43.7717C78.7193 43.2271 78.7856 42.6658 79.0072 42.1589C79.2288 41.652 79.5958 41.2223 80.0617 40.924C80.5276 40.6257 81.0716 40.4723 81.6247 40.4832C82.1778 40.494 82.7153 40.6687 83.1691 40.9851C83.6229 41.3015 83.9727 41.7454 84.1742 42.2606C84.3099 42.6032 84.3766 42.9692 84.3704 43.3377C84.3642 43.7061 84.2852 44.0697 84.138 44.4075C83.9908 44.7454 83.7783 45.0508 83.5128 45.3062C83.2472 45.5616 82.9337 45.7621 82.5904 45.896V45.8831Z" fill="#FC8135"/>
<path d="M83.6581 32.2576L77.2067 35.4995C76.181 36.0135 75.3849 36.8929 74.9753 37.9646C74.5657 39.0363 74.5723 40.2226 74.9938 41.2897L78.097 49.2249C78.5157 50.291 79.3171 51.1626 80.3444 51.6691C81.3717 52.1756 82.551 52.2806 83.6517 51.9636L90.587 49.9636C91.202 49.7872 91.7734 49.4843 92.2645 49.0742C92.7557 48.6642 93.1557 48.156 93.4391 47.5824C93.7224 47.0087 93.8828 46.3822 93.9099 45.7429C93.937 45.1037 93.8303 44.4658 93.5966 43.8702L89.9999 34.7027C89.7681 34.1064 89.4144 33.5651 88.9614 33.1133C88.5084 32.6616 87.9661 32.3094 87.3692 32.0792C86.7722 31.8491 86.1338 31.7461 85.4948 31.7768C84.8558 31.8075 84.2302 31.9713 83.6581 32.2576ZM82.5904 45.8831C82.0753 46.085 81.512 46.1296 80.9715 46.0113C80.4311 45.893 79.9379 45.617 79.5543 45.2184C79.1708 44.8197 78.9141 44.3162 78.8167 43.7717C78.7193 43.2271 78.7856 42.6658 79.0072 42.1589C79.2288 41.652 79.5958 41.2223 80.0617 40.924C80.5276 40.6257 81.0716 40.4723 81.6247 40.4832C82.1778 40.494 82.7153 40.6687 83.1691 40.9851C83.6229 41.3015 83.9727 41.7454 84.1742 42.2606C84.3099 42.6032 84.3766 42.9692 84.3704 43.3377C84.3642 43.7061 84.2852 44.0697 84.138 44.4075C83.9908 44.7454 83.7783 45.0508 83.5128 45.3062C83.2472 45.5616 82.9337 45.7621 82.5904 45.896V45.8831Z" fill="#FC8135"/>
<path opacity="0.1" d="M93.5961 43.8702L89.9994 34.7027C89.7676 34.1064 89.4139 33.5651 88.9609 33.1133C88.5079 32.6616 87.9656 32.3094 87.3687 32.0792C86.7718 31.8491 86.1334 31.7461 85.4943 31.7768C84.8553 31.8075 84.2298 31.9713 83.6577 32.2576L81.7835 33.2254L80.5255 33.8705L77.2094 35.5382C76.1922 36.051 75.4021 36.9237 74.9925 37.9867C74.5829 39.0496 74.5832 40.2269 74.9934 41.2897L78.0965 49.2249C78.5152 50.291 79.3166 51.1626 80.3439 51.6691C81.3712 52.1756 82.5506 52.2806 83.6512 51.9636L90.5897 49.9636C91.1389 49.8053 91.6532 49.5448 92.1058 49.1959C92.4459 48.9397 92.7469 48.6355 92.9994 48.2927C93.4676 47.6676 93.7683 46.9331 93.8727 46.1591C93.9772 45.385 93.8819 44.5971 93.5961 43.8702ZM82.5899 45.8895C82.0751 46.0906 81.5123 46.1346 80.9724 46.016C80.4326 45.8975 79.94 45.6216 79.5569 45.2232C79.1738 44.8249 78.9172 44.322 78.8197 43.778C78.7222 43.2339 78.788 42.6732 79.0089 42.1666C79.2299 41.66 79.5959 41.2302 80.0609 40.9315C80.5259 40.6327 81.069 40.4785 81.6216 40.4882C82.1743 40.4979 82.7116 40.6711 83.1658 40.986C83.6201 41.3009 83.9708 41.7433 84.1738 42.2574C84.31 42.6002 84.377 42.9665 84.3711 43.3353C84.3651 43.7041 84.2862 44.0681 84.139 44.4063C83.9918 44.7445 83.7792 45.0502 83.5133 45.3059C83.2474 45.5615 82.9336 45.7621 82.5899 45.896V45.8895Z" fill="white"/>
<path d="M83.7221 32.8773L77.6739 35.9159C76.7144 36.3977 75.9694 37.2205 75.5851 38.223C75.2008 39.2255 75.2049 40.3355 75.5965 41.3352L78.5158 48.7737C78.906 49.7759 79.6566 50.5963 80.6204 51.0737C81.5842 51.5511 82.6916 51.6512 83.7253 51.3542L90.2284 49.4769C90.8041 49.3109 91.3388 49.0265 91.7984 48.642C92.258 48.2575 92.6322 47.7814 92.8973 47.244C93.1623 46.7066 93.3123 46.1199 93.3377 45.5212C93.363 44.9225 93.2631 44.3252 93.0444 43.7673L89.6735 35.1611C89.4551 34.6024 89.1224 34.0954 88.6968 33.6725C88.2713 33.2496 87.7622 32.9202 87.202 32.7052C86.6419 32.4903 86.0431 32.3946 85.4439 32.4242C84.8447 32.4538 84.2583 32.6082 83.7221 32.8773ZM78.9641 44.3125C78.7625 43.7975 78.7181 43.2343 78.8365 42.6941C78.9549 42.1539 79.2308 41.6609 79.6294 41.2774C80.0279 40.894 80.5312 40.6373 81.0756 40.5399C81.62 40.4425 82.1811 40.5086 82.6879 40.73C83.1947 40.9514 83.6245 41.3181 83.9229 41.7837C84.2213 42.2493 84.375 42.793 84.3645 43.3459C84.354 43.8989 84.1798 44.4363 83.864 44.8902C83.5481 45.3442 83.1047 45.6943 82.5898 45.8963C82.2478 46.031 81.8826 46.0968 81.5151 46.09C81.1476 46.0833 80.7851 46.0041 80.4483 45.8569C80.1114 45.7098 79.807 45.4976 79.5523 45.2326C79.2976 44.9676 79.0978 44.6549 78.9641 44.3125Z" fill="#FC8135"/>
<path opacity="0.1" d="M83.7221 32.8773L77.6739 35.9159C76.7144 36.3977 75.9694 37.2205 75.5851 38.223C75.2008 39.2255 75.2049 40.3355 75.5965 41.3352L78.5158 48.7737C78.906 49.7759 79.6566 50.5963 80.6204 51.0737C81.5842 51.5511 82.6916 51.6512 83.7253 51.3542L90.2284 49.4769C90.8041 49.3109 91.3388 49.0265 91.7984 48.642C92.258 48.2575 92.6322 47.7814 92.8973 47.244C93.1623 46.7066 93.3123 46.1199 93.3377 45.5212C93.363 44.9225 93.2631 44.3252 93.0444 43.7673L89.6735 35.1611C89.4551 34.6024 89.1224 34.0954 88.6968 33.6725C88.2713 33.2496 87.7622 32.9202 87.202 32.7052C86.6419 32.4903 86.0431 32.3946 85.4439 32.4242C84.8447 32.4538 84.2583 32.6082 83.7221 32.8773ZM78.9641 44.3125C78.7625 43.7975 78.7181 43.2343 78.8365 42.6941C78.9549 42.1539 79.2308 41.6609 79.6294 41.2774C80.0279 40.894 80.5312 40.6373 81.0756 40.5399C81.62 40.4425 82.1811 40.5086 82.6879 40.73C83.1947 40.9514 83.6245 41.3181 83.9229 41.7837C84.2213 42.2493 84.375 42.793 84.3645 43.3459C84.354 43.8989 84.1798 44.4363 83.864 44.8902C83.5481 45.3442 83.1047 45.6943 82.5898 45.8963C82.2478 46.031 81.8826 46.0968 81.5151 46.09C81.1476 46.0833 80.7851 46.0041 80.4483 45.8569C80.1114 45.7098 79.807 45.4976 79.5523 45.2326C79.2976 44.9676 79.0978 44.6549 78.9641 44.3125Z" fill="#FC8135"/>
<path d="M113.78 29.9993L113.596 30.3219L113.493 30.509L113.199 31.0412L113.322 32.4057C113.328 32.4634 113.322 32.5219 113.303 32.5767C113.283 32.636 113.25 32.6904 113.207 32.736C113.164 32.7817 113.112 32.8175 113.054 32.8412L110.506 33.8379C110.448 33.8611 110.385 33.8709 110.322 33.8664C110.26 33.8619 110.199 33.8434 110.145 33.8121C110.109 33.7941 110.076 33.7701 110.048 33.7411L108.606 32.2734L106.554 33.0766L106.851 33.8347L104.803 34.6347L105.29 35.883L103.783 36.4733C103.723 36.4967 103.659 36.507 103.594 36.5037C103.53 36.5003 103.467 36.4834 103.409 36.454C103.37 36.4353 103.334 36.4102 103.303 36.3798L102.435 35.5637L100.383 36.3637L100.874 37.612L98.719 38.4572L99.2093 39.7087C99.2286 39.7574 99.2381 39.8095 99.2371 39.8618C99.2362 39.9142 99.2249 39.9658 99.2039 40.0138C99.1829 40.0618 99.1526 40.1051 99.1148 40.1414C99.077 40.1776 99.0324 40.206 98.9835 40.2248L93.0837 42.5345L90.5225 36.0024L111.87 27.6445L112.193 27.8155L113.273 28.3735C113.416 28.4443 113.543 28.5432 113.646 28.6643C113.749 28.7854 113.827 28.9262 113.874 29.0781C113.922 29.2301 113.938 29.3901 113.922 29.5484C113.905 29.7067 113.857 29.8601 113.78 29.9993Z" fill="#FC8135"/>
<g opacity="0.1">
<path d="M113.78 29.9993L113.596 30.3219L113.493 30.509L113.199 31.0412L113.322 32.4057C113.328 32.4634 113.322 32.5219 113.303 32.5767C113.283 32.636 113.25 32.6904 113.207 32.736C113.164 32.7817 113.112 32.8175 113.054 32.8412L110.506 33.8379C110.448 33.8611 110.385 33.8709 110.322 33.8664C110.26 33.8619 110.199 33.8434 110.145 33.8121C110.109 33.7941 110.076 33.7701 110.048 33.7411L108.606 32.2734L106.554 33.0766L106.851 33.8347L104.803 34.6347L105.29 35.883L103.783 36.4733C103.723 36.4967 103.659 36.507 103.594 36.5037C103.53 36.5003 103.467 36.4834 103.409 36.454C103.37 36.4353 103.334 36.4102 103.303 36.3798L102.435 35.5637L100.383 36.3637L100.874 37.612L98.719 38.4572L99.2093 39.7087C99.2286 39.7574 99.2381 39.8095 99.2371 39.8618C99.2362 39.9142 99.2249 39.9658 99.2039 40.0138C99.1829 40.0618 99.1526 40.1051 99.1148 40.1414C99.077 40.1776 99.0324 40.206 98.9835 40.2248L93.0837 42.5345L90.5225 36.0024L111.87 27.6445L112.193 27.8155L113.273 28.3735C113.416 28.4443 113.543 28.5432 113.646 28.6643C113.749 28.7854 113.827 28.9262 113.874 29.0781C113.922 29.2301 113.938 29.3901 113.922 29.5484C113.905 29.7067 113.857 29.8601 113.78 29.9993Z" fill="white"/>
</g>
<path d="M113.696 29.2642L90.8706 38.1994L90.2061 36.5221L111.967 28.0029L113.051 28.5578C113.463 28.7707 113.699 28.9674 113.696 29.2642Z" fill="#FC8135"/>
<path opacity="0.1" d="M113.696 29.2642L90.8706 38.1994L90.2061 36.5221L111.967 28.0029L113.051 28.5578C113.463 28.7707 113.699 28.9674 113.696 29.2642Z" fill="black"/>
<path d="M113.257 30.5221L113.037 31.0189C113.035 31.0274 113.035 31.0362 113.037 31.0447L113.163 32.393C113.171 32.4411 113.171 32.4901 113.163 32.5382C113.161 32.5463 113.157 32.5537 113.151 32.5599C113.146 32.5661 113.139 32.5708 113.131 32.5737L110.36 33.664C110.353 33.6679 110.345 33.67 110.337 33.67C110.329 33.67 110.322 33.6679 110.315 33.664C110.287 33.6474 110.262 33.6267 110.24 33.6027L108.653 32.0092C108.645 32.0036 108.636 32.0006 108.626 32.0006C108.616 32.0006 108.607 32.0036 108.599 32.0092L106.341 32.893C106.328 32.8987 106.318 32.9088 106.313 32.9213C106.308 32.9338 106.307 32.9479 106.312 32.9607L106.579 33.6414C106.582 33.6477 106.583 33.6545 106.583 33.6614C106.583 33.6683 106.582 33.675 106.579 33.6813C106.576 33.6877 106.572 33.6934 106.567 33.6981C106.562 33.7029 106.557 33.7066 106.55 33.7091L104.631 34.4639C104.625 34.4664 104.619 34.4702 104.614 34.4749C104.609 34.4797 104.605 34.4854 104.602 34.4917C104.599 34.498 104.598 34.5048 104.598 34.5117C104.598 34.5185 104.599 34.5253 104.602 34.5317L105.063 35.7026C105.066 35.7089 105.068 35.7158 105.068 35.7228C105.068 35.7298 105.067 35.7368 105.064 35.7432C105.062 35.7496 105.057 35.7554 105.052 35.7601C105.047 35.7648 105.041 35.7683 105.034 35.7704L103.628 36.3252C103.621 36.3291 103.613 36.3312 103.605 36.3312C103.597 36.3312 103.589 36.3291 103.583 36.3252C103.553 36.3084 103.526 36.2878 103.502 36.2639L102.47 35.3155C102.462 35.311 102.453 35.3086 102.444 35.3086C102.435 35.3086 102.426 35.311 102.418 35.3155L100.183 36.1962C100.176 36.1982 100.17 36.2017 100.165 36.2064C100.159 36.2111 100.155 36.2169 100.152 36.2233C100.15 36.2298 100.148 36.2367 100.149 36.2437C100.149 36.2507 100.151 36.2576 100.154 36.2639L100.625 37.4639C100.628 37.4701 100.629 37.477 100.63 37.484C100.63 37.491 100.628 37.498 100.626 37.5044C100.623 37.5109 100.619 37.5166 100.614 37.5213C100.608 37.526 100.602 37.5295 100.596 37.5316L92.0119 40.9089C91.9995 40.9132 91.9859 40.9126 91.9739 40.9072C91.9619 40.9018 91.9524 40.892 91.9474 40.8799L91.0635 38.709C91.0591 38.6961 91.0596 38.682 91.065 38.6695C91.0703 38.657 91.0802 38.6469 91.0926 38.6412L113.46 29.8383C113.469 29.8346 113.48 29.834 113.49 29.8364C113.5 29.8388 113.509 29.8442 113.516 29.8519C113.523 29.8595 113.527 29.8691 113.529 29.8793C113.53 29.8895 113.529 29.8999 113.524 29.9092L113.257 30.5221Z" fill="#FC8135"/>
<path opacity="0.1" d="M113.257 30.5221L113.037 31.0189C113.035 31.0274 113.035 31.0362 113.037 31.0447L113.163 32.393C113.171 32.4411 113.171 32.4901 113.163 32.5382C113.161 32.5463 113.157 32.5537 113.151 32.5599C113.146 32.5661 113.139 32.5708 113.131 32.5737L110.36 33.664C110.353 33.6679 110.345 33.67 110.337 33.67C110.329 33.67 110.322 33.6679 110.315 33.664C110.287 33.6474 110.262 33.6267 110.24 33.6027L108.653 32.0092C108.645 32.0036 108.636 32.0006 108.626 32.0006C108.616 32.0006 108.607 32.0036 108.599 32.0092L106.341 32.893C106.328 32.8987 106.318 32.9088 106.313 32.9213C106.308 32.9338 106.307 32.9479 106.312 32.9607L106.579 33.6414C106.582 33.6477 106.583 33.6545 106.583 33.6614C106.583 33.6683 106.582 33.675 106.579 33.6813C106.576 33.6877 106.572 33.6934 106.567 33.6981C106.562 33.7029 106.557 33.7066 106.55 33.7091L104.631 34.4639C104.625 34.4664 104.619 34.4702 104.614 34.4749C104.609 34.4797 104.605 34.4854 104.602 34.4917C104.599 34.498 104.598 34.5048 104.598 34.5117C104.598 34.5185 104.599 34.5253 104.602 34.5317L105.063 35.7026C105.066 35.7089 105.068 35.7158 105.068 35.7228C105.068 35.7298 105.067 35.7368 105.064 35.7432C105.062 35.7496 105.057 35.7554 105.052 35.7601C105.047 35.7648 105.041 35.7683 105.034 35.7704L103.628 36.3252C103.621 36.3291 103.613 36.3312 103.605 36.3312C103.597 36.3312 103.589 36.3291 103.583 36.3252C103.553 36.3084 103.526 36.2878 103.502 36.2639L102.47 35.3155C102.462 35.311 102.453 35.3086 102.444 35.3086C102.435 35.3086 102.426 35.311 102.418 35.3155L100.183 36.1962C100.176 36.1982 100.17 36.2017 100.165 36.2064C100.159 36.2111 100.155 36.2169 100.152 36.2233C100.15 36.2298 100.148 36.2367 100.149 36.2437C100.149 36.2507 100.151 36.2576 100.154 36.2639L100.625 37.4639C100.628 37.4701 100.629 37.477 100.63 37.484C100.63 37.491 100.628 37.498 100.626 37.5044C100.623 37.5109 100.619 37.5166 100.614 37.5213C100.608 37.526 100.602 37.5295 100.596 37.5316L92.0119 40.9089C91.9995 40.9132 91.9859 40.9126 91.9739 40.9072C91.9619 40.9018 91.9524 40.892 91.9474 40.8799L91.0635 38.709C91.0591 38.6961 91.0596 38.682 91.065 38.6695C91.0703 38.657 91.0802 38.6469 91.0926 38.6412L113.46 29.8383C113.469 29.8346 113.48 29.834 113.49 29.8364C113.5 29.8388 113.509 29.8442 113.516 29.8519C113.523 29.8595 113.527 29.8691 113.529 29.8793C113.53 29.8895 113.529 29.8999 113.524 29.9092L113.257 30.5221Z" fill="black"/>
<path opacity="0.3" d="M80.3772 39.9998C79.732 40.2533 79.1765 40.6924 78.7808 41.2616C78.385 41.8307 78.1669 42.5044 78.1539 43.1975C78.141 43.8906 78.3337 44.572 78.7078 45.1556C79.082 45.7392 79.6207 46.1988 80.2559 46.4763C80.8912 46.7538 81.5944 46.8368 82.2768 46.7148C82.9592 46.5928 83.5901 46.2712 84.0898 45.7908C84.5896 45.3103 84.9356 44.6926 85.0844 44.0155C85.2331 43.3384 85.1778 42.6325 84.9255 41.9868C84.7584 41.5569 84.5079 41.1642 84.1886 40.8314C83.8692 40.4986 83.4872 40.2323 83.0645 40.0476C82.6418 39.8629 82.1868 39.7636 81.7256 39.7554C81.2644 39.7472 80.8062 39.8303 80.3772 39.9998ZM82.5901 45.9028C82.075 46.1047 81.5116 46.1494 80.9712 46.031C80.4308 45.9127 79.9376 45.6368 79.554 45.2381C79.1704 44.8395 78.9137 44.336 78.8163 43.7914C78.7189 43.2468 78.7852 42.6856 79.0068 42.1787C79.2285 41.6718 79.5955 41.242 80.0614 40.9437C80.5273 40.6454 81.0712 40.492 81.6243 40.5029C82.1775 40.5138 82.7149 40.6885 83.1688 41.0049C83.6226 41.3212 83.9724 41.7651 84.1739 42.2803C84.4419 42.97 84.4257 43.7378 84.1289 44.4155C83.832 45.0933 83.2787 45.6257 82.5901 45.8964V45.9028Z" fill="white"/>
<path opacity="0.1" d="M93.0028 48.2896C92.7515 48.6323 92.4515 48.9365 92.1125 49.1928L80.5225 33.8416C80.5225 33.8416 81.545 33.3287 81.7773 33.1738C81.7791 33.1909 81.7846 33.2074 81.7934 33.2222C82.2902 34.2964 91.3996 46.1283 93.0028 48.2896Z" fill="white"/>
<path opacity="0.1" d="M91.3218 49.6768C91.2508 49.7091 87.8735 50.7381 87.8735 50.7381L84.1091 45.7543C84.6771 45.1866 85.0331 44.441 85.1174 43.6424C85.2017 42.8437 85.0092 42.0402 84.5722 41.3664C84.1352 40.6926 83.4801 40.1892 82.7165 39.9404C81.9529 39.6916 81.127 39.7126 80.3769 39.9997C80.2212 40.0579 80.0711 40.1303 79.9286 40.2158L76.5996 35.8062C76.5996 35.8062 79.5253 34.4127 79.8479 34.1934C79.935 34.8159 91.3218 49.5478 91.3218 49.6768Z" fill="white"/>
<path d="M77.5131 25.4642C77.3239 25.6888 77.1887 25.9538 77.118 26.2388C77.0473 26.5238 77.0429 26.8213 77.1052 27.1083C77.1676 27.3952 77.2949 27.6641 77.4775 27.8941C77.66 28.1241 77.8929 28.3092 78.1583 28.4351C78.4357 28.5641 78.7389 28.6254 79.0099 28.7576C79.1513 28.8147 79.2762 28.9063 79.3731 29.0241C79.47 29.1419 79.5359 29.282 79.5647 29.4318C79.597 29.7544 79.3486 30.077 79.3744 30.3995C79.4021 30.5506 79.4608 30.6942 79.5469 30.8213C79.6329 30.9485 79.7445 31.0564 79.8744 31.1382C80.1356 31.3015 80.3562 31.5221 80.5195 31.7834C80.5562 31.8497 80.5788 31.9229 80.5859 31.9984C80.5931 32.0739 80.5846 32.15 80.5609 32.222C80.5373 32.2941 80.4991 32.3605 80.4487 32.4171C80.3983 32.4737 80.3367 32.5193 80.2679 32.5511C80.2331 32.6126 80.2149 32.682 80.2149 32.7527C80.2149 32.8234 80.2331 32.8928 80.2679 32.9543C80.3093 32.9962 80.3635 33.0231 80.422 33.0307C80.4804 33.0383 80.5397 33.0262 80.5905 32.9962C80.8198 32.8529 81.0102 32.6551 81.1447 32.4204C81.2792 32.1857 81.3537 31.9215 81.3614 31.6511C81.3584 31.3832 81.2799 31.1216 81.135 30.8962C80.9901 30.6709 80.7846 30.4909 80.5421 30.377C80.5114 30.2804 80.5004 30.1787 80.5098 30.0778C80.5192 29.977 80.5489 29.879 80.5969 29.7899C80.7421 29.4221 80.8905 29.0512 81.0388 28.6834C81.0627 28.5932 81.0666 28.4989 81.0505 28.4071C81.0343 28.3152 80.9985 28.2279 80.9453 28.1512C80.8353 28.0405 80.7019 27.9556 80.555 27.9028L79.6034 27.4964C79.2453 27.3416 78.1776 25.9158 79.4421 25.4997C79.3661 25.3383 79.2469 25.201 79.0978 25.1031C78.9486 25.0052 78.7753 24.9504 78.597 24.9448C78.3874 24.9347 78.1786 24.9768 77.9894 25.0675C77.8002 25.1582 77.6365 25.2945 77.5131 25.4642Z" fill="#263238"/>
<path d="M79.2384 23.9292L79.1416 25.0549C79.4642 24.5388 80.0416 23.5356 80.0222 23.5743C79.7738 23.7098 79.4867 23.7937 79.2384 23.9292Z" fill="#263238"/>
<path d="M79.6641 24.5454L80.9866 23.3229C80.8145 23.2632 80.629 23.2534 80.4516 23.2945C80.2741 23.3356 80.1118 23.4259 79.9834 23.5551C79.9931 23.5261 79.7866 24.1519 79.6641 24.5454Z" fill="#263238"/>
<path d="M76.9776 55.0631C75.2583 57.1985 75.8292 58.834 73.4551 62.6145C76.4518 64.8338 79.7356 65.1951 83.8161 64.8725C84.3 64.0177 84.5419 63.1274 85.0257 62.2726C85.716 63.1306 86.2709 63.85 86.9612 64.7112C89.0998 64.3887 91.6417 63.7726 93.332 62.6823C91.8385 60.9694 90.9095 58.8308 89.9546 56.9437C89.5063 56.0566 89.6934 55.6857 88.5031 54.5244C84.7128 54.6986 80.9549 54.7889 77.1679 54.9663C77.2711 54.9825 76.8776 55.0567 76.9776 55.0631Z" fill="#263238"/>
<path d="M77.4511 54.7051L77.2156 55.7018C77.1801 55.7825 77.2737 55.8567 77.3995 55.847L87.8476 55.3857C87.8874 55.3905 87.9275 55.3812 87.9612 55.3594C87.9948 55.3376 88.0196 55.3047 88.0314 55.2664L88.0863 54.2761C88.0863 54.2116 87.9992 54.1535 87.8895 54.1632L77.6285 54.6148C77.5937 54.6133 77.559 54.6209 77.528 54.6367C77.4969 54.6525 77.4704 54.6761 77.4511 54.7051Z" fill="#FC8135"/>
<path d="M77.4511 54.7051L77.2156 55.7018C77.1801 55.7825 77.2737 55.8567 77.3995 55.847L87.8476 55.3857C87.8874 55.3905 87.9275 55.3812 87.9612 55.3594C87.9948 55.3376 88.0196 55.3047 88.0314 55.2664L88.0863 54.2761C88.0863 54.2116 87.9992 54.1535 87.8895 54.1632L77.6285 54.6148C77.5937 54.6133 77.559 54.6209 77.528 54.6367C77.4969 54.6525 77.4704 54.6761 77.4511 54.7051Z" fill="#FC8135"/>
<path d="M79.7513 55.8508H79.4481C79.39 55.8508 79.3417 55.825 79.3449 55.7895L79.4255 54.4992C79.4255 54.4605 79.4804 54.4282 79.5384 54.4282L79.8449 54.4121C79.8997 54.4121 79.9481 54.4379 79.9449 54.4766L79.8642 55.7669C79.861 55.8056 79.8094 55.8476 79.7513 55.8508Z" fill="#263238"/>
<path d="M87.2933 55.5244H86.9901C86.932 55.5244 86.8836 55.4986 86.8869 55.4631L86.9675 54.1728C86.9675 54.1341 87.0224 54.0986 87.0804 54.0986H87.3836C87.4417 54.0986 87.4869 54.1244 87.4836 54.1599L87.403 55.4502C87.403 55.4825 87.3546 55.5212 87.2933 55.5244Z" fill="#263238"/>
<path d="M81.0996 49.586C81.119 49.6795 81.9286 50.9698 82.5673 50.8763C82.6581 50.8638 82.7507 50.8753 82.8356 50.9099C82.9205 50.9444 82.9949 51.0007 83.0512 51.0731C83.306 51.3956 83.4608 51.5956 83.6318 51.815C83.7673 51.9881 83.9578 52.1099 84.1718 52.1603C84.3858 52.2107 84.6106 52.1868 84.8092 52.0924C84.9285 52.0376 85.0479 51.9763 85.1672 51.9117C85.3599 51.811 85.5131 51.6484 85.602 51.45C85.691 51.2516 85.7105 51.0291 85.6576 50.8182C85.5392 50.3426 85.3558 49.8856 85.1124 49.4602C85.0405 49.3087 84.9291 49.1795 84.7898 49.086C84.1194 48.8295 83.4174 48.6646 82.7028 48.5957C82.1544 48.6183 81.619 49.3538 81.0996 49.586Z" fill="#E8BFBF"/>
<path d="M82.7348 48.5573C82.7348 48.5573 74.1608 45.9606 72.3092 47.6895C71.2222 48.7056 71.7351 49.6669 72.3447 50.2701C72.7963 50.7314 73.7802 50.6185 74.4253 50.5927L81.18 49.9282L82.7348 48.5573Z" fill="#E8BFBF"/>
<path d="M77.8061 47.3704C77.7676 47.1396 77.6722 46.922 77.5286 46.7373C77.385 46.5526 77.1977 46.4066 76.9835 46.3123C76.5541 46.1304 76.0973 46.0214 75.632 45.9897L72.4062 45.5801C71.8266 46.295 71.5009 47.1824 71.4805 48.1026C71.5033 48.9925 71.8287 49.8481 72.403 50.5283C72.9191 49.5316 73.5998 48.5058 74.6062 48.009C75.6126 47.5123 76.7029 47.1704 77.8061 47.3704Z" fill="#263238"/>
<path opacity="0.1" d="M75.5967 31.7091C75.5967 31.6898 75.5967 31.6801 75.5967 31.6769C75.6644 31.6575 75.6547 31.6704 75.5967 31.7091Z" fill="white"/>
<path d="M96.9004 17.8248L99.2874 22.2569L109.036 13.9797C109.053 13.9648 109.063 13.9441 109.066 13.9216C109.068 13.8991 109.062 13.8765 109.049 13.8582C109.036 13.8399 109.016 13.8274 108.994 13.823C108.971 13.8186 108.948 13.8227 108.929 13.8346L99.7906 19.8667L98.3842 17.1183L96.9004 17.8248Z" fill="#FC8135"/>
<path d="M91.5137 26.6539L95.4555 22.2573C94.8646 21.682 94.393 20.9958 94.0675 20.2381C93.7421 19.4804 93.5692 18.6659 93.5588 17.8413C93.5588 13.7833 97.8038 10.4834 103.023 10.4834C108.242 10.4834 112.491 13.7833 112.491 17.8413C112.491 21.8992 108.242 25.1959 103.023 25.1959C101.186 25.2117 99.373 24.7811 97.7393 23.9411L91.5137 26.6539ZM103.023 10.9092C98.0361 10.9092 93.991 14.022 93.991 17.8477C94.0042 18.6506 94.1805 19.4424 94.5094 20.175C94.8382 20.9075 95.3127 21.5655 95.9039 22.1089L96.0458 22.2476L93.1265 25.5024L97.7748 23.4831L97.8651 23.5314C99.4561 24.3675 101.229 24.7975 103.026 24.783C108.016 24.783 112.074 21.6734 112.074 17.8477C112.074 14.022 108.013 10.9092 103.023 10.9092Z" fill="#FC8135"/>
</svg>
