<svg width="162" height="120" viewBox="0 0 162 120" fill="none" xmlns="http://www.w3.org/2000/svg">
<path d="M161.524 105.454H0.476074V105.535H161.524V105.454Z" fill="#EBEBEB"/>
<path d="M28.0409 108.521H17.373V108.601H28.0409V108.521Z" fill="#EBEBEB"/>
<path d="M70.6576 107.648H55.5996V107.728H70.6576V107.648Z" fill="#EBEBEB"/>
<path d="M42.9896 111.01H36.8086V111.091H42.9896V111.01Z" fill="#EBEBEB"/>
<path d="M110.807 109.612H101.076V109.693H110.807V109.612Z" fill="#EBEBEB"/>
<path d="M119.896 109.612H113.673V109.693H119.896V109.612Z" fill="#EBEBEB"/>
<path d="M145.39 110.972H126.528V111.052H145.39V110.972Z" fill="#EBEBEB"/>
<path d="M76.8126 91.0887H14.6191C14.1319 91.0878 13.665 90.8937 13.3207 90.5489C12.9765 90.204 12.7832 89.7367 12.7832 89.2495V1.82306C12.7874 1.33864 12.9826 0.875449 13.3264 0.534105C13.6702 0.192761 14.1347 0.000829844 14.6191 0H76.8126C77.3004 0 77.7682 0.193769 78.1131 0.53868C78.458 0.88359 78.6518 1.35139 78.6518 1.83917V89.2495C78.6518 89.7373 78.458 90.2051 78.1131 90.55C77.7682 90.8949 77.3004 91.0887 76.8126 91.0887ZM14.6191 0.0644194C14.1533 0.0652726 13.7068 0.250934 13.3777 0.580651C13.0486 0.910368 12.8637 1.3572 12.8637 1.82306V89.2495C12.8637 89.7154 13.0486 90.1622 13.3777 90.4919C13.7068 90.8216 14.1533 91.0073 14.6191 91.0081H76.8126C77.2788 91.0073 77.7256 90.8217 78.0552 90.4921C78.3848 90.1625 78.5704 89.7157 78.5713 89.2495V1.82306C78.5704 1.3569 78.3848 0.910079 78.0552 0.580454C77.7256 0.250829 77.2788 0.0652708 76.8126 0.0644194H14.6191Z" fill="#EBEBEB"/>
<path d="M146.485 91.0887H84.2884C83.8009 91.0878 83.3336 90.8938 82.9888 90.5491C82.6441 90.2043 82.4501 89.737 82.4492 89.2495V1.82306C82.4543 1.33834 82.6502 0.875159 82.9945 0.533904C83.3388 0.192648 83.8036 0.000820793 84.2884 0H146.485C146.969 0.00167635 147.433 0.193982 147.776 0.535236C148.119 0.876489 148.314 1.33919 148.318 1.82306V89.2495C148.318 89.7362 148.125 90.203 147.781 90.5477C147.438 90.8924 146.972 91.087 146.485 91.0887ZM84.2884 0.0644194C83.8222 0.0652708 83.3754 0.250829 83.0458 0.580454C82.7162 0.910079 82.5306 1.3569 82.5297 1.82306V89.2495C82.5306 89.7157 82.7162 90.1625 83.0458 90.4921C83.3754 90.8217 83.8222 91.0073 84.2884 91.0081H146.485C146.951 91.0073 147.398 90.8217 147.728 90.4921C148.057 90.1625 148.243 89.7157 148.244 89.2495V1.82306C148.243 1.3569 148.057 0.910079 147.728 0.580454C147.398 0.250829 146.951 0.0652708 146.485 0.0644194H84.2884Z" fill="#EBEBEB"/>
<path d="M29.3071 61.2691L105.943 61.2691V13.3122L29.3071 13.3122V61.2691Z" fill="#F0F0F0"/>
<path d="M104.442 59.0144V15.5669L30.8048 15.5669V59.0144L104.442 59.0144Z" fill="#FAFAFA"/>
<path d="M94.7504 59.0144L87.194 15.5669H81.625L89.1781 59.0144H94.7504Z" fill="white"/>
<path d="M87.893 59.0144L80.3399 15.5669H77.8501L85.4032 59.0144H87.893Z" fill="white"/>
<path d="M75.7047 59.0144L68.1516 15.5669H62.5825L70.1357 59.0144H75.7047Z" fill="white"/>
<path d="M61.6648 59.0144L54.1085 15.5669H51.6187L59.1718 59.0144H61.6648Z" fill="white"/>
<path d="M85.0938 59.0144V15.5669H84.7137V59.0144H85.0938Z" fill="#E0E0E0"/>
<path d="M104.442 59.0176V15.5701H104.062V59.0176H104.442Z" fill="#E0E0E0"/>
<path d="M86.5947 59.0144V15.5669H85.0938V59.0144H86.5947Z" fill="#F0F0F0"/>
<path d="M66.5059 59.0144V15.5669H66.1258V59.0144H66.5059Z" fill="#E0E0E0"/>
<path d="M68.0034 59.0144V15.5669H66.5025V59.0144H68.0034Z" fill="#F0F0F0"/>
<path d="M47.9048 59.0144V15.5669H47.5247V59.0144H47.9048Z" fill="#E0E0E0"/>
<path d="M49.4058 59.0176V15.5701H47.9048V59.0176H49.4058Z" fill="#F0F0F0"/>
<path d="M29.3037 61.2691L29.3037 13.3122H28.9236L28.9236 61.2691H29.3037Z" fill="#E0E0E0"/>
<path d="M21.5188 10.0204H109.345C109.477 10.0204 109.605 9.96793 109.699 9.8744C109.793 9.78086 109.846 9.65388 109.847 9.52118C109.847 9.38791 109.794 9.26011 109.7 9.16588C109.606 9.07165 109.478 9.01871 109.345 9.01871H21.5188C21.3861 9.01956 21.2591 9.07287 21.1656 9.16701C21.072 9.26115 21.0195 9.38847 21.0195 9.52118C21.0204 9.65332 21.0732 9.77982 21.1667 9.87327C21.2601 9.96671 21.3866 10.0196 21.5188 10.0204Z" fill="#E0E0E0"/>
<g opacity="0.6">
<path d="M74.7932 95.5561H108.117L108.117 8.05234H74.7932L74.7932 95.5561Z" fill="#F5F5F5"/>
<path d="M95.0562 96.2711H97.8487L97.066 8.76738H95.8163L95.0562 96.2711Z" fill="#E6E6E6"/>
<path d="M101.218 96.2711H102.568L102.188 8.76738H101.585L101.218 96.2711Z" fill="#E6E6E6"/>
<path d="M86.9585 96.2711H88.3049L87.928 8.76738H87.3257L86.9585 96.2711Z" fill="#E6E6E6"/>
<path d="M80.0981 96.2711H81.4445L81.0677 8.76738H80.4653L80.0981 96.2711Z" fill="#E6E6E6"/>
</g>
<g opacity="0.6">
<path d="M23.2389 95.5561H39.9009L39.9009 8.05234H23.2389L23.2389 95.5561Z" fill="#F5F5F5"/>
<path d="M33.3716 96.2711H34.7663L34.3765 8.76738H33.7517L33.3716 96.2711Z" fill="#E6E6E6"/>
<path d="M36.4507 96.2711H37.1239L36.937 8.76738H36.6343L36.4507 96.2711Z" fill="#E6E6E6"/>
<path d="M29.3232 96.2711H29.9964L29.8064 8.76738H29.5068L29.3232 96.2711Z" fill="#E6E6E6"/>
<path d="M25.8926 96.2711H26.5658L26.3757 8.76738H26.073L25.8926 96.2711Z" fill="#E6E6E6"/>
</g>
<path d="M138.89 21.5804H116.785V49.1712H138.89V21.5804Z" fill="#E6E6E6"/>
<path d="M139.863 21.5804H117.117V49.1712H139.863V21.5804Z" fill="#F5F5F5"/>
<path d="M138.121 47.2128V23.5388H118.862V47.2128H138.121Z" fill="#FAFAFA"/>
<path d="M138.121 47.2128V23.5388H137.94V47.2128H138.121Z" fill="#E6E6E6"/>
<path d="M134.861 33.8202C135.948 32.7334 135.948 30.9713 134.861 29.8845C133.775 28.7977 132.013 28.7977 130.926 29.8845C129.839 30.9713 129.839 32.7334 130.926 33.8202C132.013 34.9069 133.775 34.9069 134.861 33.8202Z" fill="#F0F0F0"/>
<path d="M132.448 40.0259C134.657 37.8171 134.657 34.2359 132.448 32.0271C130.239 29.8183 126.658 29.8183 124.449 32.0271C122.24 34.2359 122.24 37.8171 124.449 40.0259C126.658 42.2347 130.239 42.2347 132.448 40.0259Z" fill="white"/>
<path d="M126.977 32.4874C127.33 30.9916 126.404 29.4927 124.908 29.1397C123.412 28.7866 121.913 29.7131 121.56 31.2089C121.207 32.7048 122.134 34.2036 123.629 34.5567C125.125 34.9097 126.624 33.9833 126.977 32.4874Z" fill="#F0F0F0"/>
<path d="M116.128 72.5875H113.106V103.386H116.128V72.5875Z" fill="#F0F0F0"/>
<path d="M144.524 70.7451H112.372V72.5875H144.524V70.7451Z" fill="#F0F0F0"/>
<path d="M142.556 103.386H114.337V105.454H142.556V103.386Z" fill="#F0F0F0"/>
<path d="M143.79 72.5875H116.128V103.386H143.79V72.5875Z" fill="#FAFAFA"/>
<path d="M118.646 85.4681H141.267V76.0178H118.646V85.4681Z" fill="#F0F0F0"/>
<path d="M118.646 99.3665H141.267V89.9162H118.646V99.3665Z" fill="#F0F0F0"/>
<path d="M132.535 75.4606H127.379C127.055 75.4606 126.792 75.7231 126.792 76.0468V76.3432C126.792 76.6669 127.055 76.9294 127.379 76.9294H132.535C132.859 76.9294 133.122 76.6669 133.122 76.3432V76.0468C133.122 75.7231 132.859 75.4606 132.535 75.4606Z" fill="#FAFAFA"/>
<path d="M132.535 89.3622H127.379C127.055 89.3622 126.792 89.6247 126.792 89.9485V90.2448C126.792 90.5685 127.055 90.831 127.379 90.831H132.535C132.859 90.831 133.122 90.5685 133.122 90.2448V89.9485C133.122 89.6247 132.859 89.3622 132.535 89.3622Z" fill="#FAFAFA"/>
<path d="M62.1801 105.361C65.9658 104.747 68.5366 101.179 67.9221 97.3938C67.3076 93.608 63.7405 91.0373 59.9548 91.6518C56.169 92.2663 53.5983 95.8334 54.2128 99.6191C54.8273 103.405 58.3944 105.976 62.1801 105.361Z" fill="#EBEBEB"/>
<path d="M51.7882 105.341C56.5134 104.574 59.7221 100.121 58.9551 95.3963C58.1881 90.6712 53.7358 87.4625 49.0107 88.2295C44.2856 88.9965 41.0769 93.4487 41.8439 98.1739C42.6108 102.899 47.0631 106.108 51.7882 105.341Z" fill="#F5F5F5"/>
<path d="M81 120C115.491 120 143.451 118.368 143.451 116.354C143.451 114.34 115.491 112.708 81 112.708C46.5092 112.708 18.5488 114.34 18.5488 116.354C18.5488 118.368 46.5092 120 81 120Z" fill="#F5F5F5"/>
<path d="M41.2563 45.9115C39.1273 45.9115 38.1256 43.7696 38.0837 43.6794C38.0472 43.5791 38.0498 43.4688 38.0909 43.3704C38.132 43.2719 38.2086 43.1925 38.3055 43.1479C38.4024 43.1033 38.5126 43.0968 38.6141 43.1296C38.7156 43.1624 38.801 43.2322 38.8535 43.3251C38.8535 43.3541 39.7006 45.1095 41.3208 45.0644C41.4273 45.0704 41.5276 45.1162 41.6019 45.1928C41.6762 45.2693 41.719 45.371 41.7218 45.4776C41.7247 45.5842 41.6873 45.688 41.6172 45.7684C41.5471 45.8488 41.4493 45.8999 41.3433 45.9115H41.2563Z" fill="#FC8135"/>
<path d="M69.0826 16.166C68.8973 16.1668 68.7122 16.155 68.5286 16.1306C68.4736 16.1223 68.4208 16.1033 68.3731 16.0747C68.3255 16.046 68.2839 16.0082 68.2509 15.9635C68.2178 15.9188 68.1939 15.868 68.1805 15.8141C68.1671 15.7601 68.1644 15.704 68.1727 15.6491C68.1809 15.5941 68.1999 15.5412 68.2286 15.4936C68.2572 15.446 68.295 15.4044 68.3397 15.3714C68.3844 15.3383 68.4352 15.3144 68.4892 15.301C68.5431 15.2876 68.5992 15.2849 68.6542 15.2931C68.6735 15.2931 70.6125 15.5669 71.4629 14.1851C71.4918 14.1378 71.5299 14.0966 71.5748 14.0639C71.6197 14.0312 71.6705 14.0077 71.7245 13.9947C71.7785 13.9817 71.8345 13.9794 71.8894 13.988C71.9443 13.9967 71.9969 14.016 72.0442 14.045C72.0916 14.074 72.1328 14.112 72.1655 14.1569C72.1982 14.2018 72.2217 14.2527 72.2347 14.3067C72.2477 14.3607 72.25 14.4167 72.2413 14.4716C72.2327 14.5264 72.2133 14.579 72.1844 14.6264C71.3372 15.9663 69.8717 16.166 69.0826 16.166Z" fill="#FC8135"/>
<path opacity="0.6" d="M69.0826 16.166C68.8973 16.1668 68.7122 16.155 68.5286 16.1306C68.4736 16.1223 68.4208 16.1033 68.3731 16.0747C68.3255 16.046 68.2839 16.0082 68.2509 15.9635C68.2178 15.9188 68.1939 15.868 68.1805 15.8141C68.1671 15.7601 68.1644 15.704 68.1727 15.6491C68.1809 15.5941 68.1999 15.5412 68.2286 15.4936C68.2572 15.446 68.295 15.4044 68.3397 15.3714C68.3844 15.3383 68.4352 15.3144 68.4892 15.301C68.5431 15.2876 68.5992 15.2849 68.6542 15.2931C68.6735 15.2931 70.6125 15.5669 71.4629 14.1851C71.4918 14.1378 71.5299 14.0966 71.5748 14.0639C71.6197 14.0312 71.6705 14.0077 71.7245 13.9947C71.7785 13.9817 71.8345 13.9794 71.8894 13.988C71.9443 13.9967 71.9969 14.016 72.0442 14.045C72.0916 14.074 72.1328 14.112 72.1655 14.1569C72.1982 14.2018 72.2217 14.2527 72.2347 14.3067C72.2477 14.3607 72.25 14.4167 72.2413 14.4716C72.2327 14.5264 72.2133 14.579 72.1844 14.6264C71.3372 15.9663 69.8717 16.166 69.0826 16.166Z" fill="white"/>
<path d="M21.2835 32.2966C20.4663 32.2688 19.6727 32.0157 18.9902 31.5654C18.942 31.5346 18.9007 31.4943 18.8686 31.4469C18.8365 31.3996 18.8144 31.3462 18.8035 31.2901C18.7927 31.2339 18.7934 31.1762 18.8056 31.1203C18.8178 31.0644 18.8412 31.0116 18.8744 30.9651C18.9076 30.9185 18.9499 30.8792 18.9988 30.8495C19.0477 30.8198 19.1021 30.8004 19.1587 30.7924C19.2153 30.7844 19.273 30.7879 19.3282 30.8029C19.3834 30.8178 19.4349 30.8439 19.4798 30.8794C19.4959 30.8794 21.1192 31.9777 22.4882 31.1048C22.535 31.0707 22.5884 31.0466 22.645 31.0339C22.7015 31.0212 22.7601 31.0201 22.817 31.0309C22.874 31.0416 22.9282 31.0639 22.9762 31.0964C23.0242 31.1288 23.0651 31.1708 23.0964 31.2196C23.1276 31.2684 23.1485 31.3231 23.1578 31.3803C23.1672 31.4376 23.1647 31.4961 23.1506 31.5523C23.1364 31.6085 23.111 31.6613 23.0757 31.7073C23.0404 31.7533 22.9961 31.7916 22.9455 31.8199C22.4493 32.1363 21.872 32.3019 21.2835 32.2966Z" fill="#FC8135"/>
<path opacity="0.6" d="M21.2835 32.2966C20.4663 32.2688 19.6727 32.0157 18.9902 31.5654C18.942 31.5346 18.9007 31.4943 18.8686 31.4469C18.8365 31.3996 18.8144 31.3462 18.8035 31.2901C18.7927 31.2339 18.7934 31.1762 18.8056 31.1203C18.8178 31.0644 18.8412 31.0116 18.8744 30.9651C18.9076 30.9185 18.9499 30.8792 18.9988 30.8495C19.0477 30.8198 19.1021 30.8004 19.1587 30.7924C19.2153 30.7844 19.273 30.7879 19.3282 30.8029C19.3834 30.8178 19.4349 30.8439 19.4798 30.8794C19.4959 30.8794 21.1192 31.9777 22.4882 31.1048C22.535 31.0707 22.5884 31.0466 22.645 31.0339C22.7015 31.0212 22.7601 31.0201 22.817 31.0309C22.874 31.0416 22.9282 31.0639 22.9762 31.0964C23.0242 31.1288 23.0651 31.1708 23.0964 31.2196C23.1276 31.2684 23.1485 31.3231 23.1578 31.3803C23.1672 31.4376 23.1647 31.4961 23.1506 31.5523C23.1364 31.6085 23.111 31.6613 23.0757 31.7073C23.0404 31.7533 22.9961 31.7916 22.9455 31.8199C22.4493 32.1363 21.872 32.3019 21.2835 32.2966Z" fill="white"/>
<path d="M131.772 21.0006C130.956 20.9786 130.162 20.7336 129.476 20.292C129.383 20.2284 129.32 20.1307 129.3 20.0205C129.28 19.9102 129.304 19.7965 129.368 19.7042C129.431 19.6119 129.529 19.5487 129.639 19.5285C129.75 19.5083 129.863 19.5327 129.956 19.5963C129.972 19.5963 131.598 20.6914 132.967 19.8218C133.014 19.7919 133.066 19.7716 133.121 19.762C133.175 19.7523 133.231 19.7535 133.285 19.7654C133.339 19.7774 133.391 19.7999 133.436 19.8317C133.482 19.8635 133.52 19.9039 133.55 19.9506C133.58 19.9973 133.6 20.0495 133.61 20.1041C133.62 20.1587 133.618 20.2146 133.606 20.2688C133.594 20.3229 133.572 20.3742 133.54 20.4196C133.508 20.465 133.468 20.5038 133.421 20.5336C132.928 20.8459 132.356 21.0082 131.772 21.0006Z" fill="#FC8135"/>
<path opacity="0.6" d="M131.772 21.0006C130.956 20.9786 130.162 20.7336 129.476 20.292C129.383 20.2284 129.32 20.1307 129.3 20.0205C129.28 19.9102 129.304 19.7965 129.368 19.7042C129.431 19.6119 129.529 19.5487 129.639 19.5285C129.75 19.5083 129.863 19.5327 129.956 19.5963C129.972 19.5963 131.598 20.6914 132.967 19.8218C133.014 19.7919 133.066 19.7716 133.121 19.762C133.175 19.7523 133.231 19.7535 133.285 19.7654C133.339 19.7774 133.391 19.7999 133.436 19.8317C133.482 19.8635 133.52 19.9039 133.55 19.9506C133.58 19.9973 133.6 20.0495 133.61 20.1041C133.62 20.1587 133.618 20.2146 133.606 20.2688C133.594 20.3229 133.572 20.3742 133.54 20.4196C133.508 20.465 133.468 20.5038 133.421 20.5336C132.928 20.8459 132.356 21.0082 131.772 21.0006Z" fill="white"/>
<path d="M79.9726 54.2699C77.9981 54.2699 76.9223 52.3567 76.874 52.2697C76.8198 52.1714 76.8068 52.0557 76.8379 51.9479C76.869 51.84 76.9416 51.749 77.0399 51.6947C77.1381 51.6405 77.2539 51.6275 77.3617 51.6586C77.4695 51.6897 77.5606 51.7624 77.6148 51.8606C77.6148 51.8864 78.5811 53.5742 80.1916 53.4099C80.2993 53.4062 80.4044 53.4435 80.4856 53.5143C80.5668 53.5851 80.6182 53.6841 80.6292 53.7912C80.6403 53.8984 80.6102 54.0058 80.5451 54.0917C80.48 54.1775 80.3847 54.2355 80.2786 54.2538C80.1819 54.2635 80.0756 54.2699 79.9726 54.2699Z" fill="#FC8135"/>
<path opacity="0.6" d="M79.9726 54.2699C77.9981 54.2699 76.9223 52.3567 76.874 52.2697C76.8198 52.1714 76.8068 52.0557 76.8379 51.9479C76.869 51.84 76.9416 51.749 77.0399 51.6947C77.1381 51.6405 77.2539 51.6275 77.3617 51.6586C77.4695 51.6897 77.5606 51.7624 77.6148 51.8606C77.6148 51.8864 78.5811 53.5742 80.1916 53.4099C80.2993 53.4062 80.4044 53.4435 80.4856 53.5143C80.5668 53.5851 80.6182 53.6841 80.6292 53.7912C80.6403 53.8984 80.6102 54.0058 80.5451 54.0917C80.48 54.1775 80.3847 54.2355 80.2786 54.2538C80.1819 54.2635 80.0756 54.2699 79.9726 54.2699Z" fill="white"/>
<path d="M25.9213 62.8731C25.8187 62.8723 25.72 62.8341 25.6435 62.7657C25.5671 62.6973 25.5182 62.6034 25.5059 62.5015C25.4937 62.3997 25.519 62.2969 25.5771 62.2123C25.6351 62.1278 25.722 62.0673 25.8215 62.0421C25.8408 62.0421 27.7315 61.5429 27.9892 59.9388C27.998 59.8841 28.0176 59.8316 28.0468 59.7844C28.076 59.7372 28.1142 59.6962 28.1592 59.6637C28.2042 59.6313 28.2551 59.608 28.3091 59.5952C28.3632 59.5825 28.4191 59.5805 28.4739 59.5894C28.5287 59.5983 28.5812 59.6178 28.6284 59.647C28.6756 59.6762 28.7166 59.7144 28.7491 59.7594C28.7815 59.8044 28.8048 59.8553 28.8175 59.9094C28.8303 59.9634 28.8323 60.0193 28.8234 60.0741C28.4788 62.2354 26.1242 62.8377 26.0244 62.8635C25.9904 62.8699 25.9559 62.8731 25.9213 62.8731Z" fill="#FC8135"/>
<path opacity="0.6" d="M25.9213 62.8731C25.8187 62.8723 25.72 62.8341 25.6435 62.7657C25.5671 62.6973 25.5182 62.6034 25.5059 62.5015C25.4937 62.3997 25.519 62.2969 25.5771 62.2123C25.6351 62.1278 25.722 62.0673 25.8215 62.0421C25.8408 62.0421 27.7315 61.5429 27.9892 59.9388C27.998 59.8841 28.0176 59.8316 28.0468 59.7844C28.076 59.7372 28.1142 59.6962 28.1592 59.6637C28.2042 59.6313 28.2551 59.608 28.3091 59.5952C28.3632 59.5825 28.4191 59.5805 28.4739 59.5894C28.5287 59.5983 28.5812 59.6178 28.6284 59.647C28.6756 59.6762 28.7166 59.7144 28.7491 59.7594C28.7815 59.8044 28.8048 59.8553 28.8175 59.9094C28.8303 59.9634 28.8323 60.0193 28.8234 60.0741C28.4788 62.2354 26.1242 62.8377 26.0244 62.8635C25.9904 62.8699 25.9559 62.8731 25.9213 62.8731Z" fill="black"/>
<path d="M119.973 33.5141C119.868 33.5177 119.765 33.4817 119.685 33.4132C119.605 33.3448 119.553 33.2487 119.54 33.1441C119.527 33.0395 119.554 32.9338 119.615 32.8479C119.676 32.7619 119.767 32.702 119.87 32.6798C119.89 32.6798 121.78 32.1838 122.038 30.5798C122.043 30.5217 122.061 30.4654 122.089 30.4142C122.117 30.3631 122.155 30.3182 122.201 30.2825C122.247 30.2468 122.3 30.2209 122.356 30.2065C122.413 30.1921 122.472 30.1894 122.529 30.1987C122.587 30.208 122.642 30.2291 122.691 30.2605C122.74 30.292 122.782 30.3332 122.815 30.3817C122.847 30.4301 122.869 30.4847 122.88 30.542C122.89 30.5994 122.889 30.6583 122.876 30.7151C122.528 32.8763 120.173 33.4786 120.073 33.5012C120.041 33.5102 120.007 33.5146 119.973 33.5141Z" fill="#FC8135"/>
<path opacity="0.6" d="M119.973 33.5141C119.868 33.5177 119.765 33.4817 119.685 33.4132C119.605 33.3448 119.553 33.2487 119.54 33.1441C119.527 33.0395 119.554 32.9338 119.615 32.8479C119.676 32.7619 119.767 32.702 119.87 32.6798C119.89 32.6798 121.78 32.1838 122.038 30.5798C122.043 30.5217 122.061 30.4654 122.089 30.4142C122.117 30.3631 122.155 30.3182 122.201 30.2825C122.247 30.2468 122.3 30.2209 122.356 30.2065C122.413 30.1921 122.472 30.1894 122.529 30.1987C122.587 30.208 122.642 30.2291 122.691 30.2605C122.74 30.292 122.782 30.3332 122.815 30.3817C122.847 30.4301 122.869 30.4847 122.88 30.542C122.89 30.5994 122.889 30.6583 122.876 30.7151C122.528 32.8763 120.173 33.4786 120.073 33.5012C120.041 33.5102 120.007 33.5146 119.973 33.5141Z" fill="black"/>
<path d="M137.28 49.5737H137.209C137.106 49.5544 134.716 49.1164 134.223 46.997C134.21 46.9424 134.208 46.8858 134.218 46.8305C134.227 46.7752 134.247 46.7223 134.277 46.6749C134.307 46.6275 134.346 46.5866 134.392 46.5545C134.438 46.5224 134.49 46.4998 134.545 46.4881C134.6 46.4757 134.656 46.4742 134.711 46.4837C134.766 46.4932 134.819 46.5135 134.866 46.5435C134.914 46.5734 134.955 46.6123 134.987 46.6581C135.019 46.7039 135.042 46.7555 135.054 46.8102C135.421 48.3884 137.341 48.7427 137.36 48.7427C137.462 48.7644 137.552 48.8225 137.613 48.9059C137.675 48.9894 137.704 49.0925 137.695 49.1958C137.686 49.2992 137.639 49.3956 137.564 49.467C137.489 49.5384 137.39 49.5798 137.286 49.5834L137.28 49.5737Z" fill="#FC8135"/>
<path d="M129.73 65.102C128.993 65.1136 128.275 64.8611 127.707 64.3902C127.66 64.3564 127.62 64.3131 127.59 64.2631C127.561 64.2132 127.541 64.1576 127.534 64.0998C127.527 64.0421 127.532 63.9835 127.548 63.9277C127.564 63.8718 127.592 63.82 127.63 63.7755C127.667 63.7309 127.713 63.6946 127.765 63.6687C127.818 63.6429 127.875 63.6282 127.933 63.6254C127.991 63.6226 128.049 63.6319 128.103 63.6527C128.158 63.6734 128.207 63.7052 128.249 63.746C129.495 64.7831 131.244 63.9135 131.263 63.9038C131.363 63.8526 131.48 63.8431 131.586 63.8775C131.693 63.912 131.782 63.9875 131.833 64.0874C131.885 64.1874 131.894 64.3036 131.86 64.4105C131.825 64.5174 131.75 64.6063 131.65 64.6575C131.05 64.943 130.395 65.0947 129.73 65.102Z" fill="#FC8135"/>
<path d="M109.989 12.2397C109.915 12.2402 109.843 12.2213 109.779 12.1849C109.692 12.1366 107.589 10.9191 107.847 8.74494C107.859 8.63346 107.916 8.53163 108.004 8.46186C108.092 8.3921 108.204 8.3601 108.315 8.37292C108.427 8.38573 108.529 8.4423 108.598 8.53019C108.668 8.61808 108.7 8.73008 108.687 8.84156C108.504 10.452 110.191 11.4409 110.208 11.4505C110.29 11.4969 110.354 11.5693 110.39 11.6564C110.426 11.7434 110.432 11.84 110.407 11.9307C110.381 12.0215 110.326 12.1012 110.251 12.1572C110.175 12.2132 110.083 12.2422 109.989 12.2397Z" fill="#FC8135"/>
<path d="M25.8541 13.9564C25.7987 13.9587 25.7434 13.9501 25.6913 13.9311C25.6392 13.912 25.5914 13.8829 25.5505 13.8453C25.5097 13.8078 25.4767 13.7626 25.4533 13.7123C25.43 13.662 25.4168 13.6076 25.4144 13.5522C25.4121 13.4968 25.4207 13.4414 25.4398 13.3893C25.4588 13.3373 25.488 13.2894 25.5255 13.2486C25.563 13.2078 25.6082 13.1748 25.6585 13.1514C25.7088 13.128 25.7633 13.1148 25.8187 13.1125C27.4291 12.9708 28.0733 11.122 28.0733 11.1026C28.1107 10.9998 28.1866 10.9156 28.2849 10.8677C28.3833 10.8197 28.4963 10.8119 28.6004 10.8457C28.7044 10.8795 28.7912 10.9524 28.8425 11.049C28.8938 11.1456 28.9056 11.2584 28.8754 11.3635C28.8464 11.4634 28.0733 13.7664 25.8927 13.9403L25.8541 13.9564Z" fill="#FC8135"/>
<path d="M57.2808 26.7017C56.1374 27.2364 55.1292 29.8067 55.4577 33.498C55.7863 37.1892 48.1397 34.5995 47.0994 38.7352C45.2215 46.2207 57.8123 50.7204 63.1784 46.2207C66.4992 43.4378 69.6203 34.2645 69.1629 29.2592C68.6733 23.877 60.3246 20.2663 57.2808 26.7017Z" fill="#263238"/>
<path d="M69.3623 36.1456C69.504 36.1038 69.7102 36.0426 69.8873 35.9846L70.4413 35.7978C70.8117 35.6689 71.1789 35.5272 71.5429 35.3758C72.268 35.0781 72.9757 34.7394 73.6623 34.3612C75.0078 33.6433 76.2186 32.6973 77.2408 31.5654C78.1523 30.4832 78.8062 29.008 79.3183 27.4941C79.5792 26.734 79.7982 25.9513 79.985 25.1557C80.1718 24.3601 80.349 23.5452 80.4843 22.7625L81.7984 22.8431C81.8006 24.5849 81.6116 26.3218 81.2348 28.0224C81.0431 28.8938 80.7835 29.7489 80.4585 30.5798C80.1217 31.4569 79.67 32.2855 79.1154 33.0438C77.9808 34.4985 76.5739 35.7183 74.9732 36.6352C74.2019 37.0912 73.4014 37.4957 72.5768 37.8463C72.1645 38.0202 71.749 38.1684 71.3239 38.3262C71.1145 38.4003 70.9019 38.4712 70.6797 38.5356C70.4574 38.6 70.261 38.6612 69.9968 38.7256L69.3623 36.1456Z" fill="#7F3E3B"/>
<path d="M81.7921 23.2843L82.3397 21.3163L80.1655 21.4838C80.1655 21.4838 80.0109 22.7722 80.7614 23.5484L81.7921 23.2843Z" fill="#7F3E3B"/>
<path d="M82.665 19.0262L80.6809 19.5448L80.1655 21.4838L82.3397 21.3163L82.665 19.0262Z" fill="#7F3E3B"/>
<path d="M66.9017 36.648C67.9034 35.7365 70.4447 35.0376 70.4447 35.0376L73.2309 39.2248C73.2309 39.2248 70.0518 41.3474 68.7022 40.8546C67.2979 40.365 65.9676 37.4952 66.9017 36.648Z" fill="#FC8135"/>
<path d="M57.7251 96.2068L59.4612 98.1136L64.444 94.5641L62.7079 92.6573L57.7251 96.2068Z" fill="#7F3E3B"/>
<path d="M47.9272 103.741L50.256 104.897L53.6799 99.8754L51.3511 98.7191L47.9272 103.741Z" fill="#7F3E3B"/>
<path d="M50.6264 104.61L48.8291 102.307C48.7989 102.267 48.755 102.239 48.7058 102.229C48.6566 102.219 48.6053 102.228 48.5618 102.253L46.5358 103.412C46.4856 103.443 46.4426 103.484 46.4094 103.532C46.3763 103.581 46.3538 103.636 46.3434 103.693C46.3331 103.751 46.3351 103.811 46.3494 103.868C46.3637 103.925 46.3899 103.978 46.4263 104.024C47.0705 104.816 47.4151 105.168 48.2075 106.182C48.6906 106.804 49.6762 108.253 50.3462 109.113C51.0161 109.973 51.9051 109.358 51.7022 108.939C50.7939 107.061 50.7359 105.947 50.7681 105.052C50.7746 104.892 50.7244 104.736 50.6264 104.61Z" fill="#263238"/>
<path d="M59.9798 98.149L58.7945 95.3017C58.7736 95.2507 58.7362 95.2081 58.6884 95.1807C58.6406 95.1533 58.585 95.1426 58.5304 95.1503L56.018 95.4724C55.9582 95.4788 55.9008 95.4993 55.8505 95.5321C55.8001 95.565 55.7583 95.6094 55.7284 95.6616C55.6986 95.7138 55.6815 95.7723 55.6786 95.8324C55.6758 95.8924 55.6872 95.9523 55.712 96.0071C56.1437 96.9959 56.4046 97.4565 56.9263 98.7095C57.2484 99.4793 57.9957 101.502 58.437 102.575C58.8782 103.647 60.012 103.393 59.9283 102.922C59.5514 100.816 59.6803 99.4567 59.9927 98.629C60.0223 98.5521 60.0364 98.4701 60.0342 98.3877C60.032 98.3053 60.0135 98.2242 59.9798 98.149Z" fill="#263238"/>
<path opacity="0.2" d="M64.441 94.5641L61.8739 96.3936L59.9316 94.635L62.7049 92.6573L64.441 94.5641Z" fill="black"/>
<path opacity="0.2" d="M51.3508 98.7191L53.6796 99.8754L51.9113 102.465L49.5825 101.306L51.3508 98.7191Z" fill="black"/>
<path d="M70.4093 36.9734C70.4093 36.9734 70.4866 36.8574 69.0758 52.2472L58.5433 52.9848C58.4209 48.688 58.743 45.6539 56.7363 36.8252C58.2161 36.5272 59.7157 36.3378 61.2231 36.2583C62.8193 36.1519 64.421 36.1605 66.0159 36.2841C68.0741 36.4806 70.4093 36.9734 70.4093 36.9734Z" fill="#FC8135"/>
<path d="M57.5286 39.3762C56.7459 39.0155 56.0598 38.629 55.348 38.2199C54.6362 37.8109 53.963 37.3728 53.293 36.909C51.9294 35.9832 50.6616 34.9236 49.5084 33.746L49.0832 33.2854L48.9737 33.1694C48.9109 33.0973 48.8518 33.0221 48.7966 32.944C48.697 32.8019 48.6107 32.651 48.5389 32.493C48.3256 31.9897 48.2161 31.4485 48.2168 30.9019C48.224 30.0318 48.3408 29.166 48.5647 28.3251C48.9736 26.7514 49.5412 25.2233 50.2589 23.7643L51.4893 24.241C51.2993 24.9721 51.1189 25.7323 50.9578 26.4763C50.7968 27.2203 50.6615 27.9708 50.5713 28.7052C50.4668 29.3957 50.4387 30.0957 50.4876 30.7924C50.5037 31.0335 50.5649 31.2695 50.6679 31.4881C50.6679 31.5107 50.7002 31.5364 50.7098 31.5396L50.8097 31.6331L51.2058 32.0099C52.3115 33.0112 53.4964 33.9214 54.7489 34.7316C55.377 35.1471 56.0373 35.5272 56.6815 35.9105C57.3257 36.2938 58.0182 36.6577 58.6463 36.9766L57.5286 39.3762Z" fill="#7F3E3B"/>
<path d="M60.8816 37.4146C59.6866 35.7494 57.3385 35.7752 57.3385 35.7752L54.5073 39.9624C54.5073 39.9624 57.6671 42.114 59.0167 41.6341C60.4468 41.1252 61.6192 38.4389 60.8816 37.4146Z" fill="#FC8135"/>
<path d="M66.0158 36.2841L61.223 36.2583C60.4886 36.5546 60.0635 38.4647 64.9271 40.0816C68.2994 38.1651 66.5054 36.4612 66.0158 36.2841Z" fill="white"/>
<path d="M61.7256 30.8632C62.0187 32.406 62.3054 35.234 61.2231 36.2583C61.2231 36.2583 61.6419 37.8269 64.9272 40.0816C67.2302 37.7722 66.0159 36.2841 66.0159 36.2841C64.2992 35.8621 64.3507 34.5866 64.6567 33.3852L61.7256 30.8632Z" fill="#7F3E3B"/>
<path d="M71.659 46.1821H71.6074C71.4376 46.1681 71.2801 46.0874 71.1697 45.9576C71.0592 45.8278 71.0046 45.6595 71.018 45.4896C71.134 44.053 70.0517 42.9676 68.8084 41.7082C67.3815 40.2684 65.7614 38.6354 65.697 36.094C65.6927 35.9232 65.7565 35.7576 65.8743 35.6338C65.9921 35.51 66.1542 35.438 66.3251 35.4337C66.4959 35.4295 66.6615 35.4932 66.7853 35.611C66.9091 35.7288 66.9811 35.891 66.9854 36.0618C67.0369 38.091 68.4026 39.4696 69.7232 40.8031C71.0438 42.1365 72.4642 43.5667 72.2999 45.5926C72.2862 45.7533 72.2128 45.9029 72.0941 46.0121C71.9755 46.1212 71.8202 46.1819 71.659 46.1821Z" fill="#263238"/>
<path d="M62.2446 49.4417C62.1924 49.4415 62.1405 49.4351 62.09 49.4224C61.9243 49.3813 61.7817 49.2761 61.6936 49.1299C61.6054 48.9838 61.5788 48.8086 61.6197 48.6429C62.2413 46.1177 61.4264 44.1336 60.5632 42.0464C59.7902 40.1718 58.9914 38.2328 59.3779 35.9652C59.4113 35.801 59.5073 35.6563 59.6456 35.5617C59.7839 35.4672 59.9537 35.4302 60.1188 35.4587C60.2839 35.4872 60.4314 35.5789 60.53 35.7144C60.6286 35.8498 60.6706 36.0184 60.647 36.1842C60.3249 38.0846 61.0174 39.7724 61.7518 41.5568C62.615 43.6472 63.5909 46.0178 62.8694 48.965C62.8325 49.1023 62.7511 49.2235 62.6381 49.3097C62.5251 49.3959 62.3867 49.4423 62.2446 49.4417Z" fill="#263238"/>
<path opacity="0.2" d="M64.0511 32.8538L62.7627 33.0051C62.8251 33.352 62.9495 33.6848 63.1299 33.9875C63.3843 34.3708 63.9512 34.5383 64.5117 34.5544C64.511 34.1559 64.5652 33.7593 64.6727 33.3756L64.0511 32.8538Z" fill="black"/>
<path d="M58.8751 29.3107C59.8189 31.7136 60.1635 32.7507 61.8094 33.6075C64.2831 34.8959 67.0274 33.2177 66.8212 30.583C66.6377 28.2092 65.127 24.679 62.4118 24.4793C61.8138 24.4327 61.2138 24.5396 60.6688 24.79C60.1237 25.0403 59.6517 25.4257 59.2974 25.9097C58.9432 26.3937 58.7184 26.9602 58.6445 27.5554C58.5706 28.1506 58.65 28.7548 58.8751 29.3107Z" fill="#7F3E3B"/>
<path d="M61.4617 24.1314C63.2944 25.2587 61.7258 31.8907 58.624 31.5396C55.5222 31.1885 58.7529 22.4662 61.4617 24.1314Z" fill="#263238"/>
<path d="M61.3936 24.1572C60.0118 25.0752 60.9555 26.6728 65.613 25.7258C65.613 25.7226 63.6869 22.6305 61.3936 24.1572Z" fill="#263238"/>
<path d="M59.2105 31.6459C59.4142 32.1011 59.7891 32.4576 60.254 32.638C60.8757 32.8699 61.2397 32.3159 61.1173 31.7136C61.0045 31.1628 60.5472 30.3737 59.903 30.4059C59.7622 30.4154 59.626 30.4599 59.5068 30.5353C59.3876 30.6108 59.2891 30.7149 59.2203 30.8381C59.1515 30.9612 59.1146 31.0997 59.1129 31.2407C59.1111 31.3818 59.1447 31.5211 59.2105 31.6459Z" fill="#7F3E3B"/>
<path d="M69.0823 52.2472C69.0823 52.2472 74.719 70.6485 75.1732 78.5656C75.6434 86.8016 63.4134 96.574 63.4134 96.574L60.3696 93.2338C60.3696 93.2338 70.3063 84.7949 68.9438 78.6816C67.0596 70.2555 61.352 52.7883 61.352 52.7883L69.0823 52.2472Z" fill="#263238"/>
<path opacity="0.2" d="M65.5682 58.2703C65.0529 56.6598 63.9062 57.7421 63.5068 59.4492C64.3024 62.026 65.2236 65.0408 66.0997 68.0588C66.4379 65.3854 66.5764 61.4269 65.5682 58.2703Z" fill="black"/>
<path d="M59.5449 93.0728L63.4069 97.0571L65.056 96.1456L60.975 91.7039L59.5449 93.0728Z" fill="#FC8135"/>
<path d="M66.2961 52.4436C66.2961 52.4436 64.6856 70.481 63.0752 80.5272C61.7707 88.644 52.9098 101.901 52.9098 101.901L49.6631 100.391C49.6631 100.391 55.6186 86.1961 56.5463 80.6786C59.5224 63.018 55.5027 57.9225 58.5465 52.9783L66.2961 52.4436Z" fill="#263238"/>
<path d="M49.4346 100.426L53.0968 102.224L54.2982 100.732L50.0143 98.7127L49.4346 100.426Z" fill="#FC8135"/>
<path d="M58.3439 52.3792L57.9348 53.3455C57.9026 53.4196 57.9928 53.4904 58.1152 53.4808L69.1631 52.7077C69.2565 52.7077 69.3338 52.6498 69.3338 52.5886L69.3628 51.6223C69.3628 51.5578 69.279 51.5095 69.1759 51.516L58.5081 52.2632C58.4724 52.2645 58.4379 52.2761 58.4087 52.2967C58.3795 52.3173 58.357 52.346 58.3439 52.3792Z" fill="white"/>
<path d="M59.8577 53.4679L59.5743 53.4872C59.5163 53.4872 59.4712 53.4647 59.4712 53.4292L59.5195 52.1956C59.5195 52.1602 59.571 52.1248 59.6258 52.1215L59.9125 52.1022C59.9704 52.1022 60.0155 52.1248 60.0123 52.1602L59.964 53.3938C59.964 53.4357 59.9157 53.4679 59.8577 53.4679Z" fill="#263238"/>
<path d="M68.3671 52.8753L68.0805 52.8946C68.0225 52.8946 67.9774 52.872 67.9806 52.8366L68.0289 51.603C68.0289 51.5676 68.0773 51.5353 68.1352 51.5289L68.4187 51.5096C68.4767 51.5096 68.5217 51.5321 68.5217 51.5676L68.4734 52.8044C68.4702 52.8398 68.438 52.872 68.3671 52.8753Z" fill="#263238"/>
<path d="M64.1126 53.1748L63.8259 53.1942C63.7712 53.1942 63.7261 53.1716 63.7261 53.1362L63.7744 51.8993C63.7744 51.8639 63.8227 51.8317 63.8807 51.8285L64.1673 51.8091C64.2221 51.8091 64.2672 51.8317 64.2672 51.8671L64.2189 53.1007C64.2189 53.1458 64.1706 53.1684 64.1126 53.1748Z" fill="#263238"/>
<path d="M62.7565 28.4088C62.6019 28.4604 62.5375 28.6923 62.6148 28.9306L63.1785 28.7503C63.1012 28.5119 62.9111 28.3444 62.7565 28.4088Z" fill="#263238"/>
<path d="M65.2172 27.6294C65.0593 27.6809 64.9949 27.9161 65.0722 28.1544L65.6391 27.9708C65.5393 27.7325 65.3557 27.5811 65.2172 27.6294Z" fill="#263238"/>
<path d="M65.1367 27.6648L65.6553 27.3169C65.6553 27.3169 65.5071 27.858 65.1367 27.6648Z" fill="#263238"/>
<path d="M64.5728 28.6021C64.8966 28.9999 65.2738 29.3511 65.6936 29.6457C65.6158 29.7514 65.5158 29.8387 65.4006 29.9016C65.2854 29.9645 65.1579 30.0013 65.0269 30.0097L64.5728 28.6021Z" fill="#630F0F"/>
<path d="M64.6116 31.0114C64.6211 31.0032 64.6279 30.9924 64.6314 30.9804C64.6348 30.9684 64.6346 30.9557 64.631 30.9437C64.6258 30.9284 64.6148 30.9157 64.6003 30.9084C64.5858 30.9012 64.569 30.9 64.5537 30.9051C64.3073 30.9904 64.0443 31.0167 63.7859 30.9821C63.5275 30.9474 63.2808 30.8526 63.0656 30.7054C63.0599 30.6996 63.0531 30.6951 63.0457 30.692C63.0382 30.6888 63.0302 30.6872 63.0221 30.6872C63.014 30.6872 63.006 30.6888 62.9985 30.692C62.9911 30.6951 62.9843 30.6996 62.9786 30.7054C62.9724 30.7108 62.9675 30.7175 62.9641 30.725C62.9607 30.7325 62.959 30.7406 62.959 30.7489C62.959 30.7571 62.9607 30.7652 62.9641 30.7727C62.9675 30.7802 62.9724 30.7869 62.9786 30.7923C63.2088 30.9573 63.4756 31.064 63.7561 31.1032C64.0366 31.1425 64.3224 31.1132 64.5891 31.0178L64.6116 31.0114Z" fill="#263238"/>
<path d="M61.9415 28.2639C61.9578 28.2503 61.97 28.2325 61.9769 28.2124C62.0212 28.0625 62.1012 27.9255 62.21 27.8133C62.3188 27.7011 62.4533 27.617 62.6018 27.5682C62.6174 27.5644 62.6322 27.5575 62.6452 27.548C62.6582 27.5385 62.6692 27.5265 62.6775 27.5128C62.6859 27.499 62.6915 27.4838 62.694 27.4678C62.6965 27.4519 62.6958 27.4357 62.692 27.42C62.6882 27.4044 62.6813 27.3896 62.6718 27.3766C62.6623 27.3636 62.6503 27.3526 62.6366 27.3443C62.6228 27.3359 62.6075 27.3303 62.5916 27.3278C62.5757 27.3254 62.5594 27.326 62.5438 27.3298C62.3571 27.3886 62.1872 27.4912 62.0482 27.6291C61.9093 27.7669 61.8053 27.936 61.745 28.1222C61.7348 28.153 61.7372 28.1865 61.7517 28.2155C61.7662 28.2445 61.7916 28.2665 61.8223 28.2768C61.8415 28.2857 61.8627 28.2892 61.8837 28.287C61.9047 28.2847 61.9247 28.2767 61.9415 28.2639Z" fill="#263238"/>
<path d="M65.8004 26.6728C65.8072 26.6692 65.8128 26.6635 65.8165 26.6567C65.8268 26.6441 65.8345 26.6295 65.8391 26.6139C65.8437 26.5982 65.8452 26.5818 65.8434 26.5656C65.8416 26.5494 65.8366 26.5338 65.8286 26.5195C65.8207 26.5053 65.81 26.4928 65.7971 26.4827C65.6464 26.3581 65.4682 26.2711 65.2772 26.2291C65.0862 26.1871 64.8879 26.1912 64.6988 26.2412C64.6832 26.2462 64.6688 26.2544 64.6564 26.2651C64.644 26.2759 64.6339 26.289 64.6267 26.3037C64.6195 26.3184 64.6153 26.3345 64.6144 26.3508C64.6135 26.3672 64.6159 26.3836 64.6215 26.399C64.6325 26.4292 64.6546 26.4541 64.6834 26.4685C64.7121 26.4829 64.7453 26.4857 64.7761 26.4763C64.926 26.4378 65.0829 26.4358 65.2336 26.4706C65.3844 26.5053 65.5246 26.5758 65.6425 26.676C65.665 26.6942 65.6931 26.7038 65.722 26.7032C65.7509 26.7026 65.7787 26.6919 65.8004 26.6728Z" fill="#263238"/>
<path d="M52.897 24.7144C52.8188 24.7142 52.7421 24.6931 52.6748 24.6532L42.8766 18.6171C42.7907 18.5538 42.7318 18.4606 42.7114 18.3559C42.6911 18.2512 42.7108 18.1426 42.7668 18.0518C42.8227 17.961 42.9108 17.8945 43.0135 17.8656C43.1162 17.8366 43.226 17.8474 43.3211 17.8956L53.1193 23.9317C53.1983 23.9796 53.2593 24.0521 53.2931 24.1381C53.3269 24.2241 53.3316 24.3188 53.3063 24.4077C53.2811 24.4966 53.2274 24.5747 53.1534 24.6301C53.0795 24.6855 52.9894 24.7151 52.897 24.7144Z" fill="#FC8135"/>
<path d="M45.0959 19.2839C45.6467 19.2614 46.2136 19.2356 46.2876 18.7396C46.3617 18.2436 45.8303 18.0535 45.3213 17.8667L45.1828 17.8152C45.1828 17.7669 45.1603 17.7185 45.1474 17.6735L45.2601 17.5478C45.6209 17.1484 45.9977 16.7361 45.7046 16.3432C45.4115 15.9502 44.9091 16.1821 44.4163 16.4108L44.2649 16.4817C44.223 16.4527 44.1811 16.4302 44.136 16.4044C44.0909 16.3786 44.136 16.3013 44.136 16.2562C44.1103 15.7087 44.0845 15.1418 43.5917 15.0677C43.0989 14.9936 42.9056 15.5251 42.7188 16.034C42.7027 16.0759 42.6866 16.1242 42.6673 16.1725L42.5223 16.2079L42.3999 16.0984C42.0005 15.7344 41.5883 15.3608 41.1953 15.6507C40.8023 15.9406 41.0343 16.4463 41.2629 16.9391L41.3338 17.0905C41.3057 17.1309 41.2799 17.1728 41.2565 17.2161H41.1083C40.5608 17.2418 39.9907 17.2676 39.9166 17.7636C39.8425 18.2597 40.3772 18.4497 40.8829 18.6365L41.0214 18.6881C41.0214 18.7364 41.0439 18.7847 41.0568 18.8298C41.0181 18.8749 40.9795 18.92 40.9441 18.9554C40.5833 19.3548 40.2097 19.7638 40.4996 20.16C40.7895 20.5562 41.2951 20.3179 41.788 20.0924L41.9426 20.0215L42.0682 20.0988C42.0682 20.1504 42.0682 20.2019 42.0682 20.247C42.094 20.7946 42.1197 21.3614 42.6125 21.4355C43.1053 21.5096 43.3018 20.9782 43.4886 20.4692C43.4886 20.4306 43.5208 20.3823 43.5369 20.3307C43.5859 20.322 43.6344 20.3101 43.6819 20.2953L43.8075 20.408C44.2037 20.7688 44.616 21.1456 45.0121 20.8558C45.4083 20.5659 45.17 20.0602 44.9413 19.5674C44.922 19.5255 44.8962 19.4707 44.8736 19.416L44.9509 19.2904L45.0959 19.2839Z" fill="#FC8135"/>
<path opacity="0.7" d="M45.0959 19.2839C45.6467 19.2614 46.2136 19.2356 46.2876 18.7396C46.3617 18.2436 45.8303 18.0535 45.3213 17.8667L45.1828 17.8152C45.1828 17.7669 45.1603 17.7185 45.1474 17.6735L45.2601 17.5478C45.6209 17.1484 45.9977 16.7361 45.7046 16.3432C45.4115 15.9502 44.9091 16.1821 44.4163 16.4108L44.2649 16.4817C44.223 16.4527 44.1811 16.4302 44.136 16.4044C44.0909 16.3786 44.136 16.3013 44.136 16.2562C44.1103 15.7087 44.0845 15.1418 43.5917 15.0677C43.0989 14.9936 42.9056 15.5251 42.7188 16.034C42.7027 16.0759 42.6866 16.1242 42.6673 16.1725L42.5223 16.2079L42.3999 16.0984C42.0005 15.7344 41.5883 15.3608 41.1953 15.6507C40.8023 15.9406 41.0343 16.4463 41.2629 16.9391L41.3338 17.0905C41.3057 17.1309 41.2799 17.1728 41.2565 17.2161H41.1083C40.5608 17.2418 39.9907 17.2676 39.9166 17.7636C39.8425 18.2597 40.3772 18.4497 40.8829 18.6365L41.0214 18.6881C41.0214 18.7364 41.0439 18.7847 41.0568 18.8298C41.0181 18.8749 40.9795 18.92 40.9441 18.9554C40.5833 19.3548 40.2097 19.7638 40.4996 20.16C40.7895 20.5562 41.2951 20.3179 41.788 20.0924L41.9426 20.0215L42.0682 20.0988C42.0682 20.1504 42.0682 20.2019 42.0682 20.247C42.094 20.7946 42.1197 21.3614 42.6125 21.4355C43.1053 21.5096 43.3018 20.9782 43.4886 20.4692C43.4886 20.4306 43.5208 20.3823 43.5369 20.3307C43.5859 20.322 43.6344 20.3101 43.6819 20.2953L43.8075 20.408C44.2037 20.7688 44.616 21.1456 45.0121 20.8558C45.4083 20.5659 45.17 20.0602 44.9413 19.5674C44.922 19.5255 44.8962 19.4707 44.8736 19.416L44.9509 19.2904L45.0959 19.2839Z" fill="white"/>
<path d="M49.9724 24.8175L49.5698 22.2407L52.1981 23.5291C52.0991 23.9629 51.8751 24.3582 51.5539 24.6661C51.4217 24.8166 51.2497 24.9267 51.0577 24.9837C50.8656 25.0407 50.6614 25.0423 50.4685 24.9882L49.9724 24.8175Z" fill="#7F3E3B"/>
<path d="M51.045 20.9781L52.3914 22.1602L52.1981 23.513L49.5698 22.2375L51.045 20.9781Z" fill="#7F3E3B"/>
<path d="M51.47 105.844C51.4973 105.824 51.5232 105.803 51.5473 105.78C51.5749 105.754 51.5952 105.722 51.606 105.687C51.6168 105.651 51.6177 105.613 51.6085 105.577C51.5312 105.254 50.6422 104.932 50.5424 104.91C50.5314 104.905 50.5191 104.904 50.5075 104.907C50.4958 104.91 50.4855 104.917 50.478 104.926C50.4713 104.936 50.4678 104.948 50.4678 104.96C50.4678 104.972 50.4713 104.984 50.478 104.994C50.6229 105.316 50.9128 105.844 51.2381 105.899C51.3196 105.911 51.4026 105.891 51.47 105.844ZM50.6422 105.077C50.9933 105.209 51.4475 105.435 51.4894 105.606C51.4924 105.622 51.491 105.638 51.4853 105.654C51.4796 105.669 51.4699 105.682 51.4571 105.693C51.4326 105.724 51.4005 105.748 51.3638 105.763C51.3272 105.779 51.2872 105.784 51.2478 105.78C51.0706 105.747 50.8516 105.49 50.6422 105.077Z" fill="#FC8135"/>
<path d="M51.6343 104.984C51.6553 104.971 51.6739 104.955 51.6891 104.936C51.7205 104.898 51.7377 104.85 51.7377 104.8C51.7377 104.751 51.7205 104.703 51.6891 104.665C51.6651 104.624 51.6325 104.589 51.5936 104.563C51.5546 104.536 51.5102 104.518 51.4636 104.51C51.0932 104.443 50.4973 104.9 50.4748 104.919C50.4664 104.926 50.46 104.935 50.456 104.946C50.4521 104.956 50.4508 104.967 50.4522 104.977C50.454 104.988 50.4582 104.997 50.4643 105.006C50.4704 105.014 50.4784 105.021 50.4877 105.026C50.8623 105.151 51.2698 105.136 51.6343 104.984ZM50.668 104.936C50.8886 104.756 51.1602 104.65 51.4443 104.633C51.4739 104.636 51.5022 104.647 51.5269 104.664C51.5515 104.681 51.5718 104.703 51.586 104.729C51.6279 104.797 51.6085 104.833 51.586 104.855C51.47 104.994 50.9418 105.019 50.6487 104.945L50.668 104.936Z" fill="#FC8135"/>
<path d="M60.038 99.6081C60.1034 99.8097 60.2308 99.9855 60.4019 100.111C60.4501 100.139 60.504 100.156 60.5597 100.161C60.6154 100.166 60.6715 100.159 60.724 100.14C60.7554 100.131 60.7837 100.113 60.8058 100.09C60.828 100.066 60.8432 100.036 60.8496 100.004C60.9173 99.6822 60.0734 98.8866 59.9027 98.7159C59.8922 98.709 59.8798 98.7053 59.8672 98.7053C59.8547 98.7053 59.8423 98.709 59.8318 98.7159C59.8206 98.722 59.8116 98.7315 59.8064 98.7432C59.8011 98.7548 59.7999 98.7679 59.8028 98.7803C59.8504 99.0641 59.9292 99.3417 60.038 99.6081ZM60.7079 99.8497C60.7262 99.8866 60.734 99.9278 60.7305 99.9689C60.7305 99.985 60.7305 100.001 60.6854 100.014C60.6478 100.028 60.6074 100.034 60.5672 100.031C60.527 100.028 60.4882 100.015 60.4535 99.9946C60.257 99.8787 60.0766 99.4922 59.9607 98.9446C60.254 99.2068 60.5059 99.512 60.7079 99.8497Z" fill="#FC8135"/>
<path d="M59.8159 98.8029C59.815 98.8093 59.815 98.8158 59.8159 98.8222C60.08 99.0896 60.8692 99.5212 61.1236 99.373C61.1784 99.3408 61.2364 99.2699 61.1913 99.1153C61.027 98.5227 59.9029 98.7095 59.8481 98.7192C59.8369 98.7206 59.8263 98.7254 59.8177 98.7328C59.8091 98.7403 59.8029 98.7501 59.7998 98.761C59.8 98.7765 59.8057 98.7913 59.8159 98.8029ZM61.0721 99.1089L61.0882 99.1476C61.0882 99.212 61.0882 99.2506 61.0882 99.2667C60.94 99.3505 60.3441 99.0735 60.0285 98.8222C60.2926 98.7932 60.9304 98.7675 61.0721 99.1089Z" fill="#FC8135"/>
<path d="M62.6919 28.4443L63.2105 28.0932C63.2105 28.0932 63.0623 28.6375 62.6919 28.4443Z" fill="#263238"/>
<path d="M104.8 112.82L102.304 112.824L101.63 107.045L104.127 107.042L104.8 112.82Z" fill="#FFC3BD"/>
<path d="M126.287 102.095L124.396 103.728L120.115 99.7884L122.003 98.1554L126.287 102.095Z" fill="#FFC3BD"/>
<path d="M124.029 103.663L126.329 101.673C126.366 101.642 126.413 101.624 126.462 101.624C126.511 101.624 126.558 101.642 126.596 101.673L128.348 103.071C128.391 103.107 128.425 103.151 128.449 103.202C128.472 103.253 128.484 103.308 128.484 103.364C128.484 103.42 128.472 103.475 128.449 103.525C128.425 103.576 128.391 103.621 128.348 103.657C127.598 104.285 127.021 104.707 126.093 105.512C125.52 106.008 123.839 107.567 123.046 108.253C122.254 108.939 121.504 108.214 121.758 107.86C122.95 106.275 123.691 104.871 123.807 104.037C123.835 103.89 123.914 103.758 124.029 103.663Z" fill="#263238"/>
<path d="M102.319 112.534H105.047C105.097 112.534 105.145 112.551 105.183 112.582C105.222 112.613 105.249 112.656 105.26 112.704L105.756 114.924C105.768 114.977 105.768 115.033 105.756 115.086C105.743 115.14 105.719 115.19 105.685 115.232C105.65 115.275 105.607 115.31 105.557 115.333C105.508 115.357 105.453 115.369 105.398 115.368C104.413 115.352 102.992 115.297 101.756 115.297C100.313 115.297 99.4654 115.336 97.7712 115.339C96.7469 115.339 96.4603 114.305 96.8887 114.212C98.8406 113.78 100.032 113.777 101.72 112.733C101.897 112.612 102.105 112.543 102.319 112.534Z" fill="#263238"/>
<path d="M94.206 41.0704C93.7035 40.8772 93.2719 40.7 92.821 40.4939C92.3701 40.2877 91.9352 40.0848 91.4972 39.869C90.6232 39.4395 89.7643 38.9607 88.9204 38.4325C88.0711 37.912 87.2547 37.3397 86.4757 36.7189C86.2792 36.5579 86.0795 36.3968 85.8863 36.2325L85.3129 35.7075C85.1229 35.5336 84.9425 35.3339 84.7589 35.1471C84.6655 35.044 84.585 34.9699 84.4787 34.8475C84.3724 34.7251 84.2693 34.606 84.1759 34.4836C83.8237 34.0179 83.5245 33.5145 83.2837 32.9826C83.0598 32.4969 82.8693 31.9965 82.7136 31.4849C82.4176 30.5187 82.2021 29.5297 82.0694 28.528C81.8153 26.5996 81.7667 24.6496 81.9245 22.711H83.7991C83.9279 23.5838 84.0632 24.5018 84.2404 25.3844C84.4175 26.2669 84.6043 27.1494 84.833 27.9998C85.0493 28.8304 85.3227 29.6451 85.6511 30.438C85.9238 31.1392 86.3077 31.7917 86.7881 32.3706L86.946 32.5317C86.9943 32.5832 87.0909 32.6605 87.1618 32.7249C87.3164 32.857 87.4581 32.9955 87.6224 33.1211C87.9445 33.3788 88.2666 33.6332 88.6273 33.878C89.323 34.3612 90.0574 34.8218 90.824 35.2534C91.5906 35.685 92.3733 36.094 93.1689 36.4806C93.5682 36.677 93.9709 36.8703 94.3735 37.0507C94.7761 37.231 95.1981 37.4211 95.5588 37.5757L94.206 41.0704Z" fill="#FFC3BD"/>
<path d="M94.6051 43.1962C93.1837 42.3126 91.8409 41.3082 90.5918 40.1943L91.5871 35.1084C93.4376 35.6348 95.319 36.0457 97.2205 36.3388C100.361 36.7446 96.8437 44.5297 94.6051 43.1962Z" fill="#263238"/>
<path d="M83.8635 23.149L84.0406 19.9699L81.3995 20.817C81.3995 20.817 80.7842 23.0942 82.4978 23.6933L83.8635 23.149Z" fill="#FFC3BD"/>
<path d="M83.7217 18.2596L81.5411 19.1679L81.3994 20.817L84.0406 19.9699L83.7217 18.2596Z" fill="#FFC3BD"/>
<path opacity="0.2" d="M101.633 107.045L101.978 110.025L104.474 110.021L104.13 107.042L101.633 107.045Z" fill="black"/>
<path opacity="0.2" d="M122.006 98.1554L120.115 99.7884L122.325 101.818L124.212 100.185L122.006 98.1554Z" fill="black"/>
<path d="M106.819 36.2357C106.825 36.0589 106.795 35.8828 106.733 35.7175C106.67 35.5521 106.575 35.4009 106.453 35.2724C106.332 35.144 106.186 35.0409 106.024 34.969C105.863 34.8972 105.688 34.8581 105.512 34.8539C98.3869 34.7218 93.7519 36.7188 93.433 36.8477C93.3141 36.8957 93.2094 36.9732 93.1288 37.073C93.0482 37.1727 92.9944 37.2914 92.9725 37.4178C92.6761 39.2022 91.8354 46.6813 95.9551 58.3862L109.161 56.4955C108.984 54.5468 106.523 45.6055 106.819 36.2357Z" fill="#263238"/>
<path d="M96.1385 35.9491C95.3558 36.9959 95.0015 39.4084 97.5944 41.1735C100.783 38.7932 102.426 36.2325 102.912 34.899C100.624 35.0138 98.354 35.3657 96.1385 35.9491Z" fill="white"/>
<path d="M95.546 36.9282C95.3752 36.9282 95.2113 36.8603 95.0905 36.7395C94.9697 36.6187 94.9019 36.4549 94.9019 36.284C94.9019 35.7526 95.3624 35.2952 95.7522 34.9956C97.0599 34.0294 99.6173 33.2918 102.838 34.2226C102.997 34.2748 103.128 34.3864 103.206 34.5338C103.284 34.6813 103.302 34.8531 103.255 35.0132C103.209 35.1734 103.102 35.3093 102.958 35.3925C102.814 35.4758 102.643 35.4997 102.481 35.4595C98.7445 34.3804 96.4415 35.9136 96.1935 36.3549C96.1759 36.5137 96.0999 36.6604 95.9803 36.7663C95.8606 36.8723 95.7059 36.93 95.546 36.9282Z" fill="#FC8135"/>
<path d="M100.899 28.776C100.802 30.6345 100.922 33.9972 102.358 35.0214C101.514 36.1391 100.39 37.45 98.2547 37.8333C96.9663 38.062 96.525 37.5853 96.4703 36.983C96.4522 36.6925 96.5163 36.4027 96.6553 36.1469C96.7943 35.8911 97.0026 35.6797 97.2562 35.5368C98.6444 34.7316 98.3674 33.4367 97.8682 32.2128L100.899 28.776Z" fill="#FFC3BD"/>
<path d="M95.3496 51.706C95.277 51.7057 95.205 51.6926 95.137 51.6673C94.976 51.6104 94.8442 51.492 94.7705 51.338C94.6968 51.184 94.6873 51.007 94.744 50.846C94.8335 50.6206 94.8751 50.3791 94.8662 50.1368C94.8573 49.8945 94.7982 49.6566 94.6925 49.4384L94.6248 49.2548C94.5149 49.0385 94.369 48.8424 94.1932 48.675C93.8164 48.3728 93.5556 47.9495 93.4553 47.4769C93.3549 47.0043 93.421 46.5116 93.6425 46.0822C93.7217 45.8984 93.7686 45.7022 93.781 45.5024C93.7195 45.273 93.6204 45.0553 93.4878 44.8582C93.222 44.4781 93.065 44.0326 93.0337 43.5698C93.0701 43.0859 93.2457 42.6228 93.5394 42.2364C93.6501 42.0898 93.7371 41.9268 93.7971 41.7532C93.7994 41.574 93.7643 41.3963 93.694 41.2314C93.5391 40.8654 93.5009 40.4605 93.5845 40.0719C93.7152 39.6337 93.9841 39.2495 94.3511 38.9767C94.4547 38.8984 94.545 38.8037 94.6184 38.6965C94.6644 38.541 94.6644 38.3754 94.6184 38.2198C94.5204 37.8468 94.5725 37.4502 94.7634 37.115C94.9888 36.7607 94.9663 36.6705 94.9469 36.5965C94.9144 36.4835 94.9003 36.366 94.9051 36.2486C94.9051 36.0777 94.9729 35.9139 95.0938 35.7931C95.2146 35.6723 95.3784 35.6044 95.5493 35.6044C95.7201 35.6044 95.884 35.6723 96.0048 35.7931C96.1256 35.9139 96.1935 36.0777 96.1935 36.2486V36.2679C96.2836 36.6319 96.3094 37.0667 95.8714 37.7785C95.8767 37.8542 95.8863 37.9295 95.9004 38.004C95.9975 38.3583 95.9831 38.7338 95.8592 39.0796C95.7353 39.4254 95.5078 39.7246 95.2078 39.9366C95.0017 40.117 94.8857 40.2265 94.8407 40.3843C94.8341 40.5331 94.8639 40.6813 94.9276 40.8159C95.0645 41.1604 95.1185 41.5322 95.0854 41.9014C95.0141 42.2714 94.86 42.6205 94.6345 42.9224C94.4851 43.1108 94.3814 43.3313 94.3317 43.5666C94.3838 43.7921 94.4789 44.0054 94.612 44.1947C94.8435 44.5408 95.0004 44.9313 95.0726 45.3414C95.0905 45.7291 95.0234 46.116 94.8761 46.4751C94.7713 46.7042 94.7216 46.9546 94.7311 47.2063C94.8327 47.4297 94.9784 47.6302 95.1595 47.7957C95.4576 48.0871 95.6942 48.4355 95.8553 48.82L95.9132 48.9875C96.2303 49.7076 96.25 50.5237 95.968 51.2583C95.9261 51.3891 95.8435 51.5031 95.7322 51.5836C95.621 51.6641 95.4869 51.707 95.3496 51.706Z" fill="#FC8135"/>
<path d="M106.7 36.1294C107.051 36.4515 107.344 36.7221 107.64 37.0313C107.937 37.3405 108.227 37.6401 108.513 37.9493C109.087 38.5677 109.628 39.2183 110.149 39.8819C111.237 41.2571 112.147 42.7634 112.858 44.3654C113.038 44.7939 113.195 45.2315 113.329 45.6764C113.396 45.9018 113.454 46.137 113.509 46.3753L113.528 46.4623L113.557 46.6137C113.577 46.7135 113.586 46.8198 113.596 46.9358C113.611 47.1506 113.605 47.3664 113.577 47.5799C113.529 47.9649 113.412 48.3381 113.232 48.6815C113.081 48.9675 112.899 49.2355 112.688 49.4803C112.339 49.879 111.936 50.228 111.493 50.5175C110.735 51.0132 109.92 51.4135 109.064 51.7092C108.658 51.8574 108.249 51.983 107.837 52.0893C107.425 52.1956 107.025 52.2954 106.577 52.3695L105.998 50.5883C106.32 50.4079 106.664 50.2179 106.99 50.0247C107.315 49.8314 107.634 49.6285 107.956 49.4256C108.555 49.0471 109.119 48.616 109.641 48.1372C109.841 47.9443 110.017 47.728 110.166 47.493C110.278 47.3094 110.269 47.187 110.236 47.2256C110.234 47.2362 110.234 47.2472 110.236 47.2578L110.217 47.1999C110.169 47.0517 110.124 46.9003 110.059 46.7457C109.94 46.4314 109.803 46.1239 109.65 45.8245C109.327 45.1883 108.959 44.5759 108.549 43.9918C108.14 43.3863 107.689 42.7936 107.212 42.2138C106.735 41.6341 106.246 41.0639 105.727 40.5003C105.473 40.2201 105.212 39.9463 104.948 39.6757C104.684 39.4052 104.407 39.1217 104.171 38.8962L106.7 36.1294Z" fill="#FFC3BD"/>
<path d="M105.869 34.9087C107.325 35.1245 109.609 38.7739 109.609 38.7739L105.901 43.7438C105.901 43.7438 103.924 41.8595 103.347 40.2007C102.258 37.0184 103.009 34.49 105.869 34.9087Z" fill="#263238"/>
<path d="M103.927 47.4189C103.815 47.4176 103.705 47.3873 103.609 47.3308C103.512 47.2743 103.432 47.1937 103.376 47.0968C103.155 46.6637 103.059 46.1772 103.099 45.6924C103.116 45.4923 103.099 45.2908 103.048 45.0966C102.919 44.8965 102.756 44.7201 102.568 44.5748C102.197 44.2988 101.908 43.9269 101.733 43.499C101.614 43.0287 101.635 42.5336 101.795 42.0753C101.853 41.9008 101.885 41.7183 101.888 41.5342C101.807 41.3132 101.689 41.1074 101.54 40.9254C101.208 40.5844 101.014 40.1328 100.994 39.6574C100.975 39.1819 101.131 38.7159 101.434 38.3487C101.521 38.2175 101.592 38.0757 101.643 37.9267C101.626 37.6823 101.568 37.4425 101.469 37.2181C101.285 36.8382 101.222 36.411 101.289 35.9941C101.409 35.4012 101.708 34.8594 102.146 34.4416L102.188 34.3998C102.308 34.2856 102.467 34.2222 102.633 34.2227C102.799 34.2232 102.958 34.2876 103.078 34.4026C103.197 34.5175 103.268 34.6741 103.275 34.8398C103.282 35.0054 103.225 35.1674 103.115 35.292L103.041 35.3661C102.778 35.6199 102.601 35.95 102.535 36.3098C102.57 36.4714 102.619 36.6298 102.68 36.7833C102.849 37.1735 102.934 37.595 102.928 38.0201C102.878 38.3728 102.747 38.7091 102.545 39.0025C102.406 39.1927 102.314 39.4136 102.278 39.6467C102.354 39.846 102.463 40.0311 102.6 40.1943C102.86 40.5175 103.05 40.8917 103.157 41.2926C103.206 41.6663 103.17 42.0463 103.051 42.4038C102.969 42.6306 102.939 42.8727 102.964 43.1125C103.086 43.3099 103.245 43.4826 103.431 43.6214C103.758 43.8789 104.029 44.2013 104.226 44.5683C104.366 44.9303 104.423 45.3186 104.394 45.7053C104.37 45.9561 104.402 46.2091 104.487 46.4462C104.575 46.5927 104.6 46.7679 104.559 46.9334C104.517 47.0988 104.411 47.241 104.265 47.3287C104.163 47.3894 104.046 47.4206 103.927 47.4189Z" fill="#FC8135"/>
<path opacity="0.2" d="M99.6624 30.1771L97.8716 32.2096C98.0066 32.5218 98.1144 32.8451 98.1937 33.1759C98.9474 32.9536 99.8847 31.9583 99.8525 31.1402C99.8475 30.8104 99.7831 30.4842 99.6624 30.1771Z" fill="black"/>
<path d="M95.8972 23.4904C95.1016 24.8754 95.6105 26.8466 95.6105 26.8466C95.8239 26.9854 96.0706 27.0645 96.3249 27.0759C96.5791 27.0872 96.8318 27.0303 97.0567 26.911L96.8313 23.2392L95.8972 23.4904Z" fill="#263238"/>
<path d="M102.168 27.0077C101.559 29.4105 101.324 30.8471 99.862 31.8617C97.6621 33.3884 94.8727 31.7071 94.7536 29.1722C94.644 26.8885 95.6586 23.3455 98.2225 22.8301C98.7865 22.7133 99.371 22.7427 99.9204 22.9156C100.47 23.0884 100.966 23.399 101.361 23.8177C101.757 24.2364 102.039 24.7494 102.18 25.3077C102.321 25.8661 102.317 26.4513 102.168 27.0077Z" fill="#FFC3BD"/>
<path d="M95.153 29.8035H95.0661L89.6065 28.6472C89.3097 28.5844 89.0499 28.4062 88.8844 28.1519C88.7189 27.8976 88.6612 27.588 88.724 27.2911C88.7868 26.9943 88.9649 26.7345 89.2192 26.569C89.4735 26.4035 89.7832 26.3458 90.08 26.4086C90.134 26.4201 90.1852 26.4421 90.2307 26.4734C90.2762 26.5048 90.315 26.5448 90.3449 26.5912C90.3749 26.6376 90.3953 26.6895 90.4051 26.7438C90.415 26.7982 90.4139 26.8539 90.4021 26.9078C90.3782 27.0165 90.3123 27.1113 90.2188 27.1717C90.1253 27.232 90.0117 27.2529 89.9029 27.2299C89.8644 27.2206 89.8245 27.2195 89.7856 27.2268C89.7468 27.234 89.7099 27.2493 89.6774 27.2718C89.6447 27.293 89.6165 27.3203 89.5944 27.3524C89.5723 27.3845 89.5567 27.4206 89.5486 27.4586C89.5344 27.5364 89.5493 27.6166 89.5904 27.6841C89.635 27.7483 89.7014 27.7941 89.7772 27.8129L95.2368 28.9693C95.3382 28.9914 95.428 29.0501 95.4889 29.1342C95.5498 29.2184 95.5775 29.322 95.5667 29.4253C95.5559 29.5286 95.5074 29.6243 95.4305 29.6941C95.3536 29.7638 95.2536 29.8028 95.1498 29.8035H95.153Z" fill="#FC8135"/>
<path d="M95.13 29.9001L94.4697 29.7584L94.6791 28.7921L95.3233 28.9306C95.4535 28.9584 95.5674 29.0368 95.6399 29.1485C95.7123 29.2603 95.7375 29.3962 95.7098 29.5265C95.6777 29.6502 95.6003 29.7573 95.4929 29.8265C95.3854 29.8957 95.2559 29.922 95.13 29.9001Z" fill="white"/>
<path d="M100.677 25.6871C100.677 24.7723 99.9878 24.1056 97.6881 24.2827C95.8103 24.4245 94.8955 23.5484 95.4334 22.3276C96.9537 23.12 96.7025 22.0828 99.6013 21.9572C102.5 21.8316 103.341 22.9235 103.647 24.6209C105.422 27.2525 102.358 28.3444 102.358 28.3444L101.16 29.3912C100.912 29.4476 100.653 29.4364 100.411 29.3588C100.168 29.2812 99.951 29.14 99.7817 28.9499C99.7817 28.9499 99.5466 26.8144 100.677 25.6871Z" fill="#263238"/>
<path d="M97.5977 21.503L97.5236 21.5417C97.4547 21.5784 97.3967 21.6326 97.3554 21.6989C97.3141 21.7651 97.2909 21.8411 97.2883 21.9192C97.2857 21.9972 97.3037 22.0745 97.3405 22.1434C97.3773 22.2123 97.4316 22.2703 97.4979 22.3115L104.223 26.4698C104.286 26.5085 104.358 26.5309 104.433 26.5347C104.507 26.5386 104.581 26.5238 104.647 26.4918C104.714 26.4598 104.772 26.4115 104.816 26.3514C104.859 26.2913 104.887 26.2212 104.896 26.1477C104.928 25.9399 104.898 25.7276 104.809 25.5369C104.721 25.3462 104.579 25.1856 104.4 25.0751L98.6671 21.532C98.5069 21.4343 98.3239 21.3803 98.1363 21.3752C97.9487 21.3701 97.763 21.4142 97.5977 21.503Z" fill="#FC8135"/>
<path d="M98.8086 21.9476L100.529 19.4288C100.578 19.357 100.652 19.3067 100.737 19.2881C100.822 19.2696 100.911 19.2842 100.986 19.3289L105.734 22.173C105.775 22.1973 105.811 22.2302 105.839 22.2695C105.867 22.3087 105.886 22.3535 105.895 22.4008C105.904 22.448 105.903 22.4967 105.892 22.5435C105.881 22.5903 105.86 22.6342 105.83 22.6723L103.772 25.3908L98.8086 21.9476Z" fill="#FC8135"/>
<path d="M98.8086 21.9475L99.4947 20.7204L104.796 24.2248L103.772 25.3907L98.8086 21.9475Z" fill="#FC8135"/>
<path opacity="0.6" d="M98.8086 21.9475L99.4947 20.7204L104.796 24.2248L103.772 25.3907L98.8086 21.9475Z" fill="white"/>
<path d="M102.474 29.9548C102.003 30.2763 101.425 30.4011 100.864 30.3027C100.132 30.161 100.132 29.4202 100.638 28.8951C101.092 28.4217 102.023 27.9289 102.609 28.3379C103.196 28.747 103.057 29.5522 102.474 29.9548Z" fill="#FFC3BD"/>
<path d="M101.041 109.451H105.267C105.267 109.451 104.603 94.4224 103.692 86.6985C103.415 84.3472 103.714 81.1263 103.743 77.5284C103.782 72.9966 103.991 68.0588 104.197 64.184C104.416 60.1031 104.6 57.1623 104.6 57.1623L95.9548 58.396C95.9548 58.396 95.098 79.7928 96.4412 87.2912C97.8391 95.0794 101.041 109.451 101.041 109.451Z" fill="#FC8135"/>
<path opacity="0.2" d="M103.743 77.5188C103.782 72.9869 103.991 68.0491 104.197 64.1743L102.909 62.4511C101.318 65.4305 102.423 73.3637 103.743 77.5188Z" fill="black"/>
<path d="M100.075 57.7968C100.075 57.7968 105.444 79.0004 107.995 85.8578C110.788 93.3626 121.072 102.137 121.072 102.137L123.671 99.2763C123.671 99.2763 118.231 90.7955 114.221 82.6368C112.305 72.0431 109.174 56.4955 109.174 56.4955L100.075 57.7968Z" fill="#FC8135"/>
<path d="M120.724 102.568L124.798 99.0476L123.745 97.8333L119.123 101.689L120.724 102.568Z" fill="#263238"/>
<path d="M100.509 109.548L105.547 109.542L105.544 107.915L99.9165 107.838L100.509 109.548Z" fill="#263238"/>
<path d="M98.4577 26.5374C98.2966 26.4891 98.1066 26.6437 98.0293 26.8853L98.6026 27.0689C98.6799 26.8273 98.6155 26.589 98.4577 26.5374Z" fill="#263238"/>
<path d="M95.9451 26.0639C95.7809 26.0639 95.623 26.2507 95.623 26.5052L96.2222 26.5439C96.2318 26.2894 96.1126 26.0897 95.9451 26.0639Z" fill="#263238"/>
<path d="M96.8117 26.7983C96.4609 27.3584 96.035 27.8677 95.5459 28.3122C95.6635 28.4341 95.8062 28.529 95.9642 28.5902C96.1222 28.6514 96.2916 28.6774 96.4606 28.6665L96.8117 26.7983Z" fill="#ED847E"/>
<path d="M99.2759 26.2797C99.296 26.2845 99.317 26.2845 99.3371 26.2797C99.3669 26.2701 99.3916 26.2492 99.4061 26.2215C99.4205 26.1937 99.4235 26.1615 99.4144 26.1316C99.3643 25.9508 99.2714 25.7847 99.1436 25.6473C99.0158 25.51 98.8568 25.4054 98.68 25.3424C98.6653 25.3375 98.6496 25.3358 98.6341 25.3372C98.6186 25.3387 98.6035 25.3434 98.5899 25.3509C98.5763 25.3585 98.5644 25.3688 98.555 25.3812C98.5455 25.3936 98.5388 25.4078 98.5351 25.4229C98.5307 25.4378 98.5293 25.4533 98.531 25.4686C98.5326 25.484 98.5374 25.4989 98.5449 25.5124C98.5524 25.5259 98.5625 25.5377 98.5746 25.5473C98.5868 25.5568 98.6007 25.5638 98.6156 25.5679C98.7556 25.6218 98.8807 25.7083 98.9805 25.8204C99.0802 25.9325 99.1517 26.0668 99.189 26.2121C99.1974 26.2292 99.2096 26.2442 99.2246 26.2559C99.2397 26.2677 99.2572 26.2758 99.2759 26.2797Z" fill="#263238"/>
<path d="M95.201 25.7257C95.2203 25.729 95.2401 25.7275 95.2586 25.7213C95.2772 25.7151 95.2939 25.7045 95.3073 25.6903C95.4044 25.5785 95.5264 25.491 95.6635 25.4351C95.8006 25.3791 95.9489 25.3562 96.0965 25.3682C96.1276 25.3728 96.1594 25.3649 96.1847 25.3462C96.2101 25.3275 96.227 25.2995 96.2318 25.2684C96.2364 25.238 96.2288 25.2071 96.2107 25.1824C96.1926 25.1576 96.1654 25.1411 96.1351 25.1363C95.9484 25.1178 95.7599 25.1445 95.5856 25.214C95.4113 25.2835 95.2562 25.3938 95.1334 25.5357C95.1221 25.5465 95.1131 25.5595 95.107 25.5739C95.1008 25.5883 95.0977 25.6038 95.0977 25.6194C95.0977 25.6351 95.1008 25.6506 95.107 25.665C95.1131 25.6794 95.1221 25.6924 95.1334 25.7032C95.1535 25.7168 95.1769 25.7246 95.201 25.7257Z" fill="#263238"/>
<path d="M123.674 104.546C123.838 104.396 123.985 104.229 124.113 104.047C124.119 104.037 124.122 104.026 124.122 104.014C124.122 104.003 124.119 103.992 124.113 103.982C124.108 103.971 124.099 103.963 124.089 103.957C124.078 103.952 124.066 103.951 124.055 103.953C123.951 103.953 123.033 104.105 122.914 104.398C122.901 104.43 122.897 104.465 122.901 104.499C122.906 104.534 122.919 104.566 122.94 104.594C122.971 104.644 123.013 104.685 123.064 104.714C123.115 104.742 123.172 104.758 123.23 104.758C123.398 104.741 123.555 104.666 123.674 104.546ZM123.932 104.095C123.665 104.44 123.407 104.639 123.233 104.639C123.194 104.638 123.155 104.627 123.121 104.607C123.087 104.586 123.059 104.558 123.04 104.523C123.032 104.512 123.028 104.498 123.028 104.485C123.028 104.471 123.032 104.457 123.04 104.446C123.085 104.295 123.565 104.159 123.932 104.095Z" fill="#FC8135"/>
<path d="M124.103 104.059C124.111 104.051 124.118 104.041 124.122 104.03C124.127 104.021 124.129 104.01 124.129 104C124.129 103.989 124.127 103.979 124.122 103.969C124.1 103.947 123.607 103.422 123.24 103.425C123.195 103.425 123.15 103.435 123.109 103.453C123.068 103.471 123.031 103.498 123.001 103.531C122.967 103.561 122.944 103.601 122.936 103.646C122.928 103.69 122.935 103.736 122.956 103.776C123.088 104.027 123.807 104.13 124.09 104.072L124.103 104.059ZM123.091 103.596C123.129 103.563 123.177 103.546 123.227 103.547C123.462 103.547 123.784 103.821 123.939 103.966C123.616 103.982 123.124 103.866 123.043 103.718C123.043 103.702 123.021 103.67 123.072 103.615L123.091 103.596Z" fill="#FC8135"/>
<path d="M102.075 112.882C102.085 112.878 102.094 112.872 102.101 112.863C102.108 112.855 102.112 112.844 102.113 112.833C102.116 112.821 102.115 112.809 102.109 112.798C102.104 112.787 102.095 112.778 102.084 112.772C101.968 112.714 100.967 112.205 100.664 112.376C100.635 112.391 100.61 112.414 100.593 112.441C100.575 112.469 100.565 112.501 100.564 112.534C100.557 112.587 100.564 112.641 100.584 112.691C100.604 112.742 100.635 112.786 100.677 112.82C100.951 113.062 101.666 112.962 102.068 112.882H102.075ZM100.741 112.469C100.931 112.405 101.476 112.611 101.872 112.791C101.321 112.885 100.905 112.862 100.754 112.724C100.727 112.701 100.706 112.671 100.694 112.638C100.682 112.605 100.678 112.569 100.683 112.534C100.683 112.521 100.687 112.508 100.694 112.498C100.7 112.487 100.71 112.478 100.722 112.473L100.741 112.469Z" fill="#FC8135"/>
<path d="M102.075 112.882H102.091C102.099 112.875 102.106 112.867 102.11 112.857C102.115 112.848 102.117 112.837 102.117 112.827C102.117 112.801 102.043 112.128 101.727 111.861C101.683 111.823 101.632 111.795 101.576 111.778C101.521 111.76 101.463 111.755 101.405 111.761C101.241 111.761 101.196 111.861 101.186 111.925C101.141 112.208 101.737 112.746 102.04 112.891C102.052 112.892 102.064 112.888 102.075 112.882ZM101.35 111.886H101.411C101.454 111.881 101.498 111.886 101.539 111.899C101.58 111.913 101.618 111.934 101.65 111.964C101.834 112.18 101.946 112.448 101.972 112.73C101.666 112.547 101.257 112.125 101.286 111.954C101.292 111.931 101.292 111.902 101.35 111.886Z" fill="#FC8135"/>
<path d="M106.301 50.4208L103.898 51.181L105.763 53.0362C105.763 53.0362 107.94 52.0925 107.257 51.1326L106.301 50.4208Z" fill="#FFC3BD"/>
<path d="M102.909 53.3003L104.62 54.3375L105.763 53.0362L103.898 51.181L102.909 53.3003Z" fill="#FFC3BD"/>
</svg>
