<svg width="32" height="33" viewBox="0 0 32 33" fill="none" xmlns="http://www.w3.org/2000/svg">
<g clip-path="url(#clip0_3410_2769)">
<path d="M30.649 22.1926C31.4571 21.8797 32 21.0833 32 20.2108V16.1742C32 14.9778 31.0266 14.0044 29.8302 14.0044H29.6086C30.2654 13.154 30.2048 11.9245 29.4253 11.1449L26.571 8.2906C25.9541 7.67375 25.0071 7.49449 24.2144 7.84461C23.7886 8.03272 23.2813 7.93778 22.9521 7.60856C22.6229 7.27927 22.5279 6.77198 22.7159 6.34625C23.0661 5.55359 22.8869 4.60652 22.2699 3.98961L19.4157 1.13527C18.5697 0.289404 17.1931 0.289279 16.347 1.13527L3.47802 14.0044H2.16985C0.973365 14.0044 0 14.9778 0 16.1742V20.2108C0 21.0833 0.542933 21.8797 1.35103 22.1925C1.78504 22.3606 2.07667 22.7864 2.07667 23.252C2.07667 23.7177 1.78504 24.1435 1.35103 24.3116C0.542933 24.6246 0 25.421 0 26.2934V30.3299C0 31.5264 0.973365 32.4998 2.16985 32.4998H29.8302C31.0266 32.4998 32 31.5264 32 30.3299V26.2934C32 25.421 31.4571 24.6246 30.649 24.3116C30.215 24.1435 29.9233 23.7177 29.9233 23.252C29.9233 22.7864 30.215 22.3606 30.649 22.1926ZM17.6781 2.46641C17.7902 2.35428 17.9726 2.35428 18.0846 2.46635L20.9389 5.32068C21.0104 5.39215 21.0325 5.49863 20.994 5.58578C20.4944 6.71714 20.7464 8.06497 21.621 8.93957C22.4957 9.81424 23.8435 10.0662 24.9749 9.56652C25.062 9.52812 25.1685 9.55021 25.24 9.62167L28.0942 12.4759C28.2064 12.5881 28.2064 12.7705 28.0943 12.8825L26.9724 14.0044H22.0681L14.1041 6.04031L17.6781 2.46641ZM12.7731 7.37132L19.4062 14.0044H6.13999L12.7731 7.37132ZM1.88235 30.3299V26.2934C1.88235 26.1923 1.94202 26.1013 2.03081 26.0669C3.18413 25.6202 3.95897 24.4891 3.95897 23.252C3.95897 22.015 3.18406 20.8839 2.03068 20.4372C1.94196 20.4029 1.88235 20.3119 1.88235 20.2108V16.1742C1.88235 16.0157 2.01136 15.8867 2.16985 15.8867H23.5294V30.6174H2.16985C2.01136 30.6174 1.88235 30.4885 1.88235 30.3299ZM30.1176 20.2108C30.1176 20.3119 30.058 20.4028 29.9693 20.4372C28.8159 20.8839 28.041 22.0151 28.041 23.2521C28.041 24.4891 28.8159 25.6203 29.9692 26.0669C30.058 26.1013 30.1176 26.1923 30.1176 26.2934V30.3299C30.1176 30.4884 29.9886 30.6174 29.8302 30.6174H25.4118V15.8867H29.8302C29.9886 15.8867 30.1176 16.0157 30.1176 16.1742V20.2108Z" fill="#FC8135"/>
<path d="M6.58813 18.3818H20.7058V20.2641H6.58813V18.3818Z" fill="#FC8135"/>
<path d="M6.58813 22.1465H20.7058V24.0288H6.58813V22.1465Z" fill="#FC8135"/>
<path d="M6.58813 25.9112H20.7058V27.7935H6.58813V25.9112Z" fill="#FC8135"/>
</g>
<defs>
<clipPath id="clip0_3410_2769">
<rect width="32" height="32" fill="white" transform="translate(0 0.5)"/>
</clipPath>
</defs>
</svg>
