<svg width="32" height="33" viewBox="0 0 32 33" fill="none" xmlns="http://www.w3.org/2000/svg">
<g clip-path="url(#clip0_3410_2779)">
<path d="M30.649 22.1926C31.4571 21.8797 32 21.0833 32 20.2108V16.1742C32 14.9778 31.0266 14.0043 29.8302 14.0043H29.6086C30.2654 13.154 30.2048 11.9244 29.4253 11.1449L26.571 8.29057C25.9541 7.67372 25.0071 7.49446 24.2144 7.84458C23.7886 8.03269 23.2813 7.93775 22.9521 7.60853C22.6229 7.27924 22.5279 6.77195 22.7159 6.34622C23.0661 5.55356 22.8869 4.60649 22.2699 3.98958L19.4157 1.13524C18.5697 0.289374 17.1931 0.289248 16.347 1.13524L3.47802 14.0043H2.16985C0.973365 14.0043 0 14.9778 0 16.1742V20.2108C0 21.0833 0.542933 21.8797 1.35103 22.1925C1.78504 22.3606 2.07667 22.7864 2.07667 23.252C2.07667 23.7176 1.78504 24.1435 1.35103 24.3115C0.542933 24.6246 0 25.421 0 26.2933V30.3299C0 31.5263 0.973365 32.4998 2.16985 32.4998H29.8302C31.0266 32.4998 32 31.5263 32 30.3299V26.2933C32 25.421 31.4571 24.6246 30.649 24.3115C30.215 24.1434 29.9233 23.7176 29.9233 23.252C29.9233 22.7864 30.215 22.3606 30.649 22.1926ZM17.6781 2.46638C17.7902 2.35425 17.9726 2.35425 18.0846 2.46632L20.9389 5.32065C21.0104 5.39212 21.0325 5.4986 20.994 5.58575C20.4944 6.71711 20.7464 8.06494 21.621 8.93954C22.4957 9.81421 23.8435 10.0661 24.9749 9.56649C25.062 9.52809 25.1685 9.55017 25.24 9.62164L28.0942 12.4759C28.2064 12.588 28.2064 12.7705 28.0943 12.8825L26.9724 14.0043H22.0681L14.1041 6.04028L17.6781 2.46638ZM12.7731 7.37129L19.4062 14.0043H6.13999L12.7731 7.37129ZM1.88235 30.3299V26.2933C1.88235 26.1922 1.94202 26.1013 2.03081 26.0669C3.18413 25.6202 3.95897 24.489 3.95897 23.252C3.95897 22.015 3.18406 20.8838 2.03068 20.4371C1.94196 20.4028 1.88235 20.3118 1.88235 20.2108V16.1742C1.88235 16.0157 2.01136 15.8867 2.16985 15.8867H23.5294V30.6174H2.16985C2.01136 30.6174 1.88235 30.4885 1.88235 30.3299ZM30.1176 20.2108C30.1176 20.3118 30.058 20.4028 29.9693 20.4372C28.8159 20.8839 28.041 22.0151 28.041 23.2521C28.041 24.4891 28.8159 25.6203 29.9692 26.0669C30.058 26.1013 30.1176 26.1923 30.1176 26.2933V30.3299C30.1176 30.4884 29.9886 30.6174 29.8302 30.6174H25.4118V15.8867H29.8302C29.9886 15.8867 30.1176 16.0157 30.1176 16.1742V20.2108Z" fill="#FC8135"/>
<path d="M6.58838 18.3818H20.706V20.2641H6.58838V18.3818Z" fill="#FC8135"/>
<path d="M6.58838 22.1465H20.706V24.0288H6.58838V22.1465Z" fill="#FC8135"/>
<path d="M6.58838 25.9112H20.706V27.7935H6.58838V25.9112Z" fill="#FC8135"/>
</g>
<defs>
<clipPath id="clip0_3410_2779">
<rect width="32" height="32" fill="white" transform="translate(0 0.5)"/>
</clipPath>
</defs>
</svg>
