<svg width="32" height="32" viewBox="0 0 32 32" fill="none" xmlns="http://www.w3.org/2000/svg">
<g clip-path="url(#clip0_4071_3054)">
<path d="M30.649 21.6926C31.4571 21.3797 32 20.5833 32 19.7108V15.6742C32 14.4778 31.0266 13.5043 29.8302 13.5043H29.6086C30.2654 12.654 30.2048 11.4244 29.4253 10.6449L26.571 7.79057C25.9541 7.17372 25.0071 6.99446 24.2144 7.34458C23.7886 7.53269 23.2813 7.43775 22.9521 7.10853C22.6229 6.77924 22.5279 6.27195 22.7159 5.84622C23.0661 5.05356 22.8869 4.10649 22.2699 3.48958L19.4157 0.635241C18.5697 -0.210626 17.1931 -0.210752 16.347 0.635241L3.47802 13.5043H2.16985C0.973365 13.5043 0 14.4778 0 15.6742V19.7108C0 20.5833 0.542933 21.3797 1.35103 21.6925C1.78504 21.8606 2.07667 22.2864 2.07667 22.752C2.07667 23.2176 1.78504 23.6435 1.35103 23.8115C0.542933 24.1246 0 24.921 0 25.7933V29.8299C0 31.0263 0.973365 31.9998 2.16985 31.9998H29.8302C31.0266 31.9998 32 31.0263 32 29.8299V25.7933C32 24.921 31.4571 24.1246 30.649 23.8115C30.215 23.6434 29.9233 23.2176 29.9233 22.752C29.9233 22.2864 30.215 21.8606 30.649 21.6926ZM17.6781 1.96638C17.7902 1.85425 17.9726 1.85425 18.0846 1.96632L20.9389 4.82065C21.0104 4.89212 21.0325 4.9986 20.994 5.08575C20.4944 6.21711 20.7464 7.56494 21.621 8.43954C22.4957 9.31421 23.8435 9.56613 24.9749 9.06649C25.062 9.02809 25.1685 9.05017 25.24 9.12164L28.0942 11.9759C28.2064 12.088 28.2064 12.2705 28.0943 12.3825L26.9724 13.5043H22.0681L14.1041 5.54028L17.6781 1.96638ZM12.7731 6.87129L19.4062 13.5043H6.13999L12.7731 6.87129ZM1.88235 29.8299V25.7933C1.88235 25.6922 1.94202 25.6013 2.03081 25.5669C3.18413 25.1202 3.95897 23.989 3.95897 22.752C3.95897 21.515 3.18406 20.3838 2.03068 19.9371C1.94196 19.9028 1.88235 19.8118 1.88235 19.7108V15.6742C1.88235 15.5157 2.01136 15.3867 2.16985 15.3867H23.5294V30.1174H2.16985C2.01136 30.1174 1.88235 29.9885 1.88235 29.8299ZM30.1176 19.7108C30.1176 19.8118 30.058 19.9028 29.9693 19.9372C28.8159 20.3839 28.041 21.5151 28.041 22.7521C28.041 23.9891 28.8159 25.1203 29.9692 25.5669C30.058 25.6013 30.1176 25.6923 30.1176 25.7933V29.8299C30.1176 29.9884 29.9886 30.1174 29.8302 30.1174H25.4118V15.3867H29.8302C29.9886 15.3867 30.1176 15.5157 30.1176 15.6742V19.7108Z" fill="#FFBB00"/>
<path d="M6.58838 17.8818H20.706V19.7641H6.58838V17.8818Z" fill="#FFBB00"/>
<path d="M6.58838 21.6465H20.706V23.5288H6.58838V21.6465Z" fill="#FFBB00"/>
<path d="M6.58838 25.4112H20.706V27.2935H6.58838V25.4112Z" fill="#FFBB00"/>
</g>
<defs>
<clipPath id="clip0_4071_3054">
<rect width="32" height="32" fill="white"/>
</clipPath>
</defs>
</svg>
