<svg width="20" height="21" viewBox="0 0 20 21" fill="none" xmlns="http://www.w3.org/2000/svg">
<mask id="mask0_3367_802" style="mask-type:luminance" maskUnits="userSpaceOnUse" x="0" y="0" width="20" height="21">
<path d="M20 0.700195H0V20.7002H20V0.700195Z" fill="white"/>
</mask>
<g mask="url(#mask0_3367_802)">
<path d="M19.6 10.9273C19.6 10.2182 19.5364 9.53644 19.4182 8.88184H10V12.75H15.3818C15.15 14 14.4455 15.0591 13.3864 15.7682V18.2773H16.6182C18.5091 16.5364 19.6 13.9727 19.6 10.9273Z" fill="#4285F4"/>
<path d="M9.99988 20.7006C12.6999 20.7006 14.9635 19.8051 16.618 18.2779L13.3862 15.7688C12.4908 16.3688 11.3453 16.7233 9.99988 16.7233C7.39528 16.7233 5.19078 14.9642 4.40438 12.6006H1.06348V15.1915C2.70898 18.4597 6.09078 20.7006 9.99988 20.7006Z" fill="#34A853"/>
<path d="M4.4045 12.5999C4.2045 11.9999 4.0909 11.359 4.0909 10.6999C4.0909 10.0408 4.2045 9.39988 4.4045 8.79988V6.20898H1.0636C0.3864 7.55898 0 9.08628 0 10.6999C0 12.3135 0.3864 13.8408 1.0636 15.1908L4.4045 12.5999Z" fill="#FBBC04"/>
<path d="M9.99988 4.6775C11.468 4.6775 12.7862 5.182 13.8226 6.1729L16.6908 3.3047C14.959 1.6911 12.6953 0.700195 9.99988 0.700195C6.09078 0.700195 2.70898 2.9411 1.06348 6.2093L4.40438 8.8002C5.19078 6.4366 7.39528 4.6775 9.99988 4.6775Z" fill="#E94235"/>
</g>
</svg>
